%TF.GenerationSoftware,KiCad,Pcbnew,10.0.2*%
%TF.CreationDate,2026-06-24T22:45:05+05:45*%
%TF.ProjectId,Controller_Board,436f6e74-726f-46c6-9c65-725f426f6172,rev?*%
%TF.SameCoordinates,Original*%
%TF.FileFunction,Soldermask,Top*%
%TF.FilePolarity,Negative*%
%FSLAX46Y46*%
G04 Gerber Fmt 4.6, Leading zero omitted, Abs format (unit mm)*
G04 Created by KiCad (PCBNEW 10.0.2) date 2026-06-24 22:45:05*
%MOMM*%
%LPD*%
G01*
G04 APERTURE LIST*
G04 Aperture macros list*
%AMRoundRect*
0 Rectangle with rounded corners*
0 $1 Rounding radius*
0 $2 $3 $4 $5 $6 $7 $8 $9 X,Y pos of 4 corners*
0 Add a 4 corners polygon primitive as box body*
4,1,4,$2,$3,$4,$5,$6,$7,$8,$9,$2,$3,0*
0 Add four circle primitives for the rounded corners*
1,1,$1+$1,$2,$3*
1,1,$1+$1,$4,$5*
1,1,$1+$1,$6,$7*
1,1,$1+$1,$8,$9*
0 Add four rect primitives between the rounded corners*
20,1,$1+$1,$2,$3,$4,$5,0*
20,1,$1+$1,$4,$5,$6,$7,0*
20,1,$1+$1,$6,$7,$8,$9,0*
20,1,$1+$1,$8,$9,$2,$3,0*%
G04 Aperture macros list end*
%ADD10RoundRect,0.102000X-1.000000X-1.000000X1.000000X-1.000000X1.000000X1.000000X-1.000000X1.000000X0*%
%ADD11C,2.204000*%
%ADD12C,1.600000*%
%ADD13C,1.800000*%
%ADD14R,2.540000X2.540000*%
%ADD15C,2.540000*%
%ADD16RoundRect,0.250000X0.600000X0.725000X-0.600000X0.725000X-0.600000X-0.725000X0.600000X-0.725000X0*%
%ADD17O,1.700000X1.950000*%
%ADD18C,1.400000*%
%ADD19RoundRect,0.250000X-0.750000X0.750000X-0.750000X-0.750000X0.750000X-0.750000X0.750000X0.750000X0*%
%ADD20C,2.000000*%
%ADD21RoundRect,0.250000X1.350000X1.350000X-1.350000X1.350000X-1.350000X-1.350000X1.350000X-1.350000X0*%
%ADD22C,3.200000*%
%ADD23RoundRect,0.250000X-0.600000X-0.750000X0.600000X-0.750000X0.600000X0.750000X-0.600000X0.750000X0*%
%ADD24O,1.700000X2.000000*%
%ADD25RoundRect,1.500000X-1.500000X1.500000X-1.500000X-1.500000X1.500000X-1.500000X1.500000X1.500000X0*%
%ADD26C,6.000000*%
%ADD27R,1.600000X1.600000*%
%ADD28O,1.600000X1.600000*%
G04 APERTURE END LIST*
D10*
%TO.C,U1*%
X6930000Y-3600000D03*
D11*
X6930000Y-6140000D03*
X6930000Y-8680000D03*
X6930000Y-11220000D03*
X6930000Y-13760000D03*
X6930000Y-16300000D03*
X6930000Y-18840000D03*
X6930000Y-21380000D03*
X6930000Y-23920000D03*
X6930000Y-26460000D03*
X6930000Y-29000000D03*
X6930000Y-31540000D03*
X6930000Y-34080000D03*
X6930000Y-36620000D03*
X6930000Y-39160000D03*
X32330000Y-39160000D03*
X32330000Y-36620000D03*
X32330000Y-34080000D03*
X32330000Y-31540000D03*
X32330000Y-29000000D03*
X32330000Y-26460000D03*
X32330000Y-23920000D03*
X32330000Y-21380000D03*
X32330000Y-18840000D03*
X32330000Y-16300000D03*
X32330000Y-13760000D03*
X32330000Y-11220000D03*
X32330000Y-8680000D03*
X32330000Y-6140000D03*
X32330000Y-3600000D03*
%TD*%
D12*
%TO.C,U2*%
X3460000Y-50050000D03*
X3460000Y-47510000D03*
X3460000Y-44970000D03*
X3460000Y-42430000D03*
X3460000Y-39890000D03*
X3460000Y-37350000D03*
X3460000Y-34810000D03*
X3460000Y-32270000D03*
%TD*%
D13*
%TO.C,U3*%
X3330000Y-5680000D03*
X3330000Y-8220000D03*
X3330000Y-10760000D03*
X3330000Y-13300000D03*
X3330000Y-15840000D03*
X3330000Y-18380000D03*
X3330000Y-20920000D03*
X3330000Y-23460000D03*
X3330000Y-26000000D03*
X3330000Y-28540000D03*
%TD*%
D14*
%TO.C,U4*%
X95000000Y-62780000D03*
D15*
X95000000Y-45000000D03*
X54360000Y-45000000D03*
X54360000Y-62780000D03*
%TD*%
D16*
%TO.C,STEP_1*%
X46948400Y-49635500D03*
D17*
X44448400Y-49635500D03*
X41948400Y-49635500D03*
X39448400Y-49635500D03*
%TD*%
D14*
%TO.C,U5*%
X94250000Y-22030000D03*
D15*
X94250000Y-4250000D03*
X53610000Y-4250000D03*
X53610000Y-22030000D03*
%TD*%
D18*
%TO.C,R3*%
X16680000Y-46060000D03*
X16680000Y-51140000D03*
%TD*%
D19*
%TO.C,C2*%
X57180000Y-27772300D03*
D20*
X57180000Y-32772300D03*
%TD*%
D16*
%TO.C,RGB1*%
X46948400Y-62235500D03*
D17*
X44448400Y-62235500D03*
X41948400Y-62235500D03*
X39448400Y-62235500D03*
%TD*%
D21*
%TO.C,D1*%
X72300000Y-39390000D03*
D22*
X57060000Y-39390000D03*
%TD*%
D16*
%TO.C,SER_1*%
X46948400Y-55835500D03*
D17*
X44448400Y-55835500D03*
X41948400Y-55835500D03*
X39448400Y-55835500D03*
%TD*%
D18*
%TO.C,R2*%
X14430000Y-46060000D03*
X14430000Y-51140000D03*
%TD*%
D23*
%TO.C,J2*%
X78680000Y-39140000D03*
D24*
X81180000Y-39140000D03*
%TD*%
D16*
%TO.C,STEP_2*%
X32900000Y-49700000D03*
D17*
X30400000Y-49700000D03*
X27900000Y-49700000D03*
X25400000Y-49700000D03*
%TD*%
D18*
%TO.C,R1*%
X12180000Y-46100000D03*
X12180000Y-51180000D03*
%TD*%
D25*
%TO.C,J1*%
X92430000Y-29790000D03*
D26*
X92430000Y-36990000D03*
%TD*%
D19*
%TO.C,C1*%
X68430000Y-27772300D03*
D20*
X68430000Y-32772300D03*
%TD*%
D27*
%TO.C,A2*%
X48880000Y-43280000D03*
D28*
X48880000Y-40740000D03*
X48880000Y-38200000D03*
X48880000Y-35660000D03*
X48880000Y-33120000D03*
X48880000Y-30580000D03*
X48880000Y-28040000D03*
X48880000Y-25500000D03*
X36180000Y-25500000D03*
X36180000Y-28040000D03*
X36180000Y-30580000D03*
X36180000Y-33120000D03*
X36180000Y-35660000D03*
X36180000Y-38200000D03*
X36180000Y-40740000D03*
X36180000Y-43280000D03*
%TD*%
D16*
%TO.C,SER_2*%
X32900000Y-55900000D03*
D17*
X30400000Y-55900000D03*
X27900000Y-55900000D03*
X25400000Y-55900000D03*
%TD*%
D27*
%TO.C,A1*%
X48880000Y-21340000D03*
D28*
X48880000Y-18800000D03*
X48880000Y-16260000D03*
X48880000Y-13720000D03*
X48880000Y-11180000D03*
X48880000Y-8640000D03*
X48880000Y-6100000D03*
X48880000Y-3560000D03*
X36180000Y-3560000D03*
X36180000Y-6100000D03*
X36180000Y-8640000D03*
X36180000Y-11180000D03*
X36180000Y-13720000D03*
X36180000Y-16260000D03*
X36180000Y-18800000D03*
X36180000Y-21340000D03*
%TD*%
D19*
%TO.C,C3*%
X79680000Y-27890000D03*
D20*
X79680000Y-32890000D03*
%TD*%
D16*
%TO.C,RGB2*%
X32900000Y-62200000D03*
D17*
X30400000Y-62200000D03*
X27900000Y-62200000D03*
X25400000Y-62200000D03*
%TD*%
D16*
%TO.C,UltraSonic1*%
X18900000Y-55900000D03*
D17*
X16400000Y-55900000D03*
X13900000Y-55900000D03*
X11400000Y-55900000D03*
%TD*%
M02*
