%TF.GenerationSoftware,KiCad,Pcbnew,10.0.2*%
%TF.CreationDate,2026-06-24T22:45:05+05:45*%
%TF.ProjectId,Controller_Board,436f6e74-726f-46c6-9c65-725f426f6172,rev?*%
%TF.SameCoordinates,Original*%
%TF.FileFunction,Copper,L2,Bot*%
%TF.FilePolarity,Positive*%
%FSLAX46Y46*%
G04 Gerber Fmt 4.6, Leading zero omitted, Abs format (unit mm)*
G04 Created by KiCad (PCBNEW 10.0.2) date 2026-06-24 22:45:05*
%MOMM*%
%LPD*%
G01*
G04 APERTURE LIST*
G04 Aperture macros list*
%AMRoundRect*
0 Rectangle with rounded corners*
0 $1 Rounding radius*
0 $2 $3 $4 $5 $6 $7 $8 $9 X,Y pos of 4 corners*
0 Add a 4 corners polygon primitive as box body*
4,1,4,$2,$3,$4,$5,$6,$7,$8,$9,$2,$3,0*
0 Add four circle primitives for the rounded corners*
1,1,$1+$1,$2,$3*
1,1,$1+$1,$4,$5*
1,1,$1+$1,$6,$7*
1,1,$1+$1,$8,$9*
0 Add four rect primitives between the rounded corners*
20,1,$1+$1,$2,$3,$4,$5,0*
20,1,$1+$1,$4,$5,$6,$7,0*
20,1,$1+$1,$6,$7,$8,$9,0*
20,1,$1+$1,$8,$9,$2,$3,0*%
G04 Aperture macros list end*
%TA.AperFunction,SMDPad,CuDef*%
%ADD10C,3.000000*%
%TD*%
%TA.AperFunction,ComponentPad*%
%ADD11R,2.000000X2.000000*%
%TD*%
%TA.AperFunction,ComponentPad*%
%ADD12C,2.000000*%
%TD*%
%TA.AperFunction,ComponentPad*%
%ADD13C,1.600000*%
%TD*%
%TA.AperFunction,ComponentPad*%
%ADD14C,1.800000*%
%TD*%
%TA.AperFunction,ComponentPad*%
%ADD15R,2.540000X2.540000*%
%TD*%
%TA.AperFunction,ComponentPad*%
%ADD16C,2.540000*%
%TD*%
%TA.AperFunction,ComponentPad*%
%ADD17RoundRect,0.250000X0.600000X0.725000X-0.600000X0.725000X-0.600000X-0.725000X0.600000X-0.725000X0*%
%TD*%
%TA.AperFunction,ComponentPad*%
%ADD18O,1.700000X1.950000*%
%TD*%
%TA.AperFunction,ComponentPad*%
%ADD19C,1.400000*%
%TD*%
%TA.AperFunction,ComponentPad*%
%ADD20RoundRect,0.250000X-0.750000X0.750000X-0.750000X-0.750000X0.750000X-0.750000X0.750000X0.750000X0*%
%TD*%
%TA.AperFunction,ComponentPad*%
%ADD21RoundRect,0.250000X1.350000X1.350000X-1.350000X1.350000X-1.350000X-1.350000X1.350000X-1.350000X0*%
%TD*%
%TA.AperFunction,ComponentPad*%
%ADD22C,3.200000*%
%TD*%
%TA.AperFunction,ComponentPad*%
%ADD23RoundRect,0.250000X-0.600000X-0.750000X0.600000X-0.750000X0.600000X0.750000X-0.600000X0.750000X0*%
%TD*%
%TA.AperFunction,ComponentPad*%
%ADD24O,1.700000X2.000000*%
%TD*%
%TA.AperFunction,ComponentPad*%
%ADD25RoundRect,1.500000X-1.500000X1.500000X-1.500000X-1.500000X1.500000X-1.500000X1.500000X1.500000X0*%
%TD*%
%TA.AperFunction,ComponentPad*%
%ADD26C,6.000000*%
%TD*%
%TA.AperFunction,ComponentPad*%
%ADD27R,1.600000X1.600000*%
%TD*%
%TA.AperFunction,ComponentPad*%
%ADD28O,1.600000X1.600000*%
%TD*%
%TA.AperFunction,ViaPad*%
%ADD29C,0.600000*%
%TD*%
%TA.AperFunction,Conductor*%
%ADD30C,1.000000*%
%TD*%
%TA.AperFunction,Conductor*%
%ADD31C,0.400000*%
%TD*%
G04 APERTURE END LIST*
D10*
%TO.P,U1,*%
%TO.N,*%
X7350000Y-42590000D03*
X31860000Y-42590000D03*
D11*
%TO.P,U1,1,3V3_1*%
%TO.N,/esp_3V*%
X6930000Y-3600000D03*
D12*
%TO.P,U1,2,GND_2*%
%TO.N,GND*%
X6930000Y-6140000D03*
%TO.P,U1,3,D15_3*%
%TO.N,/POT_2*%
X6930000Y-8680000D03*
%TO.P,U1,4,D2_4*%
%TO.N,/PWM_1*%
X6930000Y-11220000D03*
%TO.P,U1,5,D4_5*%
%TO.N,/PWM_2*%
X6930000Y-13760000D03*
%TO.P,U1,6,RX2_6*%
%TO.N,unconnected-(U1-RX2-Pad6)*%
X6930000Y-16300000D03*
%TO.P,U1,7,TX2_7*%
%TO.N,unconnected-(U1-TX2-Pad7)*%
X6930000Y-18840000D03*
%TO.P,U1,8,D5_8*%
%TO.N,/Trig*%
X6930000Y-21380000D03*
%TO.P,U1,9,D18_9*%
%TO.N,unconnected-(U1-D18-Pad9)*%
X6930000Y-23920000D03*
%TO.P,U1,10,D19_10*%
%TO.N,/Echo*%
X6930000Y-26460000D03*
%TO.P,U1,11,D21_11*%
%TO.N,/SDA*%
X6930000Y-29000000D03*
%TO.P,U1,12,RX0_12*%
%TO.N,unconnected-(U1-RX0-Pad12)*%
X6930000Y-31540000D03*
%TO.P,U1,13,TX0_13*%
%TO.N,unconnected-(U1-TX0-Pad13)*%
X6930000Y-34080000D03*
%TO.P,U1,14,D22_14*%
%TO.N,/SCL*%
X6930000Y-36620000D03*
%TO.P,U1,15,D23_15*%
%TO.N,unconnected-(U1-D23-Pad15)*%
X6930000Y-39160000D03*
%TO.P,U1,16,EN_16*%
%TO.N,unconnected-(U1-EN-Pad16)*%
X32330000Y-39160000D03*
%TO.P,U1,17,VP_17*%
%TO.N,unconnected-(U1-VP-Pad17)*%
X32330000Y-36620000D03*
%TO.P,U1,18,VN_18*%
%TO.N,unconnected-(U1-VN-Pad18)*%
X32330000Y-34080000D03*
%TO.P,U1,19,D34_19*%
%TO.N,unconnected-(U1-D34-Pad19)*%
X32330000Y-31540000D03*
%TO.P,U1,20,D35_20*%
%TO.N,unconnected-(U1-D35-Pad20)*%
X32330000Y-29000000D03*
%TO.P,U1,21,D32_21*%
%TO.N,/STEP_2_DIR*%
X32330000Y-26460000D03*
%TO.P,U1,22,D33_22*%
%TO.N,/STEP_2_STEP*%
X32330000Y-23920000D03*
%TO.P,U1,23,D25_23*%
%TO.N,Net-(U1-D25)*%
X32330000Y-21380000D03*
%TO.P,U1,24,D26_24*%
%TO.N,Net-(U1-D26)*%
X32330000Y-18840000D03*
%TO.P,U1,25,D27_25*%
%TO.N,Net-(U1-D27)*%
X32330000Y-16300000D03*
%TO.P,U1,26,D14_26*%
%TO.N,/POT_1*%
X32330000Y-13760000D03*
%TO.P,U1,27,D12_27*%
%TO.N,/STEP_1_DIR*%
X32330000Y-11220000D03*
%TO.P,U1,28,D13_28*%
%TO.N,/STEP_1_STEP*%
X32330000Y-8680000D03*
%TO.P,U1,29,GND_29*%
%TO.N,GND*%
X32330000Y-6140000D03*
%TO.P,U1,30,VIN_30*%
%TO.N,/5V_sensor*%
X32330000Y-3600000D03*
%TD*%
D13*
%TO.P,U2,1,VCC_1*%
%TO.N,/5V_sensor*%
X3460000Y-50050000D03*
%TO.P,U2,2,GND_2*%
%TO.N,GND*%
X3460000Y-47510000D03*
%TO.P,U2,3,SCL_3*%
%TO.N,/SCL*%
X3460000Y-44970000D03*
%TO.P,U2,4,SDA_4*%
%TO.N,/SDA*%
X3460000Y-42430000D03*
%TO.P,U2,5,XDA_5*%
%TO.N,unconnected-(U2-XDA-Pad5)*%
X3460000Y-39890000D03*
%TO.P,U2,6,XCL_6*%
%TO.N,unconnected-(U2-XCL-Pad6)*%
X3460000Y-37350000D03*
%TO.P,U2,7,AD0_7*%
%TO.N,/5V_sensor*%
X3460000Y-34810000D03*
%TO.P,U2,8,INT_8*%
%TO.N,unconnected-(U2-INT-Pad8)*%
X3460000Y-32270000D03*
%TD*%
D14*
%TO.P,U3,10,FSYNC_10*%
%TO.N,unconnected-(U3-FSYNC-Pad10)*%
X3330000Y-5680000D03*
%TO.P,U3,9,NCS_9*%
%TO.N,unconnected-(U3-NCS-Pad9)*%
X3330000Y-8220000D03*
%TO.P,U3,8,INT_8*%
%TO.N,unconnected-(U3-INT-Pad8)*%
X3330000Y-10760000D03*
%TO.P,U3,7,AD0_7*%
%TO.N,unconnected-(U3-AD0-Pad7)*%
X3330000Y-13300000D03*
%TO.P,U3,6,ECL_6*%
%TO.N,unconnected-(U3-ECL-Pad6)*%
X3330000Y-15840000D03*
%TO.P,U3,5,EDA_5*%
%TO.N,unconnected-(U3-EDA-Pad5)*%
X3330000Y-18380000D03*
%TO.P,U3,4,SDA_4*%
%TO.N,/SDA*%
X3330000Y-20920000D03*
%TO.P,U3,3,SCL_3*%
%TO.N,/SCL*%
X3330000Y-23460000D03*
%TO.P,U3,2,GND_2*%
%TO.N,GND*%
X3330000Y-26000000D03*
%TO.P,U3,1,VCC_1*%
%TO.N,/5V_sensor*%
X3330000Y-28540000D03*
%TD*%
D15*
%TO.P,U4,1,Vin_1*%
%TO.N,/X*%
X95000000Y-62780000D03*
D16*
%TO.P,U4,2,GND_2*%
%TO.N,GND*%
X95000000Y-45000000D03*
%TO.P,U4,3,GND_3*%
X54360000Y-45000000D03*
%TO.P,U4,4,Vout_4*%
%TO.N,/5V_sensor*%
X54360000Y-62780000D03*
%TD*%
D17*
%TO.P,STEP_1,1,Pin_1_1*%
%TO.N,/R1*%
X46948400Y-49635500D03*
D18*
%TO.P,STEP_1,2,Pin_2_2*%
%TO.N,/B1*%
X44448400Y-49635500D03*
%TO.P,STEP_1,3,Pin_3_3*%
%TO.N,/G1*%
X41948400Y-49635500D03*
%TO.P,STEP_1,4,Pin_4_4*%
%TO.N,/P1*%
X39448400Y-49635500D03*
%TD*%
D15*
%TO.P,U5,1,Vin_1*%
%TO.N,/12V*%
X94250000Y-22030000D03*
D16*
%TO.P,U5,2,GND_2*%
%TO.N,GND*%
X94250000Y-4250000D03*
%TO.P,U5,3,GND_3*%
X53610000Y-4250000D03*
%TO.P,U5,4,Vout_4*%
%TO.N,/5V_servo*%
X53610000Y-22030000D03*
%TD*%
D19*
%TO.P,R3,1*%
%TO.N,/B*%
X16680000Y-46060000D03*
%TO.P,R3,2*%
%TO.N,Net-(U1-D27)*%
X16680000Y-51140000D03*
%TD*%
D20*
%TO.P,C2,1*%
%TO.N,/12V*%
X57180000Y-27772300D03*
D12*
%TO.P,C2,2*%
%TO.N,Net-(A2-GND-Pad1)*%
X57180000Y-32772300D03*
%TD*%
D17*
%TO.P,RGB1,1,Pin_1_1*%
%TO.N,/B*%
X46948400Y-62235500D03*
D18*
%TO.P,RGB1,2,Pin_2_2*%
%TO.N,/G*%
X44448400Y-62235500D03*
%TO.P,RGB1,3,Pin_3_3*%
%TO.N,GND*%
X41948400Y-62235500D03*
%TO.P,RGB1,4,Pin_4_4*%
%TO.N,/R*%
X39448400Y-62235500D03*
%TD*%
D21*
%TO.P,D1,1,K_1*%
%TO.N,/X*%
X72300000Y-39390000D03*
D22*
%TO.P,D1,2,A_2*%
%TO.N,/12V*%
X57060000Y-39390000D03*
%TD*%
D17*
%TO.P,SER_1,1,Pin_1_1*%
%TO.N,GND*%
X46948400Y-55835500D03*
D18*
%TO.P,SER_1,2,Pin_2_2*%
%TO.N,/5V_servo*%
X44448400Y-55835500D03*
%TO.P,SER_1,3,Pin_3_3*%
%TO.N,/PWM_1*%
X41948400Y-55835500D03*
%TO.P,SER_1,4,Pin_4_4*%
%TO.N,/POT_1*%
X39448400Y-55835500D03*
%TD*%
D19*
%TO.P,R2,1*%
%TO.N,/G*%
X14430000Y-46060000D03*
%TO.P,R2,2*%
%TO.N,Net-(U1-D26)*%
X14430000Y-51140000D03*
%TD*%
D23*
%TO.P,J2,1,Pin_1_1*%
%TO.N,/12V*%
X78680000Y-39140000D03*
D24*
%TO.P,J2,2,Pin_2_2*%
%TO.N,/12V_IN*%
X81180000Y-39140000D03*
%TD*%
D17*
%TO.P,STEP_2,1,Pin_1_1*%
%TO.N,/R2*%
X32900000Y-49700000D03*
D18*
%TO.P,STEP_2,2,Pin_2_2*%
%TO.N,/B2*%
X30400000Y-49700000D03*
%TO.P,STEP_2,3,Pin_3_3*%
%TO.N,/G2*%
X27900000Y-49700000D03*
%TO.P,STEP_2,4,Pin_4_4*%
%TO.N,/P2*%
X25400000Y-49700000D03*
%TD*%
D19*
%TO.P,R1,1*%
%TO.N,/R*%
X12180000Y-46100000D03*
%TO.P,R1,2*%
%TO.N,Net-(U1-D25)*%
X12180000Y-51180000D03*
%TD*%
D25*
%TO.P,J1,1,POS_1*%
%TO.N,GND*%
X92430000Y-29790000D03*
D26*
%TO.P,J1,2,NEG_2*%
%TO.N,/12V_IN*%
X92430000Y-36990000D03*
%TD*%
D20*
%TO.P,C1,1*%
%TO.N,/12V*%
X68430000Y-27772300D03*
D12*
%TO.P,C1,2*%
%TO.N,Net-(A1-GND-Pad1)*%
X68430000Y-32772300D03*
%TD*%
D27*
%TO.P,A2,1,GND_1*%
%TO.N,Net-(A2-GND-Pad1)*%
X48880000Y-43280000D03*
D28*
%TO.P,A2,2,VDD_2*%
%TO.N,/5V_sensor*%
X48880000Y-40740000D03*
%TO.P,A2,3,1B_3*%
%TO.N,/R2*%
X48880000Y-38200000D03*
%TO.P,A2,4,1A_4*%
%TO.N,/P2*%
X48880000Y-35660000D03*
%TO.P,A2,5,2A_5*%
%TO.N,/G2*%
X48880000Y-33120000D03*
%TO.P,A2,6,2B_6*%
%TO.N,/B2*%
X48880000Y-30580000D03*
%TO.P,A2,7,GND_7*%
%TO.N,Net-(A2-GND-Pad1)*%
X48880000Y-28040000D03*
%TO.P,A2,8,VMOT_8*%
%TO.N,/12V*%
X48880000Y-25500000D03*
%TO.P,A2,9,~{ENABLE}_9*%
%TO.N,unconnected-(A2-~{ENABLE}-Pad9)*%
X36180000Y-25500000D03*
%TO.P,A2,10,MS1_10*%
%TO.N,/5V_sensor*%
X36180000Y-28040000D03*
%TO.P,A2,11,MS2_11*%
%TO.N,unconnected-(A2-MS2-Pad11)*%
X36180000Y-30580000D03*
%TO.P,A2,12,MS3_12*%
%TO.N,unconnected-(A2-MS3-Pad12)*%
X36180000Y-33120000D03*
%TO.P,A2,13,~{RESET}_13*%
%TO.N,Net-(A2-~{RESET})*%
X36180000Y-35660000D03*
%TO.P,A2,14,~{SLEEP}_14*%
X36180000Y-38200000D03*
%TO.P,A2,15,STEP_15*%
%TO.N,/STEP_2_STEP*%
X36180000Y-40740000D03*
%TO.P,A2,16,DIR_16*%
%TO.N,/STEP_2_DIR*%
X36180000Y-43280000D03*
%TD*%
D17*
%TO.P,SER_2,1,Pin_1_1*%
%TO.N,GND*%
X32900000Y-55900000D03*
D18*
%TO.P,SER_2,2,Pin_2_2*%
%TO.N,/5V_servo*%
X30400000Y-55900000D03*
%TO.P,SER_2,3,Pin_3_3*%
%TO.N,/PWM_2*%
X27900000Y-55900000D03*
%TO.P,SER_2,4,Pin_4_4*%
%TO.N,/POT_2*%
X25400000Y-55900000D03*
%TD*%
D27*
%TO.P,A1,1,GND_1*%
%TO.N,Net-(A1-GND-Pad1)*%
X48880000Y-21340000D03*
D28*
%TO.P,A1,2,VDD_2*%
%TO.N,/5V_sensor*%
X48880000Y-18800000D03*
%TO.P,A1,3,1B_3*%
%TO.N,/R1*%
X48880000Y-16260000D03*
%TO.P,A1,4,1A_4*%
%TO.N,/P1*%
X48880000Y-13720000D03*
%TO.P,A1,5,2A_5*%
%TO.N,/G1*%
X48880000Y-11180000D03*
%TO.P,A1,6,2B_6*%
%TO.N,/B1*%
X48880000Y-8640000D03*
%TO.P,A1,7,GND_7*%
%TO.N,Net-(A1-GND-Pad1)*%
X48880000Y-6100000D03*
%TO.P,A1,8,VMOT_8*%
%TO.N,/12V*%
X48880000Y-3560000D03*
%TO.P,A1,9,~{ENABLE}_9*%
%TO.N,unconnected-(A1-~{ENABLE}-Pad9)*%
X36180000Y-3560000D03*
%TO.P,A1,10,MS1_10*%
%TO.N,/5V_sensor*%
X36180000Y-6100000D03*
%TO.P,A1,11,MS2_11*%
%TO.N,unconnected-(A1-MS2-Pad11)*%
X36180000Y-8640000D03*
%TO.P,A1,12,MS3_12*%
%TO.N,unconnected-(A1-MS3-Pad12)*%
X36180000Y-11180000D03*
%TO.P,A1,13,~{RESET}_13*%
%TO.N,Net-(A1-~{RESET})*%
X36180000Y-13720000D03*
%TO.P,A1,14,~{SLEEP}_14*%
X36180000Y-16260000D03*
%TO.P,A1,15,STEP_15*%
%TO.N,/STEP_1_STEP*%
X36180000Y-18800000D03*
%TO.P,A1,16,DIR_16*%
%TO.N,/STEP_1_DIR*%
X36180000Y-21340000D03*
%TD*%
D20*
%TO.P,C3,1*%
%TO.N,/X*%
X79680000Y-27890000D03*
D12*
%TO.P,C3,2*%
%TO.N,GND*%
X79680000Y-32890000D03*
%TD*%
D17*
%TO.P,RGB2,1,Pin_1_1*%
%TO.N,/B*%
X32900000Y-62200000D03*
D18*
%TO.P,RGB2,2,Pin_2_2*%
%TO.N,/G*%
X30400000Y-62200000D03*
%TO.P,RGB2,3,Pin_3_3*%
%TO.N,GND*%
X27900000Y-62200000D03*
%TO.P,RGB2,4,Pin_4_4*%
%TO.N,/R*%
X25400000Y-62200000D03*
%TD*%
D17*
%TO.P,UltraSonic1,1,Pin_1_1*%
%TO.N,/esp_3V*%
X18900000Y-55900000D03*
D18*
%TO.P,UltraSonic1,2,Pin_2_2*%
%TO.N,/Trig*%
X16400000Y-55900000D03*
%TO.P,UltraSonic1,3,Pin_3_3*%
%TO.N,/Echo*%
X13900000Y-55900000D03*
%TO.P,UltraSonic1,4,Pin_4_4*%
%TO.N,GND*%
X11400000Y-55900000D03*
%TD*%
D29*
%TO.N,/B1*%
X47378300Y-8640000D03*
%TO.N,/G1*%
X45552800Y-10465400D03*
%TO.N,/P1*%
X39685900Y-18890300D03*
%TO.N,/5V_servo*%
X49804600Y-57520300D03*
%TO.N,/B*%
X24971400Y-47495200D03*
X34203200Y-60069800D03*
%TO.N,/G*%
X15529000Y-54364800D03*
%TO.N,/PWM_1*%
X38098800Y-54418400D03*
X29958300Y-24604900D03*
%TO.N,/R2*%
X36026000Y-52992800D03*
%TO.N,Net-(U1-D25)*%
X22905900Y-48540000D03*
%TO.N,/esp_3V*%
X18900000Y-52600000D03*
X21000000Y-25900000D03*
X20800000Y-32800000D03*
%TO.N,/POT_2*%
X15828900Y-50038300D03*
%TO.N,/PWM_2*%
X15009900Y-49244400D03*
%TO.N,/STEP_1_STEP*%
X34976900Y-15323300D03*
%TD*%
%TO.N,/X*%
D30*
X93718300Y-60808300D02*
X95000000Y-60808300D01*
X72300000Y-39390000D02*
X93718300Y-60808300D01*
X95000000Y-62780000D02*
X95000000Y-60808300D01*
%TO.N,GND*%
X95000000Y-45000000D02*
X96900000Y-43100000D01*
X27900000Y-62200000D02*
X27900000Y-60523300D01*
X11400000Y-55900000D02*
X11400000Y-54223300D01*
X82978800Y-29591200D02*
X79680000Y-32890000D01*
X96900000Y-43100000D02*
X96900000Y-34260000D01*
X96900000Y-34260000D02*
X92430000Y-29790000D01*
X10173300Y-54223300D02*
X11400000Y-54223300D01*
X41948400Y-62235500D02*
X41948400Y-60558800D01*
X32900000Y-55900000D02*
X28276700Y-60523300D01*
X46948400Y-55835500D02*
X42225100Y-60558800D01*
X82978800Y-15521200D02*
X82978800Y-29591200D01*
X3460000Y-47510000D02*
X10173300Y-54223300D01*
X42225100Y-60558800D02*
X41948400Y-60558800D01*
X94250000Y-4250000D02*
X82978800Y-15521200D01*
X28276700Y-60523300D02*
X27900000Y-60523300D01*
%TO.N,/5V_sensor*%
X48578200Y-56930600D02*
X50381700Y-55127100D01*
X48880000Y-40740000D02*
X50381700Y-40740000D01*
X37712300Y-26507700D02*
X37712300Y-7632300D01*
X5007300Y-33262700D02*
X5007300Y-30217300D01*
X48880000Y-18800000D02*
X48785700Y-18800000D01*
X48578200Y-58030500D02*
X48578200Y-56930600D01*
X47375100Y-20210600D02*
X47375100Y-39235100D01*
X50381700Y-55127100D02*
X50381700Y-40740000D01*
X32330000Y-3600000D02*
X34678300Y-5948300D01*
X5007300Y-30217300D02*
X3330000Y-28540000D01*
X36180000Y-6100000D02*
X34678300Y-6100000D01*
X47375100Y-39235100D02*
X48880000Y-40740000D01*
X37712300Y-7632300D02*
X36180000Y-6100000D01*
X53327700Y-62780000D02*
X48578200Y-58030500D01*
X36180000Y-28040000D02*
X37712300Y-26507700D01*
X48785700Y-18800000D02*
X47375100Y-20210600D01*
X54360000Y-62780000D02*
X53327700Y-62780000D01*
X3460000Y-34810000D02*
X5007300Y-33262700D01*
X34678300Y-5948300D02*
X34678300Y-6100000D01*
%TO.N,/R1*%
X46122200Y-48809300D02*
X46122200Y-19017800D01*
X46122200Y-19017800D02*
X48880000Y-16260000D01*
X46948400Y-49635500D02*
X46122200Y-48809300D01*
%TO.N,/B1*%
X47378300Y-10339400D02*
X47378300Y-8640000D01*
X44448400Y-13269300D02*
X47378300Y-10339400D01*
X44448400Y-49635500D02*
X44448400Y-13269300D01*
%TO.N,/G1*%
X41948400Y-49635500D02*
X41948400Y-14069800D01*
X41948400Y-14069800D02*
X45552800Y-10465400D01*
%TO.N,/P1*%
X39448400Y-19127800D02*
X39448400Y-49635500D01*
X39685900Y-18890300D02*
X39448400Y-19127800D01*
%TO.N,/12V*%
X48880000Y-23998300D02*
X50685200Y-22193100D01*
X58887500Y-29479800D02*
X57180000Y-27772300D01*
X56511400Y-27772300D02*
X57180000Y-27772300D01*
X48880000Y-3560000D02*
X51583400Y-6263400D01*
X58887500Y-37562500D02*
X58887500Y-29479800D01*
X51583400Y-6263400D02*
X51583400Y-21541900D01*
X51583400Y-21541900D02*
X50932200Y-22193100D01*
X48880000Y-25500000D02*
X48880000Y-23998300D01*
X78680000Y-38022300D02*
X78453500Y-37795700D01*
X78680000Y-39140000D02*
X78680000Y-38022300D01*
X57060000Y-39390000D02*
X58887500Y-37562500D01*
X78453500Y-37795700D02*
X68430000Y-27772300D01*
X50685200Y-22193100D02*
X50932200Y-22193100D01*
X50932200Y-22193100D02*
X56511400Y-27772300D01*
%TO.N,/5V_servo*%
X60089800Y-27785000D02*
X60089800Y-47235100D01*
X54334800Y-22030000D02*
X60089800Y-27785000D01*
X53610000Y-22030000D02*
X54334800Y-22030000D01*
X60089800Y-47235100D02*
X49804600Y-57520300D01*
%TO.N,/B*%
D31*
X33533000Y-54231500D02*
X28036300Y-54231500D01*
X32900000Y-62200000D02*
X34203200Y-60896800D01*
X34203200Y-54901700D02*
X33533000Y-54231500D01*
X34203200Y-60069800D02*
X34203200Y-54901700D01*
X34203200Y-60896800D02*
X34203200Y-60069800D01*
X28036300Y-54231500D02*
X24148300Y-50343500D01*
X24148300Y-48318300D02*
X24971400Y-47495200D01*
X24148300Y-50343500D02*
X24148300Y-48318300D01*
%TO.N,Net-(U1-D27)*%
X32330000Y-16300000D02*
X18100000Y-30530000D01*
X18100000Y-30530000D02*
X18100000Y-49720000D01*
X18100000Y-49720000D02*
X16680000Y-51140000D01*
%TO.N,/SCL*%
X1980800Y-37589500D02*
X1980800Y-24809200D01*
X3011300Y-38620000D02*
X4930000Y-38620000D01*
X4930000Y-38620000D02*
X6930000Y-36620000D01*
X2252500Y-39378800D02*
X3011300Y-38620000D01*
X3460000Y-44970000D02*
X2252500Y-43762500D01*
X2252500Y-43762500D02*
X2252500Y-39378800D01*
X1980800Y-24809200D02*
X3330000Y-23460000D01*
X3011300Y-38620000D02*
X1980800Y-37589500D01*
%TO.N,/SDA*%
X6930000Y-29000000D02*
X5289300Y-27359300D01*
X8363200Y-39721800D02*
X8363200Y-30433200D01*
X3460000Y-42430000D02*
X5265000Y-40625000D01*
X5289300Y-22879300D02*
X3330000Y-20920000D01*
X7460000Y-40625000D02*
X8363200Y-39721800D01*
X5265000Y-40625000D02*
X7460000Y-40625000D01*
X5289300Y-27359300D02*
X5289300Y-22879300D01*
X8363200Y-30433200D02*
X6930000Y-29000000D01*
%TO.N,Net-(A2-GND-Pad1)*%
D30*
X48880000Y-28040000D02*
X52447700Y-28040000D01*
X52447700Y-28040000D02*
X57180000Y-32772300D01*
%TO.N,/G*%
D31*
X20293800Y-59004700D02*
X24941000Y-63651900D01*
X30400000Y-62200000D02*
X31850300Y-63650300D01*
X31850300Y-63650300D02*
X43033600Y-63650300D01*
X15529000Y-54364800D02*
X15602700Y-54291100D01*
X19567600Y-54291100D02*
X20293800Y-55017300D01*
X20293800Y-55017300D02*
X20293800Y-59004700D01*
X24941000Y-63651900D02*
X28948100Y-63651900D01*
X43033600Y-63650300D02*
X44448400Y-62235500D01*
X15602700Y-54291100D02*
X19567600Y-54291100D01*
X28948100Y-63651900D02*
X30400000Y-62200000D01*
%TO.N,/R*%
X13324900Y-47363700D02*
X12180000Y-46218800D01*
X15350000Y-53663100D02*
X13324900Y-51638000D01*
X13324900Y-51638000D02*
X13324900Y-47363700D01*
X19790400Y-53663100D02*
X15350000Y-53663100D01*
X25400000Y-62200000D02*
X25400000Y-59272700D01*
X25400000Y-59272700D02*
X19790400Y-53663100D01*
X12180000Y-46218800D02*
X12180000Y-46100000D01*
%TO.N,/PWM_1*%
X29958300Y-43377700D02*
X36975000Y-50394400D01*
X29958300Y-24604900D02*
X29958300Y-43377700D01*
X36975000Y-50394400D02*
X36975000Y-53294600D01*
X36975000Y-53294600D02*
X38098800Y-54418400D01*
%TO.N,/POT_1*%
X39448400Y-54458800D02*
X38178300Y-53188700D01*
X36620600Y-34390000D02*
X35719000Y-34390000D01*
X38178300Y-35947700D02*
X36620600Y-34390000D01*
X38178300Y-53188700D02*
X38178300Y-35947700D01*
X34840200Y-33511200D02*
X34840200Y-16270200D01*
X34840200Y-16270200D02*
X32330000Y-13760000D01*
X39448400Y-55835500D02*
X39448400Y-54458800D01*
X35719000Y-34390000D02*
X34840200Y-33511200D01*
%TO.N,Net-(U1-D26)*%
X17108200Y-52280800D02*
X15570800Y-52280800D01*
X19000000Y-50389000D02*
X17108200Y-52280800D01*
X15570800Y-52280800D02*
X14430000Y-51140000D01*
X19000000Y-32170000D02*
X19000000Y-50389000D01*
X32330000Y-18840000D02*
X19000000Y-32170000D01*
%TO.N,/12V_IN*%
D30*
X90280000Y-39140000D02*
X92430000Y-36990000D01*
X81180000Y-39140000D02*
X90280000Y-39140000D01*
%TO.N,/R2*%
X32900000Y-49866800D02*
X32900000Y-49700000D01*
X36026000Y-52992800D02*
X32900000Y-49866800D01*
%TO.N,Net-(U1-D25)*%
D31*
X22905900Y-30665100D02*
X22905900Y-48540000D01*
X32191000Y-21380000D02*
X22905900Y-30665100D01*
X32330000Y-21380000D02*
X32191000Y-21380000D01*
%TO.N,Net-(A1-GND-Pad1)*%
D30*
X50381700Y-7601700D02*
X50381700Y-19838300D01*
X48880000Y-6100000D02*
X50381700Y-7601700D01*
X50381700Y-19838300D02*
X48880000Y-21340000D01*
%TO.N,Net-(A2-~{RESET})*%
D31*
X36180000Y-38200000D02*
X36180000Y-35660000D01*
%TO.N,/STEP_2_STEP*%
X31732800Y-40625000D02*
X32638900Y-40625000D01*
X37410900Y-43798200D02*
X37410900Y-41970900D01*
X34731900Y-43553700D02*
X35698600Y-44520400D01*
X30900700Y-25349300D02*
X30900700Y-39792900D01*
X36688700Y-44520400D02*
X37410900Y-43798200D01*
X34731900Y-42718000D02*
X34731900Y-43553700D01*
X32330000Y-23920000D02*
X30900700Y-25349300D01*
X37410900Y-41970900D02*
X36180000Y-40740000D01*
X30900700Y-39792900D02*
X31732800Y-40625000D01*
X32638900Y-40625000D02*
X34731900Y-42718000D01*
X35698600Y-44520400D02*
X36688700Y-44520400D01*
%TO.N,/STEP_2_DIR*%
X34168500Y-40440300D02*
X35806500Y-42078300D01*
X36180000Y-43280000D02*
X36180000Y-42078300D01*
X34168500Y-28298500D02*
X34168500Y-40440300D01*
X32330000Y-26460000D02*
X34168500Y-28298500D01*
X35806500Y-42078300D02*
X36180000Y-42078300D01*
%TO.N,/esp_3V*%
D30*
X21400000Y-7000000D02*
X21400000Y-25500000D01*
X6930000Y-3600000D02*
X18000000Y-3600000D01*
X18900000Y-52600000D02*
X20800000Y-50700000D01*
X18000000Y-3600000D02*
X21400000Y-7000000D01*
X20800000Y-32800000D02*
X20800000Y-32700000D01*
X20800000Y-50700000D02*
X20800000Y-32800000D01*
X21400000Y-25500000D02*
X21000000Y-25900000D01*
%TO.N,/POT_2*%
D31*
X15555000Y-17305000D02*
X6930000Y-8680000D01*
X15828900Y-49071100D02*
X15555000Y-48797200D01*
X15555000Y-48797200D02*
X15555000Y-17305000D01*
X15828900Y-50038300D02*
X15828900Y-49071100D01*
%TO.N,/PWM_2*%
X15009900Y-49244400D02*
X14929800Y-49164300D01*
X14929800Y-49164300D02*
X14929800Y-48117800D01*
X13328300Y-20158300D02*
X6930000Y-13760000D01*
X13328300Y-46516300D02*
X13328300Y-20158300D01*
X14929800Y-48117800D02*
X13328300Y-46516300D01*
%TO.N,/Trig*%
X16072000Y-55900000D02*
X16400000Y-55900000D01*
X6930000Y-21380000D02*
X10336700Y-24786700D01*
X12192700Y-52776800D02*
X13030800Y-52776800D01*
X14827300Y-54655300D02*
X16072000Y-55900000D01*
X13030800Y-52776800D02*
X14827300Y-54573300D01*
X10336700Y-24786700D02*
X10336700Y-50920800D01*
X10336700Y-50920800D02*
X12192700Y-52776800D01*
X14827300Y-54573300D02*
X14827300Y-54655300D01*
%TO.N,/Echo*%
X9251700Y-50744200D02*
X13030800Y-54523300D01*
X13900000Y-55900000D02*
X13900000Y-54523300D01*
X6930000Y-26460000D02*
X9251700Y-28781700D01*
X9251700Y-28781700D02*
X9251700Y-50744200D01*
X13030800Y-54523300D02*
X13900000Y-54523300D01*
%TO.N,/STEP_1_STEP*%
X32330000Y-8680000D02*
X34976900Y-11326900D01*
X34976900Y-11326900D02*
X34976900Y-15323300D01*
%TO.N,Net-(A1-~{RESET})*%
X36180000Y-16260000D02*
X36180000Y-13720000D01*
%TD*%
%TA.AperFunction,Conductor*%
%TO.N,GND*%
G36*
X33150000Y-57374999D02*
G01*
X33378700Y-57374999D01*
X33445739Y-57394684D01*
X33491494Y-57447488D01*
X33502700Y-57498999D01*
X33502700Y-59644484D01*
X33493261Y-59691936D01*
X33433464Y-59836298D01*
X33433461Y-59836310D01*
X33402700Y-59990953D01*
X33402700Y-60148646D01*
X33433461Y-60303289D01*
X33433464Y-60303301D01*
X33493261Y-60447664D01*
X33494887Y-60455840D01*
X33497677Y-60460181D01*
X33502700Y-60495116D01*
X33502700Y-60555279D01*
X33483015Y-60622318D01*
X33466381Y-60642960D01*
X33421160Y-60688181D01*
X33359837Y-60721666D01*
X33333479Y-60724500D01*
X32249998Y-60724500D01*
X32249981Y-60724501D01*
X32147203Y-60735000D01*
X32147200Y-60735001D01*
X31980668Y-60790185D01*
X31980663Y-60790187D01*
X31831342Y-60882289D01*
X31707289Y-61006342D01*
X31611821Y-61161121D01*
X31559873Y-61207845D01*
X31490910Y-61219068D01*
X31426828Y-61191224D01*
X31418601Y-61183705D01*
X31279786Y-61044890D01*
X31107820Y-60919951D01*
X30918414Y-60823444D01*
X30918413Y-60823443D01*
X30918412Y-60823443D01*
X30716243Y-60757754D01*
X30716241Y-60757753D01*
X30716240Y-60757753D01*
X30554957Y-60732208D01*
X30506287Y-60724500D01*
X30293713Y-60724500D01*
X30245042Y-60732208D01*
X30083760Y-60757753D01*
X29881585Y-60823444D01*
X29692179Y-60919951D01*
X29520213Y-61044890D01*
X29369894Y-61195209D01*
X29369890Y-61195214D01*
X29250008Y-61360218D01*
X29194678Y-61402884D01*
X29125065Y-61408863D01*
X29063270Y-61376257D01*
X29049372Y-61360218D01*
X28929727Y-61195540D01*
X28929723Y-61195535D01*
X28779464Y-61045276D01*
X28779459Y-61045272D01*
X28607557Y-60920379D01*
X28418215Y-60823903D01*
X28216124Y-60758241D01*
X28150000Y-60747768D01*
X28150000Y-61795854D01*
X28083343Y-61757370D01*
X27962535Y-61725000D01*
X27837465Y-61725000D01*
X27716657Y-61757370D01*
X27650000Y-61795854D01*
X27650000Y-60747768D01*
X27649999Y-60747768D01*
X27583875Y-60758241D01*
X27381784Y-60823903D01*
X27192442Y-60920379D01*
X27020540Y-61045272D01*
X27020535Y-61045276D01*
X26870276Y-61195535D01*
X26870272Y-61195540D01*
X26750627Y-61360218D01*
X26695297Y-61402884D01*
X26625684Y-61408863D01*
X26563889Y-61376257D01*
X26549991Y-61360218D01*
X26430109Y-61195214D01*
X26430105Y-61195209D01*
X26279786Y-61044890D01*
X26151615Y-60951770D01*
X26108949Y-60896441D01*
X26100500Y-60851452D01*
X26100500Y-59203706D01*
X26100499Y-59203702D01*
X26074639Y-59073692D01*
X26074639Y-59073691D01*
X26073580Y-59068373D01*
X26073579Y-59068369D01*
X26042174Y-58992551D01*
X26042174Y-58992550D01*
X26020778Y-58940895D01*
X26020771Y-58940882D01*
X25944115Y-58826159D01*
X25925595Y-58807639D01*
X25846542Y-58728586D01*
X25246997Y-58129041D01*
X24364829Y-57246872D01*
X24331344Y-57185549D01*
X24336328Y-57115857D01*
X24378200Y-57059924D01*
X24443664Y-57035507D01*
X24511937Y-57050359D01*
X24525395Y-57058873D01*
X24603828Y-57115857D01*
X24692184Y-57180051D01*
X24881588Y-57276557D01*
X25083757Y-57342246D01*
X25293713Y-57375500D01*
X25293714Y-57375500D01*
X25506286Y-57375500D01*
X25506287Y-57375500D01*
X25716243Y-57342246D01*
X25918412Y-57276557D01*
X26107816Y-57180051D01*
X26196172Y-57115857D01*
X26279786Y-57055109D01*
X26279788Y-57055106D01*
X26279792Y-57055104D01*
X26430104Y-56904792D01*
X26549683Y-56740204D01*
X26605011Y-56697540D01*
X26674624Y-56691561D01*
X26736420Y-56724166D01*
X26750313Y-56740199D01*
X26853661Y-56882446D01*
X26869896Y-56904792D01*
X27020213Y-57055109D01*
X27192179Y-57180048D01*
X27192181Y-57180049D01*
X27192184Y-57180051D01*
X27381588Y-57276557D01*
X27583757Y-57342246D01*
X27793713Y-57375500D01*
X27793714Y-57375500D01*
X28006286Y-57375500D01*
X28006287Y-57375500D01*
X28216243Y-57342246D01*
X28418412Y-57276557D01*
X28607816Y-57180051D01*
X28696172Y-57115857D01*
X28779786Y-57055109D01*
X28779788Y-57055106D01*
X28779792Y-57055104D01*
X28930104Y-56904792D01*
X29049683Y-56740204D01*
X29105011Y-56697540D01*
X29174624Y-56691561D01*
X29236420Y-56724166D01*
X29250313Y-56740199D01*
X29353661Y-56882446D01*
X29369896Y-56904792D01*
X29520213Y-57055109D01*
X29692179Y-57180048D01*
X29692181Y-57180049D01*
X29692184Y-57180051D01*
X29881588Y-57276557D01*
X30083757Y-57342246D01*
X30293713Y-57375500D01*
X30293714Y-57375500D01*
X30506286Y-57375500D01*
X30506287Y-57375500D01*
X30716243Y-57342246D01*
X30918412Y-57276557D01*
X31107816Y-57180051D01*
X31226729Y-57093656D01*
X31279784Y-57055110D01*
X31279784Y-57055109D01*
X31279792Y-57055104D01*
X31418967Y-56915928D01*
X31480286Y-56882446D01*
X31549978Y-56887430D01*
X31605912Y-56929301D01*
X31612184Y-56938515D01*
X31707684Y-57093345D01*
X31831654Y-57217315D01*
X31980875Y-57309356D01*
X31980880Y-57309358D01*
X32147302Y-57364505D01*
X32147309Y-57364506D01*
X32250019Y-57374999D01*
X32649999Y-57374999D01*
X32650000Y-57374998D01*
X32650000Y-56304145D01*
X32716657Y-56342630D01*
X32837465Y-56375000D01*
X32962535Y-56375000D01*
X33083343Y-56342630D01*
X33150000Y-56304145D01*
X33150000Y-57374999D01*
G37*
%TD.AperFunction*%
%TA.AperFunction,Conductor*%
G36*
X47327903Y-40603269D02*
G01*
X47334381Y-40609301D01*
X47553281Y-40828201D01*
X47586766Y-40889524D01*
X47588073Y-40896483D01*
X47611523Y-41044535D01*
X47674781Y-41239223D01*
X47767715Y-41421613D01*
X47888028Y-41587213D01*
X48032784Y-41731969D01*
X48069068Y-41758330D01*
X48111735Y-41813659D01*
X48117715Y-41883273D01*
X48085109Y-41945068D01*
X48024271Y-41979426D01*
X48009440Y-41981938D01*
X47972519Y-41985907D01*
X47837671Y-42036202D01*
X47837664Y-42036206D01*
X47722455Y-42122452D01*
X47722452Y-42122455D01*
X47636206Y-42237664D01*
X47636202Y-42237671D01*
X47585908Y-42372517D01*
X47579501Y-42432116D01*
X47579500Y-42432135D01*
X47579500Y-44127870D01*
X47579501Y-44127876D01*
X47585908Y-44187483D01*
X47636202Y-44322328D01*
X47636206Y-44322335D01*
X47722452Y-44437544D01*
X47722455Y-44437547D01*
X47837664Y-44523793D01*
X47837671Y-44523797D01*
X47972517Y-44574091D01*
X47972516Y-44574091D01*
X47979444Y-44574835D01*
X48032127Y-44580500D01*
X49257200Y-44580499D01*
X49324239Y-44600184D01*
X49369994Y-44652987D01*
X49381200Y-44704499D01*
X49381200Y-54661317D01*
X49361515Y-54728356D01*
X49344881Y-54748998D01*
X48510080Y-55583798D01*
X48448757Y-55617283D01*
X48379065Y-55612299D01*
X48323132Y-55570427D01*
X48298715Y-55504963D01*
X48298399Y-55496117D01*
X48298399Y-55060528D01*
X48298398Y-55060513D01*
X48287905Y-54957802D01*
X48232758Y-54791380D01*
X48232756Y-54791375D01*
X48140715Y-54642154D01*
X48016745Y-54518184D01*
X47867524Y-54426143D01*
X47867519Y-54426141D01*
X47701097Y-54370994D01*
X47701090Y-54370993D01*
X47598386Y-54360500D01*
X47198400Y-54360500D01*
X47198400Y-55431354D01*
X47131743Y-55392870D01*
X47010935Y-55360500D01*
X46885865Y-55360500D01*
X46765057Y-55392870D01*
X46698400Y-55431354D01*
X46698400Y-54360500D01*
X46298428Y-54360500D01*
X46298412Y-54360501D01*
X46195702Y-54370994D01*
X46029280Y-54426141D01*
X46029275Y-54426143D01*
X45880054Y-54518184D01*
X45756083Y-54642155D01*
X45756080Y-54642159D01*
X45660583Y-54796984D01*
X45608635Y-54843709D01*
X45539673Y-54854930D01*
X45475591Y-54827087D01*
X45467364Y-54819568D01*
X45328186Y-54680390D01*
X45156220Y-54555451D01*
X44966814Y-54458944D01*
X44966813Y-54458943D01*
X44966812Y-54458943D01*
X44764643Y-54393254D01*
X44764641Y-54393253D01*
X44764640Y-54393253D01*
X44603357Y-54367708D01*
X44554687Y-54360000D01*
X44342113Y-54360000D01*
X44293442Y-54367708D01*
X44132160Y-54393253D01*
X44132157Y-54393254D01*
X43933651Y-54457753D01*
X43929985Y-54458944D01*
X43740579Y-54555451D01*
X43568613Y-54680390D01*
X43418294Y-54830709D01*
X43418290Y-54830714D01*
X43298718Y-54995293D01*
X43243389Y-55037959D01*
X43173775Y-55043938D01*
X43111980Y-55011333D01*
X43098082Y-54995293D01*
X42978509Y-54830714D01*
X42978505Y-54830709D01*
X42828186Y-54680390D01*
X42656220Y-54555451D01*
X42466814Y-54458944D01*
X42466813Y-54458943D01*
X42466812Y-54458943D01*
X42264643Y-54393254D01*
X42264641Y-54393253D01*
X42264640Y-54393253D01*
X42103357Y-54367708D01*
X42054687Y-54360000D01*
X41842113Y-54360000D01*
X41793442Y-54367708D01*
X41632160Y-54393253D01*
X41632157Y-54393254D01*
X41433651Y-54457753D01*
X41429985Y-54458944D01*
X41240579Y-54555451D01*
X41068613Y-54680390D01*
X40918294Y-54830709D01*
X40918290Y-54830714D01*
X40798718Y-54995293D01*
X40743389Y-55037959D01*
X40673775Y-55043938D01*
X40611980Y-55011333D01*
X40598082Y-54995293D01*
X40478509Y-54830714D01*
X40478505Y-54830709D01*
X40328186Y-54680390D01*
X40200015Y-54587270D01*
X40198804Y-54585700D01*
X40196957Y-54584976D01*
X40177560Y-54558151D01*
X40157349Y-54531941D01*
X40156811Y-54529455D01*
X40156017Y-54528357D01*
X40153864Y-54515832D01*
X40149087Y-54493750D01*
X40148900Y-54490344D01*
X40148900Y-54389807D01*
X40142989Y-54360093D01*
X40121980Y-54254472D01*
X40111188Y-54228417D01*
X40069177Y-54126992D01*
X39992512Y-54012254D01*
X38915119Y-52934861D01*
X38881634Y-52873538D01*
X38878800Y-52847180D01*
X38878800Y-51166096D01*
X38898485Y-51099057D01*
X38951289Y-51053302D01*
X39020447Y-51043358D01*
X39041112Y-51048163D01*
X39132157Y-51077746D01*
X39342113Y-51111000D01*
X39342114Y-51111000D01*
X39554686Y-51111000D01*
X39554687Y-51111000D01*
X39764643Y-51077746D01*
X39966812Y-51012057D01*
X40156216Y-50915551D01*
X40186352Y-50893656D01*
X40328186Y-50790609D01*
X40328188Y-50790606D01*
X40328192Y-50790604D01*
X40478504Y-50640292D01*
X40598083Y-50475704D01*
X40653411Y-50433040D01*
X40723024Y-50427061D01*
X40784820Y-50459666D01*
X40798713Y-50475699D01*
X40872891Y-50577797D01*
X40918296Y-50640292D01*
X41068613Y-50790609D01*
X41240579Y-50915548D01*
X41240581Y-50915549D01*
X41240584Y-50915551D01*
X41429988Y-51012057D01*
X41632157Y-51077746D01*
X41842113Y-51111000D01*
X41842114Y-51111000D01*
X42054686Y-51111000D01*
X42054687Y-51111000D01*
X42264643Y-51077746D01*
X42466812Y-51012057D01*
X42656216Y-50915551D01*
X42686352Y-50893656D01*
X42828186Y-50790609D01*
X42828188Y-50790606D01*
X42828192Y-50790604D01*
X42978504Y-50640292D01*
X43098083Y-50475704D01*
X43153411Y-50433040D01*
X43223024Y-50427061D01*
X43284820Y-50459666D01*
X43298713Y-50475699D01*
X43372891Y-50577797D01*
X43418296Y-50640292D01*
X43568613Y-50790609D01*
X43740579Y-50915548D01*
X43740581Y-50915549D01*
X43740584Y-50915551D01*
X43929988Y-51012057D01*
X44132157Y-51077746D01*
X44342113Y-51111000D01*
X44342114Y-51111000D01*
X44554686Y-51111000D01*
X44554687Y-51111000D01*
X44764643Y-51077746D01*
X44966812Y-51012057D01*
X45156216Y-50915551D01*
X45213541Y-50873902D01*
X45328184Y-50790610D01*
X45328184Y-50790609D01*
X45328192Y-50790604D01*
X45467004Y-50651791D01*
X45528323Y-50618309D01*
X45598015Y-50623293D01*
X45653949Y-50665164D01*
X45660221Y-50674378D01*
X45663585Y-50679833D01*
X45663586Y-50679834D01*
X45755688Y-50829156D01*
X45879744Y-50953212D01*
X46029066Y-51045314D01*
X46195603Y-51100499D01*
X46298391Y-51111000D01*
X47598408Y-51110999D01*
X47610009Y-51109814D01*
X47616295Y-51109171D01*
X47701197Y-51100499D01*
X47867734Y-51045314D01*
X48017056Y-50953212D01*
X48141112Y-50829156D01*
X48233214Y-50679834D01*
X48288399Y-50513297D01*
X48298900Y-50410509D01*
X48298899Y-48860492D01*
X48297533Y-48847124D01*
X48288399Y-48757703D01*
X48288398Y-48757700D01*
X48282297Y-48739289D01*
X48233214Y-48591166D01*
X48141112Y-48441844D01*
X48017056Y-48317788D01*
X47898248Y-48244507D01*
X47867736Y-48225687D01*
X47867731Y-48225685D01*
X47834212Y-48214578D01*
X47701197Y-48170501D01*
X47701195Y-48170500D01*
X47598416Y-48160000D01*
X47598409Y-48160000D01*
X47246700Y-48160000D01*
X47179661Y-48140315D01*
X47133906Y-48087511D01*
X47122700Y-48036000D01*
X47122700Y-40696982D01*
X47142385Y-40629943D01*
X47195189Y-40584188D01*
X47264347Y-40574244D01*
X47327903Y-40603269D01*
G37*
%TD.AperFunction*%
%TA.AperFunction,Conductor*%
G36*
X52048957Y-29060185D02*
G01*
X52069599Y-29076819D01*
X55643181Y-32650401D01*
X55676666Y-32711724D01*
X55679500Y-32738082D01*
X55679500Y-32890397D01*
X55716446Y-33123668D01*
X55789433Y-33348296D01*
X55886336Y-33538477D01*
X55896657Y-33558733D01*
X56035483Y-33749810D01*
X56202490Y-33916817D01*
X56393567Y-34055643D01*
X56473000Y-34096116D01*
X56604003Y-34162866D01*
X56604005Y-34162866D01*
X56604008Y-34162868D01*
X56724412Y-34201989D01*
X56828631Y-34235853D01*
X57061903Y-34272800D01*
X57061908Y-34272800D01*
X57298097Y-34272800D01*
X57531368Y-34235853D01*
X57542352Y-34232284D01*
X57724683Y-34173040D01*
X57794522Y-34171046D01*
X57854355Y-34207126D01*
X57885184Y-34269827D01*
X57887000Y-34290972D01*
X57887000Y-37096716D01*
X57878355Y-37126156D01*
X57871832Y-37156143D01*
X57868077Y-37161158D01*
X57867315Y-37163755D01*
X57850681Y-37184398D01*
X57709760Y-37325318D01*
X57648437Y-37358802D01*
X57589986Y-37357411D01*
X57470676Y-37325442D01*
X57470662Y-37325439D01*
X57197684Y-37289501D01*
X57197679Y-37289500D01*
X57197674Y-37289500D01*
X56922326Y-37289500D01*
X56922320Y-37289500D01*
X56922315Y-37289501D01*
X56649344Y-37325438D01*
X56649337Y-37325439D01*
X56649334Y-37325440D01*
X56649327Y-37325442D01*
X56383369Y-37396704D01*
X56128982Y-37502075D01*
X56128971Y-37502080D01*
X55890516Y-37639754D01*
X55672073Y-37807370D01*
X55672066Y-37807376D01*
X55477376Y-38002066D01*
X55477370Y-38002073D01*
X55309754Y-38220516D01*
X55172080Y-38458971D01*
X55172075Y-38458982D01*
X55066704Y-38713369D01*
X54995441Y-38979331D01*
X54995438Y-38979344D01*
X54959501Y-39252315D01*
X54959500Y-39252332D01*
X54959500Y-39527667D01*
X54959501Y-39527684D01*
X54995438Y-39800655D01*
X54995439Y-39800660D01*
X54995440Y-39800666D01*
X55009562Y-39853371D01*
X55066704Y-40066630D01*
X55172075Y-40321017D01*
X55172080Y-40321028D01*
X55254861Y-40464407D01*
X55309751Y-40559479D01*
X55309753Y-40559482D01*
X55309754Y-40559483D01*
X55477370Y-40777926D01*
X55477376Y-40777933D01*
X55672066Y-40972623D01*
X55672073Y-40972629D01*
X55735728Y-41021473D01*
X55890521Y-41140249D01*
X56009007Y-41208657D01*
X56128971Y-41277919D01*
X56128976Y-41277921D01*
X56128979Y-41277923D01*
X56383368Y-41383295D01*
X56649334Y-41454560D01*
X56922326Y-41490500D01*
X56922333Y-41490500D01*
X57197667Y-41490500D01*
X57197674Y-41490500D01*
X57470666Y-41454560D01*
X57736632Y-41383295D01*
X57991021Y-41277923D01*
X58229479Y-41140249D01*
X58447928Y-40972628D01*
X58642628Y-40777928D01*
X58810249Y-40559479D01*
X58857913Y-40476921D01*
X58908480Y-40428706D01*
X58977087Y-40415484D01*
X59041952Y-40441452D01*
X59082480Y-40498366D01*
X59089300Y-40538922D01*
X59089300Y-46769317D01*
X59069615Y-46836356D01*
X59052981Y-46856998D01*
X51593881Y-54316098D01*
X51532558Y-54349583D01*
X51462866Y-54344599D01*
X51406933Y-54302727D01*
X51382516Y-54237263D01*
X51382200Y-54228417D01*
X51382200Y-40641456D01*
X51343752Y-40448170D01*
X51343751Y-40448169D01*
X51343751Y-40448165D01*
X51322815Y-40397620D01*
X51268335Y-40266092D01*
X51268328Y-40266079D01*
X51158839Y-40102218D01*
X51158836Y-40102214D01*
X51019485Y-39962863D01*
X51019481Y-39962860D01*
X50855620Y-39853371D01*
X50855607Y-39853364D01*
X50673539Y-39777950D01*
X50673529Y-39777947D01*
X50480243Y-39739500D01*
X50480241Y-39739500D01*
X49755762Y-39739500D01*
X49688723Y-39719815D01*
X49682877Y-39715818D01*
X49561613Y-39627715D01*
X49561612Y-39627714D01*
X49561610Y-39627713D01*
X49468917Y-39580483D01*
X49418123Y-39532511D01*
X49401328Y-39464690D01*
X49423865Y-39398555D01*
X49468917Y-39359516D01*
X49561610Y-39312287D01*
X49587361Y-39293578D01*
X49727213Y-39191971D01*
X49727215Y-39191968D01*
X49727219Y-39191966D01*
X49871966Y-39047219D01*
X49871968Y-39047215D01*
X49871971Y-39047213D01*
X49962434Y-38922699D01*
X49992287Y-38881610D01*
X50085220Y-38699219D01*
X50148477Y-38504534D01*
X50180500Y-38302352D01*
X50180500Y-38097648D01*
X50148477Y-37895466D01*
X50145791Y-37887200D01*
X50094865Y-37730465D01*
X50085220Y-37700781D01*
X50085218Y-37700778D01*
X50085218Y-37700776D01*
X50019267Y-37571342D01*
X49992287Y-37518390D01*
X49978335Y-37499186D01*
X49871971Y-37352786D01*
X49727213Y-37208028D01*
X49561614Y-37087715D01*
X49552837Y-37083243D01*
X49468917Y-37040483D01*
X49418123Y-36992511D01*
X49401328Y-36924690D01*
X49423865Y-36858555D01*
X49468917Y-36819516D01*
X49561610Y-36772287D01*
X49631615Y-36721426D01*
X49727213Y-36651971D01*
X49727215Y-36651968D01*
X49727219Y-36651966D01*
X49871966Y-36507219D01*
X49871968Y-36507215D01*
X49871971Y-36507213D01*
X49962434Y-36382699D01*
X49992287Y-36341610D01*
X50085220Y-36159219D01*
X50148477Y-35964534D01*
X50180500Y-35762352D01*
X50180500Y-35557648D01*
X50148477Y-35355466D01*
X50133450Y-35309219D01*
X50105928Y-35224515D01*
X50085220Y-35160781D01*
X50085218Y-35160778D01*
X50085218Y-35160776D01*
X50035921Y-35064027D01*
X49992287Y-34978390D01*
X49983638Y-34966485D01*
X49871971Y-34812786D01*
X49727213Y-34668028D01*
X49561614Y-34547715D01*
X49555006Y-34544348D01*
X49468917Y-34500483D01*
X49418123Y-34452511D01*
X49401328Y-34384690D01*
X49423865Y-34318555D01*
X49468917Y-34279516D01*
X49561610Y-34232287D01*
X49582770Y-34216913D01*
X49727213Y-34111971D01*
X49727215Y-34111968D01*
X49727219Y-34111966D01*
X49871966Y-33967219D01*
X49871968Y-33967215D01*
X49871971Y-33967213D01*
X49941165Y-33871974D01*
X49992287Y-33801610D01*
X50085220Y-33619219D01*
X50148477Y-33424534D01*
X50180500Y-33222352D01*
X50180500Y-33017648D01*
X50148477Y-32815466D01*
X50085220Y-32620781D01*
X50085218Y-32620778D01*
X50085218Y-32620776D01*
X50018533Y-32489901D01*
X49992287Y-32438390D01*
X49970331Y-32408170D01*
X49871971Y-32272786D01*
X49727213Y-32128028D01*
X49561614Y-32007715D01*
X49519298Y-31986154D01*
X49468917Y-31960483D01*
X49418123Y-31912511D01*
X49401328Y-31844690D01*
X49423865Y-31778555D01*
X49468917Y-31739516D01*
X49561610Y-31692287D01*
X49595950Y-31667338D01*
X49727213Y-31571971D01*
X49727215Y-31571968D01*
X49727219Y-31571966D01*
X49871966Y-31427219D01*
X49871968Y-31427215D01*
X49871971Y-31427213D01*
X49924732Y-31354590D01*
X49992287Y-31261610D01*
X50085220Y-31079219D01*
X50148477Y-30884534D01*
X50180500Y-30682352D01*
X50180500Y-30477648D01*
X50157636Y-30333292D01*
X50148477Y-30275465D01*
X50086089Y-30083457D01*
X50085220Y-30080781D01*
X50085218Y-30080778D01*
X50085218Y-30080776D01*
X50035921Y-29984027D01*
X49992287Y-29898390D01*
X49964159Y-29859675D01*
X49871971Y-29732786D01*
X49727213Y-29588028D01*
X49561614Y-29467715D01*
X49519298Y-29446154D01*
X49468917Y-29420483D01*
X49418123Y-29372511D01*
X49401328Y-29304690D01*
X49423865Y-29238555D01*
X49468917Y-29199516D01*
X49561610Y-29152287D01*
X49682877Y-29064181D01*
X49748683Y-29040702D01*
X49755762Y-29040500D01*
X51981918Y-29040500D01*
X52048957Y-29060185D01*
G37*
%TD.AperFunction*%
%TA.AperFunction,Conductor*%
G36*
X17601257Y-4620185D02*
G01*
X17621899Y-4636819D01*
X20363181Y-7378101D01*
X20396666Y-7439424D01*
X20399500Y-7465782D01*
X20399500Y-25034217D01*
X20379815Y-25101256D01*
X20363185Y-25121893D01*
X20295465Y-25189615D01*
X20222858Y-25262222D01*
X20113372Y-25426079D01*
X20113367Y-25426089D01*
X20037949Y-25608163D01*
X20037947Y-25608171D01*
X19999500Y-25801455D01*
X19999500Y-25998544D01*
X20037947Y-26191828D01*
X20037949Y-26191836D01*
X20113367Y-26373910D01*
X20113372Y-26373920D01*
X20222860Y-26537780D01*
X20222863Y-26537784D01*
X20362215Y-26677136D01*
X20362219Y-26677139D01*
X20526079Y-26786627D01*
X20526092Y-26786634D01*
X20585591Y-26811279D01*
X20639995Y-26855119D01*
X20662060Y-26921414D01*
X20644781Y-26989113D01*
X20625820Y-27013521D01*
X17555887Y-30083454D01*
X17479222Y-30198192D01*
X17426421Y-30325667D01*
X17426418Y-30325677D01*
X17399500Y-30461004D01*
X17399500Y-44876900D01*
X17379815Y-44943939D01*
X17327011Y-44989694D01*
X17257853Y-44999638D01*
X17219206Y-44987385D01*
X17140839Y-44947455D01*
X16961118Y-44889059D01*
X16774486Y-44859500D01*
X16774481Y-44859500D01*
X16585519Y-44859500D01*
X16585514Y-44859500D01*
X16398898Y-44889057D01*
X16329604Y-44880102D01*
X16276152Y-44835106D01*
X16255513Y-44768355D01*
X16255500Y-44766584D01*
X16255500Y-17236004D01*
X16228581Y-17100677D01*
X16228580Y-17100676D01*
X16228580Y-17100672D01*
X16175775Y-16973189D01*
X16174112Y-16970700D01*
X16099114Y-16858457D01*
X16099112Y-16858454D01*
X16099111Y-16858453D01*
X12173496Y-12932839D01*
X12089880Y-12849223D01*
X14799500Y-12849223D01*
X14799500Y-13150776D01*
X14799501Y-13150793D01*
X14838861Y-13449766D01*
X14916913Y-13741060D01*
X15032314Y-14019661D01*
X15032318Y-14019671D01*
X15183099Y-14280831D01*
X15366679Y-14520078D01*
X15366685Y-14520085D01*
X15579914Y-14733314D01*
X15579921Y-14733320D01*
X15819168Y-14916900D01*
X16080328Y-15067681D01*
X16080329Y-15067681D01*
X16080332Y-15067683D01*
X16266072Y-15144619D01*
X16358939Y-15183086D01*
X16358940Y-15183086D01*
X16358942Y-15183087D01*
X16650232Y-15261138D01*
X16949217Y-15300500D01*
X16949224Y-15300500D01*
X17250776Y-15300500D01*
X17250783Y-15300500D01*
X17549768Y-15261138D01*
X17841058Y-15183087D01*
X18119668Y-15067683D01*
X18380832Y-14916900D01*
X18620080Y-14733319D01*
X18833319Y-14520080D01*
X19016900Y-14280832D01*
X19167683Y-14019668D01*
X19283087Y-13741058D01*
X19361138Y-13449768D01*
X19400500Y-13150783D01*
X19400500Y-12849217D01*
X19361138Y-12550232D01*
X19283087Y-12258942D01*
X19257641Y-12197511D01*
X19187104Y-12027219D01*
X19167683Y-11980332D01*
X19146464Y-11943580D01*
X19016900Y-11719168D01*
X18833320Y-11479921D01*
X18833314Y-11479914D01*
X18620085Y-11266685D01*
X18620078Y-11266679D01*
X18380831Y-11083099D01*
X18119671Y-10932318D01*
X18119661Y-10932314D01*
X17841060Y-10816913D01*
X17549766Y-10738861D01*
X17250793Y-10699501D01*
X17250788Y-10699500D01*
X17250783Y-10699500D01*
X16949217Y-10699500D01*
X16949211Y-10699500D01*
X16949206Y-10699501D01*
X16650233Y-10738861D01*
X16358939Y-10816913D01*
X16080338Y-10932314D01*
X16080328Y-10932318D01*
X15819168Y-11083099D01*
X15579921Y-11266679D01*
X15579914Y-11266685D01*
X15366685Y-11479914D01*
X15366679Y-11479921D01*
X15183099Y-11719168D01*
X15032318Y-11980328D01*
X15032314Y-11980338D01*
X14916913Y-12258939D01*
X14838861Y-12550233D01*
X14799501Y-12849206D01*
X14799500Y-12849223D01*
X12089880Y-12849223D01*
X8417480Y-9176823D01*
X8383995Y-9115500D01*
X8387230Y-9050825D01*
X8393553Y-9031368D01*
X8407306Y-8944534D01*
X8430500Y-8798097D01*
X8430500Y-8561902D01*
X8393553Y-8328631D01*
X8332516Y-8140781D01*
X8320568Y-8104008D01*
X8320566Y-8104005D01*
X8320566Y-8104003D01*
X8213342Y-7893566D01*
X8212240Y-7892049D01*
X8074517Y-7702490D01*
X7907510Y-7535483D01*
X7848282Y-7492451D01*
X7805617Y-7437122D01*
X7797550Y-7382404D01*
X7799104Y-7362657D01*
X7067574Y-6631128D01*
X7126853Y-6615245D01*
X7243147Y-6548102D01*
X7338102Y-6453147D01*
X7405245Y-6336853D01*
X7421128Y-6277575D01*
X8152658Y-7009105D01*
X8152658Y-7009104D01*
X8212914Y-6926169D01*
X8212918Y-6926163D01*
X8320102Y-6715802D01*
X8393065Y-6491247D01*
X8430000Y-6258052D01*
X8430000Y-6021947D01*
X8393065Y-5788752D01*
X8320102Y-5564197D01*
X8212914Y-5353828D01*
X8122964Y-5230023D01*
X8099484Y-5164216D01*
X8115309Y-5096162D01*
X8164640Y-5048220D01*
X8164546Y-5048047D01*
X8165169Y-5047706D01*
X8165415Y-5047468D01*
X8166480Y-5046990D01*
X8172326Y-5043797D01*
X8172331Y-5043796D01*
X8287546Y-4957546D01*
X8373796Y-4842331D01*
X8424091Y-4707483D01*
X8424091Y-4707481D01*
X8425874Y-4699938D01*
X8428146Y-4700474D01*
X8450429Y-4646688D01*
X8507823Y-4606843D01*
X8546976Y-4600500D01*
X17534218Y-4600500D01*
X17601257Y-4620185D01*
G37*
%TD.AperFunction*%
%TA.AperFunction,Conductor*%
G36*
X4490567Y-26807015D02*
G01*
X4523446Y-26813922D01*
X4573204Y-26862972D01*
X4588800Y-26923177D01*
X4588800Y-27428298D01*
X4605865Y-27514088D01*
X4599638Y-27583679D01*
X4556775Y-27638857D01*
X4490885Y-27662101D01*
X4422888Y-27646033D01*
X4396567Y-27625960D01*
X4242363Y-27471756D01*
X4242358Y-27471752D01*
X4102319Y-27370008D01*
X4059653Y-27314678D01*
X4053674Y-27245065D01*
X4086279Y-27183270D01*
X4102319Y-27169372D01*
X4127513Y-27151066D01*
X4127514Y-27151066D01*
X3376447Y-26400000D01*
X3382661Y-26400000D01*
X3484394Y-26372741D01*
X3575606Y-26320080D01*
X3650080Y-26245606D01*
X3702741Y-26154394D01*
X3730000Y-26052661D01*
X3730000Y-26046447D01*
X4490567Y-26807015D01*
G37*
%TD.AperFunction*%
%TA.AperFunction,Conductor*%
G36*
X4508134Y-24364987D02*
G01*
X4564067Y-24406859D01*
X4588484Y-24472323D01*
X4588800Y-24481169D01*
X4588800Y-25076821D01*
X4569115Y-25143860D01*
X4516311Y-25189615D01*
X4489132Y-25194418D01*
X3730000Y-25953551D01*
X3730000Y-25947339D01*
X3702741Y-25845606D01*
X3650080Y-25754394D01*
X3575606Y-25679920D01*
X3484394Y-25627259D01*
X3382661Y-25600000D01*
X3376446Y-25600000D01*
X4127513Y-24848932D01*
X4102319Y-24830628D01*
X4059653Y-24775298D01*
X4053674Y-24705685D01*
X4086279Y-24643889D01*
X4102313Y-24629994D01*
X4242365Y-24528242D01*
X4377119Y-24393488D01*
X4438442Y-24360003D01*
X4508134Y-24364987D01*
G37*
%TD.AperFunction*%
%TA.AperFunction,Conductor*%
G36*
X33552658Y-7009105D02*
G01*
X33552658Y-7009104D01*
X33612914Y-6926169D01*
X33612921Y-6926159D01*
X33696477Y-6762170D01*
X33744451Y-6711373D01*
X33812272Y-6694578D01*
X33878407Y-6717115D01*
X33896448Y-6733879D01*
X33896853Y-6733475D01*
X34040514Y-6877136D01*
X34040518Y-6877139D01*
X34204379Y-6986628D01*
X34204392Y-6986635D01*
X34386460Y-7062049D01*
X34386465Y-7062051D01*
X34386469Y-7062051D01*
X34386470Y-7062052D01*
X34579756Y-7100500D01*
X34579759Y-7100500D01*
X34776841Y-7100500D01*
X35304238Y-7100500D01*
X35371277Y-7120185D01*
X35377119Y-7124179D01*
X35498390Y-7212287D01*
X35589840Y-7258883D01*
X35591080Y-7259515D01*
X35641876Y-7307490D01*
X35658671Y-7375311D01*
X35636134Y-7441446D01*
X35591080Y-7480485D01*
X35498386Y-7527715D01*
X35332786Y-7648028D01*
X35188028Y-7792786D01*
X35067715Y-7958386D01*
X34974781Y-8140776D01*
X34911522Y-8335465D01*
X34879500Y-8537648D01*
X34879500Y-8742351D01*
X34911522Y-8944534D01*
X34974781Y-9139223D01*
X35067715Y-9321613D01*
X35188028Y-9487213D01*
X35332786Y-9631971D01*
X35487749Y-9744556D01*
X35498390Y-9752287D01*
X35589840Y-9798883D01*
X35591080Y-9799515D01*
X35641876Y-9847490D01*
X35658671Y-9915311D01*
X35636134Y-9981446D01*
X35591080Y-10020485D01*
X35498386Y-10067715D01*
X35332786Y-10188028D01*
X35188036Y-10332778D01*
X35188026Y-10332789D01*
X35183059Y-10339626D01*
X35127725Y-10382286D01*
X35058111Y-10388258D01*
X34996319Y-10355645D01*
X34995068Y-10354411D01*
X33817480Y-9176823D01*
X33783995Y-9115500D01*
X33787230Y-9050825D01*
X33793553Y-9031368D01*
X33807306Y-8944534D01*
X33830500Y-8798097D01*
X33830500Y-8561902D01*
X33793553Y-8328631D01*
X33732516Y-8140781D01*
X33720568Y-8104008D01*
X33720566Y-8104005D01*
X33720566Y-8104003D01*
X33613342Y-7893566D01*
X33612240Y-7892049D01*
X33474517Y-7702490D01*
X33307510Y-7535483D01*
X33248282Y-7492451D01*
X33205617Y-7437122D01*
X33197550Y-7382404D01*
X33199104Y-7362657D01*
X32467574Y-6631128D01*
X32526853Y-6615245D01*
X32643147Y-6548102D01*
X32738102Y-6453147D01*
X32805245Y-6336853D01*
X32821128Y-6277574D01*
X33552658Y-7009105D01*
G37*
%TD.AperFunction*%
%TA.AperFunction,Conductor*%
G36*
X93502562Y-500605D02*
G01*
X93949036Y-519072D01*
X93959209Y-519915D01*
X94400114Y-574873D01*
X94410194Y-576555D01*
X94845043Y-667733D01*
X94854951Y-670242D01*
X95280786Y-797019D01*
X95290454Y-800338D01*
X95591114Y-917656D01*
X95704349Y-961841D01*
X95713734Y-965958D01*
X96112854Y-1161076D01*
X96121868Y-1165953D01*
X96503545Y-1393383D01*
X96512124Y-1398989D01*
X96873693Y-1657143D01*
X96881770Y-1663430D01*
X97220796Y-1950571D01*
X97228336Y-1957512D01*
X97542487Y-2271663D01*
X97549428Y-2279203D01*
X97615881Y-2357664D01*
X97820706Y-2599500D01*
X97836565Y-2618224D01*
X97842860Y-2626312D01*
X98101010Y-2987875D01*
X98106616Y-2996454D01*
X98334046Y-3378131D01*
X98338923Y-3387145D01*
X98534041Y-3786265D01*
X98538158Y-3795650D01*
X98699656Y-4209533D01*
X98702984Y-4219226D01*
X98829753Y-4645035D01*
X98832269Y-4654970D01*
X98923441Y-5089791D01*
X98925128Y-5099900D01*
X98980082Y-5540769D01*
X98980928Y-5550983D01*
X98999394Y-5997437D01*
X98999500Y-6002561D01*
X98999500Y-60997438D01*
X98999394Y-61002562D01*
X98980928Y-61449016D01*
X98980082Y-61459230D01*
X98925128Y-61900099D01*
X98923441Y-61910208D01*
X98832269Y-62345029D01*
X98829753Y-62354964D01*
X98702984Y-62780773D01*
X98699656Y-62790466D01*
X98538158Y-63204349D01*
X98534041Y-63213734D01*
X98338923Y-63612854D01*
X98334046Y-63621868D01*
X98106616Y-64003545D01*
X98101010Y-64012124D01*
X97842860Y-64373687D01*
X97836565Y-64381775D01*
X97549428Y-64720796D01*
X97542487Y-64728336D01*
X97228336Y-65042487D01*
X97220796Y-65049428D01*
X96881775Y-65336565D01*
X96873687Y-65342860D01*
X96512124Y-65601010D01*
X96503545Y-65606616D01*
X96121868Y-65834046D01*
X96112854Y-65838923D01*
X95713734Y-66034041D01*
X95704349Y-66038158D01*
X95290466Y-66199656D01*
X95280773Y-66202984D01*
X94854964Y-66329753D01*
X94845029Y-66332269D01*
X94410208Y-66423441D01*
X94400099Y-66425128D01*
X93959230Y-66480082D01*
X93949016Y-66480928D01*
X93502563Y-66499394D01*
X93497439Y-66499500D01*
X6002561Y-66499500D01*
X5997437Y-66499394D01*
X5550983Y-66480928D01*
X5540769Y-66480082D01*
X5099900Y-66425128D01*
X5089791Y-66423441D01*
X4654970Y-66332269D01*
X4645035Y-66329753D01*
X4219226Y-66202984D01*
X4209533Y-66199656D01*
X3795650Y-66038158D01*
X3786265Y-66034041D01*
X3387145Y-65838923D01*
X3378131Y-65834046D01*
X2996454Y-65606616D01*
X2987875Y-65601010D01*
X2626312Y-65342860D01*
X2618224Y-65336565D01*
X2279203Y-65049428D01*
X2271663Y-65042487D01*
X1957512Y-64728336D01*
X1950571Y-64720796D01*
X1806337Y-64550500D01*
X1663430Y-64381770D01*
X1657139Y-64373687D01*
X1655450Y-64371322D01*
X1398989Y-64012124D01*
X1393383Y-64003545D01*
X1165953Y-63621868D01*
X1161076Y-63612854D01*
X965958Y-63213734D01*
X961841Y-63204349D01*
X863140Y-62951400D01*
X800338Y-62790454D01*
X797019Y-62780786D01*
X670242Y-62354951D01*
X667733Y-62345043D01*
X576555Y-61910194D01*
X574873Y-61900114D01*
X519919Y-61459246D01*
X519088Y-61449223D01*
X3099500Y-61449223D01*
X3099500Y-61750776D01*
X3099501Y-61750793D01*
X3138861Y-62049766D01*
X3216913Y-62341060D01*
X3332314Y-62619661D01*
X3332318Y-62619671D01*
X3483099Y-62880831D01*
X3666679Y-63120078D01*
X3666685Y-63120085D01*
X3879914Y-63333314D01*
X3879921Y-63333320D01*
X4119168Y-63516900D01*
X4380328Y-63667681D01*
X4380329Y-63667681D01*
X4380332Y-63667683D01*
X4484909Y-63711000D01*
X4658939Y-63783086D01*
X4658940Y-63783086D01*
X4658942Y-63783087D01*
X4950232Y-63861138D01*
X5249217Y-63900500D01*
X5249224Y-63900500D01*
X5550776Y-63900500D01*
X5550783Y-63900500D01*
X5849768Y-63861138D01*
X6141058Y-63783087D01*
X6419668Y-63667683D01*
X6680832Y-63516900D01*
X6920080Y-63333319D01*
X7133319Y-63120080D01*
X7316900Y-62880832D01*
X7467683Y-62619668D01*
X7583087Y-62341058D01*
X7661138Y-62049768D01*
X7700500Y-61750783D01*
X7700500Y-61449217D01*
X7661138Y-61150232D01*
X7583087Y-60858942D01*
X7568573Y-60823903D01*
X7531749Y-60735001D01*
X7467683Y-60580332D01*
X7430812Y-60516470D01*
X7316900Y-60319168D01*
X7133320Y-60079921D01*
X7133314Y-60079914D01*
X6920085Y-59866685D01*
X6920078Y-59866679D01*
X6680831Y-59683099D01*
X6419671Y-59532318D01*
X6419661Y-59532314D01*
X6141060Y-59416913D01*
X5849766Y-59338861D01*
X5550793Y-59299501D01*
X5550788Y-59299500D01*
X5550783Y-59299500D01*
X5249217Y-59299500D01*
X5249211Y-59299500D01*
X5249206Y-59299501D01*
X4950233Y-59338861D01*
X4658939Y-59416913D01*
X4380338Y-59532314D01*
X4380328Y-59532318D01*
X4119168Y-59683099D01*
X3879921Y-59866679D01*
X3879914Y-59866685D01*
X3666685Y-60079914D01*
X3666679Y-60079921D01*
X3483099Y-60319168D01*
X3332318Y-60580328D01*
X3332314Y-60580338D01*
X3216913Y-60858939D01*
X3138861Y-61150233D01*
X3099501Y-61449206D01*
X3099500Y-61449223D01*
X519088Y-61449223D01*
X519072Y-61449036D01*
X500606Y-61002562D01*
X500500Y-60997438D01*
X500500Y-37658496D01*
X1280299Y-37658496D01*
X1307218Y-37793822D01*
X1307221Y-37793832D01*
X1360022Y-37921307D01*
X1436687Y-38036045D01*
X1436688Y-38036046D01*
X1932961Y-38532318D01*
X1966446Y-38593641D01*
X1961462Y-38663332D01*
X1932961Y-38707680D01*
X1708387Y-38932254D01*
X1631722Y-39046992D01*
X1578921Y-39174467D01*
X1578918Y-39174479D01*
X1558309Y-39278090D01*
X1558309Y-39278092D01*
X1552000Y-39309807D01*
X1552000Y-43693506D01*
X1552000Y-43831494D01*
X1552000Y-43831496D01*
X1551999Y-43831496D01*
X1578918Y-43966822D01*
X1578921Y-43966832D01*
X1631722Y-44094307D01*
X1708387Y-44209045D01*
X1708388Y-44209046D01*
X2143194Y-44643851D01*
X2176679Y-44705174D01*
X2177986Y-44750929D01*
X2159500Y-44867647D01*
X2159500Y-45072351D01*
X2191522Y-45274534D01*
X2254781Y-45469223D01*
X2318691Y-45594653D01*
X2341373Y-45639168D01*
X2347715Y-45651613D01*
X2468028Y-45817213D01*
X2612786Y-45961971D01*
X2778385Y-46082284D01*
X2778387Y-46082285D01*
X2778390Y-46082287D01*
X2871630Y-46129795D01*
X2922426Y-46177770D01*
X2939221Y-46245591D01*
X2916684Y-46311725D01*
X2871630Y-46350765D01*
X2778644Y-46398143D01*
X2734077Y-46430523D01*
X2734077Y-46430524D01*
X3413554Y-47110000D01*
X3407339Y-47110000D01*
X3305606Y-47137259D01*
X3214394Y-47189920D01*
X3139920Y-47264394D01*
X3087259Y-47355606D01*
X3060000Y-47457339D01*
X3060000Y-47463553D01*
X2380524Y-46784077D01*
X2380523Y-46784077D01*
X2348143Y-46828644D01*
X2255244Y-47010968D01*
X2192009Y-47205582D01*
X2160000Y-47407682D01*
X2160000Y-47612317D01*
X2192009Y-47814417D01*
X2255244Y-48009031D01*
X2348141Y-48191350D01*
X2348147Y-48191359D01*
X2380523Y-48235921D01*
X2380524Y-48235922D01*
X3060000Y-47556446D01*
X3060000Y-47562661D01*
X3087259Y-47664394D01*
X3139920Y-47755606D01*
X3214394Y-47830080D01*
X3305606Y-47882741D01*
X3407339Y-47910000D01*
X3413553Y-47910000D01*
X2734076Y-48589474D01*
X2778652Y-48621861D01*
X2871628Y-48669234D01*
X2922425Y-48717208D01*
X2939220Y-48785029D01*
X2916683Y-48851164D01*
X2871630Y-48890203D01*
X2778388Y-48937713D01*
X2612786Y-49058028D01*
X2468028Y-49202786D01*
X2347715Y-49368386D01*
X2254781Y-49550776D01*
X2191522Y-49745465D01*
X2159500Y-49947648D01*
X2159500Y-50152351D01*
X2191522Y-50354534D01*
X2254781Y-50549223D01*
X2313857Y-50665164D01*
X2346721Y-50729664D01*
X2347715Y-50731613D01*
X2468028Y-50897213D01*
X2612786Y-51041971D01*
X2763650Y-51151578D01*
X2778390Y-51162287D01*
X2884805Y-51216508D01*
X2960776Y-51255218D01*
X2960778Y-51255218D01*
X2960781Y-51255220D01*
X3065137Y-51289127D01*
X3155465Y-51318477D01*
X3256557Y-51334488D01*
X3357648Y-51350500D01*
X3357649Y-51350500D01*
X3562351Y-51350500D01*
X3562352Y-51350500D01*
X3764534Y-51318477D01*
X3959219Y-51255220D01*
X4141610Y-51162287D01*
X4243948Y-51087935D01*
X4307213Y-51041971D01*
X4307215Y-51041968D01*
X4307219Y-51041966D01*
X4451966Y-50897219D01*
X4451968Y-50897215D01*
X4451971Y-50897213D01*
X4529422Y-50790609D01*
X4572287Y-50731610D01*
X4665220Y-50549219D01*
X4728477Y-50354534D01*
X4760500Y-50152352D01*
X4760500Y-49947648D01*
X4737875Y-49804803D01*
X4728477Y-49745465D01*
X4688875Y-49623585D01*
X4665220Y-49550781D01*
X4665218Y-49550778D01*
X4665218Y-49550776D01*
X4628084Y-49477897D01*
X4572287Y-49368390D01*
X4552023Y-49340499D01*
X4451971Y-49202786D01*
X4307213Y-49058028D01*
X4141611Y-48937713D01*
X4048369Y-48890203D01*
X3997574Y-48842229D01*
X3980779Y-48774407D01*
X4003317Y-48708273D01*
X4048371Y-48669234D01*
X4141346Y-48621861D01*
X4141347Y-48621861D01*
X4185921Y-48589474D01*
X3506447Y-47910000D01*
X3512661Y-47910000D01*
X3614394Y-47882741D01*
X3705606Y-47830080D01*
X3780080Y-47755606D01*
X3832741Y-47664394D01*
X3860000Y-47562661D01*
X3860000Y-47556447D01*
X4539474Y-48235921D01*
X4571859Y-48191349D01*
X4664755Y-48009031D01*
X4727990Y-47814417D01*
X4760000Y-47612317D01*
X4760000Y-47407682D01*
X4727990Y-47205582D01*
X4664755Y-47010968D01*
X4571859Y-46828650D01*
X4539474Y-46784077D01*
X4539474Y-46784076D01*
X3860000Y-47463551D01*
X3860000Y-47457339D01*
X3832741Y-47355606D01*
X3780080Y-47264394D01*
X3705606Y-47189920D01*
X3614394Y-47137259D01*
X3512661Y-47110000D01*
X3506446Y-47110000D01*
X4185922Y-46430524D01*
X4185921Y-46430523D01*
X4141359Y-46398147D01*
X4141350Y-46398141D01*
X4048369Y-46350765D01*
X3997573Y-46302790D01*
X3980778Y-46234969D01*
X4003315Y-46168835D01*
X4048370Y-46129795D01*
X4141610Y-46082287D01*
X4191144Y-46046298D01*
X4307213Y-45961971D01*
X4307215Y-45961968D01*
X4307219Y-45961966D01*
X4451966Y-45817219D01*
X4451968Y-45817215D01*
X4451971Y-45817213D01*
X4513680Y-45732276D01*
X4572287Y-45651610D01*
X4665220Y-45469219D01*
X4728477Y-45274534D01*
X4760500Y-45072352D01*
X4760500Y-44867648D01*
X4739372Y-44734255D01*
X4728477Y-44665465D01*
X4682446Y-44523797D01*
X4665220Y-44470781D01*
X4665218Y-44470778D01*
X4665218Y-44470776D01*
X4616494Y-44375151D01*
X4572287Y-44288390D01*
X4519314Y-44215478D01*
X4451971Y-44122786D01*
X4307213Y-43978028D01*
X4141614Y-43857715D01*
X4075925Y-43824245D01*
X4048917Y-43810483D01*
X3998123Y-43762511D01*
X3981328Y-43694690D01*
X4003865Y-43628555D01*
X4048917Y-43589516D01*
X4141610Y-43542287D01*
X4220864Y-43484706D01*
X4307213Y-43421971D01*
X4307215Y-43421968D01*
X4307219Y-43421966D01*
X4451966Y-43277219D01*
X4451968Y-43277215D01*
X4451971Y-43277213D01*
X4504732Y-43204590D01*
X4572287Y-43111610D01*
X4665220Y-42929219D01*
X4728477Y-42734534D01*
X4760500Y-42532352D01*
X4760500Y-42327648D01*
X4742013Y-42210929D01*
X4750967Y-42141636D01*
X4776802Y-42103853D01*
X5397672Y-41482983D01*
X5458993Y-41449500D01*
X5528685Y-41454484D01*
X5584618Y-41496356D01*
X5609035Y-41561820D01*
X5594183Y-41630093D01*
X5592739Y-41632665D01*
X5551956Y-41703304D01*
X5551953Y-41703309D01*
X5451605Y-41945571D01*
X5451602Y-41945581D01*
X5399070Y-42141636D01*
X5383730Y-42198885D01*
X5349500Y-42458872D01*
X5349500Y-42721127D01*
X5363011Y-42823745D01*
X5383730Y-42981116D01*
X5422375Y-43125340D01*
X5451602Y-43234418D01*
X5451605Y-43234428D01*
X5551953Y-43476690D01*
X5551958Y-43476700D01*
X5683075Y-43703803D01*
X5842718Y-43911851D01*
X5842726Y-43911860D01*
X6028140Y-44097274D01*
X6028148Y-44097281D01*
X6236196Y-44256924D01*
X6463299Y-44388041D01*
X6463309Y-44388046D01*
X6705571Y-44488394D01*
X6705581Y-44488398D01*
X6958884Y-44556270D01*
X7218880Y-44590500D01*
X7218887Y-44590500D01*
X7481113Y-44590500D01*
X7481120Y-44590500D01*
X7741116Y-44556270D01*
X7994419Y-44488398D01*
X8236697Y-44388043D01*
X8365203Y-44313850D01*
X8433100Y-44297378D01*
X8499127Y-44320230D01*
X8542317Y-44375151D01*
X8551200Y-44421238D01*
X8551200Y-50813192D01*
X8551199Y-50813196D01*
X8578118Y-50948522D01*
X8578121Y-50948532D01*
X8630922Y-51076007D01*
X8707587Y-51190745D01*
X8707588Y-51190746D01*
X11753964Y-54237120D01*
X11787449Y-54298443D01*
X11782465Y-54368135D01*
X11740593Y-54424068D01*
X11675129Y-54448485D01*
X11650402Y-54447424D01*
X11650000Y-54447768D01*
X11650000Y-55495854D01*
X11583343Y-55457370D01*
X11462535Y-55425000D01*
X11337465Y-55425000D01*
X11216657Y-55457370D01*
X11150000Y-55495854D01*
X11150000Y-54447768D01*
X11149999Y-54447768D01*
X11083875Y-54458241D01*
X10881784Y-54523903D01*
X10692442Y-54620379D01*
X10520540Y-54745272D01*
X10520535Y-54745276D01*
X10370276Y-54895535D01*
X10370272Y-54895540D01*
X10245379Y-55067442D01*
X10148904Y-55256782D01*
X10083242Y-55458869D01*
X10083242Y-55458872D01*
X10052970Y-55650000D01*
X10995854Y-55650000D01*
X10957370Y-55716657D01*
X10925000Y-55837465D01*
X10925000Y-55962535D01*
X10957370Y-56083343D01*
X10995854Y-56150000D01*
X10052970Y-56150000D01*
X10083242Y-56341127D01*
X10083242Y-56341130D01*
X10148904Y-56543217D01*
X10245379Y-56732557D01*
X10370272Y-56904459D01*
X10370276Y-56904464D01*
X10520535Y-57054723D01*
X10520540Y-57054727D01*
X10692442Y-57179620D01*
X10881782Y-57276095D01*
X11083871Y-57341757D01*
X11150000Y-57352231D01*
X11150000Y-56304145D01*
X11216657Y-56342630D01*
X11337465Y-56375000D01*
X11462535Y-56375000D01*
X11583343Y-56342630D01*
X11650000Y-56304145D01*
X11650000Y-57352230D01*
X11716126Y-57341757D01*
X11716129Y-57341757D01*
X11918217Y-57276095D01*
X12107557Y-57179620D01*
X12279459Y-57054727D01*
X12279464Y-57054723D01*
X12429721Y-56904466D01*
X12549371Y-56739781D01*
X12604701Y-56697115D01*
X12674314Y-56691136D01*
X12736110Y-56723741D01*
X12750008Y-56739781D01*
X12869890Y-56904785D01*
X12869894Y-56904790D01*
X13020213Y-57055109D01*
X13192179Y-57180048D01*
X13192181Y-57180049D01*
X13192184Y-57180051D01*
X13381588Y-57276557D01*
X13583757Y-57342246D01*
X13793713Y-57375500D01*
X13793714Y-57375500D01*
X14006286Y-57375500D01*
X14006287Y-57375500D01*
X14216243Y-57342246D01*
X14418412Y-57276557D01*
X14607816Y-57180051D01*
X14696172Y-57115857D01*
X14779786Y-57055109D01*
X14779788Y-57055106D01*
X14779792Y-57055104D01*
X14930104Y-56904792D01*
X15049683Y-56740204D01*
X15105011Y-56697540D01*
X15174624Y-56691561D01*
X15236420Y-56724166D01*
X15250313Y-56740199D01*
X15353661Y-56882446D01*
X15369896Y-56904792D01*
X15520213Y-57055109D01*
X15692179Y-57180048D01*
X15692181Y-57180049D01*
X15692184Y-57180051D01*
X15881588Y-57276557D01*
X16083757Y-57342246D01*
X16293713Y-57375500D01*
X16293714Y-57375500D01*
X16506286Y-57375500D01*
X16506287Y-57375500D01*
X16716243Y-57342246D01*
X16918412Y-57276557D01*
X17107816Y-57180051D01*
X17226729Y-57093656D01*
X17279784Y-57055110D01*
X17279784Y-57055109D01*
X17279792Y-57055104D01*
X17418604Y-56916291D01*
X17479923Y-56882809D01*
X17549615Y-56887793D01*
X17605549Y-56929664D01*
X17611821Y-56938878D01*
X17615185Y-56944333D01*
X17615186Y-56944334D01*
X17707288Y-57093656D01*
X17831344Y-57217712D01*
X17980666Y-57309814D01*
X18147203Y-57364999D01*
X18249991Y-57375500D01*
X19469300Y-57375499D01*
X19536339Y-57395184D01*
X19582094Y-57447987D01*
X19593300Y-57499499D01*
X19593300Y-59073692D01*
X19593299Y-59073696D01*
X19620218Y-59209022D01*
X19620221Y-59209032D01*
X19673022Y-59336507D01*
X19749687Y-59451245D01*
X24494454Y-64196012D01*
X24609190Y-64272676D01*
X24656652Y-64292335D01*
X24736671Y-64325480D01*
X24736672Y-64325480D01*
X24736677Y-64325482D01*
X24763545Y-64330825D01*
X24763551Y-64330826D01*
X24763591Y-64330834D01*
X24853937Y-64348805D01*
X24872006Y-64352400D01*
X24872007Y-64352400D01*
X29017096Y-64352400D01*
X29125557Y-64330825D01*
X29152428Y-64325480D01*
X29216169Y-64299077D01*
X29279907Y-64272677D01*
X29279908Y-64272676D01*
X29279911Y-64272675D01*
X29394643Y-64196014D01*
X29927873Y-63662782D01*
X29989194Y-63629299D01*
X30053870Y-63632534D01*
X30083757Y-63642246D01*
X30293713Y-63675500D01*
X30293714Y-63675500D01*
X30506286Y-63675500D01*
X30506287Y-63675500D01*
X30716243Y-63642246D01*
X30746129Y-63632534D01*
X30815969Y-63630539D01*
X30872128Y-63662785D01*
X31403753Y-64194411D01*
X31403754Y-64194412D01*
X31518492Y-64271077D01*
X31645967Y-64323878D01*
X31645972Y-64323880D01*
X31645976Y-64323880D01*
X31645977Y-64323881D01*
X31781303Y-64350800D01*
X31781306Y-64350800D01*
X43102596Y-64350800D01*
X43202968Y-64330834D01*
X43237928Y-64323880D01*
X43314102Y-64292328D01*
X43365407Y-64271077D01*
X43365408Y-64271076D01*
X43365411Y-64271075D01*
X43480143Y-64194414D01*
X43976273Y-63698281D01*
X44037592Y-63664799D01*
X44102266Y-63668033D01*
X44132157Y-63677746D01*
X44342113Y-63711000D01*
X44342114Y-63711000D01*
X44554686Y-63711000D01*
X44554687Y-63711000D01*
X44764643Y-63677746D01*
X44966812Y-63612057D01*
X45156216Y-63515551D01*
X45275129Y-63429156D01*
X45328184Y-63390610D01*
X45328184Y-63390609D01*
X45328192Y-63390604D01*
X45467004Y-63251791D01*
X45528323Y-63218309D01*
X45598015Y-63223293D01*
X45653949Y-63265164D01*
X45660221Y-63274378D01*
X45663585Y-63279833D01*
X45663586Y-63279834D01*
X45755688Y-63429156D01*
X45879744Y-63553212D01*
X46029066Y-63645314D01*
X46195603Y-63700499D01*
X46298391Y-63711000D01*
X47598408Y-63710999D01*
X47701197Y-63700499D01*
X47867734Y-63645314D01*
X48017056Y-63553212D01*
X48141112Y-63429156D01*
X48233214Y-63279834D01*
X48288399Y-63113297D01*
X48298900Y-63010509D01*
X48298899Y-61460492D01*
X48297251Y-61444363D01*
X48288399Y-61357703D01*
X48288398Y-61357700D01*
X48286224Y-61351140D01*
X48233214Y-61191166D01*
X48141112Y-61041844D01*
X48017056Y-60917788D01*
X47867734Y-60825686D01*
X47701197Y-60770501D01*
X47701195Y-60770500D01*
X47598410Y-60760000D01*
X46298398Y-60760000D01*
X46298381Y-60760001D01*
X46195603Y-60770500D01*
X46195600Y-60770501D01*
X46029068Y-60825685D01*
X46029063Y-60825687D01*
X45879742Y-60917789D01*
X45755689Y-61041842D01*
X45660221Y-61196621D01*
X45608273Y-61243345D01*
X45539310Y-61254568D01*
X45475228Y-61226724D01*
X45467001Y-61219205D01*
X45328186Y-61080390D01*
X45156220Y-60955451D01*
X44966814Y-60858944D01*
X44966813Y-60858943D01*
X44966812Y-60858943D01*
X44764643Y-60793254D01*
X44764641Y-60793253D01*
X44764640Y-60793253D01*
X44603357Y-60767708D01*
X44554687Y-60760000D01*
X44342113Y-60760000D01*
X44293442Y-60767708D01*
X44132160Y-60793253D01*
X43929985Y-60858944D01*
X43740579Y-60955451D01*
X43568613Y-61080390D01*
X43418294Y-61230709D01*
X43418290Y-61230714D01*
X43298408Y-61395718D01*
X43243078Y-61438384D01*
X43173465Y-61444363D01*
X43111670Y-61411757D01*
X43097772Y-61395718D01*
X42978127Y-61231040D01*
X42978123Y-61231035D01*
X42827864Y-61080776D01*
X42827859Y-61080772D01*
X42655957Y-60955879D01*
X42466615Y-60859403D01*
X42264524Y-60793741D01*
X42198400Y-60783268D01*
X42198400Y-61831354D01*
X42131743Y-61792870D01*
X42010935Y-61760500D01*
X41885865Y-61760500D01*
X41765057Y-61792870D01*
X41698400Y-61831354D01*
X41698400Y-60783268D01*
X41698399Y-60783268D01*
X41632275Y-60793741D01*
X41430184Y-60859403D01*
X41240842Y-60955879D01*
X41068940Y-61080772D01*
X41068935Y-61080776D01*
X40918676Y-61231035D01*
X40918672Y-61231040D01*
X40799027Y-61395718D01*
X40743697Y-61438384D01*
X40674084Y-61444363D01*
X40612289Y-61411757D01*
X40598391Y-61395718D01*
X40478509Y-61230714D01*
X40478505Y-61230709D01*
X40328186Y-61080390D01*
X40156220Y-60955451D01*
X39966814Y-60858944D01*
X39966813Y-60858943D01*
X39966812Y-60858943D01*
X39764643Y-60793254D01*
X39764641Y-60793253D01*
X39764640Y-60793253D01*
X39603357Y-60767708D01*
X39554687Y-60760000D01*
X39342113Y-60760000D01*
X39293442Y-60767708D01*
X39132160Y-60793253D01*
X38929985Y-60858944D01*
X38740579Y-60955451D01*
X38568613Y-61080390D01*
X38418290Y-61230713D01*
X38293351Y-61402679D01*
X38196844Y-61592085D01*
X38131153Y-61794260D01*
X38097900Y-62004213D01*
X38097900Y-62466786D01*
X38129129Y-62663961D01*
X38131154Y-62676743D01*
X38167136Y-62787483D01*
X38169131Y-62857323D01*
X38133051Y-62917156D01*
X38070350Y-62947984D01*
X38049205Y-62949800D01*
X34374500Y-62949800D01*
X34307461Y-62930115D01*
X34261706Y-62877311D01*
X34250500Y-62825800D01*
X34250499Y-61891519D01*
X34270183Y-61824480D01*
X34286818Y-61803838D01*
X34505218Y-61585439D01*
X34747314Y-61343343D01*
X34823975Y-61228611D01*
X34837674Y-61195540D01*
X34856440Y-61150233D01*
X34876780Y-61101128D01*
X34893731Y-61015909D01*
X34903700Y-60965793D01*
X34903700Y-60495116D01*
X34913139Y-60447664D01*
X34960057Y-60334392D01*
X34972937Y-60303297D01*
X35003700Y-60148642D01*
X35003700Y-59990958D01*
X35003700Y-59990955D01*
X35003699Y-59990953D01*
X34978980Y-59866685D01*
X34972937Y-59836303D01*
X34913139Y-59691936D01*
X34903700Y-59644484D01*
X34903700Y-54832707D01*
X34903303Y-54830714D01*
X34903298Y-54830686D01*
X34876781Y-54697379D01*
X34876780Y-54697372D01*
X34861846Y-54661317D01*
X34823977Y-54569892D01*
X34747312Y-54455154D01*
X33979545Y-53687387D01*
X33864807Y-53610722D01*
X33737332Y-53557921D01*
X33737322Y-53557918D01*
X33601996Y-53531000D01*
X33601994Y-53531000D01*
X33601993Y-53531000D01*
X28377818Y-53531000D01*
X28310779Y-53511315D01*
X28290137Y-53494681D01*
X26008358Y-51212901D01*
X25974873Y-51151578D01*
X25979857Y-51081886D01*
X26021729Y-51025953D01*
X26039745Y-51014735D01*
X26055687Y-51006611D01*
X26107816Y-50980051D01*
X26159255Y-50942678D01*
X26279786Y-50855109D01*
X26279788Y-50855106D01*
X26279792Y-50855104D01*
X26430104Y-50704792D01*
X26549683Y-50540204D01*
X26605011Y-50497540D01*
X26674624Y-50491561D01*
X26736420Y-50524166D01*
X26750313Y-50540199D01*
X26831391Y-50651794D01*
X26869896Y-50704792D01*
X27020213Y-50855109D01*
X27192179Y-50980048D01*
X27192181Y-50980049D01*
X27192184Y-50980051D01*
X27381588Y-51076557D01*
X27583757Y-51142246D01*
X27793713Y-51175500D01*
X27793714Y-51175500D01*
X28006286Y-51175500D01*
X28006287Y-51175500D01*
X28216243Y-51142246D01*
X28418412Y-51076557D01*
X28607816Y-50980051D01*
X28644760Y-50953210D01*
X28779786Y-50855109D01*
X28779788Y-50855106D01*
X28779792Y-50855104D01*
X28930104Y-50704792D01*
X29049683Y-50540204D01*
X29105011Y-50497540D01*
X29174624Y-50491561D01*
X29236420Y-50524166D01*
X29250313Y-50540199D01*
X29331391Y-50651794D01*
X29369896Y-50704792D01*
X29520213Y-50855109D01*
X29692179Y-50980048D01*
X29692181Y-50980049D01*
X29692184Y-50980051D01*
X29881588Y-51076557D01*
X30083757Y-51142246D01*
X30293713Y-51175500D01*
X30293714Y-51175500D01*
X30506286Y-51175500D01*
X30506287Y-51175500D01*
X30716243Y-51142246D01*
X30918412Y-51076557D01*
X31107816Y-50980051D01*
X31279792Y-50855104D01*
X31418604Y-50716291D01*
X31479923Y-50682809D01*
X31549615Y-50687793D01*
X31605549Y-50729664D01*
X31611821Y-50738878D01*
X31615185Y-50744333D01*
X31615186Y-50744334D01*
X31707288Y-50893656D01*
X31831344Y-51017712D01*
X31980666Y-51109814D01*
X32147203Y-51164999D01*
X32249991Y-51175500D01*
X32742417Y-51175499D01*
X32809456Y-51195183D01*
X32830098Y-51211818D01*
X35388215Y-53769937D01*
X35388219Y-53769940D01*
X35552079Y-53879428D01*
X35552088Y-53879433D01*
X35593334Y-53896517D01*
X35734165Y-53954852D01*
X35927455Y-53993300D01*
X35927458Y-53993301D01*
X35927460Y-53993301D01*
X36124543Y-53993301D01*
X36124544Y-53993300D01*
X36317836Y-53954852D01*
X36472342Y-53890852D01*
X36541811Y-53883384D01*
X36604291Y-53914659D01*
X36607476Y-53917733D01*
X37302728Y-54612985D01*
X37329608Y-54653214D01*
X37389402Y-54797572D01*
X37389409Y-54797585D01*
X37477010Y-54928688D01*
X37477013Y-54928692D01*
X37588507Y-55040186D01*
X37588511Y-55040189D01*
X37719614Y-55127790D01*
X37719627Y-55127797D01*
X37865298Y-55188135D01*
X37865303Y-55188137D01*
X38019958Y-55218900D01*
X38019963Y-55218900D01*
X38026018Y-55219497D01*
X38025834Y-55221359D01*
X38084498Y-55238585D01*
X38130253Y-55291389D01*
X38140197Y-55360547D01*
X38135391Y-55381216D01*
X38131153Y-55394257D01*
X38097900Y-55604213D01*
X38097900Y-56066786D01*
X38117677Y-56191657D01*
X38131154Y-56276743D01*
X38189621Y-56456686D01*
X38196844Y-56478914D01*
X38293351Y-56668320D01*
X38418290Y-56840286D01*
X38568613Y-56990609D01*
X38740579Y-57115548D01*
X38740581Y-57115549D01*
X38740584Y-57115551D01*
X38929988Y-57212057D01*
X39132157Y-57277746D01*
X39342113Y-57311000D01*
X39342114Y-57311000D01*
X39554686Y-57311000D01*
X39554687Y-57311000D01*
X39764643Y-57277746D01*
X39966812Y-57212057D01*
X40156216Y-57115551D01*
X40186780Y-57093345D01*
X40328186Y-56990609D01*
X40328188Y-56990606D01*
X40328192Y-56990604D01*
X40478504Y-56840292D01*
X40598083Y-56675704D01*
X40653411Y-56633040D01*
X40723024Y-56627061D01*
X40784820Y-56659666D01*
X40798713Y-56675699D01*
X40845580Y-56740206D01*
X40918296Y-56840292D01*
X41068613Y-56990609D01*
X41240579Y-57115548D01*
X41240581Y-57115549D01*
X41240584Y-57115551D01*
X41429988Y-57212057D01*
X41632157Y-57277746D01*
X41842113Y-57311000D01*
X41842114Y-57311000D01*
X42054686Y-57311000D01*
X42054687Y-57311000D01*
X42264643Y-57277746D01*
X42466812Y-57212057D01*
X42656216Y-57115551D01*
X42686780Y-57093345D01*
X42828186Y-56990609D01*
X42828188Y-56990606D01*
X42828192Y-56990604D01*
X42978504Y-56840292D01*
X43098083Y-56675704D01*
X43153411Y-56633040D01*
X43223024Y-56627061D01*
X43284820Y-56659666D01*
X43298713Y-56675699D01*
X43345580Y-56740206D01*
X43418296Y-56840292D01*
X43568613Y-56990609D01*
X43740579Y-57115548D01*
X43740581Y-57115549D01*
X43740584Y-57115551D01*
X43929988Y-57212057D01*
X44132157Y-57277746D01*
X44342113Y-57311000D01*
X44342114Y-57311000D01*
X44554686Y-57311000D01*
X44554687Y-57311000D01*
X44764643Y-57277746D01*
X44966812Y-57212057D01*
X45156216Y-57115551D01*
X45234227Y-57058873D01*
X45328184Y-56990610D01*
X45328184Y-56990609D01*
X45328192Y-56990604D01*
X45467367Y-56851428D01*
X45528686Y-56817946D01*
X45598378Y-56822930D01*
X45654312Y-56864801D01*
X45660584Y-56874015D01*
X45756084Y-57028845D01*
X45880054Y-57152815D01*
X46029275Y-57244856D01*
X46029280Y-57244858D01*
X46195702Y-57300005D01*
X46195709Y-57300006D01*
X46298419Y-57310499D01*
X46698399Y-57310499D01*
X46698400Y-57310498D01*
X46698400Y-56239645D01*
X46765057Y-56278130D01*
X46885865Y-56310500D01*
X47010935Y-56310500D01*
X47131743Y-56278130D01*
X47198400Y-56239645D01*
X47198400Y-57310499D01*
X47453700Y-57310499D01*
X47520739Y-57330184D01*
X47566494Y-57382988D01*
X47577700Y-57434499D01*
X47577700Y-58129044D01*
X47596924Y-58225688D01*
X47616146Y-58322328D01*
X47616148Y-58322332D01*
X47616149Y-58322336D01*
X47625647Y-58345266D01*
X47638238Y-58375664D01*
X47691566Y-58504411D01*
X47691571Y-58504420D01*
X47801059Y-58668280D01*
X47801060Y-58668281D01*
X47801061Y-58668282D01*
X47940418Y-58807639D01*
X47940419Y-58807639D01*
X47947486Y-58814706D01*
X47947485Y-58814706D01*
X47947488Y-58814708D01*
X52550560Y-63417781D01*
X52550561Y-63417782D01*
X52648327Y-63515548D01*
X52689919Y-63557140D01*
X52786950Y-63621974D01*
X52825445Y-63663074D01*
X52884724Y-63765748D01*
X52884727Y-63765753D01*
X52884729Y-63765755D01*
X53026009Y-63949875D01*
X53026015Y-63949882D01*
X53190117Y-64113984D01*
X53190124Y-64113990D01*
X53374254Y-64255278D01*
X53374256Y-64255279D01*
X53575237Y-64371314D01*
X53575240Y-64371315D01*
X53575248Y-64371320D01*
X53789670Y-64460137D01*
X54013851Y-64520206D01*
X54232318Y-64548968D01*
X54243939Y-64550498D01*
X54243955Y-64550500D01*
X54243962Y-64550500D01*
X54476038Y-64550500D01*
X54476045Y-64550500D01*
X54706149Y-64520206D01*
X54930330Y-64460137D01*
X55144752Y-64371320D01*
X55345748Y-64255276D01*
X55529877Y-64113989D01*
X55693989Y-63949877D01*
X55835276Y-63765748D01*
X55951320Y-63564752D01*
X56040137Y-63350330D01*
X56100206Y-63126149D01*
X56130500Y-62896045D01*
X56130500Y-62663955D01*
X56100206Y-62433851D01*
X56040137Y-62209670D01*
X55951320Y-61995248D01*
X55951314Y-61995237D01*
X55835279Y-61794256D01*
X55835278Y-61794254D01*
X55693990Y-61610124D01*
X55693984Y-61610117D01*
X55529882Y-61446015D01*
X55529875Y-61446009D01*
X55345745Y-61304721D01*
X55345743Y-61304720D01*
X55144762Y-61188685D01*
X55144754Y-61188681D01*
X55144752Y-61188680D01*
X55144745Y-61188677D01*
X54930328Y-61099862D01*
X54788203Y-61061780D01*
X54706149Y-61039794D01*
X54677386Y-61036007D01*
X54476052Y-61009500D01*
X54476045Y-61009500D01*
X54243955Y-61009500D01*
X54243947Y-61009500D01*
X54013851Y-61039794D01*
X53789671Y-61099862D01*
X53575254Y-61188677D01*
X53575249Y-61188679D01*
X53388875Y-61296281D01*
X53320975Y-61312753D01*
X53254948Y-61289900D01*
X53239195Y-61276574D01*
X51884285Y-59921664D01*
X50438900Y-58476280D01*
X50405416Y-58414958D01*
X50410400Y-58345266D01*
X50438901Y-58300919D01*
X60866936Y-47872885D01*
X60866936Y-47872884D01*
X60866939Y-47872882D01*
X60886555Y-47843524D01*
X60924999Y-47785990D01*
X60924999Y-47785989D01*
X60945300Y-47755606D01*
X60976432Y-47709014D01*
X61051851Y-47526935D01*
X61071888Y-47426206D01*
X61090300Y-47333641D01*
X61090300Y-47136560D01*
X61090300Y-37989983D01*
X70199500Y-37989983D01*
X70199500Y-40790001D01*
X70199501Y-40790018D01*
X70210000Y-40892796D01*
X70210001Y-40892799D01*
X70265185Y-41059331D01*
X70265187Y-41059336D01*
X70300069Y-41115888D01*
X70357288Y-41208656D01*
X70481344Y-41332712D01*
X70630666Y-41424814D01*
X70797203Y-41479999D01*
X70899991Y-41490500D01*
X72934217Y-41490499D01*
X73001256Y-41510184D01*
X73021897Y-41526817D01*
X92941160Y-61446081D01*
X92941161Y-61446082D01*
X93080518Y-61585439D01*
X93174391Y-61648163D01*
X93219195Y-61701773D01*
X93229500Y-61751264D01*
X93229500Y-64097870D01*
X93229501Y-64097876D01*
X93235908Y-64157483D01*
X93286202Y-64292328D01*
X93286206Y-64292335D01*
X93372452Y-64407544D01*
X93372455Y-64407547D01*
X93487664Y-64493793D01*
X93487671Y-64493797D01*
X93622517Y-64544091D01*
X93622516Y-64544091D01*
X93629444Y-64544835D01*
X93682127Y-64550500D01*
X96317872Y-64550499D01*
X96377483Y-64544091D01*
X96512331Y-64493796D01*
X96627546Y-64407546D01*
X96713796Y-64292331D01*
X96764091Y-64157483D01*
X96770500Y-64097873D01*
X96770499Y-61462128D01*
X96764171Y-61403263D01*
X96764091Y-61402516D01*
X96713797Y-61267671D01*
X96713793Y-61267664D01*
X96627547Y-61152455D01*
X96627544Y-61152452D01*
X96512335Y-61066206D01*
X96512328Y-61066202D01*
X96377482Y-61015908D01*
X96377483Y-61015908D01*
X96317883Y-61009501D01*
X96317881Y-61009500D01*
X96317873Y-61009500D01*
X96317865Y-61009500D01*
X96124500Y-61009500D01*
X96057461Y-60989815D01*
X96011706Y-60937011D01*
X96000500Y-60885500D01*
X96000500Y-60709756D01*
X95962052Y-60516470D01*
X95962051Y-60516469D01*
X95962051Y-60516465D01*
X95938738Y-60460181D01*
X95886635Y-60334392D01*
X95886628Y-60334379D01*
X95777139Y-60170518D01*
X95777136Y-60170514D01*
X95637785Y-60031163D01*
X95637781Y-60031160D01*
X95473920Y-59921671D01*
X95473907Y-59921664D01*
X95291839Y-59846250D01*
X95291829Y-59846247D01*
X95098543Y-59807800D01*
X95098541Y-59807800D01*
X94184083Y-59807800D01*
X94117044Y-59788115D01*
X94096402Y-59771481D01*
X87980659Y-53655738D01*
X90044977Y-53655738D01*
X90044977Y-53957291D01*
X90044978Y-53957308D01*
X90084338Y-54256281D01*
X90162390Y-54547575D01*
X90277791Y-54826176D01*
X90277795Y-54826186D01*
X90428576Y-55087346D01*
X90612156Y-55326593D01*
X90612162Y-55326600D01*
X90825391Y-55539829D01*
X90825398Y-55539835D01*
X91064645Y-55723415D01*
X91325805Y-55874196D01*
X91325806Y-55874196D01*
X91325809Y-55874198D01*
X91511549Y-55951134D01*
X91604416Y-55989601D01*
X91604417Y-55989601D01*
X91604419Y-55989602D01*
X91895709Y-56067653D01*
X92194694Y-56107015D01*
X92194701Y-56107015D01*
X92496253Y-56107015D01*
X92496260Y-56107015D01*
X92795245Y-56067653D01*
X93086535Y-55989602D01*
X93365145Y-55874198D01*
X93626309Y-55723415D01*
X93865557Y-55539834D01*
X94078796Y-55326595D01*
X94262377Y-55087347D01*
X94413160Y-54826183D01*
X94528564Y-54547573D01*
X94606615Y-54256283D01*
X94645977Y-53957298D01*
X94645977Y-53655732D01*
X94606615Y-53356747D01*
X94528564Y-53065457D01*
X94518982Y-53042325D01*
X94456648Y-52891836D01*
X94413160Y-52786847D01*
X94262377Y-52525683D01*
X94078796Y-52286435D01*
X94078791Y-52286429D01*
X93865562Y-52073200D01*
X93865555Y-52073194D01*
X93626308Y-51889614D01*
X93365148Y-51738833D01*
X93365138Y-51738829D01*
X93086537Y-51623428D01*
X92795243Y-51545376D01*
X92496270Y-51506016D01*
X92496265Y-51506015D01*
X92496260Y-51506015D01*
X92194694Y-51506015D01*
X92194688Y-51506015D01*
X92194683Y-51506016D01*
X91895710Y-51545376D01*
X91604416Y-51623428D01*
X91325815Y-51738829D01*
X91325805Y-51738833D01*
X91064645Y-51889614D01*
X90825398Y-52073194D01*
X90825391Y-52073200D01*
X90612162Y-52286429D01*
X90612156Y-52286436D01*
X90428576Y-52525683D01*
X90277795Y-52786843D01*
X90277791Y-52786853D01*
X90162390Y-53065454D01*
X90084338Y-53356748D01*
X90044978Y-53655721D01*
X90044977Y-53655738D01*
X87980659Y-53655738D01*
X79208915Y-44883994D01*
X93230000Y-44883994D01*
X93230000Y-45116005D01*
X93230001Y-45116022D01*
X93260283Y-45346040D01*
X93260286Y-45346053D01*
X93320336Y-45570167D01*
X93409124Y-45784521D01*
X93409132Y-45784538D01*
X93525136Y-45985461D01*
X93525142Y-45985469D01*
X93584117Y-46062327D01*
X94517037Y-45129408D01*
X94534075Y-45192993D01*
X94599901Y-45307007D01*
X94692993Y-45400099D01*
X94807007Y-45465925D01*
X94870591Y-45482962D01*
X93937671Y-46415881D01*
X94014530Y-46474857D01*
X94014538Y-46474863D01*
X94215461Y-46590867D01*
X94215478Y-46590875D01*
X94429832Y-46679663D01*
X94653946Y-46739713D01*
X94653959Y-46739716D01*
X94883977Y-46769998D01*
X94883995Y-46770000D01*
X95116005Y-46770000D01*
X95116022Y-46769998D01*
X95346040Y-46739716D01*
X95346053Y-46739713D01*
X95570167Y-46679663D01*
X95784521Y-46590875D01*
X95784538Y-46590867D01*
X95985475Y-46474855D01*
X96062327Y-46415883D01*
X96062327Y-46415880D01*
X95129408Y-45482962D01*
X95192993Y-45465925D01*
X95307007Y-45400099D01*
X95400099Y-45307007D01*
X95465925Y-45192993D01*
X95482962Y-45129409D01*
X96415880Y-46062327D01*
X96415883Y-46062327D01*
X96474855Y-45985475D01*
X96590867Y-45784538D01*
X96590875Y-45784521D01*
X96679663Y-45570167D01*
X96739713Y-45346053D01*
X96739716Y-45346040D01*
X96769998Y-45116022D01*
X96770000Y-45116005D01*
X96770000Y-44883994D01*
X96769998Y-44883977D01*
X96739716Y-44653959D01*
X96739713Y-44653946D01*
X96679663Y-44429832D01*
X96590875Y-44215478D01*
X96590867Y-44215461D01*
X96474863Y-44014538D01*
X96474857Y-44014530D01*
X96415881Y-43937671D01*
X95482962Y-44870590D01*
X95465925Y-44807007D01*
X95400099Y-44692993D01*
X95307007Y-44599901D01*
X95192993Y-44534075D01*
X95129409Y-44517037D01*
X96062327Y-43584117D01*
X95985469Y-43525142D01*
X95985461Y-43525136D01*
X95784538Y-43409132D01*
X95784521Y-43409124D01*
X95570167Y-43320336D01*
X95346053Y-43260286D01*
X95346040Y-43260283D01*
X95116022Y-43230001D01*
X95116005Y-43230000D01*
X94883995Y-43230000D01*
X94883977Y-43230001D01*
X94653959Y-43260283D01*
X94653946Y-43260286D01*
X94429832Y-43320336D01*
X94215478Y-43409124D01*
X94215461Y-43409132D01*
X94014541Y-43525134D01*
X94014533Y-43525140D01*
X93937671Y-43584116D01*
X93937671Y-43584117D01*
X94870591Y-44517037D01*
X94807007Y-44534075D01*
X94692993Y-44599901D01*
X94599901Y-44692993D01*
X94534075Y-44807007D01*
X94517037Y-44870591D01*
X93584117Y-43937671D01*
X93584116Y-43937671D01*
X93525140Y-44014533D01*
X93525134Y-44014541D01*
X93409132Y-44215461D01*
X93409124Y-44215478D01*
X93320336Y-44429832D01*
X93260286Y-44653946D01*
X93260283Y-44653959D01*
X93230001Y-44883977D01*
X93230000Y-44883994D01*
X79208915Y-44883994D01*
X74436818Y-40111897D01*
X74403333Y-40050574D01*
X74400499Y-40024216D01*
X74400499Y-37989998D01*
X74400498Y-37989981D01*
X74389999Y-37887203D01*
X74389998Y-37887200D01*
X74372684Y-37834951D01*
X74334814Y-37720666D01*
X74242712Y-37571344D01*
X74118656Y-37447288D01*
X74025888Y-37390069D01*
X73969336Y-37355187D01*
X73969331Y-37355185D01*
X73962076Y-37352781D01*
X73802797Y-37300001D01*
X73802795Y-37300000D01*
X73700010Y-37289500D01*
X70899998Y-37289500D01*
X70899981Y-37289501D01*
X70797203Y-37300000D01*
X70797200Y-37300001D01*
X70630668Y-37355185D01*
X70630663Y-37355187D01*
X70481342Y-37447289D01*
X70357289Y-37571342D01*
X70265187Y-37720663D01*
X70265185Y-37720668D01*
X70261530Y-37731699D01*
X70210001Y-37887203D01*
X70210001Y-37887204D01*
X70210000Y-37887204D01*
X70199500Y-37989983D01*
X61090300Y-37989983D01*
X61090300Y-32654202D01*
X66929500Y-32654202D01*
X66929500Y-32890397D01*
X66966446Y-33123668D01*
X67039433Y-33348296D01*
X67136336Y-33538477D01*
X67146657Y-33558733D01*
X67285483Y-33749810D01*
X67452490Y-33916817D01*
X67643567Y-34055643D01*
X67723000Y-34096116D01*
X67854003Y-34162866D01*
X67854005Y-34162866D01*
X67854008Y-34162868D01*
X67974412Y-34201989D01*
X68078631Y-34235853D01*
X68311903Y-34272800D01*
X68311908Y-34272800D01*
X68548097Y-34272800D01*
X68781368Y-34235853D01*
X68792352Y-34232284D01*
X69005992Y-34162868D01*
X69216433Y-34055643D01*
X69407510Y-33916817D01*
X69574517Y-33749810D01*
X69713343Y-33558733D01*
X69820568Y-33348292D01*
X69893553Y-33123668D01*
X69930500Y-32890397D01*
X69930500Y-32654202D01*
X69893553Y-32420931D01*
X69820566Y-32196303D01*
X69731190Y-32020894D01*
X69713343Y-31985867D01*
X69574517Y-31794790D01*
X69407510Y-31627783D01*
X69216433Y-31488957D01*
X69214200Y-31487819D01*
X69005996Y-31381733D01*
X68781368Y-31308746D01*
X68548097Y-31271800D01*
X68548092Y-31271800D01*
X68311908Y-31271800D01*
X68311903Y-31271800D01*
X68078631Y-31308746D01*
X67854003Y-31381733D01*
X67643566Y-31488957D01*
X67628509Y-31499897D01*
X67452490Y-31627783D01*
X67452488Y-31627785D01*
X67452487Y-31627785D01*
X67285485Y-31794787D01*
X67285485Y-31794788D01*
X67285483Y-31794790D01*
X67244264Y-31851523D01*
X67146657Y-31985866D01*
X67039433Y-32196303D01*
X66966446Y-32420931D01*
X66929500Y-32654202D01*
X61090300Y-32654202D01*
X61090300Y-27686459D01*
X61090300Y-27686456D01*
X61073218Y-27600581D01*
X61061068Y-27539500D01*
X61051851Y-27493164D01*
X61010913Y-27394332D01*
X60976432Y-27311086D01*
X60955022Y-27279043D01*
X60866939Y-27147217D01*
X60776538Y-27056816D01*
X60776538Y-27056817D01*
X60727582Y-27007861D01*
X60727578Y-27007858D01*
X60692003Y-26972283D01*
X66929500Y-26972283D01*
X66929500Y-28572301D01*
X66929501Y-28572318D01*
X66940000Y-28675096D01*
X66940001Y-28675099D01*
X66995185Y-28841631D01*
X66995186Y-28841634D01*
X67087288Y-28990956D01*
X67211344Y-29115012D01*
X67360666Y-29207114D01*
X67527203Y-29262299D01*
X67629991Y-29272800D01*
X68464224Y-29272799D01*
X68531263Y-29292483D01*
X68551905Y-29309117D01*
X77320781Y-38077906D01*
X77354266Y-38139229D01*
X77350807Y-38204589D01*
X77340001Y-38237200D01*
X77329500Y-38339983D01*
X77329500Y-39940001D01*
X77329501Y-39940018D01*
X77340000Y-40042796D01*
X77340001Y-40042799D01*
X77395185Y-40209331D01*
X77395187Y-40209336D01*
X77421631Y-40252209D01*
X77487288Y-40358656D01*
X77611344Y-40482712D01*
X77760666Y-40574814D01*
X77927203Y-40629999D01*
X78029991Y-40640500D01*
X79330008Y-40640499D01*
X79432797Y-40629999D01*
X79599334Y-40574814D01*
X79748656Y-40482712D01*
X79872712Y-40358656D01*
X79964814Y-40209334D01*
X79964814Y-40209331D01*
X79968178Y-40203879D01*
X80020126Y-40157154D01*
X80089088Y-40145931D01*
X80153170Y-40173774D01*
X80161398Y-40181294D01*
X80300213Y-40320109D01*
X80472179Y-40445048D01*
X80472181Y-40445049D01*
X80472184Y-40445051D01*
X80661588Y-40541557D01*
X80863757Y-40607246D01*
X81073713Y-40640500D01*
X81073714Y-40640500D01*
X81286286Y-40640500D01*
X81286287Y-40640500D01*
X81496243Y-40607246D01*
X81698412Y-40541557D01*
X81887816Y-40445051D01*
X81964013Y-40389691D01*
X82059786Y-40320109D01*
X82059788Y-40320106D01*
X82059792Y-40320104D01*
X82203077Y-40176819D01*
X82264400Y-40143334D01*
X82290758Y-40140500D01*
X90378542Y-40140500D01*
X90396828Y-40136862D01*
X90475188Y-40121275D01*
X90571836Y-40102051D01*
X90626761Y-40079300D01*
X90666778Y-40062724D01*
X90672652Y-40060948D01*
X90701690Y-40060714D01*
X90730557Y-40057610D01*
X90738627Y-40060416D01*
X90742519Y-40060385D01*
X90747402Y-40063467D01*
X90766997Y-40070282D01*
X90931530Y-40158227D01*
X90931532Y-40158227D01*
X90931538Y-40158231D01*
X91249295Y-40289850D01*
X91578422Y-40389690D01*
X91915750Y-40456789D01*
X92258031Y-40490500D01*
X92258034Y-40490500D01*
X92601966Y-40490500D01*
X92601969Y-40490500D01*
X92944250Y-40456789D01*
X93281578Y-40389690D01*
X93610705Y-40289850D01*
X93928462Y-40158231D01*
X94231787Y-39996100D01*
X94517760Y-39805019D01*
X94783627Y-39586828D01*
X95026828Y-39343627D01*
X95245019Y-39077760D01*
X95436100Y-38791787D01*
X95598231Y-38488462D01*
X95729850Y-38170705D01*
X95829690Y-37841578D01*
X95896789Y-37504250D01*
X95930500Y-37161969D01*
X95930500Y-36818031D01*
X95896789Y-36475750D01*
X95829690Y-36138422D01*
X95729850Y-35809295D01*
X95598231Y-35491538D01*
X95589649Y-35475483D01*
X95436106Y-35188224D01*
X95436105Y-35188222D01*
X95436100Y-35188213D01*
X95245019Y-34902240D01*
X95026828Y-34636373D01*
X95026827Y-34636372D01*
X95026823Y-34636367D01*
X94783632Y-34393176D01*
X94517765Y-34174985D01*
X94517764Y-34174984D01*
X94517760Y-34174981D01*
X94231787Y-33983900D01*
X94231782Y-33983897D01*
X94231775Y-33983893D01*
X93928469Y-33821772D01*
X93928464Y-33821770D01*
X93610706Y-33690150D01*
X93281572Y-33590308D01*
X92944248Y-33523210D01*
X92944249Y-33523210D01*
X92686456Y-33497821D01*
X92601969Y-33489500D01*
X92258031Y-33489500D01*
X92179966Y-33497188D01*
X91915750Y-33523210D01*
X91578427Y-33590308D01*
X91249293Y-33690150D01*
X90931535Y-33821770D01*
X90931530Y-33821772D01*
X90628224Y-33983893D01*
X90628206Y-33983904D01*
X90342248Y-34174975D01*
X90342234Y-34174985D01*
X90076367Y-34393176D01*
X89833176Y-34636367D01*
X89614985Y-34902234D01*
X89614975Y-34902248D01*
X89423904Y-35188206D01*
X89423893Y-35188224D01*
X89261772Y-35491530D01*
X89261770Y-35491535D01*
X89130150Y-35809293D01*
X89030308Y-36138427D01*
X88963210Y-36475750D01*
X88938588Y-36725757D01*
X88929500Y-36818031D01*
X88929500Y-37161969D01*
X88939751Y-37266054D01*
X88963210Y-37504249D01*
X89030308Y-37841572D01*
X89072150Y-37979505D01*
X89072773Y-38049372D01*
X89035525Y-38108485D01*
X88972230Y-38138076D01*
X88953489Y-38139500D01*
X82290758Y-38139500D01*
X82223719Y-38119815D01*
X82203077Y-38103181D01*
X82059786Y-37959890D01*
X81887820Y-37834951D01*
X81698414Y-37738444D01*
X81698413Y-37738443D01*
X81698412Y-37738443D01*
X81496243Y-37672754D01*
X81496241Y-37672753D01*
X81496240Y-37672753D01*
X81334957Y-37647208D01*
X81286287Y-37639500D01*
X81073713Y-37639500D01*
X81025042Y-37647208D01*
X80863760Y-37672753D01*
X80863757Y-37672754D01*
X80685819Y-37730570D01*
X80661585Y-37738444D01*
X80472179Y-37834951D01*
X80300215Y-37959889D01*
X80161398Y-38098706D01*
X80100075Y-38132190D01*
X80030383Y-38127206D01*
X79974450Y-38085334D01*
X79968178Y-38076120D01*
X79872712Y-37921344D01*
X79748655Y-37797287D01*
X79676766Y-37752945D01*
X79662650Y-37737251D01*
X79645313Y-37725214D01*
X79632691Y-37703943D01*
X79630042Y-37700997D01*
X79627303Y-37694861D01*
X79618146Y-37672754D01*
X79604766Y-37640452D01*
X79566736Y-37548581D01*
X79566735Y-37548579D01*
X79566734Y-37548577D01*
X79566632Y-37548387D01*
X79566632Y-37548386D01*
X79511776Y-37466289D01*
X79465304Y-37396704D01*
X79458674Y-37386777D01*
X79458673Y-37386776D01*
X79457280Y-37384690D01*
X79457201Y-37384611D01*
X79457139Y-37384518D01*
X79387276Y-37314655D01*
X79235143Y-37162455D01*
X79234832Y-37162111D01*
X79162975Y-37090254D01*
X79162955Y-37090235D01*
X79087418Y-37014664D01*
X79087048Y-37014328D01*
X76225773Y-34153081D01*
X76225772Y-34153080D01*
X74927436Y-32854757D01*
X74844625Y-32771947D01*
X78180000Y-32771947D01*
X78180000Y-33008052D01*
X78216934Y-33241247D01*
X78289897Y-33465802D01*
X78397087Y-33676174D01*
X78457338Y-33759104D01*
X78457340Y-33759105D01*
X79197037Y-33019408D01*
X79214075Y-33082993D01*
X79279901Y-33197007D01*
X79372993Y-33290099D01*
X79487007Y-33355925D01*
X79550590Y-33372962D01*
X78810893Y-34112658D01*
X78893828Y-34172914D01*
X79104197Y-34280102D01*
X79328752Y-34353065D01*
X79328751Y-34353065D01*
X79561948Y-34390000D01*
X79798052Y-34390000D01*
X80031247Y-34353065D01*
X80255802Y-34280102D01*
X80466163Y-34172918D01*
X80466169Y-34172914D01*
X80549104Y-34112658D01*
X80549105Y-34112658D01*
X79809408Y-33372962D01*
X79872993Y-33355925D01*
X79987007Y-33290099D01*
X80080099Y-33197007D01*
X80145925Y-33082993D01*
X80162962Y-33019408D01*
X80902658Y-33759105D01*
X80902658Y-33759104D01*
X80962914Y-33676169D01*
X80962918Y-33676163D01*
X81070102Y-33465802D01*
X81143065Y-33241247D01*
X81180000Y-33008052D01*
X81180000Y-32771947D01*
X81143065Y-32538752D01*
X81070102Y-32314197D01*
X80962914Y-32103828D01*
X80902658Y-32020894D01*
X80902658Y-32020893D01*
X80162962Y-32760590D01*
X80145925Y-32697007D01*
X80080099Y-32582993D01*
X79987007Y-32489901D01*
X79872993Y-32424075D01*
X79809409Y-32407037D01*
X80549105Y-31667340D01*
X80549104Y-31667338D01*
X80466174Y-31607087D01*
X80255802Y-31499897D01*
X80031247Y-31426934D01*
X80031248Y-31426934D01*
X79798052Y-31390000D01*
X79561948Y-31390000D01*
X79328752Y-31426934D01*
X79104197Y-31499897D01*
X78893830Y-31607084D01*
X78810894Y-31667340D01*
X79550591Y-32407037D01*
X79487007Y-32424075D01*
X79372993Y-32489901D01*
X79279901Y-32582993D01*
X79214075Y-32697007D01*
X79197037Y-32760591D01*
X78457340Y-32020894D01*
X78397084Y-32103830D01*
X78289897Y-32314197D01*
X78216934Y-32538752D01*
X78180000Y-32771947D01*
X74844625Y-32771947D01*
X73874950Y-31802281D01*
X69966818Y-27894188D01*
X69933333Y-27832865D01*
X69930499Y-27806506D01*
X69930499Y-27089983D01*
X78179500Y-27089983D01*
X78179500Y-28690001D01*
X78179501Y-28690018D01*
X78190000Y-28792796D01*
X78190001Y-28792799D01*
X78221287Y-28887213D01*
X78245186Y-28959334D01*
X78337288Y-29108656D01*
X78461344Y-29232712D01*
X78610666Y-29324814D01*
X78777203Y-29379999D01*
X78879991Y-29390500D01*
X80480008Y-29390499D01*
X80582797Y-29379999D01*
X80749334Y-29324814D01*
X80898656Y-29232712D01*
X81022712Y-29108656D01*
X81114814Y-28959334D01*
X81169999Y-28792797D01*
X81180500Y-28690009D01*
X81180499Y-27089992D01*
X81178803Y-27073394D01*
X81169999Y-26987203D01*
X81169998Y-26987200D01*
X81159932Y-26956823D01*
X81114814Y-26820666D01*
X81022712Y-26671344D01*
X80898656Y-26547288D01*
X80749334Y-26455186D01*
X80582797Y-26400001D01*
X80582795Y-26400000D01*
X80480010Y-26389500D01*
X78879998Y-26389500D01*
X78879981Y-26389501D01*
X78777203Y-26400000D01*
X78777200Y-26400001D01*
X78610668Y-26455185D01*
X78610663Y-26455187D01*
X78461342Y-26547289D01*
X78337289Y-26671342D01*
X78245187Y-26820663D01*
X78245185Y-26820668D01*
X78233769Y-26855119D01*
X78190001Y-26987203D01*
X78190001Y-26987204D01*
X78190000Y-26987204D01*
X78179500Y-27089983D01*
X69930499Y-27089983D01*
X69930499Y-26972298D01*
X69930498Y-26972281D01*
X69919999Y-26869503D01*
X69919998Y-26869500D01*
X69907180Y-26830819D01*
X69864814Y-26702966D01*
X69772712Y-26553644D01*
X69648656Y-26429588D01*
X69520751Y-26350696D01*
X69520750Y-26350695D01*
X69499340Y-26337489D01*
X69499335Y-26337487D01*
X69499334Y-26337486D01*
X69332797Y-26282301D01*
X69332795Y-26282300D01*
X69230010Y-26271800D01*
X67629998Y-26271800D01*
X67629981Y-26271801D01*
X67527203Y-26282300D01*
X67527200Y-26282301D01*
X67360668Y-26337485D01*
X67360663Y-26337487D01*
X67211342Y-26429589D01*
X67087289Y-26553642D01*
X66995187Y-26702963D01*
X66995185Y-26702968D01*
X66994439Y-26705220D01*
X66940001Y-26869503D01*
X66940001Y-26869504D01*
X66940000Y-26869504D01*
X66929500Y-26972283D01*
X60692003Y-26972283D01*
X59968943Y-26249223D01*
X83999500Y-26249223D01*
X83999500Y-26550776D01*
X83999501Y-26550793D01*
X84038861Y-26849766D01*
X84116913Y-27141060D01*
X84232314Y-27419661D01*
X84232318Y-27419671D01*
X84383099Y-27680831D01*
X84566679Y-27920078D01*
X84566685Y-27920085D01*
X84779914Y-28133314D01*
X84779921Y-28133320D01*
X85019168Y-28316900D01*
X85280328Y-28467681D01*
X85280329Y-28467681D01*
X85280332Y-28467683D01*
X85453035Y-28539219D01*
X85558939Y-28583086D01*
X85558940Y-28583086D01*
X85558942Y-28583087D01*
X85850232Y-28661138D01*
X86149217Y-28700500D01*
X86149224Y-28700500D01*
X86450776Y-28700500D01*
X86450783Y-28700500D01*
X86749768Y-28661138D01*
X87041058Y-28583087D01*
X87319668Y-28467683D01*
X87580832Y-28316900D01*
X87820080Y-28133319D01*
X88033319Y-27920080D01*
X88216900Y-27680832D01*
X88367683Y-27419668D01*
X88483087Y-27141058D01*
X88561138Y-26849768D01*
X88600500Y-26550783D01*
X88600500Y-26249217D01*
X88561138Y-25950232D01*
X88483087Y-25658942D01*
X88469963Y-25627259D01*
X88380739Y-25411852D01*
X88367683Y-25380332D01*
X88330242Y-25315483D01*
X88216900Y-25119168D01*
X88033320Y-24879921D01*
X88033314Y-24879914D01*
X87820085Y-24666685D01*
X87820078Y-24666679D01*
X87580831Y-24483099D01*
X87319671Y-24332318D01*
X87319661Y-24332314D01*
X87041060Y-24216913D01*
X86749766Y-24138861D01*
X86450793Y-24099501D01*
X86450788Y-24099500D01*
X86450783Y-24099500D01*
X86149217Y-24099500D01*
X86149211Y-24099500D01*
X86149206Y-24099501D01*
X85850233Y-24138861D01*
X85558939Y-24216913D01*
X85280338Y-24332314D01*
X85280328Y-24332318D01*
X85019168Y-24483099D01*
X84779921Y-24666679D01*
X84779914Y-24666685D01*
X84566685Y-24879914D01*
X84566679Y-24879921D01*
X84383099Y-25119168D01*
X84232318Y-25380328D01*
X84232314Y-25380338D01*
X84116913Y-25658939D01*
X84038861Y-25950233D01*
X83999501Y-26249206D01*
X83999500Y-26249223D01*
X59968943Y-26249223D01*
X55354167Y-21634447D01*
X55322073Y-21578859D01*
X55307927Y-21526066D01*
X55290137Y-21459670D01*
X55201320Y-21245248D01*
X55201314Y-21245237D01*
X55085279Y-21044256D01*
X55085278Y-21044254D01*
X54943990Y-20860124D01*
X54943984Y-20860117D01*
X54796002Y-20712135D01*
X92479500Y-20712135D01*
X92479500Y-23347870D01*
X92479501Y-23347876D01*
X92485908Y-23407483D01*
X92536202Y-23542328D01*
X92536206Y-23542335D01*
X92622452Y-23657544D01*
X92622455Y-23657547D01*
X92737664Y-23743793D01*
X92737671Y-23743797D01*
X92872517Y-23794091D01*
X92872516Y-23794091D01*
X92879444Y-23794835D01*
X92932127Y-23800500D01*
X95567872Y-23800499D01*
X95627483Y-23794091D01*
X95762331Y-23743796D01*
X95877546Y-23657546D01*
X95963796Y-23542331D01*
X96014091Y-23407483D01*
X96020500Y-23347873D01*
X96020499Y-20712128D01*
X96014091Y-20652517D01*
X95977615Y-20554721D01*
X95963797Y-20517671D01*
X95963793Y-20517664D01*
X95877547Y-20402455D01*
X95877544Y-20402452D01*
X95762335Y-20316206D01*
X95762328Y-20316202D01*
X95627482Y-20265908D01*
X95627483Y-20265908D01*
X95567883Y-20259501D01*
X95567881Y-20259500D01*
X95567873Y-20259500D01*
X95567864Y-20259500D01*
X92932129Y-20259500D01*
X92932123Y-20259501D01*
X92872516Y-20265908D01*
X92737671Y-20316202D01*
X92737664Y-20316206D01*
X92622455Y-20402452D01*
X92622452Y-20402455D01*
X92536206Y-20517664D01*
X92536202Y-20517671D01*
X92485908Y-20652517D01*
X92481232Y-20696015D01*
X92479501Y-20712123D01*
X92479500Y-20712135D01*
X54796002Y-20712135D01*
X54779882Y-20696015D01*
X54779875Y-20696009D01*
X54595745Y-20554721D01*
X54595743Y-20554720D01*
X54394762Y-20438685D01*
X54394754Y-20438681D01*
X54394752Y-20438680D01*
X54394745Y-20438677D01*
X54180328Y-20349862D01*
X54038203Y-20311780D01*
X53956149Y-20289794D01*
X53927386Y-20286007D01*
X53726052Y-20259500D01*
X53726045Y-20259500D01*
X53493955Y-20259500D01*
X53493947Y-20259500D01*
X53263851Y-20289794D01*
X53039671Y-20349862D01*
X52825254Y-20438677D01*
X52825242Y-20438682D01*
X52769898Y-20470635D01*
X52701998Y-20487106D01*
X52635971Y-20464253D01*
X52592782Y-20409331D01*
X52583900Y-20363247D01*
X52583900Y-13049223D01*
X89299500Y-13049223D01*
X89299500Y-13350776D01*
X89299501Y-13350793D01*
X89338861Y-13649766D01*
X89416913Y-13941060D01*
X89532314Y-14219661D01*
X89532318Y-14219671D01*
X89683099Y-14480831D01*
X89866679Y-14720078D01*
X89866685Y-14720085D01*
X90079914Y-14933314D01*
X90079921Y-14933320D01*
X90319168Y-15116900D01*
X90580328Y-15267681D01*
X90580329Y-15267681D01*
X90580332Y-15267683D01*
X90664132Y-15302394D01*
X90858939Y-15383086D01*
X90858940Y-15383086D01*
X90858942Y-15383087D01*
X91150232Y-15461138D01*
X91449217Y-15500500D01*
X91449224Y-15500500D01*
X91750776Y-15500500D01*
X91750783Y-15500500D01*
X92049768Y-15461138D01*
X92341058Y-15383087D01*
X92619668Y-15267683D01*
X92880832Y-15116900D01*
X93120080Y-14933319D01*
X93333319Y-14720080D01*
X93516900Y-14480832D01*
X93667683Y-14219668D01*
X93783087Y-13941058D01*
X93861138Y-13649768D01*
X93900500Y-13350783D01*
X93900500Y-13049217D01*
X93861138Y-12750232D01*
X93783087Y-12458942D01*
X93777317Y-12445013D01*
X93688984Y-12231758D01*
X93667683Y-12180332D01*
X93638807Y-12130318D01*
X93516900Y-11919168D01*
X93333320Y-11679921D01*
X93333314Y-11679914D01*
X93120085Y-11466685D01*
X93120078Y-11466679D01*
X92880831Y-11283099D01*
X92619671Y-11132318D01*
X92619661Y-11132314D01*
X92341060Y-11016913D01*
X92049766Y-10938861D01*
X91750793Y-10899501D01*
X91750788Y-10899500D01*
X91750783Y-10899500D01*
X91449217Y-10899500D01*
X91449211Y-10899500D01*
X91449206Y-10899501D01*
X91150233Y-10938861D01*
X90858939Y-11016913D01*
X90580338Y-11132314D01*
X90580328Y-11132318D01*
X90319168Y-11283099D01*
X90079921Y-11466679D01*
X90079914Y-11466685D01*
X89866685Y-11679914D01*
X89866679Y-11679921D01*
X89683099Y-11919168D01*
X89532318Y-12180328D01*
X89532314Y-12180338D01*
X89416913Y-12458939D01*
X89338861Y-12750233D01*
X89299501Y-13049206D01*
X89299500Y-13049223D01*
X52583900Y-13049223D01*
X52583900Y-6164856D01*
X52545452Y-5971570D01*
X52545451Y-5971569D01*
X52545451Y-5971565D01*
X52526077Y-5924793D01*
X52518609Y-5855325D01*
X52549884Y-5792846D01*
X52609973Y-5757194D01*
X52679798Y-5759688D01*
X52702639Y-5769955D01*
X52825461Y-5840867D01*
X52825478Y-5840875D01*
X53039832Y-5929663D01*
X53263946Y-5989713D01*
X53263959Y-5989716D01*
X53493977Y-6019998D01*
X53493995Y-6020000D01*
X53726005Y-6020000D01*
X53726022Y-6019998D01*
X53956040Y-5989716D01*
X53956053Y-5989713D01*
X54180167Y-5929663D01*
X54394521Y-5840875D01*
X54394538Y-5840867D01*
X54595475Y-5724855D01*
X54672327Y-5665883D01*
X54672327Y-5665880D01*
X53739408Y-4732962D01*
X53802993Y-4715925D01*
X53917007Y-4650099D01*
X54010099Y-4557007D01*
X54075925Y-4442993D01*
X54092962Y-4379409D01*
X55025880Y-5312327D01*
X55025883Y-5312327D01*
X55084855Y-5235475D01*
X55200867Y-5034538D01*
X55200875Y-5034521D01*
X55289663Y-4820167D01*
X55349713Y-4596053D01*
X55349716Y-4596040D01*
X55379998Y-4366022D01*
X55380000Y-4366005D01*
X55380000Y-4133994D01*
X92480000Y-4133994D01*
X92480000Y-4366005D01*
X92480001Y-4366022D01*
X92510283Y-4596040D01*
X92510286Y-4596053D01*
X92570336Y-4820167D01*
X92659124Y-5034521D01*
X92659132Y-5034538D01*
X92775136Y-5235461D01*
X92775142Y-5235469D01*
X92834117Y-5312327D01*
X93767037Y-4379408D01*
X93784075Y-4442993D01*
X93849901Y-4557007D01*
X93942993Y-4650099D01*
X94057007Y-4715925D01*
X94120591Y-4732962D01*
X93187671Y-5665881D01*
X93264530Y-5724857D01*
X93264538Y-5724863D01*
X93465461Y-5840867D01*
X93465478Y-5840875D01*
X93679832Y-5929663D01*
X93903946Y-5989713D01*
X93903959Y-5989716D01*
X94133977Y-6019998D01*
X94133995Y-6020000D01*
X94366005Y-6020000D01*
X94366022Y-6019998D01*
X94596040Y-5989716D01*
X94596053Y-5989713D01*
X94820167Y-5929663D01*
X95034521Y-5840875D01*
X95034538Y-5840867D01*
X95235475Y-5724855D01*
X95312327Y-5665883D01*
X95312327Y-5665880D01*
X94379408Y-4732962D01*
X94442993Y-4715925D01*
X94557007Y-4650099D01*
X94650099Y-4557007D01*
X94715925Y-4442993D01*
X94732962Y-4379409D01*
X95665880Y-5312327D01*
X95665883Y-5312327D01*
X95724855Y-5235475D01*
X95840867Y-5034538D01*
X95840875Y-5034521D01*
X95929663Y-4820167D01*
X95989713Y-4596053D01*
X95989716Y-4596040D01*
X96019998Y-4366022D01*
X96020000Y-4366005D01*
X96020000Y-4133994D01*
X96019998Y-4133977D01*
X95989716Y-3903959D01*
X95989713Y-3903946D01*
X95929663Y-3679832D01*
X95840875Y-3465478D01*
X95840867Y-3465461D01*
X95724863Y-3264538D01*
X95724857Y-3264530D01*
X95665881Y-3187671D01*
X94732962Y-4120590D01*
X94715925Y-4057007D01*
X94650099Y-3942993D01*
X94557007Y-3849901D01*
X94442993Y-3784075D01*
X94379409Y-3767037D01*
X95312327Y-2834117D01*
X95235469Y-2775142D01*
X95235461Y-2775136D01*
X95034538Y-2659132D01*
X95034521Y-2659124D01*
X94820167Y-2570336D01*
X94596053Y-2510286D01*
X94596040Y-2510283D01*
X94366022Y-2480001D01*
X94366005Y-2480000D01*
X94133995Y-2480000D01*
X94133977Y-2480001D01*
X93903959Y-2510283D01*
X93903946Y-2510286D01*
X93679832Y-2570336D01*
X93465478Y-2659124D01*
X93465461Y-2659132D01*
X93264541Y-2775134D01*
X93264533Y-2775140D01*
X93187671Y-2834116D01*
X93187671Y-2834117D01*
X94120591Y-3767037D01*
X94057007Y-3784075D01*
X93942993Y-3849901D01*
X93849901Y-3942993D01*
X93784075Y-4057007D01*
X93767037Y-4120590D01*
X92834117Y-3187671D01*
X92834116Y-3187671D01*
X92775140Y-3264533D01*
X92775134Y-3264541D01*
X92659132Y-3465461D01*
X92659124Y-3465478D01*
X92570336Y-3679832D01*
X92510286Y-3903946D01*
X92510283Y-3903959D01*
X92480001Y-4133977D01*
X92480000Y-4133994D01*
X55380000Y-4133994D01*
X55379998Y-4133977D01*
X55349716Y-3903959D01*
X55349713Y-3903946D01*
X55289663Y-3679832D01*
X55200875Y-3465478D01*
X55200867Y-3465461D01*
X55084863Y-3264538D01*
X55084857Y-3264530D01*
X55025881Y-3187671D01*
X54092962Y-4120590D01*
X54075925Y-4057007D01*
X54010099Y-3942993D01*
X53917007Y-3849901D01*
X53802993Y-3784075D01*
X53739409Y-3767037D01*
X54672327Y-2834117D01*
X54595469Y-2775142D01*
X54595461Y-2775136D01*
X54394538Y-2659132D01*
X54394521Y-2659124D01*
X54180167Y-2570336D01*
X53956053Y-2510286D01*
X53956040Y-2510283D01*
X53726022Y-2480001D01*
X53726005Y-2480000D01*
X53493995Y-2480000D01*
X53493977Y-2480001D01*
X53263959Y-2510283D01*
X53263946Y-2510286D01*
X53039832Y-2570336D01*
X52825478Y-2659124D01*
X52825461Y-2659132D01*
X52624541Y-2775134D01*
X52624533Y-2775140D01*
X52547671Y-2834116D01*
X52547671Y-2834117D01*
X53480591Y-3767037D01*
X53417007Y-3784075D01*
X53302993Y-3849901D01*
X53209901Y-3942993D01*
X53144075Y-4057007D01*
X53127037Y-4120591D01*
X52194117Y-3187671D01*
X52194116Y-3187671D01*
X52135140Y-3264533D01*
X52135134Y-3264541D01*
X52019132Y-3465461D01*
X52019124Y-3465478D01*
X51930336Y-3679832D01*
X51870286Y-3903946D01*
X51870283Y-3903959D01*
X51840001Y-4133977D01*
X51840000Y-4133994D01*
X51840000Y-4366005D01*
X51840001Y-4366022D01*
X51870283Y-4596040D01*
X51870286Y-4596053D01*
X51930336Y-4820167D01*
X51957117Y-4884822D01*
X51964586Y-4954291D01*
X51933310Y-5016770D01*
X51873221Y-5052422D01*
X51803396Y-5049928D01*
X51754875Y-5019955D01*
X50206717Y-3471797D01*
X50173232Y-3410474D01*
X50171925Y-3403513D01*
X50148477Y-3255466D01*
X50148477Y-3255465D01*
X50085218Y-3060776D01*
X50022846Y-2938365D01*
X50018396Y-2929632D01*
X49992287Y-2878390D01*
X49960121Y-2834117D01*
X49871971Y-2712786D01*
X49727213Y-2568028D01*
X49561613Y-2447715D01*
X49561612Y-2447714D01*
X49561610Y-2447713D01*
X49504653Y-2418691D01*
X49379223Y-2354781D01*
X49184534Y-2291522D01*
X49009995Y-2263878D01*
X48982352Y-2259500D01*
X48777648Y-2259500D01*
X48753329Y-2263351D01*
X48575465Y-2291522D01*
X48380776Y-2354781D01*
X48198386Y-2447715D01*
X48032786Y-2568028D01*
X47888028Y-2712786D01*
X47767715Y-2878386D01*
X47674781Y-3060776D01*
X47611522Y-3255465D01*
X47579500Y-3457648D01*
X47579500Y-3662351D01*
X47611522Y-3864534D01*
X47674781Y-4059223D01*
X47734279Y-4175992D01*
X47753805Y-4214315D01*
X47767715Y-4241613D01*
X47888028Y-4407213D01*
X48032786Y-4551971D01*
X48174555Y-4654970D01*
X48198390Y-4672287D01*
X48267464Y-4707482D01*
X48291080Y-4719515D01*
X48341876Y-4767490D01*
X48358671Y-4835311D01*
X48336134Y-4901446D01*
X48291080Y-4940485D01*
X48198386Y-4987715D01*
X48032786Y-5108028D01*
X47888028Y-5252786D01*
X47767715Y-5418386D01*
X47674781Y-5600776D01*
X47611522Y-5795465D01*
X47579500Y-5997648D01*
X47579500Y-6202351D01*
X47611522Y-6404534D01*
X47674781Y-6599223D01*
X47700654Y-6650000D01*
X47745381Y-6737782D01*
X47767715Y-6781613D01*
X47888028Y-6947213D01*
X48032786Y-7091971D01*
X48153262Y-7179500D01*
X48198390Y-7212287D01*
X48289840Y-7258883D01*
X48291080Y-7259515D01*
X48341876Y-7307490D01*
X48358671Y-7375311D01*
X48336134Y-7441446D01*
X48291080Y-7480485D01*
X48198386Y-7527715D01*
X48032784Y-7648030D01*
X48032777Y-7648036D01*
X47963996Y-7716816D01*
X47902672Y-7750301D01*
X47832981Y-7745315D01*
X47828864Y-7743695D01*
X47670139Y-7677950D01*
X47670129Y-7677947D01*
X47476843Y-7639500D01*
X47476841Y-7639500D01*
X47279759Y-7639500D01*
X47279757Y-7639500D01*
X47086470Y-7677947D01*
X47086460Y-7677950D01*
X46904392Y-7753364D01*
X46904379Y-7753371D01*
X46740518Y-7862860D01*
X46740514Y-7862863D01*
X46601163Y-8002214D01*
X46601160Y-8002218D01*
X46491671Y-8166079D01*
X46491664Y-8166092D01*
X46416250Y-8348160D01*
X46416247Y-8348170D01*
X46377800Y-8541456D01*
X46377800Y-9581368D01*
X46358115Y-9648407D01*
X46305311Y-9694162D01*
X46236153Y-9704106D01*
X46184910Y-9684470D01*
X46026725Y-9578775D01*
X46026711Y-9578767D01*
X45844635Y-9503349D01*
X45844627Y-9503347D01*
X45651343Y-9464900D01*
X45651340Y-9464900D01*
X45454259Y-9464900D01*
X45454256Y-9464900D01*
X45260971Y-9503347D01*
X45260963Y-9503349D01*
X45078887Y-9578767D01*
X45078878Y-9578772D01*
X44915018Y-9688260D01*
X44915014Y-9688263D01*
X42199699Y-12403580D01*
X41310620Y-13292659D01*
X41310618Y-13292661D01*
X41252503Y-13350776D01*
X41171259Y-13432019D01*
X41061771Y-13595880D01*
X41061766Y-13595889D01*
X41021832Y-13692300D01*
X41021829Y-13692307D01*
X41019763Y-13697297D01*
X40986349Y-13777964D01*
X40973222Y-13843958D01*
X40971900Y-13850603D01*
X40971899Y-13850607D01*
X40947900Y-13971256D01*
X40947900Y-48550300D01*
X40941874Y-48570821D01*
X40940616Y-48592172D01*
X40930469Y-48609662D01*
X40928215Y-48617339D01*
X40924092Y-48623359D01*
X40919910Y-48629093D01*
X40918296Y-48630708D01*
X40798719Y-48795293D01*
X40798592Y-48795467D01*
X40770918Y-48816729D01*
X40743389Y-48837959D01*
X40743276Y-48837968D01*
X40743188Y-48838037D01*
X40708486Y-48840956D01*
X40673775Y-48843938D01*
X40673675Y-48843885D01*
X40673564Y-48843895D01*
X40643011Y-48827706D01*
X40611980Y-48811333D01*
X40611868Y-48811204D01*
X40611826Y-48811182D01*
X40611783Y-48811105D01*
X40598082Y-48795293D01*
X40475641Y-48626766D01*
X40476508Y-48626135D01*
X40450041Y-48567081D01*
X40448900Y-48550300D01*
X40448900Y-19586858D01*
X40468585Y-19519819D01*
X40469797Y-19517968D01*
X40572531Y-19364214D01*
X40647951Y-19182135D01*
X40686400Y-18988840D01*
X40686400Y-18791760D01*
X40686400Y-18791757D01*
X40686399Y-18791755D01*
X40686280Y-18791157D01*
X40647951Y-18598464D01*
X40572531Y-18416386D01*
X40463040Y-18252518D01*
X40463038Y-18252516D01*
X40463036Y-18252513D01*
X40323686Y-18113163D01*
X40323682Y-18113160D01*
X40159814Y-18003669D01*
X40094988Y-17976817D01*
X39977736Y-17928249D01*
X39977728Y-17928247D01*
X39784443Y-17889800D01*
X39784440Y-17889800D01*
X39587360Y-17889800D01*
X39587357Y-17889800D01*
X39394072Y-17928247D01*
X39394064Y-17928249D01*
X39211987Y-18003668D01*
X39211986Y-18003669D01*
X39048119Y-18113160D01*
X38924479Y-18236798D01*
X38863158Y-18270282D01*
X38793466Y-18265298D01*
X38737533Y-18223426D01*
X38713116Y-18157962D01*
X38712800Y-18149116D01*
X38712800Y-7533756D01*
X38696295Y-7450783D01*
X38686293Y-7400500D01*
X38674351Y-7340464D01*
X38621258Y-7212287D01*
X38607677Y-7179500D01*
X38598935Y-7158393D01*
X38598934Y-7158392D01*
X38598932Y-7158386D01*
X38534562Y-7062049D01*
X38489440Y-6994519D01*
X38420296Y-6925375D01*
X38350082Y-6855161D01*
X38350081Y-6855160D01*
X37506716Y-6011796D01*
X37473232Y-5950474D01*
X37471925Y-5943513D01*
X37470435Y-5934108D01*
X37448477Y-5795466D01*
X37446295Y-5788752D01*
X37385218Y-5600776D01*
X37326869Y-5486261D01*
X37292287Y-5418390D01*
X37245382Y-5353830D01*
X37171971Y-5252786D01*
X37027213Y-5108028D01*
X36861614Y-4987715D01*
X36855006Y-4984348D01*
X36768917Y-4940483D01*
X36718123Y-4892511D01*
X36701328Y-4824690D01*
X36723865Y-4758555D01*
X36768917Y-4719516D01*
X36861610Y-4672287D01*
X36896844Y-4646688D01*
X37027213Y-4551971D01*
X37027215Y-4551968D01*
X37027219Y-4551966D01*
X37171966Y-4407219D01*
X37171968Y-4407215D01*
X37171971Y-4407213D01*
X37239704Y-4313985D01*
X37292287Y-4241610D01*
X37385220Y-4059219D01*
X37448477Y-3864534D01*
X37480500Y-3662352D01*
X37480500Y-3457648D01*
X37467906Y-3378131D01*
X37448477Y-3255465D01*
X37385218Y-3060776D01*
X37335001Y-2962221D01*
X37292287Y-2878390D01*
X37260121Y-2834117D01*
X37171971Y-2712786D01*
X37027213Y-2568028D01*
X36861613Y-2447715D01*
X36861612Y-2447714D01*
X36861610Y-2447713D01*
X36804653Y-2418691D01*
X36679223Y-2354781D01*
X36484534Y-2291522D01*
X36309995Y-2263878D01*
X36282352Y-2259500D01*
X36077648Y-2259500D01*
X36053329Y-2263351D01*
X35875465Y-2291522D01*
X35680776Y-2354781D01*
X35498386Y-2447715D01*
X35332786Y-2568028D01*
X35188028Y-2712786D01*
X35067715Y-2878386D01*
X34974781Y-3060776D01*
X34911522Y-3255465D01*
X34879500Y-3457648D01*
X34879500Y-3662351D01*
X34911522Y-3864534D01*
X34974781Y-4059223D01*
X35034279Y-4175992D01*
X35053805Y-4214315D01*
X35067715Y-4241613D01*
X35188028Y-4407213D01*
X35332786Y-4551971D01*
X35474555Y-4654970D01*
X35498390Y-4672287D01*
X35567464Y-4707482D01*
X35591080Y-4719515D01*
X35641876Y-4767490D01*
X35658671Y-4835311D01*
X35636134Y-4901446D01*
X35591080Y-4940485D01*
X35498386Y-4987715D01*
X35377123Y-5075818D01*
X35357078Y-5082970D01*
X35339173Y-5094477D01*
X35315146Y-5097931D01*
X35311317Y-5099298D01*
X35304238Y-5099500D01*
X35295783Y-5099500D01*
X35228744Y-5079815D01*
X35208102Y-5063181D01*
X33866819Y-3721898D01*
X33833334Y-3660575D01*
X33830500Y-3634217D01*
X33830500Y-3481902D01*
X33793553Y-3248631D01*
X33732516Y-3060781D01*
X33720568Y-3024008D01*
X33720566Y-3024005D01*
X33720566Y-3024003D01*
X33646370Y-2878386D01*
X33613343Y-2813567D01*
X33474517Y-2622490D01*
X33307510Y-2455483D01*
X33116433Y-2316657D01*
X33067103Y-2291522D01*
X32905996Y-2209433D01*
X32681368Y-2136446D01*
X32448097Y-2099500D01*
X32448092Y-2099500D01*
X32211908Y-2099500D01*
X32211903Y-2099500D01*
X31978631Y-2136446D01*
X31754003Y-2209433D01*
X31543566Y-2316657D01*
X31487119Y-2357669D01*
X31352490Y-2455483D01*
X31352488Y-2455485D01*
X31352487Y-2455485D01*
X31185485Y-2622487D01*
X31185485Y-2622488D01*
X31185483Y-2622490D01*
X31158867Y-2659124D01*
X31046657Y-2813566D01*
X30939433Y-3024003D01*
X30866446Y-3248631D01*
X30829500Y-3481902D01*
X30829500Y-3718097D01*
X30866446Y-3951368D01*
X30939433Y-4175996D01*
X31036248Y-4366005D01*
X31046657Y-4386433D01*
X31185483Y-4577510D01*
X31352490Y-4744517D01*
X31411716Y-4787547D01*
X31454381Y-4842875D01*
X31462448Y-4897593D01*
X31460893Y-4917340D01*
X32192425Y-5648871D01*
X32133147Y-5664755D01*
X32016853Y-5731898D01*
X31921898Y-5826853D01*
X31854755Y-5943147D01*
X31838871Y-6002425D01*
X31107340Y-5270894D01*
X31047084Y-5353830D01*
X30939897Y-5564197D01*
X30866934Y-5788752D01*
X30830000Y-6021947D01*
X30830000Y-6258052D01*
X30866934Y-6491247D01*
X30939897Y-6715802D01*
X31047087Y-6926174D01*
X31107338Y-7009104D01*
X31107340Y-7009105D01*
X31838871Y-6277574D01*
X31854755Y-6336853D01*
X31921898Y-6453147D01*
X32016853Y-6548102D01*
X32133147Y-6615245D01*
X32192425Y-6631128D01*
X31460893Y-7362658D01*
X31462448Y-7382405D01*
X31448084Y-7450783D01*
X31411717Y-7492451D01*
X31352490Y-7535482D01*
X31185485Y-7702487D01*
X31185485Y-7702488D01*
X31185483Y-7702490D01*
X31175075Y-7716816D01*
X31046657Y-7893566D01*
X30939433Y-8104003D01*
X30866446Y-8328631D01*
X30829500Y-8561902D01*
X30829500Y-8798097D01*
X30866446Y-9031368D01*
X30939433Y-9255996D01*
X31007550Y-9389682D01*
X31046657Y-9466433D01*
X31185483Y-9657510D01*
X31352490Y-9824517D01*
X31387127Y-9849683D01*
X31429792Y-9905013D01*
X31435771Y-9974626D01*
X31403165Y-10036421D01*
X31387130Y-10050315D01*
X31369365Y-10063222D01*
X31352488Y-10075484D01*
X31185485Y-10242487D01*
X31185485Y-10242488D01*
X31185483Y-10242490D01*
X31125862Y-10324550D01*
X31046657Y-10433566D01*
X30939433Y-10644003D01*
X30866446Y-10868631D01*
X30829500Y-11101902D01*
X30829500Y-11338097D01*
X30866446Y-11571368D01*
X30939433Y-11795996D01*
X31002193Y-11919168D01*
X31046657Y-12006433D01*
X31185483Y-12197510D01*
X31352490Y-12364517D01*
X31387127Y-12389683D01*
X31429792Y-12445013D01*
X31435771Y-12514626D01*
X31403165Y-12576421D01*
X31387130Y-12590315D01*
X31369365Y-12603222D01*
X31352488Y-12615484D01*
X31185485Y-12782487D01*
X31185485Y-12782488D01*
X31185483Y-12782490D01*
X31125862Y-12864550D01*
X31046657Y-12973566D01*
X30939433Y-13184003D01*
X30866446Y-13408631D01*
X30829500Y-13641902D01*
X30829500Y-13878097D01*
X30866446Y-14111368D01*
X30939433Y-14335996D01*
X31014550Y-14483420D01*
X31046657Y-14546433D01*
X31185483Y-14737510D01*
X31352490Y-14904517D01*
X31387127Y-14929683D01*
X31429792Y-14985013D01*
X31435771Y-15054626D01*
X31403165Y-15116421D01*
X31387130Y-15130315D01*
X31369365Y-15143222D01*
X31352488Y-15155484D01*
X31185485Y-15322487D01*
X31185485Y-15322488D01*
X31185483Y-15322490D01*
X31141457Y-15383086D01*
X31046657Y-15513566D01*
X30939433Y-15724003D01*
X30866446Y-15948631D01*
X30829500Y-16181902D01*
X30829500Y-16418097D01*
X30866447Y-16651369D01*
X30866447Y-16651372D01*
X30872768Y-16670824D01*
X30874763Y-16740665D01*
X30842518Y-16796823D01*
X22612181Y-25027161D01*
X22550858Y-25060646D01*
X22481166Y-25055662D01*
X22425233Y-25013790D01*
X22400816Y-24948326D01*
X22400500Y-24939480D01*
X22400500Y-6901456D01*
X22362052Y-6708170D01*
X22362051Y-6708169D01*
X22362051Y-6708165D01*
X22356423Y-6694578D01*
X22286635Y-6526092D01*
X22286628Y-6526079D01*
X22177139Y-6362218D01*
X22177136Y-6362214D01*
X22034686Y-6219764D01*
X22034655Y-6219735D01*
X18781479Y-2966559D01*
X18781459Y-2966537D01*
X18637785Y-2822863D01*
X18637781Y-2822860D01*
X18473917Y-2713369D01*
X18473914Y-2713368D01*
X18350823Y-2662382D01*
X18350819Y-2662381D01*
X18343864Y-2659500D01*
X18291836Y-2637949D01*
X18195188Y-2618724D01*
X18190629Y-2617817D01*
X18190625Y-2617816D01*
X18098544Y-2599500D01*
X18098541Y-2599500D01*
X8546977Y-2599500D01*
X8479938Y-2579815D01*
X8434183Y-2527011D01*
X8426733Y-2499865D01*
X8425876Y-2500068D01*
X8424092Y-2492520D01*
X8373797Y-2357671D01*
X8373793Y-2357664D01*
X8287547Y-2242455D01*
X8287544Y-2242452D01*
X8172335Y-2156206D01*
X8172328Y-2156202D01*
X8037482Y-2105908D01*
X8037483Y-2105908D01*
X7977883Y-2099501D01*
X7977881Y-2099500D01*
X7977873Y-2099500D01*
X7977864Y-2099500D01*
X5882129Y-2099500D01*
X5882123Y-2099501D01*
X5822516Y-2105908D01*
X5687671Y-2156202D01*
X5687664Y-2156206D01*
X5572455Y-2242452D01*
X5572452Y-2242455D01*
X5486206Y-2357664D01*
X5486202Y-2357671D01*
X5435908Y-2492517D01*
X5429501Y-2552116D01*
X5429500Y-2552135D01*
X5429500Y-4647870D01*
X5429501Y-4647876D01*
X5435908Y-4707483D01*
X5486202Y-4842328D01*
X5486206Y-4842335D01*
X5572452Y-4957544D01*
X5572455Y-4957547D01*
X5687664Y-5043793D01*
X5695454Y-5048047D01*
X5693725Y-5051211D01*
X5735915Y-5082734D01*
X5760393Y-5148175D01*
X5745604Y-5216462D01*
X5737036Y-5230021D01*
X5647084Y-5353829D01*
X5539897Y-5564197D01*
X5466934Y-5788752D01*
X5430000Y-6021947D01*
X5430000Y-6258052D01*
X5466934Y-6491247D01*
X5539897Y-6715802D01*
X5647087Y-6926174D01*
X5707338Y-7009104D01*
X5707340Y-7009105D01*
X6438871Y-6277574D01*
X6454755Y-6336853D01*
X6521898Y-6453147D01*
X6616853Y-6548102D01*
X6733147Y-6615245D01*
X6792425Y-6631128D01*
X6060893Y-7362658D01*
X6062448Y-7382405D01*
X6048084Y-7450783D01*
X6011717Y-7492451D01*
X5952490Y-7535482D01*
X5785485Y-7702487D01*
X5785485Y-7702488D01*
X5785483Y-7702490D01*
X5775075Y-7716816D01*
X5646657Y-7893566D01*
X5539433Y-8104003D01*
X5466446Y-8328631D01*
X5429500Y-8561902D01*
X5429500Y-8798097D01*
X5466446Y-9031368D01*
X5539433Y-9255996D01*
X5607550Y-9389682D01*
X5646657Y-9466433D01*
X5785483Y-9657510D01*
X5952490Y-9824517D01*
X5987127Y-9849683D01*
X6029792Y-9905013D01*
X6035771Y-9974626D01*
X6003165Y-10036421D01*
X5987130Y-10050315D01*
X5969365Y-10063222D01*
X5952488Y-10075484D01*
X5785485Y-10242487D01*
X5785485Y-10242488D01*
X5785483Y-10242490D01*
X5725862Y-10324550D01*
X5646657Y-10433566D01*
X5539433Y-10644003D01*
X5466446Y-10868631D01*
X5429500Y-11101902D01*
X5429500Y-11338097D01*
X5466446Y-11571368D01*
X5539433Y-11795996D01*
X5602193Y-11919168D01*
X5646657Y-12006433D01*
X5785483Y-12197510D01*
X5952490Y-12364517D01*
X5987127Y-12389683D01*
X6029792Y-12445013D01*
X6035771Y-12514626D01*
X6003165Y-12576421D01*
X5987130Y-12590315D01*
X5969365Y-12603222D01*
X5952488Y-12615484D01*
X5785485Y-12782487D01*
X5785485Y-12782488D01*
X5785483Y-12782490D01*
X5725862Y-12864550D01*
X5646657Y-12973566D01*
X5539433Y-13184003D01*
X5466446Y-13408631D01*
X5429500Y-13641902D01*
X5429500Y-13878097D01*
X5466446Y-14111368D01*
X5539433Y-14335996D01*
X5614550Y-14483420D01*
X5646657Y-14546433D01*
X5785483Y-14737510D01*
X5952490Y-14904517D01*
X5987127Y-14929683D01*
X6029792Y-14985013D01*
X6035771Y-15054626D01*
X6003165Y-15116421D01*
X5987130Y-15130315D01*
X5969365Y-15143222D01*
X5952488Y-15155484D01*
X5785485Y-15322487D01*
X5785485Y-15322488D01*
X5785483Y-15322490D01*
X5741457Y-15383086D01*
X5646657Y-15513566D01*
X5539433Y-15724003D01*
X5466446Y-15948631D01*
X5429500Y-16181902D01*
X5429500Y-16418097D01*
X5466446Y-16651368D01*
X5539433Y-16875996D01*
X5607550Y-17009682D01*
X5646657Y-17086433D01*
X5785483Y-17277510D01*
X5952490Y-17444517D01*
X5987127Y-17469683D01*
X6029792Y-17525013D01*
X6035771Y-17594626D01*
X6003165Y-17656421D01*
X5987130Y-17670315D01*
X5969365Y-17683222D01*
X5952488Y-17695484D01*
X5785485Y-17862487D01*
X5785485Y-17862488D01*
X5785483Y-17862490D01*
X5765641Y-17889800D01*
X5646657Y-18053566D01*
X5539433Y-18264003D01*
X5466446Y-18488631D01*
X5429500Y-18721902D01*
X5429500Y-18958097D01*
X5466446Y-19191368D01*
X5539433Y-19415996D01*
X5635742Y-19605012D01*
X5646657Y-19626433D01*
X5785483Y-19817510D01*
X5952490Y-19984517D01*
X5987127Y-20009683D01*
X6029792Y-20065013D01*
X6035771Y-20134626D01*
X6003165Y-20196421D01*
X5987130Y-20210315D01*
X5969365Y-20223222D01*
X5952488Y-20235484D01*
X5785485Y-20402487D01*
X5785485Y-20402488D01*
X5785483Y-20402490D01*
X5735973Y-20470635D01*
X5646657Y-20593566D01*
X5539433Y-20804003D01*
X5466446Y-21028631D01*
X5429500Y-21261902D01*
X5429500Y-21498097D01*
X5466447Y-21731369D01*
X5466447Y-21731371D01*
X5467801Y-21735538D01*
X5469791Y-21805379D01*
X5433706Y-21865210D01*
X5371003Y-21896033D01*
X5301590Y-21888064D01*
X5262186Y-21861529D01*
X4734208Y-21333551D01*
X4700723Y-21272228D01*
X4699416Y-21226477D01*
X4730500Y-21030222D01*
X4730500Y-20809778D01*
X4696015Y-20592049D01*
X4646182Y-20438677D01*
X4627896Y-20382396D01*
X4627895Y-20382393D01*
X4568542Y-20265909D01*
X4527815Y-20185978D01*
X4457580Y-20089307D01*
X4398247Y-20007641D01*
X4398243Y-20007636D01*
X4242363Y-19851756D01*
X4242358Y-19851752D01*
X4102745Y-19750318D01*
X4060079Y-19694989D01*
X4054100Y-19625375D01*
X4086705Y-19563580D01*
X4102745Y-19549682D01*
X4242358Y-19448247D01*
X4242356Y-19448247D01*
X4242365Y-19448242D01*
X4398242Y-19292365D01*
X4527815Y-19114022D01*
X4627895Y-18917606D01*
X4696015Y-18707951D01*
X4730500Y-18490222D01*
X4730500Y-18269778D01*
X4696015Y-18052049D01*
X4643298Y-17889800D01*
X4627896Y-17842396D01*
X4627895Y-17842393D01*
X4553040Y-17695485D01*
X4527815Y-17645978D01*
X4472614Y-17570000D01*
X4398247Y-17467641D01*
X4398243Y-17467636D01*
X4242363Y-17311756D01*
X4242358Y-17311752D01*
X4102745Y-17210318D01*
X4060079Y-17154989D01*
X4054100Y-17085375D01*
X4086705Y-17023580D01*
X4102745Y-17009682D01*
X4242358Y-16908247D01*
X4242356Y-16908247D01*
X4242365Y-16908242D01*
X4398242Y-16752365D01*
X4527815Y-16574022D01*
X4627895Y-16377606D01*
X4696015Y-16167951D01*
X4730500Y-15950222D01*
X4730500Y-15729778D01*
X4696015Y-15512049D01*
X4654113Y-15383086D01*
X4627896Y-15302396D01*
X4627895Y-15302393D01*
X4567104Y-15183086D01*
X4527815Y-15105978D01*
X4472614Y-15030000D01*
X4398247Y-14927641D01*
X4398243Y-14927636D01*
X4242363Y-14771756D01*
X4242358Y-14771752D01*
X4102745Y-14670318D01*
X4060079Y-14614989D01*
X4054100Y-14545375D01*
X4086705Y-14483580D01*
X4102745Y-14469682D01*
X4242358Y-14368247D01*
X4242356Y-14368247D01*
X4242365Y-14368242D01*
X4398242Y-14212365D01*
X4527815Y-14034022D01*
X4627895Y-13837606D01*
X4696015Y-13627951D01*
X4730500Y-13410222D01*
X4730500Y-13189778D01*
X4696015Y-12972049D01*
X4656105Y-12849217D01*
X4627896Y-12762396D01*
X4627895Y-12762393D01*
X4553040Y-12615485D01*
X4527815Y-12565978D01*
X4454723Y-12465375D01*
X4398247Y-12387641D01*
X4398243Y-12387636D01*
X4242363Y-12231756D01*
X4242358Y-12231752D01*
X4102745Y-12130318D01*
X4060079Y-12074989D01*
X4054100Y-12005375D01*
X4086705Y-11943580D01*
X4102745Y-11929682D01*
X4242358Y-11828247D01*
X4242356Y-11828247D01*
X4242365Y-11828242D01*
X4398242Y-11672365D01*
X4527815Y-11494022D01*
X4627895Y-11297606D01*
X4696015Y-11087951D01*
X4730500Y-10870222D01*
X4730500Y-10649778D01*
X4696015Y-10432049D01*
X4661955Y-10327221D01*
X4627896Y-10222396D01*
X4627895Y-10222393D01*
X4593237Y-10154375D01*
X4527815Y-10025978D01*
X4472614Y-9950000D01*
X4398247Y-9847641D01*
X4398243Y-9847636D01*
X4242363Y-9691756D01*
X4242358Y-9691752D01*
X4102745Y-9590318D01*
X4060079Y-9534989D01*
X4054100Y-9465375D01*
X4086705Y-9403580D01*
X4102745Y-9389682D01*
X4242358Y-9288247D01*
X4242356Y-9288247D01*
X4242365Y-9288242D01*
X4398242Y-9132365D01*
X4527815Y-8954022D01*
X4627895Y-8757606D01*
X4696015Y-8547951D01*
X4730500Y-8330222D01*
X4730500Y-8109778D01*
X4696015Y-7892049D01*
X4660746Y-7783502D01*
X4627896Y-7682396D01*
X4627895Y-7682393D01*
X4553039Y-7535483D01*
X4527815Y-7485978D01*
X4511260Y-7463192D01*
X4398247Y-7307641D01*
X4398243Y-7307636D01*
X4242363Y-7151756D01*
X4242358Y-7151752D01*
X4102745Y-7050318D01*
X4060079Y-6994989D01*
X4054100Y-6925375D01*
X4086705Y-6863580D01*
X4102745Y-6849682D01*
X4242358Y-6748247D01*
X4242356Y-6748247D01*
X4242365Y-6748242D01*
X4398242Y-6592365D01*
X4527815Y-6414022D01*
X4627895Y-6217606D01*
X4696015Y-6007951D01*
X4730500Y-5790222D01*
X4730500Y-5569778D01*
X4696015Y-5352049D01*
X4651961Y-5216462D01*
X4627896Y-5142396D01*
X4627895Y-5142393D01*
X4587723Y-5063553D01*
X4527815Y-4945978D01*
X4495461Y-4901446D01*
X4398247Y-4767641D01*
X4398243Y-4767636D01*
X4242363Y-4611756D01*
X4242358Y-4611752D01*
X4064025Y-4482187D01*
X4064024Y-4482186D01*
X4064022Y-4482185D01*
X3955279Y-4426777D01*
X3867606Y-4382104D01*
X3867603Y-4382103D01*
X3657952Y-4313985D01*
X3549086Y-4296742D01*
X3440222Y-4279500D01*
X3219778Y-4279500D01*
X3147201Y-4290995D01*
X3002047Y-4313985D01*
X2792396Y-4382103D01*
X2792393Y-4382104D01*
X2595974Y-4482187D01*
X2417641Y-4611752D01*
X2417636Y-4611756D01*
X2261756Y-4767636D01*
X2261752Y-4767641D01*
X2132187Y-4945974D01*
X2032104Y-5142393D01*
X2032103Y-5142396D01*
X1963985Y-5352047D01*
X1942728Y-5486258D01*
X1929500Y-5569778D01*
X1929500Y-5790222D01*
X1930331Y-5795466D01*
X1963985Y-6007952D01*
X2032103Y-6217603D01*
X2032104Y-6217606D01*
X2052713Y-6258052D01*
X2128999Y-6407770D01*
X2132187Y-6414025D01*
X2261752Y-6592358D01*
X2261756Y-6592363D01*
X2417636Y-6748243D01*
X2417641Y-6748247D01*
X2557254Y-6849682D01*
X2599920Y-6905012D01*
X2605899Y-6974625D01*
X2573293Y-7036420D01*
X2557254Y-7050318D01*
X2417641Y-7151752D01*
X2417636Y-7151756D01*
X2261756Y-7307636D01*
X2261752Y-7307641D01*
X2132187Y-7485974D01*
X2032104Y-7682393D01*
X2032103Y-7682396D01*
X1963985Y-7892047D01*
X1946536Y-8002218D01*
X1929500Y-8109778D01*
X1929500Y-8330222D01*
X1930331Y-8335466D01*
X1963985Y-8547952D01*
X2032103Y-8757603D01*
X2032104Y-8757606D01*
X2132187Y-8954025D01*
X2261752Y-9132358D01*
X2261756Y-9132363D01*
X2417636Y-9288243D01*
X2417641Y-9288247D01*
X2557254Y-9389682D01*
X2599920Y-9445012D01*
X2605899Y-9514625D01*
X2573293Y-9576420D01*
X2557254Y-9590318D01*
X2417641Y-9691752D01*
X2417636Y-9691756D01*
X2261756Y-9847636D01*
X2261752Y-9847641D01*
X2132187Y-10025974D01*
X2032104Y-10222393D01*
X2032103Y-10222396D01*
X1963985Y-10432047D01*
X1930415Y-10644003D01*
X1929500Y-10649778D01*
X1929500Y-10870222D01*
X1939335Y-10932317D01*
X1963985Y-11087952D01*
X2032103Y-11297603D01*
X2032104Y-11297606D01*
X2132187Y-11494025D01*
X2261752Y-11672358D01*
X2261756Y-11672363D01*
X2417636Y-11828243D01*
X2417641Y-11828247D01*
X2557254Y-11929682D01*
X2599920Y-11985012D01*
X2605899Y-12054625D01*
X2573293Y-12116420D01*
X2557254Y-12130318D01*
X2417641Y-12231752D01*
X2417636Y-12231756D01*
X2261756Y-12387636D01*
X2261752Y-12387641D01*
X2132187Y-12565974D01*
X2032104Y-12762393D01*
X2032103Y-12762396D01*
X1963985Y-12972047D01*
X1943409Y-13101958D01*
X1929500Y-13189778D01*
X1929500Y-13410222D01*
X1943291Y-13497297D01*
X1963985Y-13627952D01*
X2032103Y-13837603D01*
X2032104Y-13837606D01*
X2084817Y-13941058D01*
X2124871Y-14019668D01*
X2132187Y-14034025D01*
X2261752Y-14212358D01*
X2261756Y-14212363D01*
X2417636Y-14368243D01*
X2417641Y-14368247D01*
X2557254Y-14469682D01*
X2599920Y-14525012D01*
X2605899Y-14594625D01*
X2573293Y-14656420D01*
X2557254Y-14670318D01*
X2417641Y-14771752D01*
X2417636Y-14771756D01*
X2261756Y-14927636D01*
X2261752Y-14927641D01*
X2132187Y-15105974D01*
X2032104Y-15302393D01*
X2032103Y-15302396D01*
X1963985Y-15512047D01*
X1929500Y-15729778D01*
X1929500Y-15950221D01*
X1963985Y-16167952D01*
X2032103Y-16377603D01*
X2032104Y-16377606D01*
X2100122Y-16511096D01*
X2125222Y-16560357D01*
X2132187Y-16574025D01*
X2261752Y-16752358D01*
X2261756Y-16752363D01*
X2417636Y-16908243D01*
X2417641Y-16908247D01*
X2557254Y-17009682D01*
X2599920Y-17065012D01*
X2605899Y-17134625D01*
X2573293Y-17196420D01*
X2557254Y-17210318D01*
X2417641Y-17311752D01*
X2417636Y-17311756D01*
X2261756Y-17467636D01*
X2261752Y-17467641D01*
X2132187Y-17645974D01*
X2032104Y-17842393D01*
X2032103Y-17842396D01*
X1963985Y-18052047D01*
X1929500Y-18269778D01*
X1929500Y-18490221D01*
X1963985Y-18707952D01*
X2032103Y-18917603D01*
X2032104Y-18917606D01*
X2132187Y-19114025D01*
X2261752Y-19292358D01*
X2261756Y-19292363D01*
X2417636Y-19448243D01*
X2417641Y-19448247D01*
X2557254Y-19549682D01*
X2599920Y-19605012D01*
X2605899Y-19674625D01*
X2573293Y-19736420D01*
X2557254Y-19750318D01*
X2417641Y-19851752D01*
X2417636Y-19851756D01*
X2261756Y-20007636D01*
X2261752Y-20007641D01*
X2132187Y-20185974D01*
X2032104Y-20382393D01*
X2032103Y-20382396D01*
X1963985Y-20592047D01*
X1954408Y-20652516D01*
X1929500Y-20809778D01*
X1929500Y-21030222D01*
X1944904Y-21127480D01*
X1963985Y-21247952D01*
X2032103Y-21457603D01*
X2032104Y-21457606D01*
X2052736Y-21498097D01*
X2132112Y-21653879D01*
X2132187Y-21654025D01*
X2261752Y-21832358D01*
X2261756Y-21832363D01*
X2417636Y-21988243D01*
X2417641Y-21988247D01*
X2557254Y-22089682D01*
X2599920Y-22145012D01*
X2605899Y-22214625D01*
X2573293Y-22276420D01*
X2557254Y-22290318D01*
X2417641Y-22391752D01*
X2417636Y-22391756D01*
X2261756Y-22547636D01*
X2261755Y-22547638D01*
X2132187Y-22725974D01*
X2032104Y-22922393D01*
X2032103Y-22922396D01*
X1963985Y-23132047D01*
X1930415Y-23344003D01*
X1929500Y-23349778D01*
X1929500Y-23570222D01*
X1953069Y-23719029D01*
X1960583Y-23766471D01*
X1951628Y-23835765D01*
X1925791Y-23873550D01*
X1436687Y-24362654D01*
X1360022Y-24477392D01*
X1307221Y-24604867D01*
X1307218Y-24604879D01*
X1285132Y-24715914D01*
X1285128Y-24715935D01*
X1284776Y-24717707D01*
X1280300Y-24740207D01*
X1280300Y-37520506D01*
X1280300Y-37658494D01*
X1280300Y-37658496D01*
X1280299Y-37658496D01*
X500500Y-37658496D01*
X500500Y-6002561D01*
X500606Y-5997437D01*
X502836Y-5943513D01*
X519072Y-5550961D01*
X519915Y-5540792D01*
X574874Y-5099881D01*
X576554Y-5089809D01*
X667734Y-4654950D01*
X670241Y-4645054D01*
X797021Y-4219205D01*
X800336Y-4209553D01*
X961842Y-3795646D01*
X965958Y-3786265D01*
X997425Y-3721898D01*
X1161080Y-3387137D01*
X1165953Y-3378131D01*
X1233643Y-3264533D01*
X1393389Y-2996444D01*
X1398982Y-2987884D01*
X1657152Y-2626294D01*
X1663420Y-2618240D01*
X1950581Y-2279191D01*
X1957500Y-2271675D01*
X2271675Y-1957500D01*
X2279191Y-1950581D01*
X2618240Y-1663420D01*
X2626294Y-1657152D01*
X2987884Y-1398982D01*
X2996444Y-1393389D01*
X3378139Y-1165948D01*
X3387137Y-1161080D01*
X3786268Y-965956D01*
X3795650Y-961841D01*
X4209553Y-800336D01*
X4219205Y-797021D01*
X4645054Y-670241D01*
X4654950Y-667734D01*
X5089809Y-576554D01*
X5099881Y-574874D01*
X5540792Y-519915D01*
X5550961Y-519072D01*
X5997437Y-500605D01*
X6002561Y-500500D01*
X6065892Y-500500D01*
X93434108Y-500500D01*
X93497439Y-500500D01*
X93502562Y-500605D01*
G37*
%TD.AperFunction*%
%TD*%
%TA.AperFunction,NonConductor*%
G36*
X33974358Y-11335281D02*
G01*
X34025409Y-11366066D01*
X34240081Y-11580738D01*
X34273566Y-11642061D01*
X34276400Y-11668419D01*
X34276400Y-14416381D01*
X34256715Y-14483420D01*
X34203911Y-14529175D01*
X34134753Y-14539119D01*
X34071197Y-14510094D01*
X34064719Y-14504062D01*
X33817480Y-14256823D01*
X33783995Y-14195500D01*
X33787230Y-14130825D01*
X33793553Y-14111368D01*
X33815744Y-13971259D01*
X33830500Y-13878097D01*
X33830500Y-13641902D01*
X33793553Y-13408631D01*
X33732516Y-13220781D01*
X33720568Y-13184008D01*
X33720566Y-13184005D01*
X33720566Y-13184003D01*
X33651892Y-13049223D01*
X33613343Y-12973567D01*
X33474517Y-12782490D01*
X33307510Y-12615483D01*
X33272872Y-12590317D01*
X33230207Y-12534989D01*
X33224228Y-12465375D01*
X33256833Y-12403580D01*
X33272873Y-12389682D01*
X33307510Y-12364517D01*
X33474517Y-12197510D01*
X33613343Y-12006433D01*
X33720568Y-11795992D01*
X33793553Y-11571368D01*
X33805803Y-11494025D01*
X33815255Y-11434349D01*
X33845184Y-11371214D01*
X33904496Y-11334283D01*
X33974358Y-11335281D01*
G37*
%TD.AperFunction*%
%TA.AperFunction,NonConductor*%
G36*
X47568754Y-11621768D02*
G01*
X47596860Y-11620564D01*
X47603136Y-11624227D01*
X47610387Y-11624746D01*
X47632907Y-11641605D01*
X47657202Y-11655786D01*
X47663182Y-11664268D01*
X47666320Y-11666618D01*
X47677538Y-11684633D01*
X47767715Y-11861613D01*
X47888028Y-12027213D01*
X48032786Y-12171971D01*
X48152490Y-12258939D01*
X48198390Y-12292287D01*
X48289840Y-12338883D01*
X48291080Y-12339515D01*
X48341876Y-12387490D01*
X48358671Y-12455311D01*
X48336134Y-12521446D01*
X48291080Y-12560485D01*
X48198386Y-12607715D01*
X48032786Y-12728028D01*
X47888028Y-12872786D01*
X47767715Y-13038386D01*
X47674781Y-13220776D01*
X47611522Y-13415465D01*
X47579500Y-13617648D01*
X47579500Y-13822351D01*
X47611522Y-14024534D01*
X47674781Y-14219223D01*
X47767715Y-14401613D01*
X47888028Y-14567213D01*
X48032786Y-14711971D01*
X48187749Y-14824556D01*
X48198390Y-14832287D01*
X48289840Y-14878883D01*
X48291080Y-14879515D01*
X48341876Y-14927490D01*
X48358671Y-14995311D01*
X48336134Y-15061446D01*
X48291080Y-15100485D01*
X48198386Y-15147715D01*
X48032786Y-15268028D01*
X47888028Y-15412786D01*
X47767715Y-15578386D01*
X47674781Y-15760778D01*
X47611522Y-15955468D01*
X47588073Y-16103515D01*
X47558143Y-16166649D01*
X47553281Y-16171797D01*
X45660581Y-18064498D01*
X45599258Y-18097983D01*
X45529566Y-18092999D01*
X45473633Y-18051127D01*
X45449216Y-17985663D01*
X45448900Y-17976817D01*
X45448900Y-13735082D01*
X45468585Y-13668043D01*
X45485219Y-13647401D01*
X46435982Y-12696638D01*
X47479374Y-11653245D01*
X47504058Y-11639767D01*
X47527054Y-11623556D01*
X47534316Y-11623244D01*
X47540695Y-11619762D01*
X47568754Y-11621768D01*
G37*
%TD.AperFunction*%
%TA.AperFunction,NonConductor*%
G36*
X35703012Y-22552443D02*
G01*
X35804375Y-22585378D01*
X35875465Y-22608477D01*
X35957423Y-22621458D01*
X36077648Y-22640500D01*
X36077649Y-22640500D01*
X36282351Y-22640500D01*
X36282352Y-22640500D01*
X36484534Y-22608477D01*
X36549482Y-22587373D01*
X36619322Y-22585378D01*
X36679155Y-22621458D01*
X36709984Y-22684159D01*
X36711800Y-22705305D01*
X36711800Y-24134694D01*
X36692115Y-24201733D01*
X36639311Y-24247488D01*
X36570153Y-24257432D01*
X36549482Y-24252625D01*
X36484537Y-24231523D01*
X36296450Y-24201733D01*
X36282352Y-24199500D01*
X36077648Y-24199500D01*
X36063550Y-24201733D01*
X35875464Y-24231523D01*
X35875461Y-24231523D01*
X35703018Y-24287554D01*
X35633177Y-24289549D01*
X35573344Y-24253469D01*
X35542516Y-24190768D01*
X35540700Y-24169623D01*
X35540700Y-22670376D01*
X35560385Y-22603337D01*
X35613189Y-22557582D01*
X35682347Y-22547638D01*
X35703012Y-22552443D01*
G37*
%TD.AperFunction*%
%TA.AperFunction,NonConductor*%
G36*
X54526259Y-23637277D02*
G01*
X54535572Y-23645692D01*
X56949999Y-26060119D01*
X56983484Y-26121442D01*
X56978500Y-26191134D01*
X56936628Y-26247067D01*
X56871164Y-26271484D01*
X56862318Y-26271800D01*
X56477183Y-26271800D01*
X56410144Y-26252115D01*
X56389502Y-26235481D01*
X54082841Y-23928820D01*
X54049356Y-23867497D01*
X54054340Y-23797805D01*
X54096212Y-23741872D01*
X54138427Y-23721364D01*
X54180330Y-23710137D01*
X54356229Y-23637277D01*
X54398502Y-23619767D01*
X54399060Y-23621116D01*
X54461865Y-23610163D01*
X54526259Y-23637277D01*
G37*
%TD.AperFunction*%
%TA.AperFunction,NonConductor*%
G36*
X33974358Y-16415281D02*
G01*
X34025409Y-16446066D01*
X34103381Y-16524038D01*
X34136866Y-16585361D01*
X34139700Y-16611719D01*
X34139700Y-26979681D01*
X34120015Y-27046720D01*
X34067211Y-27092475D01*
X33998053Y-27102419D01*
X33934497Y-27073394D01*
X33928019Y-27067362D01*
X33817480Y-26956823D01*
X33783995Y-26895500D01*
X33787230Y-26830825D01*
X33793553Y-26811368D01*
X33810365Y-26705220D01*
X33830500Y-26578097D01*
X33830500Y-26341902D01*
X33793553Y-26108631D01*
X33742086Y-25950233D01*
X33720568Y-25884008D01*
X33720566Y-25884005D01*
X33720566Y-25884003D01*
X33613342Y-25673566D01*
X33579698Y-25627259D01*
X33474517Y-25482490D01*
X33307510Y-25315483D01*
X33272872Y-25290317D01*
X33230207Y-25234989D01*
X33224228Y-25165375D01*
X33256833Y-25103580D01*
X33272873Y-25089682D01*
X33307510Y-25064517D01*
X33474517Y-24897510D01*
X33613343Y-24706433D01*
X33720568Y-24495992D01*
X33793553Y-24271368D01*
X33797335Y-24247488D01*
X33830500Y-24038097D01*
X33830500Y-23801902D01*
X33793553Y-23568631D01*
X33741192Y-23407482D01*
X33720568Y-23344008D01*
X33720566Y-23344005D01*
X33720566Y-23344003D01*
X33613342Y-23133566D01*
X33612240Y-23132049D01*
X33474517Y-22942490D01*
X33307510Y-22775483D01*
X33272872Y-22750317D01*
X33230207Y-22694989D01*
X33224228Y-22625375D01*
X33256833Y-22563580D01*
X33272873Y-22549682D01*
X33307510Y-22524517D01*
X33474517Y-22357510D01*
X33613343Y-22166433D01*
X33720568Y-21955992D01*
X33793553Y-21731368D01*
X33805803Y-21654025D01*
X33830500Y-21498097D01*
X33830500Y-21261902D01*
X33793553Y-21028631D01*
X33738799Y-20860117D01*
X33720568Y-20804008D01*
X33720566Y-20804005D01*
X33720566Y-20804003D01*
X33664002Y-20692991D01*
X33613343Y-20593567D01*
X33474517Y-20402490D01*
X33307510Y-20235483D01*
X33272872Y-20210317D01*
X33230207Y-20154989D01*
X33224228Y-20085375D01*
X33256833Y-20023580D01*
X33272873Y-20009682D01*
X33307510Y-19984517D01*
X33474517Y-19817510D01*
X33613343Y-19626433D01*
X33720568Y-19415992D01*
X33793553Y-19191368D01*
X33805803Y-19114025D01*
X33830500Y-18958097D01*
X33830500Y-18721902D01*
X33793553Y-18488631D01*
X33748723Y-18350659D01*
X33720568Y-18264008D01*
X33720566Y-18264005D01*
X33720566Y-18264003D01*
X33662028Y-18149116D01*
X33613343Y-18053567D01*
X33474517Y-17862490D01*
X33307510Y-17695483D01*
X33272872Y-17670317D01*
X33230207Y-17614989D01*
X33224228Y-17545375D01*
X33256833Y-17483580D01*
X33272873Y-17469682D01*
X33307510Y-17444517D01*
X33474517Y-17277510D01*
X33613343Y-17086433D01*
X33720568Y-16875992D01*
X33793553Y-16651368D01*
X33799833Y-16611719D01*
X33815255Y-16514349D01*
X33845184Y-16451214D01*
X33904496Y-16414283D01*
X33974358Y-16415281D01*
G37*
%TD.AperFunction*%
%TA.AperFunction,NonConductor*%
G36*
X8574358Y-24035280D02*
G01*
X8625409Y-24066065D01*
X9599881Y-25040537D01*
X9633366Y-25101860D01*
X9636200Y-25128218D01*
X9636200Y-27876181D01*
X9616515Y-27943220D01*
X9563711Y-27988975D01*
X9494553Y-27998919D01*
X9430997Y-27969894D01*
X9424519Y-27963862D01*
X8417480Y-26956823D01*
X8383995Y-26895500D01*
X8387230Y-26830825D01*
X8393553Y-26811368D01*
X8410365Y-26705220D01*
X8430500Y-26578097D01*
X8430500Y-26341902D01*
X8393553Y-26108631D01*
X8342086Y-25950233D01*
X8320568Y-25884008D01*
X8320566Y-25884005D01*
X8320566Y-25884003D01*
X8213342Y-25673566D01*
X8179698Y-25627259D01*
X8074517Y-25482490D01*
X7907510Y-25315483D01*
X7872872Y-25290317D01*
X7830207Y-25234989D01*
X7824228Y-25165375D01*
X7856833Y-25103580D01*
X7872873Y-25089682D01*
X7907510Y-25064517D01*
X8074517Y-24897510D01*
X8213343Y-24706433D01*
X8320568Y-24495992D01*
X8393553Y-24271368D01*
X8415255Y-24134348D01*
X8445184Y-24071213D01*
X8504496Y-24034282D01*
X8574358Y-24035280D01*
G37*
%TD.AperFunction*%
%TA.AperFunction,NonConductor*%
G36*
X4802649Y-27876179D02*
G01*
X4842060Y-27902717D01*
X5442518Y-28503175D01*
X5476003Y-28564498D01*
X5472769Y-28629170D01*
X5466447Y-28648627D01*
X5466447Y-28648628D01*
X5429500Y-28881902D01*
X5429500Y-28925217D01*
X5409815Y-28992256D01*
X5357011Y-29038011D01*
X5287853Y-29047955D01*
X5224297Y-29018930D01*
X5217819Y-29012898D01*
X4766819Y-28561898D01*
X4733334Y-28500575D01*
X4730500Y-28474217D01*
X4730500Y-28429778D01*
X4718707Y-28355321D01*
X4696015Y-28212049D01*
X4684154Y-28175543D01*
X4636448Y-28028715D01*
X4634453Y-27958874D01*
X4670534Y-27899042D01*
X4733235Y-27868214D01*
X4802649Y-27876179D01*
G37*
%TD.AperFunction*%
%TA.AperFunction,NonConductor*%
G36*
X2843613Y-29854536D02*
G01*
X3002049Y-29906015D01*
X3219778Y-29940500D01*
X3264218Y-29940500D01*
X3331257Y-29960185D01*
X3351899Y-29976819D01*
X3970481Y-30595401D01*
X3985184Y-30622328D01*
X4001777Y-30648147D01*
X4002668Y-30654347D01*
X4003966Y-30656724D01*
X4006800Y-30683082D01*
X4006800Y-30909568D01*
X3987115Y-30976607D01*
X3934311Y-31022362D01*
X3865153Y-31032306D01*
X3844482Y-31027499D01*
X3764536Y-31001523D01*
X3607223Y-30976607D01*
X3562352Y-30969500D01*
X3357648Y-30969500D01*
X3333329Y-30973351D01*
X3155465Y-31001522D01*
X2960773Y-31064782D01*
X2861594Y-31115317D01*
X2792925Y-31128213D01*
X2728185Y-31101936D01*
X2687928Y-31044830D01*
X2681300Y-31004832D01*
X2681300Y-29972469D01*
X2700985Y-29905430D01*
X2753789Y-29859675D01*
X2822947Y-29849731D01*
X2843613Y-29854536D01*
G37*
%TD.AperFunction*%
%TA.AperFunction,NonConductor*%
G36*
X30741074Y-18955810D02*
G01*
X30765605Y-18957565D01*
X30774374Y-18964129D01*
X30785002Y-18966785D01*
X30801851Y-18984699D01*
X30821538Y-18999437D01*
X30826291Y-19010684D01*
X30832871Y-19017680D01*
X30844187Y-19051111D01*
X30844497Y-19052783D01*
X30866447Y-19191368D01*
X30875271Y-19218527D01*
X30876753Y-19226506D01*
X30873987Y-19253520D01*
X30874763Y-19280665D01*
X30870482Y-19287763D01*
X30869638Y-19296012D01*
X30842518Y-19336823D01*
X19012181Y-31167161D01*
X18950858Y-31200646D01*
X18881166Y-31195662D01*
X18825233Y-31153790D01*
X18800816Y-31088326D01*
X18800500Y-31079480D01*
X18800500Y-30871519D01*
X18820185Y-30804480D01*
X18836819Y-30783838D01*
X24723147Y-24897510D01*
X30634592Y-18986064D01*
X30644203Y-18980816D01*
X30651034Y-18972252D01*
X30674329Y-18964366D01*
X30695913Y-18952581D01*
X30706838Y-18953362D01*
X30717215Y-18949850D01*
X30741074Y-18955810D01*
G37*
%TD.AperFunction*%
%TA.AperFunction,NonConductor*%
G36*
X50852032Y-23543700D02*
G01*
X50896380Y-23572201D01*
X55643181Y-28319002D01*
X55676666Y-28380325D01*
X55679500Y-28406682D01*
X55679500Y-28572300D01*
X55679501Y-28572319D01*
X55690000Y-28675096D01*
X55690001Y-28675099D01*
X55745185Y-28841631D01*
X55745186Y-28841634D01*
X55837288Y-28990956D01*
X55961344Y-29115012D01*
X56110666Y-29207114D01*
X56277203Y-29262299D01*
X56379991Y-29272800D01*
X57214216Y-29272799D01*
X57281255Y-29292483D01*
X57301897Y-29309118D01*
X57850681Y-29857901D01*
X57884166Y-29919224D01*
X57887000Y-29945582D01*
X57887000Y-31253627D01*
X57867315Y-31320666D01*
X57814511Y-31366421D01*
X57745353Y-31376365D01*
X57724682Y-31371558D01*
X57531370Y-31308747D01*
X57298097Y-31271800D01*
X57298092Y-31271800D01*
X57145782Y-31271800D01*
X57078743Y-31252115D01*
X57058101Y-31235481D01*
X53229179Y-27406559D01*
X53229159Y-27406537D01*
X53085485Y-27262863D01*
X53085481Y-27262860D01*
X52921620Y-27153371D01*
X52921607Y-27153364D01*
X52776696Y-27093340D01*
X52776687Y-27093337D01*
X52768610Y-27089992D01*
X52739536Y-27077949D01*
X52642888Y-27058724D01*
X52639529Y-27058055D01*
X52639514Y-27058052D01*
X52546244Y-27039500D01*
X52546241Y-27039500D01*
X49755762Y-27039500D01*
X49688723Y-27019815D01*
X49682877Y-27015818D01*
X49679715Y-27013521D01*
X49561610Y-26927713D01*
X49468917Y-26880483D01*
X49418123Y-26832511D01*
X49401328Y-26764690D01*
X49423865Y-26698555D01*
X49468917Y-26659516D01*
X49561610Y-26612287D01*
X49646264Y-26550783D01*
X49727213Y-26491971D01*
X49727215Y-26491968D01*
X49727219Y-26491966D01*
X49871966Y-26347219D01*
X49871968Y-26347215D01*
X49871971Y-26347213D01*
X49932096Y-26264457D01*
X49992287Y-26181610D01*
X50085220Y-25999219D01*
X50148477Y-25804534D01*
X50180500Y-25602352D01*
X50180500Y-25397648D01*
X50177757Y-25380328D01*
X50148477Y-25195465D01*
X50114106Y-25089682D01*
X50085220Y-25000781D01*
X50085218Y-25000778D01*
X50085218Y-25000776D01*
X50051503Y-24934607D01*
X49992287Y-24818390D01*
X49938616Y-24744517D01*
X49904182Y-24697122D01*
X49897029Y-24677077D01*
X49885523Y-24659172D01*
X49882068Y-24635145D01*
X49880702Y-24631316D01*
X49880500Y-24624237D01*
X49880500Y-24464082D01*
X49900185Y-24397043D01*
X49916819Y-24376401D01*
X50258938Y-24034282D01*
X50721020Y-23572199D01*
X50782341Y-23538716D01*
X50852032Y-23543700D01*
G37*
%TD.AperFunction*%
%TA.AperFunction,NonConductor*%
G36*
X38367234Y-27370199D02*
G01*
X38423167Y-27412071D01*
X38447584Y-27477535D01*
X38447900Y-27486381D01*
X38447900Y-34927281D01*
X38428215Y-34994320D01*
X38375411Y-35040075D01*
X38306253Y-35050019D01*
X38242697Y-35020994D01*
X38236219Y-35014962D01*
X37253799Y-34032542D01*
X37220314Y-33971219D01*
X37225298Y-33901527D01*
X37241158Y-33871982D01*
X37292287Y-33801610D01*
X37385220Y-33619219D01*
X37448477Y-33424534D01*
X37480500Y-33222352D01*
X37480500Y-33017648D01*
X37448477Y-32815466D01*
X37385220Y-32620781D01*
X37385218Y-32620778D01*
X37385218Y-32620776D01*
X37318533Y-32489901D01*
X37292287Y-32438390D01*
X37270331Y-32408170D01*
X37171971Y-32272786D01*
X37027213Y-32128028D01*
X36861614Y-32007715D01*
X36819298Y-31986154D01*
X36768917Y-31960483D01*
X36718123Y-31912511D01*
X36701328Y-31844690D01*
X36723865Y-31778555D01*
X36768917Y-31739516D01*
X36861610Y-31692287D01*
X36895950Y-31667338D01*
X37027213Y-31571971D01*
X37027215Y-31571968D01*
X37027219Y-31571966D01*
X37171966Y-31427219D01*
X37171968Y-31427215D01*
X37171971Y-31427213D01*
X37224732Y-31354590D01*
X37292287Y-31261610D01*
X37385220Y-31079219D01*
X37448477Y-30884534D01*
X37480500Y-30682352D01*
X37480500Y-30477648D01*
X37457636Y-30333292D01*
X37448477Y-30275465D01*
X37386089Y-30083457D01*
X37385220Y-30080781D01*
X37385218Y-30080778D01*
X37385218Y-30080776D01*
X37335921Y-29984027D01*
X37292287Y-29898390D01*
X37264159Y-29859675D01*
X37171971Y-29732786D01*
X37027213Y-29588028D01*
X36861614Y-29467715D01*
X36819298Y-29446154D01*
X36768917Y-29420483D01*
X36718123Y-29372511D01*
X36701328Y-29304690D01*
X36723865Y-29238555D01*
X36768917Y-29199516D01*
X36861610Y-29152287D01*
X36921662Y-29108657D01*
X37027213Y-29031971D01*
X37027215Y-29031968D01*
X37027219Y-29031966D01*
X37171966Y-28887219D01*
X37171968Y-28887215D01*
X37171971Y-28887213D01*
X37224732Y-28814590D01*
X37292287Y-28721610D01*
X37385220Y-28539219D01*
X37448477Y-28344534D01*
X37471925Y-28196483D01*
X37501854Y-28133350D01*
X37506699Y-28128219D01*
X38236220Y-27398699D01*
X38297542Y-27365215D01*
X38367234Y-27370199D01*
G37*
%TD.AperFunction*%
%TA.AperFunction,NonConductor*%
G36*
X37440220Y-36378982D02*
G01*
X37474577Y-36439821D01*
X37477800Y-36467907D01*
X37477800Y-37392092D01*
X37458115Y-37459131D01*
X37405311Y-37504886D01*
X37336153Y-37514830D01*
X37272597Y-37485805D01*
X37253482Y-37464977D01*
X37171971Y-37352787D01*
X37171967Y-37352782D01*
X37027217Y-37208032D01*
X37027212Y-37208028D01*
X36931615Y-37138573D01*
X36928274Y-37134241D01*
X36923297Y-37131968D01*
X36907164Y-37106865D01*
X36888949Y-37083243D01*
X36887696Y-37076571D01*
X36885523Y-37073190D01*
X36880500Y-37038255D01*
X36880500Y-36821744D01*
X36900185Y-36754705D01*
X36931615Y-36721426D01*
X37027215Y-36651969D01*
X37027215Y-36651968D01*
X37027219Y-36651966D01*
X37171966Y-36507219D01*
X37171968Y-36507215D01*
X37171971Y-36507213D01*
X37253482Y-36395022D01*
X37308811Y-36352356D01*
X37378425Y-36346377D01*
X37440220Y-36378982D01*
G37*
%TD.AperFunction*%
%TA.AperFunction,NonConductor*%
G36*
X35074203Y-36356025D02*
G01*
X35093315Y-36376849D01*
X35165171Y-36475750D01*
X35188034Y-36507219D01*
X35332784Y-36651969D01*
X35428385Y-36721426D01*
X35431725Y-36725757D01*
X35436703Y-36728031D01*
X35452833Y-36753130D01*
X35471051Y-36776755D01*
X35472304Y-36783428D01*
X35474477Y-36786809D01*
X35479500Y-36821744D01*
X35479500Y-37038255D01*
X35459815Y-37105294D01*
X35428385Y-37138573D01*
X35332787Y-37208028D01*
X35332782Y-37208032D01*
X35188032Y-37352782D01*
X35188028Y-37352787D01*
X35093318Y-37483146D01*
X35037989Y-37525812D01*
X34968375Y-37531791D01*
X34906580Y-37499186D01*
X34872223Y-37438347D01*
X34869000Y-37410261D01*
X34869000Y-36449738D01*
X34888685Y-36382699D01*
X34941489Y-36336944D01*
X35010647Y-36327000D01*
X35074203Y-36356025D01*
G37*
%TD.AperFunction*%
%TA.AperFunction,NonConductor*%
G36*
X5369861Y-34382952D02*
G01*
X5402169Y-34385263D01*
X5404372Y-34386912D01*
X5407104Y-34387226D01*
X5432167Y-34407720D01*
X5458102Y-34427135D01*
X5459714Y-34430245D01*
X5461193Y-34431454D01*
X5476766Y-34463127D01*
X5496276Y-34523174D01*
X5539432Y-34655992D01*
X5646657Y-34866433D01*
X5785483Y-35057510D01*
X5952490Y-35224517D01*
X5987127Y-35249683D01*
X6029792Y-35305013D01*
X6035771Y-35374626D01*
X6003165Y-35436421D01*
X5987130Y-35450315D01*
X5969365Y-35463222D01*
X5952488Y-35475484D01*
X5785485Y-35642487D01*
X5785485Y-35642488D01*
X5785483Y-35642490D01*
X5774782Y-35657219D01*
X5646657Y-35833566D01*
X5539433Y-36044003D01*
X5466446Y-36268631D01*
X5429500Y-36501902D01*
X5429500Y-36738097D01*
X5466447Y-36971369D01*
X5466447Y-36971372D01*
X5472768Y-36990824D01*
X5474763Y-37060665D01*
X5442518Y-37116823D01*
X4965147Y-37594194D01*
X4903824Y-37627679D01*
X4834132Y-37622695D01*
X4778199Y-37580823D01*
X4753782Y-37515359D01*
X4754992Y-37487124D01*
X4760500Y-37452352D01*
X4760500Y-37247648D01*
X4750482Y-37184398D01*
X4728477Y-37045465D01*
X4689234Y-36924690D01*
X4665220Y-36850781D01*
X4665218Y-36850778D01*
X4665218Y-36850776D01*
X4615464Y-36753130D01*
X4572287Y-36668390D01*
X4560354Y-36651966D01*
X4451971Y-36502786D01*
X4307213Y-36358028D01*
X4141614Y-36237715D01*
X4135006Y-36234348D01*
X4048917Y-36190483D01*
X3998123Y-36142511D01*
X3981328Y-36074690D01*
X4003865Y-36008555D01*
X4048917Y-35969516D01*
X4141610Y-35922287D01*
X4263724Y-35833567D01*
X4307213Y-35801971D01*
X4307215Y-35801968D01*
X4307219Y-35801966D01*
X4451966Y-35657219D01*
X4451968Y-35657215D01*
X4451971Y-35657213D01*
X4524308Y-35557648D01*
X4572287Y-35491610D01*
X4665220Y-35309219D01*
X4728477Y-35114534D01*
X4751925Y-34966483D01*
X4781854Y-34903350D01*
X4786699Y-34898219D01*
X5271157Y-34413761D01*
X5273567Y-34412446D01*
X5274989Y-34410089D01*
X5304062Y-34395794D01*
X5332477Y-34380279D01*
X5335220Y-34380475D01*
X5337690Y-34379261D01*
X5369861Y-34382952D01*
G37*
%TD.AperFunction*%
%TA.AperFunction,NonConductor*%
G36*
X5390892Y-39253912D02*
G01*
X5432290Y-39310197D01*
X5438219Y-39333150D01*
X5466446Y-39511368D01*
X5539434Y-39735997D01*
X5543615Y-39744202D01*
X5556513Y-39812871D01*
X5530239Y-39877612D01*
X5473133Y-39917871D01*
X5433132Y-39924500D01*
X5196005Y-39924500D01*
X5116649Y-39940285D01*
X5116645Y-39940286D01*
X5108095Y-39941987D01*
X5060671Y-39951420D01*
X5007866Y-39973292D01*
X4933189Y-40004225D01*
X4932292Y-40004823D01*
X4925471Y-40007212D01*
X4893912Y-40008827D01*
X4862485Y-40012206D01*
X4859275Y-40010599D01*
X4855693Y-40010783D01*
X4828273Y-39995081D01*
X4800005Y-39980932D01*
X4798173Y-39977845D01*
X4795061Y-39976063D01*
X4780483Y-39948030D01*
X4764352Y-39920843D01*
X4763717Y-39915789D01*
X4762825Y-39914074D01*
X4763110Y-39910962D01*
X4760500Y-39890176D01*
X4760500Y-39787648D01*
X4749123Y-39715818D01*
X4728477Y-39585466D01*
X4728476Y-39585462D01*
X4728476Y-39585461D01*
X4695125Y-39482818D01*
X4693130Y-39412977D01*
X4729210Y-39353144D01*
X4791911Y-39322316D01*
X4813056Y-39320500D01*
X4998996Y-39320500D01*
X5090040Y-39302389D01*
X5134328Y-39293580D01*
X5182768Y-39273515D01*
X5267440Y-39238444D01*
X5268448Y-39240878D01*
X5325636Y-39228943D01*
X5390892Y-39253912D01*
G37*
%TD.AperFunction*%
%TA.AperFunction,NonConductor*%
G36*
X37440220Y-38918982D02*
G01*
X37474577Y-38979821D01*
X37477800Y-39007907D01*
X37477800Y-39932092D01*
X37458115Y-39999131D01*
X37405311Y-40044886D01*
X37336153Y-40054830D01*
X37272597Y-40025805D01*
X37253482Y-40004977D01*
X37171971Y-39892787D01*
X37171967Y-39892782D01*
X37027213Y-39748028D01*
X36861614Y-39627715D01*
X36855006Y-39624348D01*
X36768917Y-39580483D01*
X36718123Y-39532511D01*
X36701328Y-39464690D01*
X36723865Y-39398555D01*
X36768917Y-39359516D01*
X36861610Y-39312287D01*
X36887361Y-39293578D01*
X37027213Y-39191971D01*
X37027215Y-39191968D01*
X37027219Y-39191966D01*
X37171966Y-39047219D01*
X37171968Y-39047215D01*
X37171971Y-39047213D01*
X37253482Y-38935022D01*
X37308811Y-38892356D01*
X37378425Y-38886377D01*
X37440220Y-38918982D01*
G37*
%TD.AperFunction*%
%TA.AperFunction,NonConductor*%
G36*
X35007023Y-38867521D02*
G01*
X35010647Y-38867000D01*
X35039339Y-38880103D01*
X35068721Y-38891543D01*
X35072178Y-38895100D01*
X35074203Y-38896025D01*
X35093315Y-38916849D01*
X35187867Y-39046989D01*
X35188034Y-39047219D01*
X35332786Y-39191971D01*
X35472639Y-39293578D01*
X35498390Y-39312287D01*
X35578576Y-39353144D01*
X35591080Y-39359515D01*
X35641876Y-39407490D01*
X35658671Y-39475311D01*
X35636134Y-39541446D01*
X35591080Y-39580485D01*
X35498386Y-39627715D01*
X35332786Y-39748028D01*
X35188032Y-39892782D01*
X35188028Y-39892787D01*
X35093318Y-40023146D01*
X35037989Y-40065812D01*
X34968375Y-40071791D01*
X34906580Y-40039186D01*
X34872223Y-39978347D01*
X34869000Y-39950261D01*
X34869000Y-38989738D01*
X34877883Y-38959484D01*
X34885028Y-38928762D01*
X34887654Y-38926209D01*
X34888685Y-38922699D01*
X34912509Y-38902054D01*
X34935134Y-38880068D01*
X34938722Y-38879340D01*
X34941489Y-38876944D01*
X34972701Y-38872456D01*
X35003612Y-38866193D01*
X35007023Y-38867521D01*
G37*
%TD.AperFunction*%
%TA.AperFunction,NonConductor*%
G36*
X8574358Y-11335281D02*
G01*
X8625409Y-11366066D01*
X14818181Y-17558838D01*
X14851666Y-17620161D01*
X14854500Y-17646519D01*
X14854500Y-44766584D01*
X14834815Y-44833623D01*
X14782011Y-44879378D01*
X14712853Y-44889322D01*
X14711102Y-44889057D01*
X14524486Y-44859500D01*
X14524481Y-44859500D01*
X14335519Y-44859500D01*
X14335512Y-44859500D01*
X14172197Y-44885366D01*
X14102904Y-44876411D01*
X14049452Y-44831415D01*
X14028813Y-44764663D01*
X14028800Y-44762893D01*
X14028800Y-20089305D01*
X14019542Y-20042769D01*
X14014914Y-20019500D01*
X14001880Y-19953972D01*
X13949075Y-19826489D01*
X13872414Y-19711757D01*
X13872412Y-19711754D01*
X13872411Y-19711753D01*
X8417480Y-14256823D01*
X8383995Y-14195500D01*
X8387230Y-14130825D01*
X8393553Y-14111368D01*
X8415744Y-13971259D01*
X8430500Y-13878097D01*
X8430500Y-13641902D01*
X8393553Y-13408631D01*
X8332516Y-13220781D01*
X8320568Y-13184008D01*
X8320566Y-13184005D01*
X8320566Y-13184003D01*
X8251892Y-13049223D01*
X8213343Y-12973567D01*
X8074517Y-12782490D01*
X7907510Y-12615483D01*
X7872872Y-12590317D01*
X7830207Y-12534989D01*
X7824228Y-12465375D01*
X7856833Y-12403580D01*
X7872873Y-12389682D01*
X7907510Y-12364517D01*
X8074517Y-12197510D01*
X8213343Y-12006433D01*
X8320568Y-11795992D01*
X8393553Y-11571368D01*
X8405803Y-11494025D01*
X8415255Y-11434349D01*
X8445184Y-11371214D01*
X8504496Y-11334283D01*
X8574358Y-11335281D01*
G37*
%TD.AperFunction*%
%TA.AperFunction,NonConductor*%
G36*
X8574358Y-16415281D02*
G01*
X8625409Y-16446066D01*
X12591481Y-20412138D01*
X12624966Y-20473461D01*
X12627800Y-20499819D01*
X12627800Y-44812546D01*
X12608115Y-44879585D01*
X12555311Y-44925340D01*
X12486153Y-44935284D01*
X12465489Y-44930479D01*
X12461122Y-44929060D01*
X12274486Y-44899500D01*
X12274481Y-44899500D01*
X12085519Y-44899500D01*
X12085514Y-44899500D01*
X11898881Y-44929059D01*
X11719163Y-44987454D01*
X11550800Y-45073240D01*
X11515556Y-45098847D01*
X11397927Y-45184310D01*
X11397925Y-45184312D01*
X11397924Y-45184312D01*
X11264312Y-45317924D01*
X11264302Y-45317935D01*
X11261514Y-45321774D01*
X11206182Y-45364437D01*
X11136569Y-45370413D01*
X11074775Y-45337804D01*
X11040421Y-45276964D01*
X11037200Y-45248884D01*
X11037200Y-24717704D01*
X11010281Y-24582377D01*
X11010280Y-24582376D01*
X11010280Y-24582372D01*
X11010278Y-24582367D01*
X10991907Y-24538014D01*
X10991888Y-24537971D01*
X10991879Y-24537949D01*
X10969160Y-24483100D01*
X10957475Y-24454889D01*
X10925382Y-24406859D01*
X10880815Y-24340159D01*
X10835436Y-24294780D01*
X10783242Y-24242586D01*
X8417480Y-21876823D01*
X8383995Y-21815500D01*
X8387230Y-21750825D01*
X8393553Y-21731368D01*
X8423952Y-21539437D01*
X8430500Y-21498097D01*
X8430500Y-21261902D01*
X8393553Y-21028631D01*
X8338799Y-20860117D01*
X8320568Y-20804008D01*
X8320566Y-20804005D01*
X8320566Y-20804003D01*
X8264002Y-20692991D01*
X8213343Y-20593567D01*
X8074517Y-20402490D01*
X7907510Y-20235483D01*
X7872872Y-20210317D01*
X7830207Y-20154989D01*
X7824228Y-20085375D01*
X7856833Y-20023580D01*
X7872873Y-20009682D01*
X7907510Y-19984517D01*
X8074517Y-19817510D01*
X8213343Y-19626433D01*
X8320568Y-19415992D01*
X8393553Y-19191368D01*
X8405803Y-19114025D01*
X8430500Y-18958097D01*
X8430500Y-18721902D01*
X8393553Y-18488631D01*
X8348723Y-18350659D01*
X8320568Y-18264008D01*
X8320566Y-18264005D01*
X8320566Y-18264003D01*
X8262028Y-18149116D01*
X8213343Y-18053567D01*
X8074517Y-17862490D01*
X7907510Y-17695483D01*
X7872872Y-17670317D01*
X7830207Y-17614989D01*
X7824228Y-17545375D01*
X7856833Y-17483580D01*
X7872873Y-17469682D01*
X7907510Y-17444517D01*
X8074517Y-17277510D01*
X8213343Y-17086433D01*
X8320568Y-16875992D01*
X8393553Y-16651368D01*
X8399833Y-16611719D01*
X8415255Y-16514349D01*
X8445184Y-16451214D01*
X8504496Y-16414283D01*
X8574358Y-16415281D01*
G37*
%TD.AperFunction*%
%TA.AperFunction,NonConductor*%
G36*
X43367234Y-14168400D02*
G01*
X43423167Y-14210272D01*
X43447584Y-14275736D01*
X43447900Y-14284582D01*
X43447900Y-48550300D01*
X43441874Y-48570821D01*
X43440616Y-48592172D01*
X43430469Y-48609662D01*
X43428215Y-48617339D01*
X43424092Y-48623359D01*
X43419910Y-48629093D01*
X43418296Y-48630708D01*
X43298719Y-48795293D01*
X43298592Y-48795467D01*
X43270918Y-48816729D01*
X43243389Y-48837959D01*
X43243276Y-48837968D01*
X43243188Y-48838037D01*
X43208486Y-48840956D01*
X43173775Y-48843938D01*
X43173675Y-48843885D01*
X43173564Y-48843895D01*
X43143011Y-48827706D01*
X43111980Y-48811333D01*
X43111868Y-48811204D01*
X43111826Y-48811182D01*
X43111783Y-48811105D01*
X43098082Y-48795293D01*
X42975641Y-48626766D01*
X42976508Y-48626135D01*
X42950041Y-48567081D01*
X42948900Y-48550300D01*
X42948900Y-14535582D01*
X42968585Y-14468543D01*
X42985219Y-14447901D01*
X43236219Y-14196901D01*
X43297542Y-14163416D01*
X43367234Y-14168400D01*
G37*
%TD.AperFunction*%
%TA.AperFunction,NonConductor*%
G36*
X29177134Y-25487036D02*
G01*
X29233067Y-25528908D01*
X29257484Y-25594372D01*
X29257800Y-25603218D01*
X29257800Y-43308706D01*
X29257800Y-43446694D01*
X29257800Y-43446696D01*
X29257799Y-43446696D01*
X29284718Y-43582022D01*
X29284721Y-43582032D01*
X29337522Y-43709507D01*
X29414187Y-43824245D01*
X33602761Y-48012819D01*
X33636246Y-48074142D01*
X33631262Y-48143834D01*
X33589390Y-48199767D01*
X33523926Y-48224184D01*
X33515080Y-48224500D01*
X32249998Y-48224500D01*
X32249981Y-48224501D01*
X32147203Y-48235000D01*
X32147200Y-48235001D01*
X31980668Y-48290185D01*
X31980663Y-48290187D01*
X31831342Y-48382289D01*
X31707289Y-48506342D01*
X31611821Y-48661121D01*
X31559873Y-48707845D01*
X31490910Y-48719068D01*
X31426828Y-48691224D01*
X31418601Y-48683705D01*
X31279786Y-48544890D01*
X31107820Y-48419951D01*
X30918414Y-48323444D01*
X30918413Y-48323443D01*
X30918412Y-48323443D01*
X30716243Y-48257754D01*
X30716241Y-48257753D01*
X30716240Y-48257753D01*
X30513781Y-48225687D01*
X30506287Y-48224500D01*
X30293713Y-48224500D01*
X30286219Y-48225687D01*
X30083760Y-48257753D01*
X29881585Y-48323444D01*
X29692179Y-48419951D01*
X29520213Y-48544890D01*
X29369894Y-48695209D01*
X29369890Y-48695214D01*
X29250318Y-48859793D01*
X29194989Y-48902459D01*
X29125375Y-48908438D01*
X29063580Y-48875833D01*
X29049682Y-48859793D01*
X28930109Y-48695214D01*
X28930105Y-48695209D01*
X28779786Y-48544890D01*
X28607820Y-48419951D01*
X28418414Y-48323444D01*
X28418413Y-48323443D01*
X28418412Y-48323443D01*
X28216243Y-48257754D01*
X28216241Y-48257753D01*
X28216240Y-48257753D01*
X28013781Y-48225687D01*
X28006287Y-48224500D01*
X27793713Y-48224500D01*
X27786219Y-48225687D01*
X27583760Y-48257753D01*
X27381585Y-48323444D01*
X27192179Y-48419951D01*
X27020213Y-48544890D01*
X26869894Y-48695209D01*
X26869890Y-48695214D01*
X26750318Y-48859793D01*
X26694989Y-48902459D01*
X26625375Y-48908438D01*
X26563580Y-48875833D01*
X26549682Y-48859793D01*
X26430109Y-48695214D01*
X26430105Y-48695209D01*
X26279786Y-48544890D01*
X26107820Y-48419951D01*
X25918414Y-48323444D01*
X25918413Y-48323443D01*
X25918412Y-48323443D01*
X25716243Y-48257754D01*
X25716241Y-48257753D01*
X25716239Y-48257753D01*
X25632608Y-48244507D01*
X25569473Y-48214578D01*
X25532542Y-48155266D01*
X25533540Y-48085403D01*
X25564324Y-48034353D01*
X25593189Y-48005489D01*
X25680794Y-47874379D01*
X25741137Y-47728697D01*
X25771900Y-47574042D01*
X25771900Y-47416358D01*
X25771900Y-47416355D01*
X25771899Y-47416353D01*
X25770174Y-47407682D01*
X25741137Y-47261703D01*
X25732405Y-47240621D01*
X25680797Y-47116027D01*
X25680790Y-47116014D01*
X25593189Y-46984911D01*
X25593186Y-46984907D01*
X25481692Y-46873413D01*
X25481688Y-46873410D01*
X25350585Y-46785809D01*
X25350572Y-46785802D01*
X25204901Y-46725464D01*
X25204889Y-46725461D01*
X25050245Y-46694700D01*
X25050242Y-46694700D01*
X24892558Y-46694700D01*
X24892555Y-46694700D01*
X24737910Y-46725461D01*
X24737898Y-46725464D01*
X24592227Y-46785802D01*
X24592214Y-46785809D01*
X24461111Y-46873410D01*
X24461107Y-46873413D01*
X24349613Y-46984907D01*
X24349610Y-46984911D01*
X24262009Y-47116014D01*
X24262004Y-47116023D01*
X24202209Y-47260384D01*
X24175329Y-47300612D01*
X23818081Y-47657861D01*
X23756758Y-47691346D01*
X23687067Y-47686362D01*
X23631133Y-47644491D01*
X23606716Y-47579026D01*
X23606400Y-47570180D01*
X23606400Y-31006618D01*
X23626085Y-30939579D01*
X23642719Y-30918937D01*
X29046119Y-25515537D01*
X29107442Y-25482052D01*
X29177134Y-25487036D01*
G37*
%TD.AperFunction*%
%TA.AperFunction,NonConductor*%
G36*
X33956212Y-43043445D02*
G01*
X34010090Y-43087930D01*
X34031365Y-43154482D01*
X34031400Y-43157433D01*
X34031400Y-43484706D01*
X34031400Y-43622694D01*
X34031400Y-43622696D01*
X34031399Y-43622696D01*
X34058318Y-43758022D01*
X34058321Y-43758032D01*
X34111122Y-43885507D01*
X34187787Y-44000245D01*
X35252054Y-45064512D01*
X35366790Y-45141176D01*
X35465390Y-45182017D01*
X35494271Y-45193980D01*
X35494272Y-45193980D01*
X35494277Y-45193982D01*
X35521145Y-45199325D01*
X35521151Y-45199326D01*
X35521191Y-45199334D01*
X35611537Y-45217305D01*
X35629606Y-45220900D01*
X35629607Y-45220900D01*
X36757696Y-45220900D01*
X36866157Y-45199325D01*
X36893028Y-45193980D01*
X36956769Y-45167577D01*
X37020507Y-45141177D01*
X37020508Y-45141176D01*
X37020511Y-45141175D01*
X37135243Y-45064514D01*
X37266120Y-44933636D01*
X37327441Y-44900153D01*
X37397133Y-44905137D01*
X37453067Y-44947008D01*
X37477484Y-45012472D01*
X37477800Y-45021319D01*
X37477800Y-49607181D01*
X37458115Y-49674220D01*
X37405311Y-49719975D01*
X37336153Y-49729919D01*
X37272597Y-49700894D01*
X37266119Y-49694862D01*
X32305512Y-44734255D01*
X32272027Y-44672932D01*
X32277011Y-44603240D01*
X32318883Y-44547307D01*
X32361095Y-44526801D01*
X32504419Y-44488398D01*
X32746697Y-44388043D01*
X32973803Y-44256924D01*
X33181851Y-44097282D01*
X33181855Y-44097277D01*
X33181860Y-44097274D01*
X33367274Y-43911860D01*
X33367277Y-43911855D01*
X33367282Y-43911851D01*
X33526924Y-43703803D01*
X33658043Y-43476697D01*
X33758398Y-43234419D01*
X33787625Y-43125338D01*
X33823990Y-43065679D01*
X33886837Y-43035150D01*
X33956212Y-43043445D01*
G37*
%TD.AperFunction*%
%TA.AperFunction,NonConductor*%
G36*
X17352615Y-47145994D02*
G01*
X17392872Y-47203101D01*
X17399500Y-47243099D01*
X17399500Y-49378480D01*
X17379815Y-49445519D01*
X17363181Y-49466161D01*
X16918745Y-49910596D01*
X16857422Y-49944081D01*
X16811668Y-49945389D01*
X16774483Y-49939500D01*
X16774481Y-49939500D01*
X16727194Y-49939500D01*
X16660155Y-49919815D01*
X16614400Y-49867011D01*
X16605577Y-49839691D01*
X16598638Y-49804810D01*
X16598637Y-49804803D01*
X16567619Y-49729919D01*
X16538839Y-49660436D01*
X16529400Y-49612984D01*
X16529400Y-49002105D01*
X16521008Y-48959918D01*
X16512904Y-48919179D01*
X16502480Y-48866772D01*
X16449675Y-48739289D01*
X16373014Y-48624557D01*
X16373012Y-48624554D01*
X16291819Y-48543361D01*
X16258334Y-48482038D01*
X16255500Y-48455680D01*
X16255500Y-47353415D01*
X16275185Y-47286376D01*
X16327989Y-47240621D01*
X16397147Y-47230677D01*
X16398879Y-47230939D01*
X16398882Y-47230940D01*
X16474065Y-47242847D01*
X16585514Y-47260500D01*
X16585519Y-47260500D01*
X16774486Y-47260500D01*
X16961118Y-47230940D01*
X17017725Y-47212547D01*
X17140832Y-47172547D01*
X17219205Y-47132613D01*
X17287874Y-47119718D01*
X17352615Y-47145994D01*
G37*
%TD.AperFunction*%
%TA.AperFunction,NonConductor*%
G36*
X14177298Y-49464746D02*
G01*
X14188560Y-49465149D01*
X14208508Y-49478999D01*
X14230603Y-49489090D01*
X14238185Y-49499605D01*
X14245952Y-49504998D01*
X14263961Y-49535351D01*
X14300502Y-49623573D01*
X14300509Y-49623585D01*
X14387128Y-49753218D01*
X14408006Y-49819895D01*
X14389522Y-49887275D01*
X14337543Y-49933966D01*
X14303424Y-49944582D01*
X14168798Y-49965905D01*
X14099505Y-49956951D01*
X14046053Y-49911954D01*
X14025413Y-49845203D01*
X14025400Y-49843432D01*
X14025400Y-49582803D01*
X14028574Y-49571990D01*
X14027370Y-49560785D01*
X14038243Y-49539063D01*
X14045085Y-49515764D01*
X14053600Y-49508385D01*
X14058646Y-49498306D01*
X14079536Y-49485911D01*
X14097889Y-49470009D01*
X14109043Y-49468405D01*
X14118735Y-49462655D01*
X14143005Y-49463521D01*
X14167047Y-49460065D01*
X14177298Y-49464746D01*
G37*
%TD.AperFunction*%
%TA.AperFunction,NonConductor*%
G36*
X11242403Y-46857402D02*
G01*
X11261517Y-46878228D01*
X11264310Y-46882073D01*
X11397927Y-47015690D01*
X11550801Y-47126760D01*
X11570035Y-47136560D01*
X11719163Y-47212545D01*
X11719165Y-47212545D01*
X11719168Y-47212547D01*
X11775782Y-47230942D01*
X11898881Y-47270940D01*
X12085514Y-47300500D01*
X12085519Y-47300500D01*
X12219681Y-47300500D01*
X12286720Y-47320185D01*
X12307362Y-47336819D01*
X12588081Y-47617538D01*
X12621566Y-47678861D01*
X12624400Y-47705219D01*
X12624400Y-49891441D01*
X12604715Y-49958480D01*
X12551911Y-50004235D01*
X12482753Y-50014179D01*
X12462099Y-50009378D01*
X12461120Y-50009060D01*
X12274486Y-49979500D01*
X12274481Y-49979500D01*
X12085519Y-49979500D01*
X12085514Y-49979500D01*
X11898881Y-50009059D01*
X11719163Y-50067454D01*
X11550800Y-50153240D01*
X11463579Y-50216610D01*
X11397927Y-50264310D01*
X11397925Y-50264312D01*
X11397924Y-50264312D01*
X11264312Y-50397924D01*
X11264302Y-50397935D01*
X11261514Y-50401774D01*
X11206182Y-50444437D01*
X11136569Y-50450413D01*
X11074775Y-50417804D01*
X11040421Y-50356964D01*
X11037200Y-50328884D01*
X11037200Y-46951115D01*
X11056885Y-46884076D01*
X11109689Y-46838321D01*
X11178847Y-46828377D01*
X11242403Y-46857402D01*
G37*
%TD.AperFunction*%
%TA.AperFunction,NonConductor*%
G36*
X34455702Y-48866205D02*
G01*
X34462180Y-48872237D01*
X36238181Y-50648238D01*
X36271666Y-50709561D01*
X36274500Y-50735919D01*
X36274500Y-51527017D01*
X36254815Y-51594056D01*
X36202011Y-51639811D01*
X36132853Y-51649755D01*
X36069297Y-51620730D01*
X36062819Y-51614698D01*
X34286818Y-49838697D01*
X34253333Y-49777374D01*
X34250499Y-49751016D01*
X34250499Y-48959918D01*
X34270184Y-48892879D01*
X34322988Y-48847124D01*
X34392146Y-48837180D01*
X34455702Y-48866205D01*
G37*
%TD.AperFunction*%
%TA.AperFunction,NonConductor*%
G36*
X30765605Y-21497565D02*
G01*
X30821538Y-21539437D01*
X30844744Y-21594347D01*
X30854174Y-21653879D01*
X30845220Y-21723173D01*
X30819382Y-21760960D01*
X22361788Y-30218553D01*
X22361787Y-30218554D01*
X22285122Y-30333292D01*
X22232321Y-30460767D01*
X22232318Y-30460779D01*
X22210925Y-30568331D01*
X22210925Y-30568334D01*
X22205400Y-30596106D01*
X22205400Y-48114684D01*
X22195961Y-48162136D01*
X22136164Y-48306498D01*
X22136161Y-48306510D01*
X22105400Y-48461153D01*
X22105400Y-48618846D01*
X22136161Y-48773489D01*
X22136164Y-48773501D01*
X22196502Y-48919172D01*
X22196509Y-48919185D01*
X22284110Y-49050288D01*
X22284113Y-49050292D01*
X22395607Y-49161786D01*
X22395611Y-49161789D01*
X22526714Y-49249390D01*
X22526727Y-49249397D01*
X22592926Y-49276817D01*
X22672403Y-49309737D01*
X22808995Y-49336907D01*
X22827053Y-49340499D01*
X22827056Y-49340500D01*
X22827058Y-49340500D01*
X22984744Y-49340500D01*
X22984745Y-49340499D01*
X23139397Y-49309737D01*
X23218874Y-49276817D01*
X23276348Y-49253011D01*
X23345817Y-49245542D01*
X23408296Y-49276817D01*
X23443948Y-49336907D01*
X23447800Y-49367572D01*
X23447800Y-50274506D01*
X23447800Y-50412494D01*
X23447800Y-50412496D01*
X23447799Y-50412496D01*
X23474718Y-50547822D01*
X23474721Y-50547832D01*
X23527522Y-50675307D01*
X23604187Y-50790045D01*
X23604188Y-50790046D01*
X27231756Y-54417612D01*
X27265241Y-54478935D01*
X27260257Y-54548627D01*
X27218385Y-54604560D01*
X27200371Y-54615777D01*
X27192182Y-54619949D01*
X27020213Y-54744890D01*
X26869894Y-54895209D01*
X26869890Y-54895214D01*
X26750318Y-55059793D01*
X26694989Y-55102459D01*
X26625375Y-55108438D01*
X26563580Y-55075833D01*
X26549682Y-55059793D01*
X26430109Y-54895214D01*
X26430105Y-54895209D01*
X26279786Y-54744890D01*
X26107820Y-54619951D01*
X25918414Y-54523444D01*
X25918413Y-54523443D01*
X25918412Y-54523443D01*
X25716243Y-54457754D01*
X25716241Y-54457753D01*
X25716240Y-54457753D01*
X25516660Y-54426143D01*
X25506287Y-54424500D01*
X25293713Y-54424500D01*
X25283340Y-54426143D01*
X25083760Y-54457753D01*
X25018569Y-54478935D01*
X24897774Y-54518184D01*
X24881585Y-54523444D01*
X24692179Y-54619951D01*
X24520213Y-54744890D01*
X24369890Y-54895213D01*
X24244951Y-55067179D01*
X24148444Y-55256585D01*
X24082753Y-55458760D01*
X24065067Y-55570427D01*
X24049500Y-55668713D01*
X24049500Y-56131287D01*
X24059062Y-56191657D01*
X24082735Y-56341127D01*
X24082754Y-56341243D01*
X24148443Y-56543412D01*
X24244817Y-56732557D01*
X24244951Y-56732819D01*
X24366126Y-56899604D01*
X24389606Y-56965410D01*
X24373780Y-57033464D01*
X24323674Y-57082159D01*
X24255196Y-57096034D01*
X24190087Y-57070685D01*
X24178127Y-57060170D01*
X20236946Y-53118988D01*
X20236945Y-53118987D01*
X20179577Y-53080655D01*
X20122211Y-53042325D01*
X20122209Y-53042324D01*
X20117154Y-53040230D01*
X20062752Y-52996387D01*
X20040689Y-52930092D01*
X20057970Y-52862393D01*
X20076924Y-52837994D01*
X21577140Y-51337781D01*
X21663192Y-51208994D01*
X21686632Y-51173914D01*
X21741286Y-51041966D01*
X21762051Y-50991836D01*
X21797585Y-50813194D01*
X21797586Y-50813190D01*
X21800500Y-50798545D01*
X21800500Y-32601456D01*
X21762052Y-32408170D01*
X21762051Y-32408169D01*
X21762051Y-32408165D01*
X21754527Y-32390000D01*
X21686635Y-32226092D01*
X21686628Y-32226079D01*
X21577139Y-32062218D01*
X21577136Y-32062214D01*
X21437785Y-31922863D01*
X21437781Y-31922860D01*
X21273920Y-31813371D01*
X21273907Y-31813364D01*
X21091839Y-31737950D01*
X21091829Y-31737947D01*
X20898543Y-31699500D01*
X20898541Y-31699500D01*
X20760518Y-31699500D01*
X20693479Y-31679815D01*
X20647724Y-31627011D01*
X20637780Y-31557853D01*
X20666805Y-31494297D01*
X20672837Y-31487819D01*
X25582564Y-26578092D01*
X30634592Y-21526064D01*
X30695913Y-21492581D01*
X30765605Y-21497565D01*
G37*
%TD.AperFunction*%
%TA.AperFunction,NonConductor*%
G36*
X21199503Y-56063305D02*
G01*
X21205981Y-56069337D01*
X24663181Y-59526537D01*
X24696666Y-59587860D01*
X24699500Y-59614218D01*
X24699500Y-60851452D01*
X24679815Y-60918491D01*
X24648385Y-60951770D01*
X24520213Y-61044890D01*
X24369890Y-61195213D01*
X24244951Y-61367179D01*
X24148442Y-61556587D01*
X24134433Y-61599704D01*
X24094995Y-61657379D01*
X24030636Y-61684576D01*
X23961790Y-61672661D01*
X23928822Y-61649065D01*
X21030619Y-58750862D01*
X20997134Y-58689539D01*
X20994300Y-58663181D01*
X20994300Y-56157018D01*
X21013985Y-56089979D01*
X21066789Y-56044224D01*
X21135947Y-56034280D01*
X21199503Y-56063305D01*
G37*
%TD.AperFunction*%
M02*
