%TF.GenerationSoftware,KiCad,Pcbnew,10.0.2*%
%TF.CreationDate,2026-06-24T22:45:05+05:45*%
%TF.ProjectId,Controller_Board,436f6e74-726f-46c6-9c65-725f426f6172,rev?*%
%TF.SameCoordinates,Original*%
%TF.FileFunction,Copper,L1,Top*%
%TF.FilePolarity,Positive*%
%FSLAX46Y46*%
G04 Gerber Fmt 4.6, Leading zero omitted, Abs format (unit mm)*
G04 Created by KiCad (PCBNEW 10.0.2) date 2026-06-24 22:45:05*
%MOMM*%
%LPD*%
G01*
G04 APERTURE LIST*
G04 Aperture macros list*
%AMRoundRect*
0 Rectangle with rounded corners*
0 $1 Rounding radius*
0 $2 $3 $4 $5 $6 $7 $8 $9 X,Y pos of 4 corners*
0 Add a 4 corners polygon primitive as box body*
4,1,4,$2,$3,$4,$5,$6,$7,$8,$9,$2,$3,0*
0 Add four circle primitives for the rounded corners*
1,1,$1+$1,$2,$3*
1,1,$1+$1,$4,$5*
1,1,$1+$1,$6,$7*
1,1,$1+$1,$8,$9*
0 Add four rect primitives between the rounded corners*
20,1,$1+$1,$2,$3,$4,$5,0*
20,1,$1+$1,$4,$5,$6,$7,0*
20,1,$1+$1,$6,$7,$8,$9,0*
20,1,$1+$1,$8,$9,$2,$3,0*%
G04 Aperture macros list end*
%TA.AperFunction,ComponentPad*%
%ADD10R,2.000000X2.000000*%
%TD*%
%TA.AperFunction,ComponentPad*%
%ADD11C,2.000000*%
%TD*%
%TA.AperFunction,ComponentPad*%
%ADD12C,1.600000*%
%TD*%
%TA.AperFunction,ComponentPad*%
%ADD13C,1.800000*%
%TD*%
%TA.AperFunction,ComponentPad*%
%ADD14R,2.540000X2.540000*%
%TD*%
%TA.AperFunction,ComponentPad*%
%ADD15C,2.540000*%
%TD*%
%TA.AperFunction,ComponentPad*%
%ADD16RoundRect,0.250000X0.600000X0.725000X-0.600000X0.725000X-0.600000X-0.725000X0.600000X-0.725000X0*%
%TD*%
%TA.AperFunction,ComponentPad*%
%ADD17O,1.700000X1.950000*%
%TD*%
%TA.AperFunction,ComponentPad*%
%ADD18C,1.400000*%
%TD*%
%TA.AperFunction,ComponentPad*%
%ADD19RoundRect,0.250000X-0.750000X0.750000X-0.750000X-0.750000X0.750000X-0.750000X0.750000X0.750000X0*%
%TD*%
%TA.AperFunction,ComponentPad*%
%ADD20RoundRect,0.250000X1.350000X1.350000X-1.350000X1.350000X-1.350000X-1.350000X1.350000X-1.350000X0*%
%TD*%
%TA.AperFunction,ComponentPad*%
%ADD21C,3.200000*%
%TD*%
%TA.AperFunction,ComponentPad*%
%ADD22RoundRect,0.250000X-0.600000X-0.750000X0.600000X-0.750000X0.600000X0.750000X-0.600000X0.750000X0*%
%TD*%
%TA.AperFunction,ComponentPad*%
%ADD23O,1.700000X2.000000*%
%TD*%
%TA.AperFunction,ComponentPad*%
%ADD24RoundRect,1.500000X-1.500000X1.500000X-1.500000X-1.500000X1.500000X-1.500000X1.500000X1.500000X0*%
%TD*%
%TA.AperFunction,ComponentPad*%
%ADD25C,6.000000*%
%TD*%
%TA.AperFunction,ComponentPad*%
%ADD26R,1.600000X1.600000*%
%TD*%
%TA.AperFunction,ComponentPad*%
%ADD27O,1.600000X1.600000*%
%TD*%
%TA.AperFunction,ViaPad*%
%ADD28C,0.600000*%
%TD*%
%TA.AperFunction,Conductor*%
%ADD29C,1.000000*%
%TD*%
%TA.AperFunction,Conductor*%
%ADD30C,0.400000*%
%TD*%
G04 APERTURE END LIST*
D10*
%TO.P,U1,1,3V3_1*%
%TO.N,/esp_3V*%
X6930000Y-3600000D03*
D11*
%TO.P,U1,2,GND_2*%
%TO.N,GND*%
X6930000Y-6140000D03*
%TO.P,U1,3,D15_3*%
%TO.N,/POT_2*%
X6930000Y-8680000D03*
%TO.P,U1,4,D2_4*%
%TO.N,/PWM_1*%
X6930000Y-11220000D03*
%TO.P,U1,5,D4_5*%
%TO.N,/PWM_2*%
X6930000Y-13760000D03*
%TO.P,U1,6,RX2_6*%
%TO.N,unconnected-(U1-RX2-Pad6)*%
X6930000Y-16300000D03*
%TO.P,U1,7,TX2_7*%
%TO.N,unconnected-(U1-TX2-Pad7)*%
X6930000Y-18840000D03*
%TO.P,U1,8,D5_8*%
%TO.N,/Trig*%
X6930000Y-21380000D03*
%TO.P,U1,9,D18_9*%
%TO.N,unconnected-(U1-D18-Pad9)*%
X6930000Y-23920000D03*
%TO.P,U1,10,D19_10*%
%TO.N,/Echo*%
X6930000Y-26460000D03*
%TO.P,U1,11,D21_11*%
%TO.N,/SDA*%
X6930000Y-29000000D03*
%TO.P,U1,12,RX0_12*%
%TO.N,unconnected-(U1-RX0-Pad12)*%
X6930000Y-31540000D03*
%TO.P,U1,13,TX0_13*%
%TO.N,unconnected-(U1-TX0-Pad13)*%
X6930000Y-34080000D03*
%TO.P,U1,14,D22_14*%
%TO.N,/SCL*%
X6930000Y-36620000D03*
%TO.P,U1,15,D23_15*%
%TO.N,unconnected-(U1-D23-Pad15)*%
X6930000Y-39160000D03*
%TO.P,U1,16,EN_16*%
%TO.N,unconnected-(U1-EN-Pad16)*%
X32330000Y-39160000D03*
%TO.P,U1,17,VP_17*%
%TO.N,unconnected-(U1-VP-Pad17)*%
X32330000Y-36620000D03*
%TO.P,U1,18,VN_18*%
%TO.N,unconnected-(U1-VN-Pad18)*%
X32330000Y-34080000D03*
%TO.P,U1,19,D34_19*%
%TO.N,unconnected-(U1-D34-Pad19)*%
X32330000Y-31540000D03*
%TO.P,U1,20,D35_20*%
%TO.N,unconnected-(U1-D35-Pad20)*%
X32330000Y-29000000D03*
%TO.P,U1,21,D32_21*%
%TO.N,/STEP_2_DIR*%
X32330000Y-26460000D03*
%TO.P,U1,22,D33_22*%
%TO.N,/STEP_2_STEP*%
X32330000Y-23920000D03*
%TO.P,U1,23,D25_23*%
%TO.N,Net-(U1-D25)*%
X32330000Y-21380000D03*
%TO.P,U1,24,D26_24*%
%TO.N,Net-(U1-D26)*%
X32330000Y-18840000D03*
%TO.P,U1,25,D27_25*%
%TO.N,Net-(U1-D27)*%
X32330000Y-16300000D03*
%TO.P,U1,26,D14_26*%
%TO.N,/POT_1*%
X32330000Y-13760000D03*
%TO.P,U1,27,D12_27*%
%TO.N,/STEP_1_DIR*%
X32330000Y-11220000D03*
%TO.P,U1,28,D13_28*%
%TO.N,/STEP_1_STEP*%
X32330000Y-8680000D03*
%TO.P,U1,29,GND_29*%
%TO.N,GND*%
X32330000Y-6140000D03*
%TO.P,U1,30,VIN_30*%
%TO.N,/5V_sensor*%
X32330000Y-3600000D03*
%TD*%
D12*
%TO.P,U2,1,VCC_1*%
%TO.N,/5V_sensor*%
X3460000Y-50050000D03*
%TO.P,U2,2,GND_2*%
%TO.N,GND*%
X3460000Y-47510000D03*
%TO.P,U2,3,SCL_3*%
%TO.N,/SCL*%
X3460000Y-44970000D03*
%TO.P,U2,4,SDA_4*%
%TO.N,/SDA*%
X3460000Y-42430000D03*
%TO.P,U2,5,XDA_5*%
%TO.N,unconnected-(U2-XDA-Pad5)*%
X3460000Y-39890000D03*
%TO.P,U2,6,XCL_6*%
%TO.N,unconnected-(U2-XCL-Pad6)*%
X3460000Y-37350000D03*
%TO.P,U2,7,AD0_7*%
%TO.N,/5V_sensor*%
X3460000Y-34810000D03*
%TO.P,U2,8,INT_8*%
%TO.N,unconnected-(U2-INT-Pad8)*%
X3460000Y-32270000D03*
%TD*%
D13*
%TO.P,U3,10,FSYNC_10*%
%TO.N,unconnected-(U3-FSYNC-Pad10)*%
X3330000Y-5680000D03*
%TO.P,U3,9,NCS_9*%
%TO.N,unconnected-(U3-NCS-Pad9)*%
X3330000Y-8220000D03*
%TO.P,U3,8,INT_8*%
%TO.N,unconnected-(U3-INT-Pad8)*%
X3330000Y-10760000D03*
%TO.P,U3,7,AD0_7*%
%TO.N,unconnected-(U3-AD0-Pad7)*%
X3330000Y-13300000D03*
%TO.P,U3,6,ECL_6*%
%TO.N,unconnected-(U3-ECL-Pad6)*%
X3330000Y-15840000D03*
%TO.P,U3,5,EDA_5*%
%TO.N,unconnected-(U3-EDA-Pad5)*%
X3330000Y-18380000D03*
%TO.P,U3,4,SDA_4*%
%TO.N,/SDA*%
X3330000Y-20920000D03*
%TO.P,U3,3,SCL_3*%
%TO.N,/SCL*%
X3330000Y-23460000D03*
%TO.P,U3,2,GND_2*%
%TO.N,GND*%
X3330000Y-26000000D03*
%TO.P,U3,1,VCC_1*%
%TO.N,/5V_sensor*%
X3330000Y-28540000D03*
%TD*%
D14*
%TO.P,U4,1,Vin_1*%
%TO.N,/X*%
X95000000Y-62780000D03*
D15*
%TO.P,U4,2,GND_2*%
%TO.N,GND*%
X95000000Y-45000000D03*
%TO.P,U4,3,GND_3*%
X54360000Y-45000000D03*
%TO.P,U4,4,Vout_4*%
%TO.N,/5V_sensor*%
X54360000Y-62780000D03*
%TD*%
D16*
%TO.P,STEP_1,1,Pin_1_1*%
%TO.N,/R1*%
X46948400Y-49635500D03*
D17*
%TO.P,STEP_1,2,Pin_2_2*%
%TO.N,/B1*%
X44448400Y-49635500D03*
%TO.P,STEP_1,3,Pin_3_3*%
%TO.N,/G1*%
X41948400Y-49635500D03*
%TO.P,STEP_1,4,Pin_4_4*%
%TO.N,/P1*%
X39448400Y-49635500D03*
%TD*%
D14*
%TO.P,U5,1,Vin_1*%
%TO.N,/12V*%
X94250000Y-22030000D03*
D15*
%TO.P,U5,2,GND_2*%
%TO.N,GND*%
X94250000Y-4250000D03*
%TO.P,U5,3,GND_3*%
X53610000Y-4250000D03*
%TO.P,U5,4,Vout_4*%
%TO.N,/5V_servo*%
X53610000Y-22030000D03*
%TD*%
D18*
%TO.P,R3,1*%
%TO.N,/B*%
X16680000Y-46060000D03*
%TO.P,R3,2*%
%TO.N,Net-(U1-D27)*%
X16680000Y-51140000D03*
%TD*%
D19*
%TO.P,C2,1*%
%TO.N,/12V*%
X57180000Y-27772300D03*
D11*
%TO.P,C2,2*%
%TO.N,Net-(A2-GND-Pad1)*%
X57180000Y-32772300D03*
%TD*%
D16*
%TO.P,RGB1,1,Pin_1_1*%
%TO.N,/B*%
X46948400Y-62235500D03*
D17*
%TO.P,RGB1,2,Pin_2_2*%
%TO.N,/G*%
X44448400Y-62235500D03*
%TO.P,RGB1,3,Pin_3_3*%
%TO.N,GND*%
X41948400Y-62235500D03*
%TO.P,RGB1,4,Pin_4_4*%
%TO.N,/R*%
X39448400Y-62235500D03*
%TD*%
D20*
%TO.P,D1,1,K_1*%
%TO.N,/X*%
X72300000Y-39390000D03*
D21*
%TO.P,D1,2,A_2*%
%TO.N,/12V*%
X57060000Y-39390000D03*
%TD*%
D16*
%TO.P,SER_1,1,Pin_1_1*%
%TO.N,GND*%
X46948400Y-55835500D03*
D17*
%TO.P,SER_1,2,Pin_2_2*%
%TO.N,/5V_servo*%
X44448400Y-55835500D03*
%TO.P,SER_1,3,Pin_3_3*%
%TO.N,/PWM_1*%
X41948400Y-55835500D03*
%TO.P,SER_1,4,Pin_4_4*%
%TO.N,/POT_1*%
X39448400Y-55835500D03*
%TD*%
D18*
%TO.P,R2,1*%
%TO.N,/G*%
X14430000Y-46060000D03*
%TO.P,R2,2*%
%TO.N,Net-(U1-D26)*%
X14430000Y-51140000D03*
%TD*%
D22*
%TO.P,J2,1,Pin_1_1*%
%TO.N,/12V*%
X78680000Y-39140000D03*
D23*
%TO.P,J2,2,Pin_2_2*%
%TO.N,/12V_IN*%
X81180000Y-39140000D03*
%TD*%
D16*
%TO.P,STEP_2,1,Pin_1_1*%
%TO.N,/R2*%
X32900000Y-49700000D03*
D17*
%TO.P,STEP_2,2,Pin_2_2*%
%TO.N,/B2*%
X30400000Y-49700000D03*
%TO.P,STEP_2,3,Pin_3_3*%
%TO.N,/G2*%
X27900000Y-49700000D03*
%TO.P,STEP_2,4,Pin_4_4*%
%TO.N,/P2*%
X25400000Y-49700000D03*
%TD*%
D18*
%TO.P,R1,1*%
%TO.N,/R*%
X12180000Y-46100000D03*
%TO.P,R1,2*%
%TO.N,Net-(U1-D25)*%
X12180000Y-51180000D03*
%TD*%
D24*
%TO.P,J1,1,POS_1*%
%TO.N,GND*%
X92430000Y-29790000D03*
D25*
%TO.P,J1,2,NEG_2*%
%TO.N,/12V_IN*%
X92430000Y-36990000D03*
%TD*%
D19*
%TO.P,C1,1*%
%TO.N,/12V*%
X68430000Y-27772300D03*
D11*
%TO.P,C1,2*%
%TO.N,Net-(A1-GND-Pad1)*%
X68430000Y-32772300D03*
%TD*%
D26*
%TO.P,A2,1,GND_1*%
%TO.N,Net-(A2-GND-Pad1)*%
X48880000Y-43280000D03*
D27*
%TO.P,A2,2,VDD_2*%
%TO.N,/5V_sensor*%
X48880000Y-40740000D03*
%TO.P,A2,3,1B_3*%
%TO.N,/R2*%
X48880000Y-38200000D03*
%TO.P,A2,4,1A_4*%
%TO.N,/P2*%
X48880000Y-35660000D03*
%TO.P,A2,5,2A_5*%
%TO.N,/G2*%
X48880000Y-33120000D03*
%TO.P,A2,6,2B_6*%
%TO.N,/B2*%
X48880000Y-30580000D03*
%TO.P,A2,7,GND_7*%
%TO.N,Net-(A2-GND-Pad1)*%
X48880000Y-28040000D03*
%TO.P,A2,8,VMOT_8*%
%TO.N,/12V*%
X48880000Y-25500000D03*
%TO.P,A2,9,~{ENABLE}_9*%
%TO.N,unconnected-(A2-~{ENABLE}-Pad9)*%
X36180000Y-25500000D03*
%TO.P,A2,10,MS1_10*%
%TO.N,/5V_sensor*%
X36180000Y-28040000D03*
%TO.P,A2,11,MS2_11*%
%TO.N,unconnected-(A2-MS2-Pad11)*%
X36180000Y-30580000D03*
%TO.P,A2,12,MS3_12*%
%TO.N,unconnected-(A2-MS3-Pad12)*%
X36180000Y-33120000D03*
%TO.P,A2,13,~{RESET}_13*%
%TO.N,Net-(A2-~{RESET})*%
X36180000Y-35660000D03*
%TO.P,A2,14,~{SLEEP}_14*%
X36180000Y-38200000D03*
%TO.P,A2,15,STEP_15*%
%TO.N,/STEP_2_STEP*%
X36180000Y-40740000D03*
%TO.P,A2,16,DIR_16*%
%TO.N,/STEP_2_DIR*%
X36180000Y-43280000D03*
%TD*%
D16*
%TO.P,SER_2,1,Pin_1_1*%
%TO.N,GND*%
X32900000Y-55900000D03*
D17*
%TO.P,SER_2,2,Pin_2_2*%
%TO.N,/5V_servo*%
X30400000Y-55900000D03*
%TO.P,SER_2,3,Pin_3_3*%
%TO.N,/PWM_2*%
X27900000Y-55900000D03*
%TO.P,SER_2,4,Pin_4_4*%
%TO.N,/POT_2*%
X25400000Y-55900000D03*
%TD*%
D26*
%TO.P,A1,1,GND_1*%
%TO.N,Net-(A1-GND-Pad1)*%
X48880000Y-21340000D03*
D27*
%TO.P,A1,2,VDD_2*%
%TO.N,/5V_sensor*%
X48880000Y-18800000D03*
%TO.P,A1,3,1B_3*%
%TO.N,/R1*%
X48880000Y-16260000D03*
%TO.P,A1,4,1A_4*%
%TO.N,/P1*%
X48880000Y-13720000D03*
%TO.P,A1,5,2A_5*%
%TO.N,/G1*%
X48880000Y-11180000D03*
%TO.P,A1,6,2B_6*%
%TO.N,/B1*%
X48880000Y-8640000D03*
%TO.P,A1,7,GND_7*%
%TO.N,Net-(A1-GND-Pad1)*%
X48880000Y-6100000D03*
%TO.P,A1,8,VMOT_8*%
%TO.N,/12V*%
X48880000Y-3560000D03*
%TO.P,A1,9,~{ENABLE}_9*%
%TO.N,unconnected-(A1-~{ENABLE}-Pad9)*%
X36180000Y-3560000D03*
%TO.P,A1,10,MS1_10*%
%TO.N,/5V_sensor*%
X36180000Y-6100000D03*
%TO.P,A1,11,MS2_11*%
%TO.N,unconnected-(A1-MS2-Pad11)*%
X36180000Y-8640000D03*
%TO.P,A1,12,MS3_12*%
%TO.N,unconnected-(A1-MS3-Pad12)*%
X36180000Y-11180000D03*
%TO.P,A1,13,~{RESET}_13*%
%TO.N,Net-(A1-~{RESET})*%
X36180000Y-13720000D03*
%TO.P,A1,14,~{SLEEP}_14*%
X36180000Y-16260000D03*
%TO.P,A1,15,STEP_15*%
%TO.N,/STEP_1_STEP*%
X36180000Y-18800000D03*
%TO.P,A1,16,DIR_16*%
%TO.N,/STEP_1_DIR*%
X36180000Y-21340000D03*
%TD*%
D19*
%TO.P,C3,1*%
%TO.N,/X*%
X79680000Y-27890000D03*
D11*
%TO.P,C3,2*%
%TO.N,GND*%
X79680000Y-32890000D03*
%TD*%
D16*
%TO.P,RGB2,1,Pin_1_1*%
%TO.N,/B*%
X32900000Y-62200000D03*
D17*
%TO.P,RGB2,2,Pin_2_2*%
%TO.N,/G*%
X30400000Y-62200000D03*
%TO.P,RGB2,3,Pin_3_3*%
%TO.N,GND*%
X27900000Y-62200000D03*
%TO.P,RGB2,4,Pin_4_4*%
%TO.N,/R*%
X25400000Y-62200000D03*
%TD*%
D16*
%TO.P,UltraSonic1,1,Pin_1_1*%
%TO.N,/esp_3V*%
X18900000Y-55900000D03*
D17*
%TO.P,UltraSonic1,2,Pin_2_2*%
%TO.N,/Trig*%
X16400000Y-55900000D03*
%TO.P,UltraSonic1,3,Pin_3_3*%
%TO.N,/Echo*%
X13900000Y-55900000D03*
%TO.P,UltraSonic1,4,Pin_4_4*%
%TO.N,GND*%
X11400000Y-55900000D03*
%TD*%
D28*
%TO.N,/B1*%
X47378300Y-8640000D03*
%TO.N,/G1*%
X45552800Y-10465400D03*
%TO.N,/P1*%
X39685900Y-18890300D03*
%TO.N,/5V_servo*%
X49804600Y-57520300D03*
%TO.N,/B*%
X24971400Y-47495200D03*
X34203200Y-60069800D03*
%TO.N,/G*%
X15529000Y-54364800D03*
%TO.N,/PWM_1*%
X38098800Y-54418400D03*
X29958300Y-24604900D03*
%TO.N,/R2*%
X36026000Y-52992800D03*
%TO.N,Net-(U1-D25)*%
X22905900Y-48540000D03*
%TO.N,/esp_3V*%
X18900000Y-52600000D03*
X21000000Y-25900000D03*
X20800000Y-32800000D03*
%TO.N,/POT_2*%
X15828900Y-50038300D03*
%TO.N,/PWM_2*%
X15009900Y-49244400D03*
%TO.N,/STEP_1_STEP*%
X34976900Y-15323300D03*
%TD*%
%TO.N,/X*%
D29*
X72300000Y-35270000D02*
X79680000Y-27890000D01*
X72300000Y-39390000D02*
X72300000Y-35270000D01*
%TO.N,GND*%
X31638700Y-1869000D02*
X51229000Y-1869000D01*
X6930000Y-6140000D02*
X30600100Y-6140000D01*
X13087000Y-57587000D02*
X31213000Y-57587000D01*
X46948400Y-55835500D02*
X54360000Y-48423900D01*
X11400000Y-55900000D02*
X13087000Y-57587000D01*
X6930000Y-6140000D02*
X5193200Y-7876800D01*
X30600100Y-2907600D02*
X31638700Y-1869000D01*
X31213000Y-57587000D02*
X32900000Y-55900000D01*
X27900000Y-62200000D02*
X30700000Y-65000000D01*
X54360000Y-48423900D02*
X54360000Y-45000000D01*
X95000000Y-45000000D02*
X54360000Y-45000000D01*
X5193200Y-7876800D02*
X5193200Y-24136800D01*
X30700000Y-65000000D02*
X39183900Y-65000000D01*
X51229000Y-1869000D02*
X53610000Y-4250000D01*
X39183900Y-65000000D02*
X41948400Y-62235500D01*
X30600100Y-6140000D02*
X32330000Y-6140000D01*
X53610000Y-4250000D02*
X94250000Y-4250000D01*
X30600100Y-6140000D02*
X30600100Y-2907600D01*
X5193200Y-24136800D02*
X3330000Y-26000000D01*
%TO.N,/5V_sensor*%
X3460000Y-50050000D02*
X1924500Y-48514500D01*
X3460000Y-50341500D02*
X3460000Y-50050000D01*
X46921700Y-18800000D02*
X48880000Y-18800000D01*
X37681700Y-28040000D02*
X46921700Y-18800000D01*
X54360000Y-62780000D02*
X50615500Y-59035500D01*
X50615500Y-59035500D02*
X12154000Y-59035500D01*
X1924500Y-36345500D02*
X3460000Y-34810000D01*
X1924500Y-48514500D02*
X1924500Y-36345500D01*
X12154000Y-59035500D02*
X3460000Y-50341500D01*
X36180000Y-28040000D02*
X37681700Y-28040000D01*
%TO.N,/B1*%
X48880000Y-8640000D02*
X47378300Y-8640000D01*
%TO.N,/G1*%
X46267400Y-11180000D02*
X45552800Y-10465400D01*
X48880000Y-11180000D02*
X46267400Y-11180000D01*
%TO.N,/P1*%
X48880000Y-13720000D02*
X47378300Y-13720000D01*
X42208000Y-18890300D02*
X39685900Y-18890300D01*
X47378300Y-13720000D02*
X42208000Y-18890300D01*
%TO.N,/12V*%
X68430000Y-27772300D02*
X74172300Y-22030000D01*
X68430000Y-27772300D02*
X57180000Y-27772300D01*
X74172300Y-22030000D02*
X94250000Y-22030000D01*
%TO.N,/5V_servo*%
X37208200Y-57520300D02*
X44448400Y-57520300D01*
X30400000Y-55900000D02*
X30400000Y-54223300D01*
X44448400Y-55835500D02*
X44448400Y-57520300D01*
X44448400Y-57520300D02*
X49804600Y-57520300D01*
X30400000Y-54223300D02*
X30414200Y-54209100D01*
X33897000Y-54209100D02*
X37208200Y-57520300D01*
X30414200Y-54209100D02*
X33897000Y-54209100D01*
%TO.N,/B*%
D30*
X16680000Y-46060000D02*
X23536200Y-46060000D01*
X44782700Y-60069800D02*
X34203200Y-60069800D01*
X46948400Y-62235500D02*
X44782700Y-60069800D01*
X23536200Y-46060000D02*
X24971400Y-47495200D01*
%TO.N,Net-(A2-GND-Pad1)*%
D29*
X48880000Y-43280000D02*
X57180000Y-34980000D01*
X57180000Y-34980000D02*
X57180000Y-32772300D01*
%TO.N,/G*%
D30*
X14430000Y-46060000D02*
X11055600Y-49434400D01*
X11055600Y-49434400D02*
X11055600Y-51656900D01*
X11055600Y-51656900D02*
X13763400Y-54364700D01*
X13763400Y-54364700D02*
X15529000Y-54364700D01*
X15529000Y-54364700D02*
X15529000Y-54364800D01*
%TO.N,/R*%
X25400000Y-62200000D02*
X26797300Y-60802700D01*
X26797300Y-60802700D02*
X36763900Y-60802700D01*
X39448400Y-62235500D02*
X38196700Y-62235500D01*
X36763900Y-60802700D02*
X38196700Y-62235500D01*
%TO.N,/PWM_1*%
X29958300Y-24604800D02*
X29958300Y-24604900D01*
X40531300Y-54418400D02*
X38098800Y-54418400D01*
X6930000Y-11220000D02*
X20314800Y-24604800D01*
X41948400Y-55835500D02*
X40531300Y-54418400D01*
X20314800Y-24604800D02*
X29958300Y-24604800D01*
%TO.N,/R2*%
D29*
X47378300Y-44951000D02*
X48546000Y-46118700D01*
X48880000Y-38200000D02*
X47378300Y-39701700D01*
X48546000Y-46118700D02*
X48546000Y-50720500D01*
X46273700Y-52992800D02*
X36026000Y-52992800D01*
X47378300Y-39701700D02*
X47378300Y-44951000D01*
X48546000Y-50720500D02*
X46273700Y-52992800D01*
%TO.N,/B2*%
X32224300Y-46199000D02*
X30400000Y-48023300D01*
X48880000Y-30580000D02*
X42649300Y-36810700D01*
X42649300Y-38962800D02*
X35413100Y-46199000D01*
X30400000Y-49700000D02*
X30400000Y-48023300D01*
X35413100Y-46199000D02*
X32224300Y-46199000D01*
X42649300Y-36810700D02*
X42649300Y-38962800D01*
%TO.N,/G2*%
X29601500Y-51401500D02*
X27900000Y-49700000D01*
X33923300Y-51401500D02*
X29601500Y-51401500D01*
X48880000Y-33120000D02*
X43851000Y-38149000D01*
X43851000Y-38149000D02*
X43851000Y-39774400D01*
X36002800Y-47622600D02*
X36002800Y-49322000D01*
X43851000Y-39774400D02*
X36002800Y-47622600D01*
X36002800Y-49322000D02*
X33923300Y-51401500D01*
%TO.N,/P2*%
X45052700Y-41118500D02*
X37628900Y-48542300D01*
X45052700Y-39487300D02*
X45052700Y-41118500D01*
X28307000Y-52607000D02*
X25400000Y-49700000D01*
X37628900Y-49431900D02*
X34453800Y-52607000D01*
X48880000Y-35660000D02*
X45052700Y-39487300D01*
X37628900Y-48542300D02*
X37628900Y-49431900D01*
X34453800Y-52607000D02*
X28307000Y-52607000D01*
%TO.N,Net-(U1-D25)*%
D30*
X14722100Y-48540000D02*
X22905900Y-48540000D01*
X12180000Y-51082100D02*
X14722100Y-48540000D01*
X12180000Y-51180000D02*
X12180000Y-51082100D01*
%TO.N,Net-(A1-GND-Pad1)*%
D29*
X48880000Y-22841700D02*
X56530800Y-30492500D01*
X48880000Y-21340000D02*
X48880000Y-22841700D01*
X56530800Y-30492500D02*
X66150200Y-30492500D01*
X66150200Y-30492500D02*
X68430000Y-32772300D01*
%TO.N,/esp_3V*%
X20800000Y-26100000D02*
X20800000Y-32800000D01*
X18900000Y-55900000D02*
X18900000Y-52600000D01*
X21000000Y-25900000D02*
X20800000Y-26100000D01*
%TO.N,/POT_2*%
D30*
X25400000Y-55900000D02*
X25400000Y-54400000D01*
X21038300Y-50038300D02*
X15828900Y-50038300D01*
X25400000Y-54400000D02*
X21038300Y-50038300D01*
%TO.N,/PWM_2*%
X27900000Y-55900000D02*
X21244400Y-49244400D01*
X21244400Y-49244400D02*
X15009900Y-49244400D01*
%TO.N,/STEP_1_DIR*%
X32330000Y-11220000D02*
X34238500Y-13128500D01*
X35806500Y-20138300D02*
X36180000Y-20138300D01*
X36180000Y-21340000D02*
X36180000Y-20138300D01*
X34238500Y-13128500D02*
X34238500Y-18570300D01*
X34238500Y-18570300D02*
X35806500Y-20138300D01*
%TO.N,/STEP_1_STEP*%
X35806500Y-17598300D02*
X36180000Y-17598300D01*
X34976900Y-16768700D02*
X35806500Y-17598300D01*
X36180000Y-18800000D02*
X36180000Y-17598300D01*
X34976900Y-15323300D02*
X34976900Y-16768700D01*
%TD*%
%TA.AperFunction,Conductor*%
%TO.N,GND*%
G36*
X20763820Y-50758485D02*
G01*
X20784462Y-50775119D01*
X24553095Y-54543752D01*
X24586580Y-54605075D01*
X24581596Y-54674767D01*
X24539724Y-54730700D01*
X24538303Y-54731749D01*
X24520208Y-54744896D01*
X24520206Y-54744898D01*
X24520205Y-54744898D01*
X24369890Y-54895213D01*
X24244951Y-55067179D01*
X24148444Y-55256585D01*
X24082753Y-55458760D01*
X24049500Y-55668713D01*
X24049500Y-56131286D01*
X24077884Y-56310500D01*
X24082754Y-56341243D01*
X24130164Y-56487156D01*
X24148444Y-56543414D01*
X24244951Y-56732820D01*
X24369890Y-56904786D01*
X24520213Y-57055109D01*
X24692179Y-57180048D01*
X24692181Y-57180049D01*
X24692184Y-57180051D01*
X24881588Y-57276557D01*
X25083757Y-57342246D01*
X25293713Y-57375500D01*
X25293714Y-57375500D01*
X25506286Y-57375500D01*
X25506287Y-57375500D01*
X25716243Y-57342246D01*
X25918412Y-57276557D01*
X26107816Y-57180051D01*
X26129789Y-57164086D01*
X26279786Y-57055109D01*
X26279788Y-57055106D01*
X26279792Y-57055104D01*
X26430104Y-56904792D01*
X26549683Y-56740204D01*
X26605011Y-56697540D01*
X26674624Y-56691561D01*
X26736420Y-56724166D01*
X26750313Y-56740199D01*
X26853661Y-56882446D01*
X26869896Y-56904792D01*
X27020213Y-57055109D01*
X27192179Y-57180048D01*
X27192181Y-57180049D01*
X27192184Y-57180051D01*
X27381588Y-57276557D01*
X27583757Y-57342246D01*
X27793713Y-57375500D01*
X27793714Y-57375500D01*
X28006286Y-57375500D01*
X28006287Y-57375500D01*
X28216243Y-57342246D01*
X28418412Y-57276557D01*
X28607816Y-57180051D01*
X28629789Y-57164086D01*
X28779786Y-57055109D01*
X28779788Y-57055106D01*
X28779792Y-57055104D01*
X28930104Y-56904792D01*
X29049683Y-56740204D01*
X29105011Y-56697540D01*
X29174624Y-56691561D01*
X29236420Y-56724166D01*
X29250313Y-56740199D01*
X29353661Y-56882446D01*
X29369896Y-56904792D01*
X29520213Y-57055109D01*
X29692179Y-57180048D01*
X29692181Y-57180049D01*
X29692184Y-57180051D01*
X29881588Y-57276557D01*
X30083757Y-57342246D01*
X30293713Y-57375500D01*
X30293714Y-57375500D01*
X30506286Y-57375500D01*
X30506287Y-57375500D01*
X30716243Y-57342246D01*
X30918412Y-57276557D01*
X31107816Y-57180051D01*
X31226729Y-57093656D01*
X31279784Y-57055110D01*
X31279784Y-57055109D01*
X31279792Y-57055104D01*
X31418967Y-56915928D01*
X31480286Y-56882446D01*
X31549978Y-56887430D01*
X31605912Y-56929301D01*
X31612184Y-56938515D01*
X31707684Y-57093345D01*
X31831654Y-57217315D01*
X31980875Y-57309356D01*
X31980880Y-57309358D01*
X32147302Y-57364505D01*
X32147309Y-57364506D01*
X32250019Y-57374999D01*
X32649999Y-57374999D01*
X32650000Y-57374998D01*
X32650000Y-56304145D01*
X32716657Y-56342630D01*
X32837465Y-56375000D01*
X32962535Y-56375000D01*
X33083343Y-56342630D01*
X33150000Y-56304145D01*
X33150000Y-57374999D01*
X33549972Y-57374999D01*
X33549986Y-57374998D01*
X33652697Y-57364505D01*
X33819119Y-57309358D01*
X33819124Y-57309356D01*
X33968345Y-57217315D01*
X34092315Y-57093345D01*
X34184356Y-56944124D01*
X34184358Y-56944119D01*
X34239505Y-56777697D01*
X34239506Y-56777690D01*
X34249999Y-56674986D01*
X34249999Y-56276381D01*
X34269683Y-56209342D01*
X34322487Y-56163587D01*
X34391646Y-56153643D01*
X34455201Y-56182668D01*
X34461680Y-56188700D01*
X36096299Y-57823319D01*
X36129784Y-57884642D01*
X36124800Y-57954334D01*
X36082928Y-58010267D01*
X36017464Y-58034684D01*
X36008618Y-58035000D01*
X12619783Y-58035000D01*
X12552744Y-58015315D01*
X12532102Y-57998681D01*
X11966890Y-57433469D01*
X11933405Y-57372146D01*
X11938389Y-57302454D01*
X11980261Y-57246521D01*
X11998276Y-57235303D01*
X12107557Y-57179620D01*
X12279459Y-57054727D01*
X12279464Y-57054723D01*
X12429721Y-56904466D01*
X12549371Y-56739781D01*
X12604701Y-56697115D01*
X12674314Y-56691136D01*
X12736110Y-56723741D01*
X12750008Y-56739781D01*
X12869890Y-56904785D01*
X12869894Y-56904790D01*
X13020213Y-57055109D01*
X13192179Y-57180048D01*
X13192181Y-57180049D01*
X13192184Y-57180051D01*
X13381588Y-57276557D01*
X13583757Y-57342246D01*
X13793713Y-57375500D01*
X13793714Y-57375500D01*
X14006286Y-57375500D01*
X14006287Y-57375500D01*
X14216243Y-57342246D01*
X14418412Y-57276557D01*
X14607816Y-57180051D01*
X14629789Y-57164086D01*
X14779786Y-57055109D01*
X14779788Y-57055106D01*
X14779792Y-57055104D01*
X14930104Y-56904792D01*
X15049683Y-56740204D01*
X15105011Y-56697540D01*
X15174624Y-56691561D01*
X15236420Y-56724166D01*
X15250313Y-56740199D01*
X15353661Y-56882446D01*
X15369896Y-56904792D01*
X15520213Y-57055109D01*
X15692179Y-57180048D01*
X15692181Y-57180049D01*
X15692184Y-57180051D01*
X15881588Y-57276557D01*
X16083757Y-57342246D01*
X16293713Y-57375500D01*
X16293714Y-57375500D01*
X16506286Y-57375500D01*
X16506287Y-57375500D01*
X16716243Y-57342246D01*
X16918412Y-57276557D01*
X17107816Y-57180051D01*
X17226729Y-57093656D01*
X17279784Y-57055110D01*
X17279784Y-57055109D01*
X17279792Y-57055104D01*
X17418604Y-56916291D01*
X17479923Y-56882809D01*
X17549615Y-56887793D01*
X17605549Y-56929664D01*
X17611821Y-56938878D01*
X17615185Y-56944333D01*
X17615186Y-56944334D01*
X17707288Y-57093656D01*
X17831344Y-57217712D01*
X17980666Y-57309814D01*
X18147203Y-57364999D01*
X18249991Y-57375500D01*
X19550008Y-57375499D01*
X19652797Y-57364999D01*
X19819334Y-57309814D01*
X19968656Y-57217712D01*
X20092712Y-57093656D01*
X20184814Y-56944334D01*
X20239999Y-56777797D01*
X20250500Y-56675009D01*
X20250499Y-55124992D01*
X20248851Y-55108863D01*
X20239999Y-55022203D01*
X20239998Y-55022200D01*
X20231082Y-54995293D01*
X20184814Y-54855666D01*
X20092712Y-54706344D01*
X19968656Y-54582288D01*
X19968655Y-54582287D01*
X19959402Y-54576580D01*
X19912678Y-54524632D01*
X19900500Y-54471042D01*
X19900500Y-52501456D01*
X19862052Y-52308170D01*
X19862051Y-52308169D01*
X19862051Y-52308165D01*
X19845385Y-52267930D01*
X19786635Y-52126092D01*
X19786628Y-52126079D01*
X19677139Y-51962218D01*
X19677136Y-51962214D01*
X19537785Y-51822863D01*
X19537781Y-51822860D01*
X19373920Y-51713371D01*
X19373907Y-51713364D01*
X19191839Y-51637950D01*
X19191829Y-51637947D01*
X18998543Y-51599500D01*
X18998541Y-51599500D01*
X18801459Y-51599500D01*
X18801457Y-51599500D01*
X18608170Y-51637947D01*
X18608160Y-51637950D01*
X18426092Y-51713364D01*
X18426079Y-51713371D01*
X18262218Y-51822860D01*
X18262214Y-51822863D01*
X18122863Y-51962214D01*
X18122860Y-51962218D01*
X18013371Y-52126079D01*
X18013364Y-52126092D01*
X17937950Y-52308160D01*
X17937947Y-52308170D01*
X17899500Y-52501456D01*
X17899500Y-54471042D01*
X17879815Y-54538081D01*
X17840598Y-54576580D01*
X17831344Y-54582287D01*
X17707289Y-54706342D01*
X17611821Y-54861121D01*
X17559873Y-54907845D01*
X17490910Y-54919068D01*
X17426828Y-54891224D01*
X17418601Y-54883705D01*
X17279786Y-54744890D01*
X17107820Y-54619951D01*
X16918414Y-54523444D01*
X16918413Y-54523443D01*
X16918412Y-54523443D01*
X16716243Y-54457754D01*
X16716241Y-54457753D01*
X16716240Y-54457753D01*
X16516660Y-54426143D01*
X16506287Y-54424500D01*
X16506286Y-54424500D01*
X16453500Y-54424500D01*
X16386461Y-54404815D01*
X16340706Y-54352011D01*
X16329500Y-54300500D01*
X16329500Y-54285955D01*
X16329499Y-54285953D01*
X16323597Y-54256281D01*
X16298737Y-54131303D01*
X16289862Y-54109877D01*
X16238397Y-53985627D01*
X16238390Y-53985614D01*
X16150789Y-53854511D01*
X16150786Y-53854507D01*
X16039292Y-53743013D01*
X16039288Y-53743010D01*
X15908185Y-53655409D01*
X15908172Y-53655402D01*
X15762501Y-53595064D01*
X15762489Y-53595061D01*
X15607845Y-53564300D01*
X15607842Y-53564300D01*
X15450158Y-53564300D01*
X15450155Y-53564300D01*
X15295510Y-53595061D01*
X15295498Y-53595064D01*
X15151377Y-53654761D01*
X15103925Y-53664200D01*
X14104918Y-53664200D01*
X14037879Y-53644515D01*
X14017237Y-53627881D01*
X12788302Y-52398945D01*
X12754817Y-52337622D01*
X12759801Y-52267930D01*
X12801673Y-52211997D01*
X12806444Y-52208760D01*
X12809191Y-52206763D01*
X12809199Y-52206760D01*
X12962073Y-52095690D01*
X13095690Y-51962073D01*
X13206760Y-51809199D01*
X13207861Y-51807037D01*
X13208499Y-51806361D01*
X13209305Y-51805047D01*
X13209581Y-51805216D01*
X13255827Y-51756238D01*
X13323646Y-51739434D01*
X13389783Y-51761963D01*
X13418668Y-51790434D01*
X13514310Y-51922073D01*
X13647927Y-52055690D01*
X13800801Y-52166760D01*
X13879306Y-52206760D01*
X13969163Y-52252545D01*
X13969165Y-52252545D01*
X13969168Y-52252547D01*
X14016512Y-52267930D01*
X14148881Y-52310940D01*
X14335514Y-52340500D01*
X14335519Y-52340500D01*
X14524486Y-52340500D01*
X14711118Y-52310940D01*
X14719643Y-52308170D01*
X14890832Y-52252547D01*
X15059199Y-52166760D01*
X15212073Y-52055690D01*
X15345690Y-51922073D01*
X15454682Y-51772058D01*
X15510012Y-51729394D01*
X15579626Y-51723415D01*
X15641421Y-51756021D01*
X15655317Y-51772058D01*
X15764310Y-51922073D01*
X15897927Y-52055690D01*
X16050801Y-52166760D01*
X16129306Y-52206760D01*
X16219163Y-52252545D01*
X16219165Y-52252545D01*
X16219168Y-52252547D01*
X16266512Y-52267930D01*
X16398881Y-52310940D01*
X16585514Y-52340500D01*
X16585519Y-52340500D01*
X16774486Y-52340500D01*
X16961118Y-52310940D01*
X16969643Y-52308170D01*
X17140832Y-52252547D01*
X17309199Y-52166760D01*
X17462073Y-52055690D01*
X17595690Y-51922073D01*
X17706760Y-51769199D01*
X17792547Y-51600832D01*
X17850940Y-51421118D01*
X17875342Y-51267050D01*
X17880500Y-51234486D01*
X17880500Y-51045513D01*
X17854633Y-50882198D01*
X17863587Y-50812905D01*
X17908584Y-50759453D01*
X17975335Y-50738813D01*
X17977106Y-50738800D01*
X20696781Y-50738800D01*
X20763820Y-50758485D01*
G37*
%TD.AperFunction*%
%TA.AperFunction,Conductor*%
G36*
X93502562Y-500605D02*
G01*
X93949036Y-519072D01*
X93959209Y-519915D01*
X94400114Y-574873D01*
X94410194Y-576555D01*
X94845043Y-667733D01*
X94854951Y-670242D01*
X95280786Y-797019D01*
X95290454Y-800338D01*
X95591114Y-917656D01*
X95704349Y-961841D01*
X95713734Y-965958D01*
X96112854Y-1161076D01*
X96121868Y-1165953D01*
X96503545Y-1393383D01*
X96512124Y-1398989D01*
X96873693Y-1657143D01*
X96881770Y-1663430D01*
X97220796Y-1950571D01*
X97228336Y-1957512D01*
X97542487Y-2271663D01*
X97549428Y-2279203D01*
X97615881Y-2357664D01*
X97780583Y-2552127D01*
X97836565Y-2618224D01*
X97842860Y-2626312D01*
X98101010Y-2987875D01*
X98106616Y-2996454D01*
X98334046Y-3378131D01*
X98338923Y-3387145D01*
X98534041Y-3786265D01*
X98538158Y-3795650D01*
X98699656Y-4209533D01*
X98702984Y-4219226D01*
X98829753Y-4645035D01*
X98832269Y-4654970D01*
X98923441Y-5089791D01*
X98925128Y-5099900D01*
X98980082Y-5540769D01*
X98980928Y-5550983D01*
X98999394Y-5997437D01*
X98999500Y-6002561D01*
X98999500Y-60997438D01*
X98999394Y-61002562D01*
X98980928Y-61449016D01*
X98980082Y-61459230D01*
X98925128Y-61900099D01*
X98923441Y-61910208D01*
X98832269Y-62345029D01*
X98829753Y-62354964D01*
X98702984Y-62780773D01*
X98699656Y-62790466D01*
X98538158Y-63204349D01*
X98534041Y-63213734D01*
X98338923Y-63612854D01*
X98334046Y-63621868D01*
X98106616Y-64003545D01*
X98101010Y-64012124D01*
X97842860Y-64373687D01*
X97836565Y-64381775D01*
X97549428Y-64720796D01*
X97542487Y-64728336D01*
X97228336Y-65042487D01*
X97220796Y-65049428D01*
X96881775Y-65336565D01*
X96873687Y-65342860D01*
X96512124Y-65601010D01*
X96503545Y-65606616D01*
X96121868Y-65834046D01*
X96112854Y-65838923D01*
X95713734Y-66034041D01*
X95704349Y-66038158D01*
X95290466Y-66199656D01*
X95280773Y-66202984D01*
X94854964Y-66329753D01*
X94845029Y-66332269D01*
X94410208Y-66423441D01*
X94400099Y-66425128D01*
X93959230Y-66480082D01*
X93949016Y-66480928D01*
X93502563Y-66499394D01*
X93497439Y-66499500D01*
X6002561Y-66499500D01*
X5997437Y-66499394D01*
X5550983Y-66480928D01*
X5540769Y-66480082D01*
X5099900Y-66425128D01*
X5089791Y-66423441D01*
X4654970Y-66332269D01*
X4645035Y-66329753D01*
X4219226Y-66202984D01*
X4209533Y-66199656D01*
X3795650Y-66038158D01*
X3786265Y-66034041D01*
X3387145Y-65838923D01*
X3378131Y-65834046D01*
X2996454Y-65606616D01*
X2987875Y-65601010D01*
X2626312Y-65342860D01*
X2618224Y-65336565D01*
X2279203Y-65049428D01*
X2271663Y-65042487D01*
X1957512Y-64728336D01*
X1950571Y-64720796D01*
X1806337Y-64550500D01*
X1663430Y-64381770D01*
X1657139Y-64373687D01*
X1655450Y-64371322D01*
X1398989Y-64012124D01*
X1393383Y-64003545D01*
X1165953Y-63621868D01*
X1161076Y-63612854D01*
X965958Y-63213734D01*
X961841Y-63204349D01*
X894910Y-63032820D01*
X800338Y-62790454D01*
X797019Y-62780786D01*
X670242Y-62354951D01*
X667733Y-62345043D01*
X576555Y-61910194D01*
X574873Y-61900114D01*
X519919Y-61459246D01*
X519088Y-61449223D01*
X3099500Y-61449223D01*
X3099500Y-61750776D01*
X3099501Y-61750793D01*
X3138861Y-62049766D01*
X3216913Y-62341060D01*
X3332314Y-62619661D01*
X3332318Y-62619671D01*
X3483099Y-62880831D01*
X3666679Y-63120078D01*
X3666685Y-63120085D01*
X3879914Y-63333314D01*
X3879921Y-63333320D01*
X4119168Y-63516900D01*
X4380328Y-63667681D01*
X4380329Y-63667681D01*
X4380332Y-63667683D01*
X4484909Y-63711000D01*
X4658939Y-63783086D01*
X4658940Y-63783086D01*
X4658942Y-63783087D01*
X4950232Y-63861138D01*
X5249217Y-63900500D01*
X5249224Y-63900500D01*
X5550776Y-63900500D01*
X5550783Y-63900500D01*
X5849768Y-63861138D01*
X6141058Y-63783087D01*
X6419668Y-63667683D01*
X6680832Y-63516900D01*
X6920080Y-63333319D01*
X7133319Y-63120080D01*
X7316900Y-62880832D01*
X7467683Y-62619668D01*
X7583087Y-62341058D01*
X7661138Y-62049768D01*
X7700500Y-61750783D01*
X7700500Y-61449217D01*
X7661138Y-61150232D01*
X7583087Y-60858942D01*
X7561936Y-60807880D01*
X7467685Y-60580338D01*
X7467681Y-60580328D01*
X7316900Y-60319168D01*
X7133320Y-60079921D01*
X7133314Y-60079914D01*
X6920085Y-59866685D01*
X6920078Y-59866679D01*
X6680831Y-59683099D01*
X6419671Y-59532318D01*
X6419661Y-59532314D01*
X6141060Y-59416913D01*
X5849766Y-59338861D01*
X5550793Y-59299501D01*
X5550788Y-59299500D01*
X5550783Y-59299500D01*
X5249217Y-59299500D01*
X5249211Y-59299500D01*
X5249206Y-59299501D01*
X4950233Y-59338861D01*
X4658939Y-59416913D01*
X4380338Y-59532314D01*
X4380328Y-59532318D01*
X4119168Y-59683099D01*
X3879921Y-59866679D01*
X3879914Y-59866685D01*
X3666685Y-60079914D01*
X3666679Y-60079921D01*
X3483099Y-60319168D01*
X3332318Y-60580328D01*
X3332314Y-60580338D01*
X3216913Y-60858939D01*
X3138861Y-61150233D01*
X3099501Y-61449206D01*
X3099500Y-61449223D01*
X519088Y-61449223D01*
X519072Y-61449036D01*
X500606Y-61002562D01*
X500500Y-60997438D01*
X500500Y-36246956D01*
X924000Y-36246956D01*
X924000Y-48613044D01*
X962447Y-48806329D01*
X962449Y-48806336D01*
X969020Y-48822200D01*
X972140Y-48829730D01*
X972141Y-48829734D01*
X1037864Y-48988406D01*
X1037871Y-48988419D01*
X1147360Y-49152282D01*
X1291037Y-49295959D01*
X1291059Y-49295979D01*
X2133281Y-50138201D01*
X2166766Y-50199524D01*
X2168073Y-50206483D01*
X2191523Y-50354535D01*
X2254781Y-50549223D01*
X2313857Y-50665164D01*
X2334045Y-50704786D01*
X2347715Y-50731613D01*
X2468028Y-50897213D01*
X2612786Y-51041971D01*
X2767749Y-51154556D01*
X2778390Y-51162287D01*
X2939244Y-51244246D01*
X2970629Y-51267050D01*
X11376860Y-59673281D01*
X11376861Y-59673282D01*
X11516218Y-59812639D01*
X11516219Y-59812640D01*
X11680080Y-59922128D01*
X11680086Y-59922132D01*
X11680088Y-59922133D01*
X11680092Y-59922135D01*
X11771123Y-59959840D01*
X11771124Y-59959841D01*
X11835501Y-59986507D01*
X11862165Y-59997552D01*
X12023389Y-60029621D01*
X12055457Y-60035999D01*
X12055458Y-60036000D01*
X12055459Y-60036000D01*
X12055460Y-60036000D01*
X12252540Y-60036000D01*
X26275422Y-60036000D01*
X26342461Y-60055685D01*
X26388216Y-60108489D01*
X26398160Y-60177647D01*
X26369135Y-60241203D01*
X26354084Y-60255856D01*
X26350750Y-60258591D01*
X25872127Y-60737214D01*
X25810804Y-60770699D01*
X25746130Y-60767465D01*
X25745434Y-60767238D01*
X25716243Y-60757754D01*
X25716239Y-60757753D01*
X25716238Y-60757753D01*
X25586559Y-60737214D01*
X25506287Y-60724500D01*
X25293713Y-60724500D01*
X25245042Y-60732208D01*
X25083760Y-60757753D01*
X24881585Y-60823444D01*
X24692179Y-60919951D01*
X24520213Y-61044890D01*
X24369890Y-61195213D01*
X24244951Y-61367179D01*
X24148444Y-61556585D01*
X24082753Y-61758760D01*
X24049500Y-61968713D01*
X24049500Y-62431286D01*
X24079335Y-62619661D01*
X24082754Y-62641243D01*
X24134526Y-62800581D01*
X24148444Y-62843414D01*
X24244951Y-63032820D01*
X24369890Y-63204786D01*
X24520213Y-63355109D01*
X24692179Y-63480048D01*
X24692181Y-63480049D01*
X24692184Y-63480051D01*
X24881588Y-63576557D01*
X25083757Y-63642246D01*
X25293713Y-63675500D01*
X25293714Y-63675500D01*
X25506286Y-63675500D01*
X25506287Y-63675500D01*
X25716243Y-63642246D01*
X25918412Y-63576557D01*
X26107816Y-63480051D01*
X26177866Y-63429157D01*
X26279786Y-63355109D01*
X26279788Y-63355106D01*
X26279792Y-63355104D01*
X26430104Y-63204792D01*
X26549991Y-63039779D01*
X26605320Y-62997115D01*
X26674933Y-62991136D01*
X26736729Y-63023741D01*
X26750627Y-63039781D01*
X26870272Y-63204459D01*
X26870276Y-63204464D01*
X27020535Y-63354723D01*
X27020540Y-63354727D01*
X27192442Y-63479620D01*
X27381782Y-63576095D01*
X27583871Y-63641757D01*
X27650000Y-63652231D01*
X27650000Y-62604145D01*
X27716657Y-62642630D01*
X27837465Y-62675000D01*
X27962535Y-62675000D01*
X28083343Y-62642630D01*
X28150000Y-62604145D01*
X28150000Y-63652230D01*
X28216126Y-63641757D01*
X28216129Y-63641757D01*
X28418217Y-63576095D01*
X28607557Y-63479620D01*
X28779459Y-63354727D01*
X28779464Y-63354723D01*
X28929721Y-63204466D01*
X29049371Y-63039781D01*
X29104701Y-62997115D01*
X29174314Y-62991136D01*
X29236110Y-63023741D01*
X29250008Y-63039781D01*
X29369890Y-63204785D01*
X29369894Y-63204790D01*
X29520213Y-63355109D01*
X29692179Y-63480048D01*
X29692181Y-63480049D01*
X29692184Y-63480051D01*
X29881588Y-63576557D01*
X30083757Y-63642246D01*
X30293713Y-63675500D01*
X30293714Y-63675500D01*
X30506286Y-63675500D01*
X30506287Y-63675500D01*
X30716243Y-63642246D01*
X30918412Y-63576557D01*
X31107816Y-63480051D01*
X31279792Y-63355104D01*
X31418604Y-63216291D01*
X31479923Y-63182809D01*
X31549615Y-63187793D01*
X31605549Y-63229664D01*
X31611821Y-63238878D01*
X31615185Y-63244333D01*
X31615186Y-63244334D01*
X31707288Y-63393656D01*
X31831344Y-63517712D01*
X31980666Y-63609814D01*
X32147203Y-63664999D01*
X32249991Y-63675500D01*
X33550008Y-63675499D01*
X33652797Y-63664999D01*
X33819334Y-63609814D01*
X33968656Y-63517712D01*
X34092712Y-63393656D01*
X34184814Y-63244334D01*
X34239999Y-63077797D01*
X34250500Y-62975009D01*
X34250499Y-61627199D01*
X34270184Y-61560161D01*
X34322987Y-61514406D01*
X34374499Y-61503200D01*
X36422381Y-61503200D01*
X36489420Y-61522885D01*
X36510062Y-61539519D01*
X37750153Y-62779611D01*
X37750154Y-62779612D01*
X37864890Y-62856276D01*
X37959572Y-62895494D01*
X37992371Y-62909080D01*
X37992372Y-62909080D01*
X37992377Y-62909082D01*
X38012916Y-62913166D01*
X38019291Y-62914434D01*
X38127707Y-62936000D01*
X38159477Y-62936000D01*
X38168897Y-62937457D01*
X38192242Y-62948420D01*
X38216982Y-62955685D01*
X38223831Y-62963255D01*
X38232139Y-62967157D01*
X38242964Y-62984403D01*
X38260428Y-63003705D01*
X38293351Y-63068319D01*
X38418290Y-63240286D01*
X38568613Y-63390609D01*
X38740579Y-63515548D01*
X38740581Y-63515549D01*
X38740584Y-63515551D01*
X38929988Y-63612057D01*
X39132157Y-63677746D01*
X39342113Y-63711000D01*
X39342114Y-63711000D01*
X39554686Y-63711000D01*
X39554687Y-63711000D01*
X39764643Y-63677746D01*
X39966812Y-63612057D01*
X40156216Y-63515551D01*
X40205671Y-63479620D01*
X40328186Y-63390609D01*
X40328188Y-63390606D01*
X40328192Y-63390604D01*
X40478504Y-63240292D01*
X40598391Y-63075279D01*
X40653720Y-63032615D01*
X40723333Y-63026636D01*
X40785129Y-63059241D01*
X40799027Y-63075281D01*
X40918672Y-63239959D01*
X40918676Y-63239964D01*
X41068935Y-63390223D01*
X41068940Y-63390227D01*
X41240842Y-63515120D01*
X41430182Y-63611595D01*
X41632271Y-63677257D01*
X41698400Y-63687731D01*
X41698400Y-62639645D01*
X41765057Y-62678130D01*
X41885865Y-62710500D01*
X42010935Y-62710500D01*
X42131743Y-62678130D01*
X42198400Y-62639645D01*
X42198400Y-63687730D01*
X42264526Y-63677257D01*
X42264529Y-63677257D01*
X42466617Y-63611595D01*
X42655957Y-63515120D01*
X42827859Y-63390227D01*
X42827864Y-63390223D01*
X42978121Y-63239966D01*
X43097771Y-63075281D01*
X43153101Y-63032615D01*
X43222714Y-63026636D01*
X43284510Y-63059241D01*
X43298408Y-63075281D01*
X43418290Y-63240285D01*
X43418294Y-63240290D01*
X43568613Y-63390609D01*
X43740579Y-63515548D01*
X43740581Y-63515549D01*
X43740584Y-63515551D01*
X43929988Y-63612057D01*
X44132157Y-63677746D01*
X44342113Y-63711000D01*
X44342114Y-63711000D01*
X44554686Y-63711000D01*
X44554687Y-63711000D01*
X44764643Y-63677746D01*
X44966812Y-63612057D01*
X45156216Y-63515551D01*
X45323990Y-63393657D01*
X45328184Y-63390610D01*
X45328184Y-63390609D01*
X45328192Y-63390604D01*
X45467004Y-63251791D01*
X45528323Y-63218309D01*
X45598015Y-63223293D01*
X45653949Y-63265164D01*
X45660221Y-63274378D01*
X45663585Y-63279833D01*
X45663586Y-63279834D01*
X45755688Y-63429156D01*
X45879744Y-63553212D01*
X46029066Y-63645314D01*
X46195603Y-63700499D01*
X46298391Y-63711000D01*
X47598408Y-63710999D01*
X47701197Y-63700499D01*
X47867734Y-63645314D01*
X48017056Y-63553212D01*
X48141112Y-63429156D01*
X48233214Y-63279834D01*
X48288399Y-63113297D01*
X48298900Y-63010509D01*
X48298899Y-61460492D01*
X48297251Y-61444363D01*
X48288399Y-61357703D01*
X48288398Y-61357700D01*
X48270842Y-61304720D01*
X48233214Y-61191166D01*
X48141112Y-61041844D01*
X48017056Y-60917788D01*
X47895463Y-60842789D01*
X47867736Y-60825687D01*
X47867731Y-60825685D01*
X47860965Y-60823443D01*
X47701197Y-60770501D01*
X47701195Y-60770500D01*
X47598416Y-60760000D01*
X47598409Y-60760000D01*
X46514919Y-60760000D01*
X46447880Y-60740315D01*
X46427238Y-60723681D01*
X45951238Y-60247681D01*
X45917753Y-60186358D01*
X45922737Y-60116666D01*
X45964609Y-60060733D01*
X46030073Y-60036316D01*
X46038919Y-60036000D01*
X50149718Y-60036000D01*
X50216757Y-60055685D01*
X50237399Y-60072319D01*
X52574126Y-62409047D01*
X52607611Y-62470370D01*
X52609384Y-62512913D01*
X52589500Y-62663954D01*
X52589500Y-62896052D01*
X52619794Y-63126148D01*
X52679862Y-63350328D01*
X52768677Y-63564745D01*
X52768685Y-63564762D01*
X52884720Y-63765743D01*
X52884721Y-63765745D01*
X53026009Y-63949875D01*
X53026015Y-63949882D01*
X53190117Y-64113984D01*
X53190124Y-64113990D01*
X53374254Y-64255278D01*
X53374256Y-64255279D01*
X53575237Y-64371314D01*
X53575240Y-64371315D01*
X53575248Y-64371320D01*
X53789670Y-64460137D01*
X54013851Y-64520206D01*
X54232318Y-64548968D01*
X54243939Y-64550498D01*
X54243955Y-64550500D01*
X54243962Y-64550500D01*
X54476038Y-64550500D01*
X54476045Y-64550500D01*
X54706149Y-64520206D01*
X54930330Y-64460137D01*
X55144752Y-64371320D01*
X55345748Y-64255276D01*
X55529877Y-64113989D01*
X55693989Y-63949877D01*
X55835276Y-63765748D01*
X55951320Y-63564752D01*
X56040137Y-63350330D01*
X56100206Y-63126149D01*
X56130500Y-62896045D01*
X56130500Y-62663955D01*
X56100206Y-62433851D01*
X56040137Y-62209670D01*
X55951320Y-61995248D01*
X55951314Y-61995237D01*
X55835279Y-61794256D01*
X55835278Y-61794254D01*
X55693990Y-61610124D01*
X55693984Y-61610117D01*
X55546002Y-61462135D01*
X93229500Y-61462135D01*
X93229500Y-64097870D01*
X93229501Y-64097876D01*
X93235908Y-64157483D01*
X93286202Y-64292328D01*
X93286206Y-64292335D01*
X93372452Y-64407544D01*
X93372455Y-64407547D01*
X93487664Y-64493793D01*
X93487671Y-64493797D01*
X93622517Y-64544091D01*
X93622516Y-64544091D01*
X93629444Y-64544835D01*
X93682127Y-64550500D01*
X96317872Y-64550499D01*
X96377483Y-64544091D01*
X96512331Y-64493796D01*
X96627546Y-64407546D01*
X96713796Y-64292331D01*
X96764091Y-64157483D01*
X96770500Y-64097873D01*
X96770499Y-61462128D01*
X96764091Y-61402517D01*
X96761555Y-61395718D01*
X96713797Y-61267671D01*
X96713793Y-61267664D01*
X96627547Y-61152455D01*
X96627544Y-61152452D01*
X96512335Y-61066206D01*
X96512328Y-61066202D01*
X96377482Y-61015908D01*
X96377483Y-61015908D01*
X96317883Y-61009501D01*
X96317881Y-61009500D01*
X96317873Y-61009500D01*
X96317864Y-61009500D01*
X93682129Y-61009500D01*
X93682123Y-61009501D01*
X93622516Y-61015908D01*
X93487671Y-61066202D01*
X93487664Y-61066206D01*
X93372455Y-61152452D01*
X93372452Y-61152455D01*
X93286206Y-61267664D01*
X93286202Y-61267671D01*
X93235908Y-61402517D01*
X93229677Y-61460481D01*
X93229501Y-61462123D01*
X93229500Y-61462135D01*
X55546002Y-61462135D01*
X55529882Y-61446015D01*
X55529875Y-61446009D01*
X55345745Y-61304721D01*
X55345743Y-61304720D01*
X55144762Y-61188685D01*
X55144754Y-61188681D01*
X55144752Y-61188680D01*
X55057298Y-61152455D01*
X54930328Y-61099862D01*
X54788203Y-61061780D01*
X54706149Y-61039794D01*
X54677386Y-61036007D01*
X54476052Y-61009500D01*
X54476045Y-61009500D01*
X54243955Y-61009500D01*
X54243954Y-61009500D01*
X54092913Y-61029384D01*
X54023877Y-61018618D01*
X53989047Y-60994126D01*
X51399709Y-58404789D01*
X51399706Y-58404785D01*
X51399706Y-58404786D01*
X51392639Y-58397719D01*
X51392639Y-58397718D01*
X51253282Y-58258361D01*
X51253281Y-58258360D01*
X51253280Y-58258359D01*
X51089420Y-58148871D01*
X51089411Y-58148866D01*
X51016815Y-58118796D01*
X50960665Y-58095538D01*
X50907336Y-58073449D01*
X50907332Y-58073448D01*
X50907329Y-58073447D01*
X50825549Y-58057180D01*
X50763639Y-58024795D01*
X50729064Y-57964079D01*
X50732804Y-57894310D01*
X50735157Y-57888166D01*
X50766651Y-57812135D01*
X50805100Y-57618841D01*
X50805100Y-57421759D01*
X50805100Y-57421756D01*
X50766652Y-57228470D01*
X50766651Y-57228469D01*
X50766651Y-57228465D01*
X50762033Y-57217315D01*
X50691235Y-57046392D01*
X50691228Y-57046379D01*
X50581739Y-56882518D01*
X50581736Y-56882514D01*
X50442385Y-56743163D01*
X50442381Y-56743160D01*
X50278520Y-56633671D01*
X50278507Y-56633664D01*
X50096439Y-56558250D01*
X50096429Y-56558247D01*
X49903143Y-56519800D01*
X49903141Y-56519800D01*
X48422400Y-56519800D01*
X48355361Y-56500115D01*
X48309606Y-56447311D01*
X48298400Y-56395800D01*
X48298400Y-56085500D01*
X47352546Y-56085500D01*
X47391030Y-56018843D01*
X47423400Y-55898035D01*
X47423400Y-55772965D01*
X47391030Y-55652157D01*
X47352546Y-55585500D01*
X48298399Y-55585500D01*
X48298399Y-55060528D01*
X48298398Y-55060513D01*
X48287905Y-54957802D01*
X48232758Y-54791380D01*
X48232756Y-54791375D01*
X48140715Y-54642154D01*
X48016745Y-54518184D01*
X47867524Y-54426143D01*
X47867519Y-54426141D01*
X47701097Y-54370994D01*
X47701090Y-54370993D01*
X47598386Y-54360500D01*
X47198400Y-54360500D01*
X47198400Y-55431354D01*
X47131743Y-55392870D01*
X47010935Y-55360500D01*
X46885865Y-55360500D01*
X46765057Y-55392870D01*
X46698400Y-55431354D01*
X46698400Y-54360500D01*
X46298428Y-54360500D01*
X46298412Y-54360501D01*
X46195702Y-54370994D01*
X46029280Y-54426141D01*
X46029275Y-54426143D01*
X45880054Y-54518184D01*
X45756083Y-54642155D01*
X45756080Y-54642159D01*
X45660583Y-54796984D01*
X45608635Y-54843709D01*
X45539673Y-54854930D01*
X45475591Y-54827087D01*
X45467364Y-54819568D01*
X45328186Y-54680390D01*
X45156220Y-54555451D01*
X44966814Y-54458944D01*
X44966813Y-54458943D01*
X44966812Y-54458943D01*
X44764643Y-54393254D01*
X44764641Y-54393253D01*
X44764640Y-54393253D01*
X44603357Y-54367708D01*
X44554687Y-54360000D01*
X44342113Y-54360000D01*
X44293442Y-54367708D01*
X44132160Y-54393253D01*
X44132157Y-54393254D01*
X43933651Y-54457753D01*
X43929985Y-54458944D01*
X43740579Y-54555451D01*
X43568613Y-54680390D01*
X43418294Y-54830709D01*
X43418290Y-54830714D01*
X43298718Y-54995293D01*
X43243389Y-55037959D01*
X43173775Y-55043938D01*
X43111980Y-55011333D01*
X43098082Y-54995293D01*
X42978509Y-54830714D01*
X42978505Y-54830709D01*
X42828186Y-54680390D01*
X42656220Y-54555451D01*
X42466814Y-54458944D01*
X42466813Y-54458943D01*
X42466812Y-54458943D01*
X42264643Y-54393254D01*
X42264641Y-54393253D01*
X42264640Y-54393253D01*
X42103357Y-54367708D01*
X42054687Y-54360000D01*
X41842113Y-54360000D01*
X41802602Y-54366257D01*
X41632159Y-54393253D01*
X41632154Y-54393254D01*
X41602266Y-54402965D01*
X41532425Y-54404958D01*
X41476271Y-54372714D01*
X41308538Y-54204981D01*
X41275053Y-54143658D01*
X41280037Y-54073966D01*
X41321909Y-54018033D01*
X41387373Y-53993616D01*
X41396219Y-53993300D01*
X46372243Y-53993300D01*
X46410845Y-53985621D01*
X46480041Y-53971857D01*
X46565536Y-53954851D01*
X46654120Y-53918158D01*
X46747614Y-53879432D01*
X46911482Y-53769939D01*
X47025683Y-53655738D01*
X90044977Y-53655738D01*
X90044977Y-53957291D01*
X90044978Y-53957308D01*
X90084338Y-54256281D01*
X90162390Y-54547575D01*
X90277791Y-54826176D01*
X90277795Y-54826186D01*
X90428576Y-55087346D01*
X90612156Y-55326593D01*
X90612162Y-55326600D01*
X90825391Y-55539829D01*
X90825398Y-55539835D01*
X91064645Y-55723415D01*
X91325805Y-55874196D01*
X91325806Y-55874196D01*
X91325809Y-55874198D01*
X91511549Y-55951134D01*
X91604416Y-55989601D01*
X91604417Y-55989601D01*
X91604419Y-55989602D01*
X91895709Y-56067653D01*
X92194694Y-56107015D01*
X92194701Y-56107015D01*
X92496253Y-56107015D01*
X92496260Y-56107015D01*
X92795245Y-56067653D01*
X93086535Y-55989602D01*
X93365145Y-55874198D01*
X93626309Y-55723415D01*
X93865557Y-55539834D01*
X94078796Y-55326595D01*
X94262377Y-55087347D01*
X94413160Y-54826183D01*
X94528564Y-54547573D01*
X94606615Y-54256283D01*
X94645977Y-53957298D01*
X94645977Y-53655732D01*
X94606615Y-53356747D01*
X94528564Y-53065457D01*
X94413160Y-52786847D01*
X94262377Y-52525683D01*
X94165128Y-52398945D01*
X94078797Y-52286436D01*
X94078791Y-52286429D01*
X93865562Y-52073200D01*
X93865555Y-52073194D01*
X93626308Y-51889614D01*
X93365148Y-51738833D01*
X93365138Y-51738829D01*
X93086537Y-51623428D01*
X92795243Y-51545376D01*
X92496270Y-51506016D01*
X92496265Y-51506015D01*
X92496260Y-51506015D01*
X92194694Y-51506015D01*
X92194688Y-51506015D01*
X92194683Y-51506016D01*
X91895710Y-51545376D01*
X91604416Y-51623428D01*
X91325815Y-51738829D01*
X91325805Y-51738833D01*
X91064645Y-51889614D01*
X90825398Y-52073194D01*
X90825391Y-52073200D01*
X90612162Y-52286429D01*
X90612156Y-52286436D01*
X90428576Y-52525683D01*
X90277795Y-52786843D01*
X90277791Y-52786853D01*
X90162390Y-53065454D01*
X90084338Y-53356748D01*
X90044978Y-53655721D01*
X90044977Y-53655738D01*
X47025683Y-53655738D01*
X47050839Y-53630582D01*
X47050839Y-53630580D01*
X47061047Y-53620373D01*
X47061048Y-53620370D01*
X49323139Y-51358282D01*
X49392003Y-51255220D01*
X49405860Y-51234481D01*
X49432631Y-51194416D01*
X49505823Y-51017715D01*
X49506107Y-51017027D01*
X49508051Y-51012336D01*
X49508107Y-51012057D01*
X49538575Y-50858882D01*
X49546500Y-50819041D01*
X49546500Y-50621960D01*
X49546500Y-46020159D01*
X49546500Y-46020156D01*
X49515546Y-45864547D01*
X49513781Y-45855672D01*
X49508051Y-45826864D01*
X49467178Y-45728189D01*
X49432632Y-45644786D01*
X49402151Y-45599168D01*
X49323139Y-45480917D01*
X49180686Y-45338464D01*
X49180655Y-45338435D01*
X48726214Y-44883994D01*
X93230000Y-44883994D01*
X93230000Y-45116005D01*
X93230001Y-45116022D01*
X93260283Y-45346040D01*
X93260286Y-45346053D01*
X93320336Y-45570167D01*
X93409124Y-45784521D01*
X93409132Y-45784538D01*
X93525136Y-45985461D01*
X93525142Y-45985469D01*
X93584117Y-46062327D01*
X94517037Y-45129408D01*
X94534075Y-45192993D01*
X94599901Y-45307007D01*
X94692993Y-45400099D01*
X94807007Y-45465925D01*
X94870591Y-45482962D01*
X93937671Y-46415881D01*
X94014530Y-46474857D01*
X94014538Y-46474863D01*
X94215461Y-46590867D01*
X94215478Y-46590875D01*
X94429832Y-46679663D01*
X94653946Y-46739713D01*
X94653959Y-46739716D01*
X94883977Y-46769998D01*
X94883995Y-46770000D01*
X95116005Y-46770000D01*
X95116022Y-46769998D01*
X95346040Y-46739716D01*
X95346053Y-46739713D01*
X95570167Y-46679663D01*
X95784521Y-46590875D01*
X95784538Y-46590867D01*
X95985475Y-46474855D01*
X96062327Y-46415883D01*
X96062327Y-46415880D01*
X95129408Y-45482962D01*
X95192993Y-45465925D01*
X95307007Y-45400099D01*
X95400099Y-45307007D01*
X95465925Y-45192993D01*
X95482962Y-45129409D01*
X96415880Y-46062327D01*
X96415883Y-46062327D01*
X96474855Y-45985475D01*
X96590867Y-45784538D01*
X96590875Y-45784521D01*
X96679663Y-45570167D01*
X96739713Y-45346053D01*
X96739716Y-45346040D01*
X96769998Y-45116022D01*
X96770000Y-45116005D01*
X96770000Y-44883994D01*
X96769998Y-44883977D01*
X96739716Y-44653959D01*
X96739713Y-44653946D01*
X96679663Y-44429832D01*
X96590875Y-44215478D01*
X96590867Y-44215461D01*
X96474863Y-44014538D01*
X96474857Y-44014530D01*
X96415881Y-43937671D01*
X95482962Y-44870590D01*
X95465925Y-44807007D01*
X95400099Y-44692993D01*
X95307007Y-44599901D01*
X95192993Y-44534075D01*
X95129409Y-44517037D01*
X96062327Y-43584117D01*
X95985469Y-43525142D01*
X95985461Y-43525136D01*
X95784538Y-43409132D01*
X95784521Y-43409124D01*
X95570167Y-43320336D01*
X95346053Y-43260286D01*
X95346040Y-43260283D01*
X95116022Y-43230001D01*
X95116005Y-43230000D01*
X94883995Y-43230000D01*
X94883977Y-43230001D01*
X94653959Y-43260283D01*
X94653946Y-43260286D01*
X94429832Y-43320336D01*
X94215478Y-43409124D01*
X94215461Y-43409132D01*
X94014541Y-43525134D01*
X94014533Y-43525140D01*
X93937671Y-43584116D01*
X93937671Y-43584117D01*
X94870591Y-44517037D01*
X94807007Y-44534075D01*
X94692993Y-44599901D01*
X94599901Y-44692993D01*
X94534075Y-44807007D01*
X94517037Y-44870591D01*
X93584117Y-43937671D01*
X93584116Y-43937671D01*
X93525140Y-44014533D01*
X93525134Y-44014541D01*
X93409132Y-44215461D01*
X93409124Y-44215478D01*
X93320336Y-44429832D01*
X93260286Y-44653946D01*
X93260283Y-44653959D01*
X93230001Y-44883977D01*
X93230000Y-44883994D01*
X48726214Y-44883994D01*
X48634400Y-44792180D01*
X48600915Y-44730857D01*
X48605899Y-44661165D01*
X48647771Y-44605232D01*
X48713235Y-44580815D01*
X48722081Y-44580499D01*
X49727871Y-44580499D01*
X49727872Y-44580499D01*
X49787483Y-44574091D01*
X49922331Y-44523796D01*
X50037546Y-44437546D01*
X50123796Y-44322331D01*
X50174091Y-44187483D01*
X50180500Y-44127873D01*
X50180499Y-43445780D01*
X50200184Y-43378742D01*
X50216813Y-43358105D01*
X54814568Y-38760351D01*
X54875889Y-38726868D01*
X54945581Y-38731852D01*
X55001514Y-38773724D01*
X55025931Y-38839188D01*
X55022022Y-38880126D01*
X54995442Y-38979327D01*
X54995438Y-38979344D01*
X54959501Y-39252315D01*
X54959500Y-39252332D01*
X54959500Y-39527667D01*
X54959501Y-39527684D01*
X54995438Y-39800655D01*
X54995439Y-39800660D01*
X54995440Y-39800666D01*
X55018316Y-39886042D01*
X55066704Y-40066630D01*
X55172075Y-40321017D01*
X55172080Y-40321028D01*
X55238151Y-40435465D01*
X55309751Y-40559479D01*
X55309753Y-40559482D01*
X55309754Y-40559483D01*
X55477370Y-40777926D01*
X55477376Y-40777933D01*
X55672066Y-40972623D01*
X55672073Y-40972629D01*
X55765782Y-41044534D01*
X55890521Y-41140249D01*
X56033003Y-41222511D01*
X56128971Y-41277919D01*
X56128976Y-41277921D01*
X56128979Y-41277923D01*
X56383368Y-41383295D01*
X56649334Y-41454560D01*
X56922326Y-41490500D01*
X56922333Y-41490500D01*
X57197667Y-41490500D01*
X57197674Y-41490500D01*
X57470666Y-41454560D01*
X57736632Y-41383295D01*
X57991021Y-41277923D01*
X58229479Y-41140249D01*
X58447928Y-40972628D01*
X58642628Y-40777928D01*
X58810249Y-40559479D01*
X58947923Y-40321021D01*
X59053295Y-40066632D01*
X59124560Y-39800666D01*
X59160500Y-39527674D01*
X59160500Y-39252326D01*
X59124560Y-38979334D01*
X59053295Y-38713368D01*
X58947923Y-38458979D01*
X58947921Y-38458976D01*
X58947919Y-38458971D01*
X58879225Y-38339991D01*
X58810249Y-38220521D01*
X58699447Y-38076120D01*
X58688858Y-38062320D01*
X58642629Y-38002073D01*
X58642623Y-38002066D01*
X58630540Y-37989983D01*
X70199500Y-37989983D01*
X70199500Y-40790001D01*
X70199501Y-40790018D01*
X70210000Y-40892796D01*
X70210001Y-40892799D01*
X70265185Y-41059331D01*
X70265187Y-41059336D01*
X70300069Y-41115888D01*
X70357288Y-41208656D01*
X70481344Y-41332712D01*
X70630666Y-41424814D01*
X70797203Y-41479999D01*
X70899991Y-41490500D01*
X73700008Y-41490499D01*
X73802797Y-41479999D01*
X73969334Y-41424814D01*
X74118656Y-41332712D01*
X74242712Y-41208656D01*
X74334814Y-41059334D01*
X74389999Y-40892797D01*
X74400500Y-40790009D01*
X74400499Y-38339983D01*
X77329500Y-38339983D01*
X77329500Y-39940001D01*
X77329501Y-39940018D01*
X77340000Y-40042796D01*
X77340001Y-40042799D01*
X77395185Y-40209331D01*
X77395187Y-40209336D01*
X77430069Y-40265888D01*
X77487288Y-40358656D01*
X77611344Y-40482712D01*
X77760666Y-40574814D01*
X77927203Y-40629999D01*
X78029991Y-40640500D01*
X79330008Y-40640499D01*
X79432797Y-40629999D01*
X79599334Y-40574814D01*
X79748656Y-40482712D01*
X79872712Y-40358656D01*
X79964814Y-40209334D01*
X79964814Y-40209331D01*
X79968178Y-40203879D01*
X80020126Y-40157154D01*
X80089088Y-40145931D01*
X80153170Y-40173774D01*
X80161398Y-40181294D01*
X80300213Y-40320109D01*
X80472179Y-40445048D01*
X80472181Y-40445049D01*
X80472184Y-40445051D01*
X80661588Y-40541557D01*
X80863757Y-40607246D01*
X81073713Y-40640500D01*
X81073714Y-40640500D01*
X81286286Y-40640500D01*
X81286287Y-40640500D01*
X81496243Y-40607246D01*
X81698412Y-40541557D01*
X81887816Y-40445051D01*
X81930552Y-40414002D01*
X82059786Y-40320109D01*
X82059788Y-40320106D01*
X82059792Y-40320104D01*
X82210104Y-40169792D01*
X82210106Y-40169788D01*
X82210109Y-40169786D01*
X82335048Y-39997820D01*
X82335047Y-39997820D01*
X82335051Y-39997816D01*
X82431557Y-39808412D01*
X82497246Y-39606243D01*
X82530500Y-39396287D01*
X82530500Y-38883713D01*
X82497246Y-38673757D01*
X82431557Y-38471588D01*
X82335051Y-38282184D01*
X82335049Y-38282181D01*
X82335048Y-38282179D01*
X82210109Y-38110213D01*
X82059786Y-37959890D01*
X81887820Y-37834951D01*
X81698414Y-37738444D01*
X81698413Y-37738443D01*
X81698412Y-37738443D01*
X81496243Y-37672754D01*
X81496241Y-37672753D01*
X81496240Y-37672753D01*
X81334957Y-37647208D01*
X81286287Y-37639500D01*
X81073713Y-37639500D01*
X81025042Y-37647208D01*
X80863760Y-37672753D01*
X80661585Y-37738444D01*
X80472179Y-37834951D01*
X80300215Y-37959889D01*
X80161398Y-38098706D01*
X80100075Y-38132190D01*
X80030383Y-38127206D01*
X79974450Y-38085334D01*
X79968178Y-38076120D01*
X79872712Y-37921344D01*
X79748657Y-37797289D01*
X79748656Y-37797288D01*
X79653253Y-37738443D01*
X79599336Y-37705187D01*
X79599331Y-37705185D01*
X79597862Y-37704698D01*
X79432797Y-37650001D01*
X79432795Y-37650000D01*
X79330010Y-37639500D01*
X78029998Y-37639500D01*
X78029981Y-37639501D01*
X77927203Y-37650000D01*
X77927200Y-37650001D01*
X77760668Y-37705185D01*
X77760663Y-37705187D01*
X77611342Y-37797289D01*
X77487289Y-37921342D01*
X77395187Y-38070663D01*
X77395185Y-38070668D01*
X77390325Y-38085334D01*
X77340001Y-38237203D01*
X77340001Y-38237204D01*
X77340000Y-38237204D01*
X77329500Y-38339983D01*
X74400499Y-38339983D01*
X74400499Y-37989992D01*
X74389999Y-37887203D01*
X74334814Y-37720666D01*
X74242712Y-37571344D01*
X74118656Y-37447288D01*
X73969334Y-37355186D01*
X73802797Y-37300001D01*
X73802795Y-37300000D01*
X73700016Y-37289500D01*
X73700009Y-37289500D01*
X73424500Y-37289500D01*
X73357461Y-37269815D01*
X73311706Y-37217011D01*
X73300500Y-37165500D01*
X73300500Y-36818031D01*
X88929500Y-36818031D01*
X88929500Y-37161969D01*
X88939751Y-37266054D01*
X88963210Y-37504249D01*
X89030308Y-37841572D01*
X89130150Y-38170706D01*
X89214178Y-38373566D01*
X89249553Y-38458971D01*
X89261770Y-38488464D01*
X89261772Y-38488469D01*
X89423893Y-38791775D01*
X89423904Y-38791793D01*
X89614975Y-39077751D01*
X89614985Y-39077765D01*
X89833176Y-39343632D01*
X90076367Y-39586823D01*
X90076372Y-39586827D01*
X90076373Y-39586828D01*
X90342240Y-39805019D01*
X90628213Y-39996100D01*
X90628222Y-39996105D01*
X90628224Y-39996106D01*
X90931530Y-40158227D01*
X90931532Y-40158227D01*
X90931538Y-40158231D01*
X91249295Y-40289850D01*
X91578422Y-40389690D01*
X91915750Y-40456789D01*
X92258031Y-40490500D01*
X92258034Y-40490500D01*
X92601966Y-40490500D01*
X92601969Y-40490500D01*
X92944250Y-40456789D01*
X93281578Y-40389690D01*
X93610705Y-40289850D01*
X93928462Y-40158231D01*
X94231787Y-39996100D01*
X94517760Y-39805019D01*
X94783627Y-39586828D01*
X95026828Y-39343627D01*
X95245019Y-39077760D01*
X95436100Y-38791787D01*
X95598231Y-38488462D01*
X95729850Y-38170705D01*
X95829690Y-37841578D01*
X95896789Y-37504250D01*
X95930500Y-37161969D01*
X95930500Y-36818031D01*
X95896789Y-36475750D01*
X95829690Y-36138422D01*
X95729850Y-35809295D01*
X95598231Y-35491538D01*
X95589650Y-35475485D01*
X95436106Y-35188224D01*
X95436105Y-35188222D01*
X95436100Y-35188213D01*
X95245019Y-34902240D01*
X95026828Y-34636373D01*
X95026827Y-34636372D01*
X95026823Y-34636367D01*
X94783632Y-34393176D01*
X94517765Y-34174985D01*
X94517764Y-34174984D01*
X94517760Y-34174981D01*
X94231787Y-33983900D01*
X94231782Y-33983897D01*
X94231775Y-33983893D01*
X93928469Y-33821772D01*
X93928464Y-33821770D01*
X93610706Y-33690150D01*
X93281572Y-33590308D01*
X92944248Y-33523210D01*
X92944249Y-33523210D01*
X92686456Y-33497821D01*
X92601969Y-33489500D01*
X92258031Y-33489500D01*
X92179966Y-33497188D01*
X91915750Y-33523210D01*
X91578427Y-33590308D01*
X91249293Y-33690150D01*
X90931535Y-33821770D01*
X90931530Y-33821772D01*
X90628224Y-33983893D01*
X90628206Y-33983904D01*
X90342248Y-34174975D01*
X90342234Y-34174985D01*
X90076367Y-34393176D01*
X89833176Y-34636367D01*
X89614985Y-34902234D01*
X89614975Y-34902248D01*
X89423904Y-35188206D01*
X89423893Y-35188224D01*
X89261772Y-35491530D01*
X89261770Y-35491535D01*
X89130150Y-35809293D01*
X89030308Y-36138427D01*
X88963210Y-36475750D01*
X88939927Y-36712159D01*
X88929500Y-36818031D01*
X73300500Y-36818031D01*
X73300500Y-35735781D01*
X73320185Y-35668742D01*
X73336814Y-35648105D01*
X76212972Y-32771947D01*
X78180000Y-32771947D01*
X78180000Y-33008052D01*
X78216934Y-33241247D01*
X78289897Y-33465802D01*
X78397087Y-33676174D01*
X78457338Y-33759104D01*
X78457340Y-33759105D01*
X79197037Y-33019408D01*
X79214075Y-33082993D01*
X79279901Y-33197007D01*
X79372993Y-33290099D01*
X79487007Y-33355925D01*
X79550590Y-33372962D01*
X78810893Y-34112658D01*
X78893828Y-34172914D01*
X79104197Y-34280102D01*
X79328752Y-34353065D01*
X79328751Y-34353065D01*
X79561948Y-34390000D01*
X79798052Y-34390000D01*
X80031247Y-34353065D01*
X80255802Y-34280102D01*
X80466163Y-34172918D01*
X80466169Y-34172914D01*
X80549104Y-34112658D01*
X80549105Y-34112658D01*
X79809408Y-33372962D01*
X79872993Y-33355925D01*
X79987007Y-33290099D01*
X80080099Y-33197007D01*
X80145925Y-33082993D01*
X80162962Y-33019408D01*
X80902658Y-33759105D01*
X80902658Y-33759104D01*
X80962914Y-33676169D01*
X80962918Y-33676163D01*
X81070102Y-33465802D01*
X81143065Y-33241247D01*
X81180000Y-33008052D01*
X81180000Y-32771947D01*
X81143065Y-32538752D01*
X81070102Y-32314197D01*
X80962914Y-32103828D01*
X80902658Y-32020894D01*
X80902658Y-32020893D01*
X80162962Y-32760590D01*
X80145925Y-32697007D01*
X80080099Y-32582993D01*
X79987007Y-32489901D01*
X79872993Y-32424075D01*
X79809409Y-32407037D01*
X80549105Y-31667340D01*
X80549104Y-31667338D01*
X80466174Y-31607087D01*
X80255802Y-31499897D01*
X80031247Y-31426934D01*
X80031248Y-31426934D01*
X79798052Y-31390000D01*
X79561948Y-31390000D01*
X79328752Y-31426934D01*
X79104197Y-31499897D01*
X78893830Y-31607084D01*
X78810894Y-31667340D01*
X79550591Y-32407037D01*
X79487007Y-32424075D01*
X79372993Y-32489901D01*
X79279901Y-32582993D01*
X79214075Y-32697007D01*
X79197037Y-32760591D01*
X78457340Y-32020894D01*
X78397084Y-32103830D01*
X78289897Y-32314197D01*
X78216934Y-32538752D01*
X78180000Y-32771947D01*
X76212972Y-32771947D01*
X79558101Y-29426817D01*
X79619424Y-29393333D01*
X79645782Y-29390499D01*
X80480002Y-29390499D01*
X80480008Y-29390499D01*
X80582797Y-29379999D01*
X80749334Y-29324814D01*
X80898656Y-29232712D01*
X81022712Y-29108656D01*
X81114814Y-28959334D01*
X81169999Y-28792797D01*
X81180500Y-28690009D01*
X81180499Y-27089992D01*
X81169999Y-26987203D01*
X81114814Y-26820666D01*
X81022712Y-26671344D01*
X80898656Y-26547288D01*
X80778854Y-26473394D01*
X80749336Y-26455187D01*
X80749331Y-26455185D01*
X80747862Y-26454698D01*
X80582797Y-26400001D01*
X80582795Y-26400000D01*
X80480010Y-26389500D01*
X78879998Y-26389500D01*
X78879981Y-26389501D01*
X78777203Y-26400000D01*
X78777200Y-26400001D01*
X78610668Y-26455185D01*
X78610663Y-26455187D01*
X78461342Y-26547289D01*
X78337289Y-26671342D01*
X78245187Y-26820663D01*
X78245185Y-26820668D01*
X78229003Y-26869503D01*
X78190001Y-26987203D01*
X78190001Y-26987204D01*
X78190000Y-26987204D01*
X78179500Y-27089983D01*
X78179500Y-27924217D01*
X78159815Y-27991256D01*
X78143181Y-28011898D01*
X71662221Y-34492858D01*
X71662218Y-34492861D01*
X71607366Y-34547713D01*
X71522859Y-34632219D01*
X71413371Y-34796079D01*
X71413366Y-34796089D01*
X71360037Y-34924836D01*
X71339060Y-34975482D01*
X71339058Y-34975487D01*
X71337949Y-34978162D01*
X71299500Y-35171456D01*
X71299500Y-37165500D01*
X71279815Y-37232539D01*
X71227011Y-37278294D01*
X71175500Y-37289500D01*
X70899999Y-37289500D01*
X70899980Y-37289501D01*
X70797203Y-37300000D01*
X70797200Y-37300001D01*
X70630668Y-37355185D01*
X70630663Y-37355187D01*
X70481342Y-37447289D01*
X70357289Y-37571342D01*
X70265187Y-37720663D01*
X70265185Y-37720668D01*
X70242316Y-37789682D01*
X70210001Y-37887203D01*
X70210001Y-37887204D01*
X70210000Y-37887204D01*
X70199500Y-37989983D01*
X58630540Y-37989983D01*
X58447933Y-37807376D01*
X58447926Y-37807370D01*
X58229483Y-37639754D01*
X58229482Y-37639753D01*
X58229479Y-37639751D01*
X58110995Y-37571344D01*
X57991028Y-37502080D01*
X57991017Y-37502075D01*
X57736630Y-37396704D01*
X57572723Y-37352786D01*
X57470666Y-37325440D01*
X57470660Y-37325439D01*
X57470655Y-37325438D01*
X57197684Y-37289501D01*
X57197679Y-37289500D01*
X57197674Y-37289500D01*
X56922326Y-37289500D01*
X56922320Y-37289500D01*
X56922315Y-37289501D01*
X56649344Y-37325438D01*
X56649337Y-37325439D01*
X56649334Y-37325440D01*
X56649327Y-37325442D01*
X56550126Y-37352022D01*
X56480277Y-37350359D01*
X56422414Y-37311196D01*
X56394911Y-37246967D01*
X56406498Y-37178065D01*
X56430349Y-37144570D01*
X57957140Y-35617781D01*
X58066632Y-35453914D01*
X58142052Y-35271835D01*
X58180501Y-35078540D01*
X58180501Y-34881459D01*
X58180501Y-34876349D01*
X58180500Y-34876323D01*
X58180500Y-33945189D01*
X58200185Y-33878150D01*
X58216819Y-33857508D01*
X58256299Y-33818028D01*
X58324517Y-33749810D01*
X58463343Y-33558733D01*
X58570568Y-33348292D01*
X58643553Y-33123668D01*
X58661865Y-33008052D01*
X58680500Y-32890397D01*
X58680500Y-32654202D01*
X58643553Y-32420931D01*
X58570566Y-32196303D01*
X58481190Y-32020894D01*
X58463343Y-31985867D01*
X58324517Y-31794790D01*
X58234408Y-31704681D01*
X58200923Y-31643358D01*
X58205907Y-31573666D01*
X58247779Y-31517733D01*
X58313243Y-31493316D01*
X58322089Y-31493000D01*
X65684418Y-31493000D01*
X65751457Y-31512685D01*
X65772099Y-31529319D01*
X66893181Y-32650401D01*
X66926666Y-32711724D01*
X66929500Y-32738082D01*
X66929500Y-32890397D01*
X66966446Y-33123668D01*
X67039433Y-33348296D01*
X67134406Y-33534690D01*
X67146657Y-33558733D01*
X67285483Y-33749810D01*
X67452490Y-33916817D01*
X67643567Y-34055643D01*
X67742991Y-34106302D01*
X67854003Y-34162866D01*
X67854005Y-34162866D01*
X67854008Y-34162868D01*
X67962416Y-34198092D01*
X68078631Y-34235853D01*
X68311903Y-34272800D01*
X68311908Y-34272800D01*
X68548097Y-34272800D01*
X68781368Y-34235853D01*
X68792352Y-34232284D01*
X69005992Y-34162868D01*
X69216433Y-34055643D01*
X69407510Y-33916817D01*
X69574517Y-33749810D01*
X69713343Y-33558733D01*
X69820568Y-33348292D01*
X69893553Y-33123668D01*
X69911865Y-33008052D01*
X69930500Y-32890397D01*
X69930500Y-32654202D01*
X69893553Y-32420931D01*
X69820566Y-32196303D01*
X69731190Y-32020894D01*
X69713343Y-31985867D01*
X69574517Y-31794790D01*
X69407510Y-31627783D01*
X69216433Y-31488957D01*
X69211275Y-31486329D01*
X69005996Y-31381733D01*
X68781368Y-31308746D01*
X68548097Y-31271800D01*
X68548092Y-31271800D01*
X68395782Y-31271800D01*
X68328743Y-31252115D01*
X68308101Y-31235481D01*
X66931679Y-29859059D01*
X66931659Y-29859037D01*
X66787985Y-29715363D01*
X66787981Y-29715360D01*
X66624120Y-29605871D01*
X66624111Y-29605866D01*
X66551515Y-29575796D01*
X66495365Y-29552538D01*
X66442036Y-29530449D01*
X66442032Y-29530448D01*
X66442028Y-29530446D01*
X66345388Y-29511224D01*
X66248744Y-29492000D01*
X66248741Y-29492000D01*
X58158030Y-29492000D01*
X58090991Y-29472315D01*
X58045236Y-29419511D01*
X58035292Y-29350353D01*
X58064317Y-29286797D01*
X58119026Y-29250294D01*
X58134338Y-29245220D01*
X58249334Y-29207114D01*
X58398656Y-29115012D01*
X58522712Y-28990956D01*
X58614814Y-28841634D01*
X58614815Y-28841631D01*
X58618605Y-28835487D01*
X58620399Y-28836593D01*
X58659687Y-28791963D01*
X58725908Y-28772800D01*
X66884092Y-28772800D01*
X66951131Y-28792485D01*
X66989636Y-28836571D01*
X66991395Y-28835487D01*
X66995185Y-28841631D01*
X66995186Y-28841634D01*
X67087288Y-28990956D01*
X67211344Y-29115012D01*
X67360666Y-29207114D01*
X67527203Y-29262299D01*
X67629991Y-29272800D01*
X69230008Y-29272799D01*
X69332797Y-29262299D01*
X69499334Y-29207114D01*
X69648656Y-29115012D01*
X69772712Y-28990956D01*
X69864814Y-28841634D01*
X69919999Y-28675097D01*
X69930500Y-28572309D01*
X69930499Y-27738080D01*
X69950183Y-27671042D01*
X69966813Y-27650405D01*
X71367996Y-26249223D01*
X83999500Y-26249223D01*
X83999500Y-26550776D01*
X83999501Y-26550793D01*
X84038861Y-26849766D01*
X84116913Y-27141060D01*
X84232314Y-27419661D01*
X84232318Y-27419671D01*
X84383099Y-27680831D01*
X84566679Y-27920078D01*
X84566685Y-27920085D01*
X84779914Y-28133314D01*
X84779921Y-28133320D01*
X85019168Y-28316900D01*
X85280328Y-28467681D01*
X85280329Y-28467681D01*
X85280332Y-28467683D01*
X85453035Y-28539219D01*
X85558939Y-28583086D01*
X85558940Y-28583086D01*
X85558942Y-28583087D01*
X85850232Y-28661138D01*
X86149217Y-28700500D01*
X86149224Y-28700500D01*
X86450776Y-28700500D01*
X86450783Y-28700500D01*
X86749768Y-28661138D01*
X87041058Y-28583087D01*
X87319668Y-28467683D01*
X87580832Y-28316900D01*
X87820080Y-28133319D01*
X88033319Y-27920080D01*
X88216900Y-27680832D01*
X88367683Y-27419668D01*
X88483087Y-27141058D01*
X88561138Y-26849768D01*
X88600500Y-26550783D01*
X88600500Y-26249217D01*
X88561138Y-25950232D01*
X88483087Y-25658942D01*
X88469963Y-25627259D01*
X88401601Y-25462218D01*
X88367683Y-25380332D01*
X88347677Y-25345681D01*
X88216900Y-25119168D01*
X88033320Y-24879921D01*
X88033314Y-24879914D01*
X87820085Y-24666685D01*
X87820078Y-24666679D01*
X87580831Y-24483099D01*
X87319671Y-24332318D01*
X87319661Y-24332314D01*
X87041060Y-24216913D01*
X86749766Y-24138861D01*
X86450793Y-24099501D01*
X86450788Y-24099500D01*
X86450783Y-24099500D01*
X86149217Y-24099500D01*
X86149211Y-24099500D01*
X86149206Y-24099501D01*
X85850233Y-24138861D01*
X85558939Y-24216913D01*
X85280338Y-24332314D01*
X85280328Y-24332318D01*
X85019168Y-24483099D01*
X84779921Y-24666679D01*
X84779914Y-24666685D01*
X84566685Y-24879914D01*
X84566679Y-24879921D01*
X84383099Y-25119168D01*
X84232318Y-25380328D01*
X84232314Y-25380338D01*
X84116913Y-25658939D01*
X84038861Y-25950233D01*
X83999501Y-26249206D01*
X83999500Y-26249223D01*
X71367996Y-26249223D01*
X74550402Y-23066819D01*
X74611725Y-23033334D01*
X74638083Y-23030500D01*
X92355501Y-23030500D01*
X92422540Y-23050185D01*
X92468295Y-23102989D01*
X92479501Y-23154500D01*
X92479501Y-23347876D01*
X92485908Y-23407483D01*
X92536202Y-23542328D01*
X92536206Y-23542335D01*
X92622452Y-23657544D01*
X92622455Y-23657547D01*
X92737664Y-23743793D01*
X92737671Y-23743797D01*
X92872517Y-23794091D01*
X92872516Y-23794091D01*
X92879444Y-23794835D01*
X92932127Y-23800500D01*
X95567872Y-23800499D01*
X95627483Y-23794091D01*
X95762331Y-23743796D01*
X95877546Y-23657546D01*
X95963796Y-23542331D01*
X96014091Y-23407483D01*
X96020500Y-23347873D01*
X96020499Y-20712128D01*
X96014091Y-20652517D01*
X95990294Y-20588715D01*
X95963797Y-20517671D01*
X95963793Y-20517664D01*
X95877547Y-20402455D01*
X95877544Y-20402452D01*
X95762335Y-20316206D01*
X95762328Y-20316202D01*
X95627482Y-20265908D01*
X95627483Y-20265908D01*
X95567883Y-20259501D01*
X95567881Y-20259500D01*
X95567873Y-20259500D01*
X95567864Y-20259500D01*
X92932129Y-20259500D01*
X92932123Y-20259501D01*
X92872516Y-20265908D01*
X92737671Y-20316202D01*
X92737664Y-20316206D01*
X92622455Y-20402452D01*
X92622452Y-20402455D01*
X92536206Y-20517664D01*
X92536202Y-20517671D01*
X92485908Y-20652517D01*
X92481232Y-20696015D01*
X92479501Y-20712123D01*
X92479500Y-20712135D01*
X92479500Y-20905500D01*
X92459815Y-20972539D01*
X92407011Y-21018294D01*
X92355500Y-21029500D01*
X74276975Y-21029500D01*
X74276955Y-21029499D01*
X74270841Y-21029499D01*
X74073760Y-21029499D01*
X74073757Y-21029499D01*
X73880472Y-21067946D01*
X73880464Y-21067948D01*
X73698388Y-21143366D01*
X73698379Y-21143371D01*
X73534519Y-21252859D01*
X73534515Y-21252862D01*
X68551897Y-26235481D01*
X68490574Y-26268966D01*
X68464216Y-26271800D01*
X67629998Y-26271800D01*
X67629980Y-26271801D01*
X67527203Y-26282300D01*
X67527200Y-26282301D01*
X67360668Y-26337485D01*
X67360663Y-26337487D01*
X67211342Y-26429589D01*
X67087289Y-26553642D01*
X67087288Y-26553644D01*
X67014691Y-26671344D01*
X66991395Y-26709113D01*
X66989600Y-26708006D01*
X66950313Y-26752637D01*
X66884092Y-26771800D01*
X58725908Y-26771800D01*
X58658869Y-26752115D01*
X58620363Y-26708028D01*
X58618605Y-26709113D01*
X58612093Y-26698555D01*
X58522712Y-26553644D01*
X58398656Y-26429588D01*
X58265104Y-26347213D01*
X58249336Y-26337487D01*
X58249331Y-26337485D01*
X58196806Y-26320080D01*
X58082797Y-26282301D01*
X58082795Y-26282300D01*
X57980010Y-26271800D01*
X56379998Y-26271800D01*
X56379981Y-26271801D01*
X56277203Y-26282300D01*
X56277200Y-26282301D01*
X56110668Y-26337485D01*
X56110663Y-26337487D01*
X55961342Y-26429589D01*
X55837289Y-26553642D01*
X55745187Y-26702963D01*
X55745185Y-26702968D01*
X55724733Y-26764690D01*
X55690001Y-26869503D01*
X55690001Y-26869504D01*
X55690000Y-26869504D01*
X55679500Y-26972283D01*
X55679500Y-27926918D01*
X55659815Y-27993957D01*
X55607011Y-28039712D01*
X55537853Y-28049656D01*
X55474297Y-28020631D01*
X55467819Y-28014599D01*
X50076371Y-22623151D01*
X50042886Y-22561828D01*
X50047870Y-22492136D01*
X50064785Y-22461159D01*
X50071429Y-22452284D01*
X50123796Y-22382331D01*
X50174091Y-22247483D01*
X50180500Y-22187873D01*
X50180500Y-21913947D01*
X51839500Y-21913947D01*
X51839500Y-22146052D01*
X51854790Y-22262185D01*
X51869794Y-22376149D01*
X51890194Y-22452284D01*
X51929862Y-22600328D01*
X52018677Y-22814745D01*
X52018685Y-22814762D01*
X52134720Y-23015743D01*
X52134721Y-23015745D01*
X52276009Y-23199875D01*
X52276015Y-23199882D01*
X52440117Y-23363984D01*
X52440124Y-23363990D01*
X52624254Y-23505278D01*
X52624256Y-23505279D01*
X52825237Y-23621314D01*
X52825240Y-23621315D01*
X52825248Y-23621320D01*
X53039670Y-23710137D01*
X53263851Y-23770206D01*
X53482318Y-23798968D01*
X53493939Y-23800498D01*
X53493955Y-23800500D01*
X53493962Y-23800500D01*
X53726038Y-23800500D01*
X53726045Y-23800500D01*
X53956149Y-23770206D01*
X54180330Y-23710137D01*
X54394752Y-23621320D01*
X54595748Y-23505276D01*
X54779877Y-23363989D01*
X54943989Y-23199877D01*
X55085276Y-23015748D01*
X55201320Y-22814752D01*
X55290137Y-22600330D01*
X55350206Y-22376149D01*
X55380500Y-22146045D01*
X55380500Y-21913955D01*
X55350206Y-21683851D01*
X55290137Y-21459670D01*
X55201320Y-21245248D01*
X55201314Y-21245237D01*
X55085279Y-21044256D01*
X55085278Y-21044254D01*
X54943990Y-20860124D01*
X54943984Y-20860117D01*
X54779882Y-20696015D01*
X54779875Y-20696009D01*
X54595745Y-20554721D01*
X54595743Y-20554720D01*
X54394762Y-20438685D01*
X54394754Y-20438681D01*
X54394752Y-20438680D01*
X54394745Y-20438677D01*
X54180328Y-20349862D01*
X53985546Y-20297671D01*
X53956149Y-20289794D01*
X53927386Y-20286007D01*
X53726052Y-20259500D01*
X53726045Y-20259500D01*
X53493955Y-20259500D01*
X53493947Y-20259500D01*
X53263851Y-20289794D01*
X53039671Y-20349862D01*
X52825254Y-20438677D01*
X52825237Y-20438685D01*
X52624256Y-20554720D01*
X52624254Y-20554721D01*
X52440124Y-20696009D01*
X52440117Y-20696015D01*
X52276015Y-20860117D01*
X52276009Y-20860124D01*
X52134721Y-21044254D01*
X52134720Y-21044256D01*
X52018685Y-21245237D01*
X52018677Y-21245254D01*
X51929862Y-21459671D01*
X51869794Y-21683851D01*
X51839500Y-21913947D01*
X50180500Y-21913947D01*
X50180499Y-21261908D01*
X50180499Y-20492129D01*
X50180498Y-20492123D01*
X50180497Y-20492116D01*
X50174091Y-20432517D01*
X50162878Y-20402454D01*
X50123797Y-20297671D01*
X50123793Y-20297664D01*
X50037547Y-20182455D01*
X50037544Y-20182452D01*
X49922335Y-20096206D01*
X49922328Y-20096202D01*
X49787482Y-20045908D01*
X49787483Y-20045908D01*
X49750560Y-20041939D01*
X49686009Y-20015201D01*
X49646160Y-19957809D01*
X49643667Y-19887984D01*
X49679319Y-19827895D01*
X49690930Y-19818331D01*
X49727219Y-19791966D01*
X49871966Y-19647219D01*
X49871968Y-19647215D01*
X49871971Y-19647213D01*
X49958524Y-19528081D01*
X49992287Y-19481610D01*
X50085220Y-19299219D01*
X50148477Y-19104534D01*
X50180500Y-18902352D01*
X50180500Y-18697648D01*
X50148477Y-18495465D01*
X50085218Y-18300776D01*
X50051503Y-18234607D01*
X49992287Y-18118390D01*
X49944088Y-18052049D01*
X49871971Y-17952786D01*
X49727213Y-17808028D01*
X49561614Y-17687715D01*
X49527470Y-17670318D01*
X49468917Y-17640483D01*
X49418123Y-17592511D01*
X49401328Y-17524690D01*
X49423865Y-17458555D01*
X49468917Y-17419516D01*
X49561610Y-17372287D01*
X49644922Y-17311758D01*
X49727213Y-17251971D01*
X49727215Y-17251968D01*
X49727219Y-17251966D01*
X49871966Y-17107219D01*
X49871968Y-17107215D01*
X49871971Y-17107213D01*
X49942830Y-17009682D01*
X49992287Y-16941610D01*
X50085220Y-16759219D01*
X50148477Y-16564534D01*
X50180500Y-16362352D01*
X50180500Y-16157648D01*
X50148477Y-15955466D01*
X50146256Y-15948632D01*
X50085218Y-15760776D01*
X50051503Y-15694607D01*
X49992287Y-15578390D01*
X49944088Y-15512049D01*
X49871971Y-15412786D01*
X49727213Y-15268028D01*
X49561614Y-15147715D01*
X49501136Y-15116900D01*
X49468917Y-15100483D01*
X49418123Y-15052511D01*
X49401328Y-14984690D01*
X49423865Y-14918555D01*
X49468917Y-14879516D01*
X49561610Y-14832287D01*
X49644922Y-14771758D01*
X49727213Y-14711971D01*
X49727215Y-14711968D01*
X49727219Y-14711966D01*
X49871966Y-14567219D01*
X49871968Y-14567215D01*
X49871971Y-14567213D01*
X49942830Y-14469682D01*
X49992287Y-14401610D01*
X50085220Y-14219219D01*
X50148477Y-14024534D01*
X50180500Y-13822352D01*
X50180500Y-13617648D01*
X50148477Y-13415466D01*
X50146256Y-13408632D01*
X50085218Y-13220776D01*
X50043637Y-13139171D01*
X49997807Y-13049223D01*
X89299500Y-13049223D01*
X89299500Y-13350776D01*
X89299501Y-13350793D01*
X89338861Y-13649766D01*
X89416913Y-13941060D01*
X89532314Y-14219661D01*
X89532318Y-14219671D01*
X89683099Y-14480831D01*
X89866679Y-14720078D01*
X89866685Y-14720085D01*
X90079914Y-14933314D01*
X90079921Y-14933320D01*
X90319168Y-15116900D01*
X90580328Y-15267681D01*
X90580329Y-15267681D01*
X90580332Y-15267683D01*
X90664132Y-15302394D01*
X90858939Y-15383086D01*
X90858940Y-15383086D01*
X90858942Y-15383087D01*
X91150232Y-15461138D01*
X91449217Y-15500500D01*
X91449224Y-15500500D01*
X91750776Y-15500500D01*
X91750783Y-15500500D01*
X92049768Y-15461138D01*
X92341058Y-15383087D01*
X92619668Y-15267683D01*
X92880832Y-15116900D01*
X93120080Y-14933319D01*
X93333319Y-14720080D01*
X93516900Y-14480832D01*
X93667683Y-14219668D01*
X93783087Y-13941058D01*
X93861138Y-13649768D01*
X93900500Y-13350783D01*
X93900500Y-13049217D01*
X93861138Y-12750232D01*
X93783087Y-12458942D01*
X93777317Y-12445013D01*
X93688984Y-12231758D01*
X93667683Y-12180332D01*
X93645581Y-12142051D01*
X93516900Y-11919168D01*
X93333320Y-11679921D01*
X93333314Y-11679914D01*
X93120085Y-11466685D01*
X93120078Y-11466679D01*
X92880831Y-11283099D01*
X92619671Y-11132318D01*
X92619661Y-11132314D01*
X92341060Y-11016913D01*
X92049766Y-10938861D01*
X91750793Y-10899501D01*
X91750788Y-10899500D01*
X91750783Y-10899500D01*
X91449217Y-10899500D01*
X91449211Y-10899500D01*
X91449206Y-10899501D01*
X91150233Y-10938861D01*
X90858939Y-11016913D01*
X90580338Y-11132314D01*
X90580328Y-11132318D01*
X90319168Y-11283099D01*
X90079921Y-11466679D01*
X90079914Y-11466685D01*
X89866685Y-11679914D01*
X89866679Y-11679921D01*
X89683099Y-11919168D01*
X89532318Y-12180328D01*
X89532314Y-12180338D01*
X89416913Y-12458939D01*
X89338861Y-12750233D01*
X89299501Y-13049206D01*
X89299500Y-13049223D01*
X49997807Y-13049223D01*
X49992287Y-13038390D01*
X49992285Y-13038387D01*
X49992284Y-13038385D01*
X49871971Y-12872786D01*
X49727213Y-12728028D01*
X49561614Y-12607715D01*
X49527470Y-12590318D01*
X49468917Y-12560483D01*
X49418123Y-12512511D01*
X49401328Y-12444690D01*
X49423865Y-12378555D01*
X49468917Y-12339516D01*
X49561610Y-12292287D01*
X49644922Y-12231758D01*
X49727213Y-12171971D01*
X49727215Y-12171968D01*
X49727219Y-12171966D01*
X49871966Y-12027219D01*
X49871968Y-12027215D01*
X49871971Y-12027213D01*
X49961121Y-11904506D01*
X49992287Y-11861610D01*
X50085220Y-11679219D01*
X50148477Y-11484534D01*
X50180500Y-11282352D01*
X50180500Y-11077648D01*
X50157482Y-10932318D01*
X50148477Y-10875465D01*
X50110059Y-10757228D01*
X50085220Y-10680781D01*
X50085218Y-10680778D01*
X50085218Y-10680776D01*
X50025686Y-10563940D01*
X49992287Y-10498390D01*
X49944088Y-10432049D01*
X49871971Y-10332786D01*
X49727213Y-10188028D01*
X49561614Y-10067715D01*
X49527470Y-10050318D01*
X49468917Y-10020483D01*
X49418123Y-9972511D01*
X49401328Y-9904690D01*
X49423865Y-9838555D01*
X49468917Y-9799516D01*
X49561610Y-9752287D01*
X49644922Y-9691758D01*
X49727213Y-9631971D01*
X49727215Y-9631968D01*
X49727219Y-9631966D01*
X49871966Y-9487219D01*
X49871968Y-9487215D01*
X49871971Y-9487213D01*
X49942830Y-9389682D01*
X49992287Y-9321610D01*
X50085220Y-9139219D01*
X50148477Y-8944534D01*
X50180500Y-8742352D01*
X50180500Y-8537648D01*
X50150489Y-8348170D01*
X50148477Y-8335465D01*
X50085218Y-8140776D01*
X50051503Y-8074607D01*
X49992287Y-7958390D01*
X49944088Y-7892049D01*
X49871971Y-7792786D01*
X49727213Y-7648028D01*
X49561614Y-7527715D01*
X49492406Y-7492452D01*
X49468917Y-7480483D01*
X49418123Y-7432511D01*
X49401328Y-7364690D01*
X49423865Y-7298555D01*
X49468917Y-7259516D01*
X49561610Y-7212287D01*
X49644922Y-7151758D01*
X49727213Y-7091971D01*
X49727215Y-7091968D01*
X49727219Y-7091966D01*
X49871966Y-6947219D01*
X49871968Y-6947215D01*
X49871971Y-6947213D01*
X49942830Y-6849682D01*
X49992287Y-6781610D01*
X50085220Y-6599219D01*
X50148477Y-6404534D01*
X50180500Y-6202352D01*
X50180500Y-5997648D01*
X50148477Y-5795466D01*
X50146295Y-5788752D01*
X50103242Y-5656248D01*
X50085220Y-5600781D01*
X50085218Y-5600778D01*
X50085218Y-5600776D01*
X50051503Y-5534607D01*
X49992287Y-5418390D01*
X49945382Y-5353830D01*
X49871971Y-5252786D01*
X49727213Y-5108028D01*
X49561614Y-4987715D01*
X49555006Y-4984348D01*
X49468917Y-4940483D01*
X49418123Y-4892511D01*
X49401328Y-4824690D01*
X49423865Y-4758555D01*
X49468917Y-4719516D01*
X49561610Y-4672287D01*
X49592352Y-4649952D01*
X49727213Y-4551971D01*
X49727215Y-4551968D01*
X49727219Y-4551966D01*
X49871966Y-4407219D01*
X49871968Y-4407215D01*
X49871971Y-4407213D01*
X49992284Y-4241614D01*
X49992285Y-4241613D01*
X49992287Y-4241610D01*
X50047120Y-4133994D01*
X51840000Y-4133994D01*
X51840000Y-4366005D01*
X51840001Y-4366022D01*
X51870283Y-4596040D01*
X51870286Y-4596053D01*
X51930336Y-4820167D01*
X52019124Y-5034521D01*
X52019132Y-5034538D01*
X52135136Y-5235461D01*
X52135142Y-5235469D01*
X52194117Y-5312327D01*
X53127037Y-4379408D01*
X53144075Y-4442993D01*
X53209901Y-4557007D01*
X53302993Y-4650099D01*
X53417007Y-4715925D01*
X53480591Y-4732962D01*
X52547671Y-5665881D01*
X52624530Y-5724857D01*
X52624538Y-5724863D01*
X52825461Y-5840867D01*
X52825478Y-5840875D01*
X53039832Y-5929663D01*
X53263946Y-5989713D01*
X53263959Y-5989716D01*
X53493977Y-6019998D01*
X53493995Y-6020000D01*
X53726005Y-6020000D01*
X53726022Y-6019998D01*
X53956040Y-5989716D01*
X53956053Y-5989713D01*
X54180167Y-5929663D01*
X54394521Y-5840875D01*
X54394538Y-5840867D01*
X54595475Y-5724855D01*
X54672327Y-5665883D01*
X54672327Y-5665880D01*
X53739408Y-4732962D01*
X53802993Y-4715925D01*
X53917007Y-4650099D01*
X54010099Y-4557007D01*
X54075925Y-4442993D01*
X54092962Y-4379409D01*
X55025880Y-5312327D01*
X55025883Y-5312327D01*
X55084855Y-5235475D01*
X55200867Y-5034538D01*
X55200875Y-5034521D01*
X55289663Y-4820167D01*
X55349713Y-4596053D01*
X55349716Y-4596040D01*
X55379998Y-4366022D01*
X55380000Y-4366005D01*
X55380000Y-4133994D01*
X92480000Y-4133994D01*
X92480000Y-4366005D01*
X92480001Y-4366022D01*
X92510283Y-4596040D01*
X92510286Y-4596053D01*
X92570336Y-4820167D01*
X92659124Y-5034521D01*
X92659132Y-5034538D01*
X92775136Y-5235461D01*
X92775142Y-5235469D01*
X92834117Y-5312327D01*
X93767037Y-4379408D01*
X93784075Y-4442993D01*
X93849901Y-4557007D01*
X93942993Y-4650099D01*
X94057007Y-4715925D01*
X94120591Y-4732962D01*
X93187671Y-5665881D01*
X93264530Y-5724857D01*
X93264538Y-5724863D01*
X93465461Y-5840867D01*
X93465478Y-5840875D01*
X93679832Y-5929663D01*
X93903946Y-5989713D01*
X93903959Y-5989716D01*
X94133977Y-6019998D01*
X94133995Y-6020000D01*
X94366005Y-6020000D01*
X94366022Y-6019998D01*
X94596040Y-5989716D01*
X94596053Y-5989713D01*
X94820167Y-5929663D01*
X95034521Y-5840875D01*
X95034538Y-5840867D01*
X95235475Y-5724855D01*
X95312327Y-5665883D01*
X95312327Y-5665880D01*
X94379408Y-4732962D01*
X94442993Y-4715925D01*
X94557007Y-4650099D01*
X94650099Y-4557007D01*
X94715925Y-4442993D01*
X94732962Y-4379409D01*
X95665880Y-5312327D01*
X95665883Y-5312327D01*
X95724855Y-5235475D01*
X95840867Y-5034538D01*
X95840875Y-5034521D01*
X95929663Y-4820167D01*
X95989713Y-4596053D01*
X95989716Y-4596040D01*
X96019998Y-4366022D01*
X96020000Y-4366005D01*
X96020000Y-4133994D01*
X96019998Y-4133977D01*
X95989716Y-3903959D01*
X95989713Y-3903946D01*
X95929663Y-3679832D01*
X95840875Y-3465478D01*
X95840867Y-3465461D01*
X95724863Y-3264538D01*
X95724857Y-3264530D01*
X95665881Y-3187671D01*
X94732962Y-4120590D01*
X94715925Y-4057007D01*
X94650099Y-3942993D01*
X94557007Y-3849901D01*
X94442993Y-3784075D01*
X94379409Y-3767037D01*
X95312327Y-2834117D01*
X95235469Y-2775142D01*
X95235461Y-2775136D01*
X95034538Y-2659132D01*
X95034521Y-2659124D01*
X94820167Y-2570336D01*
X94596053Y-2510286D01*
X94596040Y-2510283D01*
X94366022Y-2480001D01*
X94366005Y-2480000D01*
X94133995Y-2480000D01*
X94133977Y-2480001D01*
X93903959Y-2510283D01*
X93903946Y-2510286D01*
X93679832Y-2570336D01*
X93465478Y-2659124D01*
X93465461Y-2659132D01*
X93264541Y-2775134D01*
X93264533Y-2775140D01*
X93187671Y-2834116D01*
X93187671Y-2834117D01*
X94120591Y-3767037D01*
X94057007Y-3784075D01*
X93942993Y-3849901D01*
X93849901Y-3942993D01*
X93784075Y-4057007D01*
X93767037Y-4120590D01*
X92834117Y-3187671D01*
X92834116Y-3187671D01*
X92775140Y-3264533D01*
X92775134Y-3264541D01*
X92659132Y-3465461D01*
X92659124Y-3465478D01*
X92570336Y-3679832D01*
X92510286Y-3903946D01*
X92510283Y-3903959D01*
X92480001Y-4133977D01*
X92480000Y-4133994D01*
X55380000Y-4133994D01*
X55379998Y-4133977D01*
X55349716Y-3903959D01*
X55349713Y-3903946D01*
X55289663Y-3679832D01*
X55200875Y-3465478D01*
X55200867Y-3465461D01*
X55084863Y-3264538D01*
X55084857Y-3264530D01*
X55025881Y-3187671D01*
X54092962Y-4120590D01*
X54075925Y-4057007D01*
X54010099Y-3942993D01*
X53917007Y-3849901D01*
X53802993Y-3784075D01*
X53739409Y-3767037D01*
X54672327Y-2834117D01*
X54595469Y-2775142D01*
X54595461Y-2775136D01*
X54394538Y-2659132D01*
X54394521Y-2659124D01*
X54180167Y-2570336D01*
X53956053Y-2510286D01*
X53956040Y-2510283D01*
X53726022Y-2480001D01*
X53726005Y-2480000D01*
X53493995Y-2480000D01*
X53493977Y-2480001D01*
X53263959Y-2510283D01*
X53263946Y-2510286D01*
X53039832Y-2570336D01*
X52825478Y-2659124D01*
X52825461Y-2659132D01*
X52624541Y-2775134D01*
X52624533Y-2775140D01*
X52547671Y-2834116D01*
X52547671Y-2834117D01*
X53480591Y-3767037D01*
X53417007Y-3784075D01*
X53302993Y-3849901D01*
X53209901Y-3942993D01*
X53144075Y-4057007D01*
X53127037Y-4120591D01*
X52194117Y-3187671D01*
X52194116Y-3187671D01*
X52135140Y-3264533D01*
X52135134Y-3264541D01*
X52019132Y-3465461D01*
X52019124Y-3465478D01*
X51930336Y-3679832D01*
X51870286Y-3903946D01*
X51870283Y-3903959D01*
X51840001Y-4133977D01*
X51840000Y-4133994D01*
X50047120Y-4133994D01*
X50085220Y-4059219D01*
X50148477Y-3864534D01*
X50180500Y-3662352D01*
X50180500Y-3457648D01*
X50167906Y-3378131D01*
X50148477Y-3255465D01*
X50085218Y-3060776D01*
X50022846Y-2938365D01*
X50018396Y-2929632D01*
X49992287Y-2878390D01*
X49960121Y-2834117D01*
X49871971Y-2712786D01*
X49727213Y-2568028D01*
X49561613Y-2447715D01*
X49561612Y-2447714D01*
X49561610Y-2447713D01*
X49504653Y-2418691D01*
X49379223Y-2354781D01*
X49184534Y-2291522D01*
X49009995Y-2263878D01*
X48982352Y-2259500D01*
X48777648Y-2259500D01*
X48753329Y-2263351D01*
X48575465Y-2291522D01*
X48380776Y-2354781D01*
X48198386Y-2447715D01*
X48032786Y-2568028D01*
X47888028Y-2712786D01*
X47767715Y-2878386D01*
X47674781Y-3060776D01*
X47611522Y-3255465D01*
X47579500Y-3457648D01*
X47579500Y-3662351D01*
X47611522Y-3864534D01*
X47674781Y-4059223D01*
X47734279Y-4175992D01*
X47753805Y-4214315D01*
X47767715Y-4241613D01*
X47888028Y-4407213D01*
X48032786Y-4551971D01*
X48174555Y-4654970D01*
X48198390Y-4672287D01*
X48267464Y-4707482D01*
X48291080Y-4719515D01*
X48341876Y-4767490D01*
X48358671Y-4835311D01*
X48336134Y-4901446D01*
X48291080Y-4940485D01*
X48198386Y-4987715D01*
X48032786Y-5108028D01*
X47888028Y-5252786D01*
X47767715Y-5418386D01*
X47674781Y-5600776D01*
X47611522Y-5795465D01*
X47579500Y-5997648D01*
X47579500Y-6202351D01*
X47611522Y-6404534D01*
X47674781Y-6599223D01*
X47767715Y-6781613D01*
X47888028Y-6947213D01*
X48032786Y-7091971D01*
X48153262Y-7179500D01*
X48198390Y-7212287D01*
X48289840Y-7258883D01*
X48291080Y-7259515D01*
X48341876Y-7307490D01*
X48358671Y-7375311D01*
X48336134Y-7441446D01*
X48291080Y-7480485D01*
X48198386Y-7527715D01*
X48077123Y-7615818D01*
X48011317Y-7639298D01*
X48004238Y-7639500D01*
X47279757Y-7639500D01*
X47086470Y-7677947D01*
X47086460Y-7677950D01*
X46904392Y-7753364D01*
X46904379Y-7753371D01*
X46740518Y-7862860D01*
X46740514Y-7862863D01*
X46601163Y-8002214D01*
X46601160Y-8002218D01*
X46491671Y-8166079D01*
X46491664Y-8166092D01*
X46416250Y-8348160D01*
X46416247Y-8348170D01*
X46377800Y-8541456D01*
X46377800Y-8541459D01*
X46377800Y-8738541D01*
X46377800Y-8738543D01*
X46377799Y-8738543D01*
X46416247Y-8931829D01*
X46416250Y-8931839D01*
X46491664Y-9113907D01*
X46491671Y-9113920D01*
X46601160Y-9277781D01*
X46601163Y-9277785D01*
X46740514Y-9417136D01*
X46740518Y-9417139D01*
X46904379Y-9526628D01*
X46904392Y-9526635D01*
X47086460Y-9602049D01*
X47086465Y-9602051D01*
X47086469Y-9602051D01*
X47086470Y-9602052D01*
X47279756Y-9640500D01*
X47279759Y-9640500D01*
X48004238Y-9640500D01*
X48071277Y-9660185D01*
X48077119Y-9664179D01*
X48198390Y-9752287D01*
X48289840Y-9798883D01*
X48291080Y-9799515D01*
X48341876Y-9847490D01*
X48358671Y-9915311D01*
X48336134Y-9981446D01*
X48291080Y-10020485D01*
X48198386Y-10067715D01*
X48077123Y-10155818D01*
X48011317Y-10179298D01*
X48004238Y-10179500D01*
X46733182Y-10179500D01*
X46666143Y-10159815D01*
X46645501Y-10143181D01*
X46190584Y-9688263D01*
X46190580Y-9688260D01*
X46026720Y-9578772D01*
X46026710Y-9578767D01*
X45844636Y-9503349D01*
X45844628Y-9503347D01*
X45651343Y-9464900D01*
X45651340Y-9464900D01*
X45454260Y-9464900D01*
X45454257Y-9464900D01*
X45260971Y-9503347D01*
X45260963Y-9503349D01*
X45078889Y-9578767D01*
X45078879Y-9578772D01*
X44915019Y-9688260D01*
X44915015Y-9688263D01*
X44775663Y-9827615D01*
X44775660Y-9827619D01*
X44666172Y-9991479D01*
X44666167Y-9991489D01*
X44590749Y-10173563D01*
X44590747Y-10173571D01*
X44552300Y-10366855D01*
X44552300Y-10563944D01*
X44590747Y-10757228D01*
X44590749Y-10757236D01*
X44666167Y-10939310D01*
X44666172Y-10939320D01*
X44775660Y-11103180D01*
X44775663Y-11103184D01*
X45487135Y-11814655D01*
X45487164Y-11814686D01*
X45629614Y-11957136D01*
X45629618Y-11957139D01*
X45793482Y-12066630D01*
X45793484Y-12066630D01*
X45793486Y-12066632D01*
X45911448Y-12115493D01*
X45975564Y-12142051D01*
X46068313Y-12160500D01*
X46110243Y-12168840D01*
X46168856Y-12180500D01*
X46168859Y-12180500D01*
X46168860Y-12180500D01*
X46365940Y-12180500D01*
X48004238Y-12180500D01*
X48071277Y-12200185D01*
X48077119Y-12204179D01*
X48198390Y-12292287D01*
X48289840Y-12338883D01*
X48291080Y-12339515D01*
X48341876Y-12387490D01*
X48358671Y-12455311D01*
X48336134Y-12521446D01*
X48291080Y-12560485D01*
X48198386Y-12607715D01*
X48077123Y-12695818D01*
X48011317Y-12719298D01*
X48004238Y-12719500D01*
X47279756Y-12719500D01*
X47086471Y-12757947D01*
X47086463Y-12757949D01*
X47027217Y-12782490D01*
X47027216Y-12782490D01*
X46904388Y-12833366D01*
X46771758Y-12921987D01*
X46771757Y-12921988D01*
X46740515Y-12942862D01*
X46740514Y-12942863D01*
X41829899Y-17853481D01*
X41768576Y-17886966D01*
X41742218Y-17889800D01*
X39587357Y-17889800D01*
X39394070Y-17928247D01*
X39394060Y-17928250D01*
X39211992Y-18003664D01*
X39211979Y-18003671D01*
X39048118Y-18113160D01*
X39048114Y-18113163D01*
X38908763Y-18252514D01*
X38908760Y-18252518D01*
X38799271Y-18416379D01*
X38799264Y-18416392D01*
X38723850Y-18598460D01*
X38723847Y-18598470D01*
X38685400Y-18791756D01*
X38685400Y-18791759D01*
X38685400Y-18988841D01*
X38685400Y-18988843D01*
X38685399Y-18988843D01*
X38723847Y-19182129D01*
X38723850Y-19182139D01*
X38799264Y-19364207D01*
X38799271Y-19364220D01*
X38908760Y-19528081D01*
X38908763Y-19528085D01*
X39048114Y-19667436D01*
X39048118Y-19667439D01*
X39211979Y-19776928D01*
X39211992Y-19776935D01*
X39392633Y-19851758D01*
X39394065Y-19852351D01*
X39394069Y-19852351D01*
X39394070Y-19852352D01*
X39587356Y-19890800D01*
X39587359Y-19890800D01*
X42306542Y-19890800D01*
X42325358Y-19887056D01*
X42403188Y-19871575D01*
X42499836Y-19852351D01*
X42583949Y-19817510D01*
X42681914Y-19776932D01*
X42845782Y-19667439D01*
X42985139Y-19528082D01*
X42985139Y-19528080D01*
X42995347Y-19517873D01*
X42995348Y-19517870D01*
X47756402Y-14756819D01*
X47783329Y-14742115D01*
X47809148Y-14725523D01*
X47815348Y-14724631D01*
X47817725Y-14723334D01*
X47844083Y-14720500D01*
X48004238Y-14720500D01*
X48071277Y-14740185D01*
X48077119Y-14744179D01*
X48198390Y-14832287D01*
X48289840Y-14878883D01*
X48291080Y-14879515D01*
X48341876Y-14927490D01*
X48358671Y-14995311D01*
X48336134Y-15061446D01*
X48291080Y-15100485D01*
X48198386Y-15147715D01*
X48032786Y-15268028D01*
X47888028Y-15412786D01*
X47767715Y-15578386D01*
X47674781Y-15760776D01*
X47611522Y-15955465D01*
X47579500Y-16157648D01*
X47579500Y-16362351D01*
X47611522Y-16564534D01*
X47674781Y-16759223D01*
X47767715Y-16941613D01*
X47888028Y-17107213D01*
X48032786Y-17251971D01*
X48144954Y-17333464D01*
X48198390Y-17372287D01*
X48284821Y-17416326D01*
X48291080Y-17419515D01*
X48341876Y-17467490D01*
X48358671Y-17535311D01*
X48336134Y-17601446D01*
X48291080Y-17640485D01*
X48198386Y-17687715D01*
X48077123Y-17775818D01*
X48011317Y-17799298D01*
X48004238Y-17799500D01*
X46823156Y-17799500D01*
X46629871Y-17837947D01*
X46629863Y-17837949D01*
X46574751Y-17860777D01*
X46574743Y-17860780D01*
X46570617Y-17862490D01*
X46447786Y-17913368D01*
X46387795Y-17953453D01*
X46381382Y-17957737D01*
X46381380Y-17957739D01*
X46283915Y-18022862D01*
X46283914Y-18022863D01*
X37303599Y-27003181D01*
X37276671Y-27017884D01*
X37250853Y-27034477D01*
X37244652Y-27035368D01*
X37242276Y-27036666D01*
X37215918Y-27039500D01*
X37055762Y-27039500D01*
X36988723Y-27019815D01*
X36982877Y-27015818D01*
X36943487Y-26987200D01*
X36861610Y-26927713D01*
X36768917Y-26880483D01*
X36718123Y-26832511D01*
X36701328Y-26764690D01*
X36723865Y-26698555D01*
X36768917Y-26659516D01*
X36861610Y-26612287D01*
X36946264Y-26550783D01*
X37027213Y-26491971D01*
X37027215Y-26491968D01*
X37027219Y-26491966D01*
X37171966Y-26347219D01*
X37171968Y-26347215D01*
X37171971Y-26347213D01*
X37228820Y-26268966D01*
X37292287Y-26181610D01*
X37385220Y-25999219D01*
X37448477Y-25804534D01*
X37480500Y-25602352D01*
X37480500Y-25397648D01*
X37468654Y-25322859D01*
X37448477Y-25195465D01*
X37385218Y-25000776D01*
X37351503Y-24934607D01*
X37292287Y-24818390D01*
X37260979Y-24775298D01*
X37171971Y-24652786D01*
X37027213Y-24508028D01*
X36861613Y-24387715D01*
X36861612Y-24387714D01*
X36861610Y-24387713D01*
X36804653Y-24358691D01*
X36679223Y-24294781D01*
X36484534Y-24231522D01*
X36309995Y-24203878D01*
X36282352Y-24199500D01*
X36077648Y-24199500D01*
X36053329Y-24203351D01*
X35875465Y-24231522D01*
X35680776Y-24294781D01*
X35498386Y-24387715D01*
X35332786Y-24508028D01*
X35188028Y-24652786D01*
X35067715Y-24818386D01*
X34974781Y-25000776D01*
X34911522Y-25195465D01*
X34887731Y-25345681D01*
X34879500Y-25397648D01*
X34879500Y-25602352D01*
X34880421Y-25608164D01*
X34911522Y-25804534D01*
X34974781Y-25999223D01*
X35067715Y-26181613D01*
X35188028Y-26347213D01*
X35332786Y-26491971D01*
X35451324Y-26578092D01*
X35498390Y-26612287D01*
X35589840Y-26658883D01*
X35591080Y-26659515D01*
X35641876Y-26707490D01*
X35658671Y-26775311D01*
X35636134Y-26841446D01*
X35591080Y-26880485D01*
X35498386Y-26927715D01*
X35332786Y-27048028D01*
X35188028Y-27192786D01*
X35067715Y-27358386D01*
X34974781Y-27540776D01*
X34911522Y-27735465D01*
X34879500Y-27937648D01*
X34879500Y-28142351D01*
X34911522Y-28344534D01*
X34974781Y-28539223D01*
X35030528Y-28648631D01*
X35051611Y-28690009D01*
X35067715Y-28721613D01*
X35188028Y-28887213D01*
X35332786Y-29031971D01*
X35451324Y-29118092D01*
X35498390Y-29152287D01*
X35589840Y-29198883D01*
X35591080Y-29199515D01*
X35641876Y-29247490D01*
X35658671Y-29315311D01*
X35636134Y-29381446D01*
X35591080Y-29420485D01*
X35498386Y-29467715D01*
X35332786Y-29588028D01*
X35188028Y-29732786D01*
X35067715Y-29898386D01*
X34974781Y-30080776D01*
X34911522Y-30275465D01*
X34879500Y-30477648D01*
X34879500Y-30682351D01*
X34911522Y-30884534D01*
X34974781Y-31079223D01*
X35067715Y-31261613D01*
X35188028Y-31427213D01*
X35332786Y-31571971D01*
X35431044Y-31643358D01*
X35498390Y-31692287D01*
X35589840Y-31738883D01*
X35591080Y-31739515D01*
X35641876Y-31787490D01*
X35658671Y-31855311D01*
X35636134Y-31921446D01*
X35591080Y-31960485D01*
X35498386Y-32007715D01*
X35332786Y-32128028D01*
X35188028Y-32272786D01*
X35067715Y-32438386D01*
X34974781Y-32620776D01*
X34911522Y-32815465D01*
X34879500Y-33017648D01*
X34879500Y-33222351D01*
X34911522Y-33424534D01*
X34974781Y-33619223D01*
X35030528Y-33728631D01*
X35067147Y-33800500D01*
X35067715Y-33801613D01*
X35188028Y-33967213D01*
X35332786Y-34111971D01*
X35451324Y-34198092D01*
X35498390Y-34232287D01*
X35577901Y-34272800D01*
X35591080Y-34279515D01*
X35641876Y-34327490D01*
X35658671Y-34395311D01*
X35636134Y-34461446D01*
X35591080Y-34500485D01*
X35498386Y-34547715D01*
X35332786Y-34668028D01*
X35188028Y-34812786D01*
X35067715Y-34978386D01*
X34974781Y-35160776D01*
X34911522Y-35355465D01*
X34879500Y-35557648D01*
X34879500Y-35762351D01*
X34911522Y-35964534D01*
X34974781Y-36159223D01*
X35019484Y-36246956D01*
X35065257Y-36336790D01*
X35067715Y-36341613D01*
X35188028Y-36507213D01*
X35332786Y-36651971D01*
X35451324Y-36738092D01*
X35498390Y-36772287D01*
X35588168Y-36818031D01*
X35591080Y-36819515D01*
X35641876Y-36867490D01*
X35658671Y-36935311D01*
X35636134Y-37001446D01*
X35591080Y-37040485D01*
X35498386Y-37087715D01*
X35332786Y-37208028D01*
X35188028Y-37352786D01*
X35067715Y-37518386D01*
X34974781Y-37700776D01*
X34911522Y-37895465D01*
X34879500Y-38097648D01*
X34879500Y-38302351D01*
X34911522Y-38504534D01*
X34974781Y-38699223D01*
X35067715Y-38881613D01*
X35188028Y-39047213D01*
X35332786Y-39191971D01*
X35451324Y-39278092D01*
X35498390Y-39312287D01*
X35589840Y-39358883D01*
X35591080Y-39359515D01*
X35641876Y-39407490D01*
X35658671Y-39475311D01*
X35636134Y-39541446D01*
X35591080Y-39580485D01*
X35498386Y-39627715D01*
X35332786Y-39748028D01*
X35188028Y-39892786D01*
X35067715Y-40058386D01*
X34974781Y-40240776D01*
X34911522Y-40435465D01*
X34879500Y-40637648D01*
X34879500Y-40842351D01*
X34911522Y-41044534D01*
X34974781Y-41239223D01*
X35067715Y-41421613D01*
X35188028Y-41587213D01*
X35332786Y-41731971D01*
X35487749Y-41844556D01*
X35498390Y-41852287D01*
X35589840Y-41898883D01*
X35591080Y-41899515D01*
X35641876Y-41947490D01*
X35658671Y-42015311D01*
X35636134Y-42081446D01*
X35591080Y-42120485D01*
X35498386Y-42167715D01*
X35332786Y-42288028D01*
X35188028Y-42432786D01*
X35067715Y-42598386D01*
X34974781Y-42780776D01*
X34911522Y-42975465D01*
X34889959Y-43111613D01*
X34879500Y-43177648D01*
X34879500Y-43382352D01*
X34883740Y-43409124D01*
X34911522Y-43584534D01*
X34974781Y-43779223D01*
X35038691Y-43904653D01*
X35055515Y-43937671D01*
X35067715Y-43961613D01*
X35188028Y-44127213D01*
X35332786Y-44271971D01*
X35498388Y-44392286D01*
X35549365Y-44418260D01*
X35600161Y-44466234D01*
X35616957Y-44534055D01*
X35594420Y-44600190D01*
X35580752Y-44616426D01*
X35034999Y-45162181D01*
X34973676Y-45195666D01*
X34947318Y-45198500D01*
X32125757Y-45198500D01*
X32072296Y-45209134D01*
X32072277Y-45209138D01*
X32070459Y-45209500D01*
X31932464Y-45236949D01*
X31918252Y-45242836D01*
X31908696Y-45246793D01*
X31908692Y-45246795D01*
X31750388Y-45312366D01*
X31750379Y-45312371D01*
X31586519Y-45421859D01*
X31542454Y-45465925D01*
X31447161Y-45561218D01*
X31447158Y-45561221D01*
X29762221Y-47246158D01*
X29762218Y-47246161D01*
X29718977Y-47289402D01*
X29622859Y-47385519D01*
X29513371Y-47549380D01*
X29513364Y-47549393D01*
X29482758Y-47623285D01*
X29482755Y-47623292D01*
X29480860Y-47627869D01*
X29437949Y-47731464D01*
X29423655Y-47803327D01*
X29422246Y-47810406D01*
X29422244Y-47810415D01*
X29399500Y-47924756D01*
X29399500Y-48614800D01*
X29393474Y-48635321D01*
X29392216Y-48656672D01*
X29382069Y-48674162D01*
X29379815Y-48681839D01*
X29375692Y-48687859D01*
X29371510Y-48693593D01*
X29369896Y-48695208D01*
X29250319Y-48859793D01*
X29250192Y-48859967D01*
X29222518Y-48881229D01*
X29194989Y-48902459D01*
X29194876Y-48902468D01*
X29194788Y-48902537D01*
X29160086Y-48905456D01*
X29125375Y-48908438D01*
X29125275Y-48908385D01*
X29125164Y-48908395D01*
X29094611Y-48892206D01*
X29063580Y-48875833D01*
X29063468Y-48875704D01*
X29063426Y-48875682D01*
X29063383Y-48875605D01*
X29049682Y-48859793D01*
X28930109Y-48695214D01*
X28930105Y-48695209D01*
X28779786Y-48544890D01*
X28607820Y-48419951D01*
X28418414Y-48323444D01*
X28418413Y-48323443D01*
X28418412Y-48323443D01*
X28216243Y-48257754D01*
X28216241Y-48257753D01*
X28216240Y-48257753D01*
X28013781Y-48225687D01*
X28006287Y-48224500D01*
X27793713Y-48224500D01*
X27786219Y-48225687D01*
X27583760Y-48257753D01*
X27381585Y-48323444D01*
X27192179Y-48419951D01*
X27020213Y-48544890D01*
X26869894Y-48695209D01*
X26869890Y-48695214D01*
X26750318Y-48859793D01*
X26694989Y-48902459D01*
X26625375Y-48908438D01*
X26563580Y-48875833D01*
X26549682Y-48859793D01*
X26430109Y-48695214D01*
X26430105Y-48695209D01*
X26279786Y-48544890D01*
X26107820Y-48419951D01*
X25918414Y-48323444D01*
X25918413Y-48323443D01*
X25918412Y-48323443D01*
X25716243Y-48257754D01*
X25716241Y-48257753D01*
X25716239Y-48257753D01*
X25632608Y-48244507D01*
X25569473Y-48214578D01*
X25532542Y-48155266D01*
X25533540Y-48085403D01*
X25564324Y-48034353D01*
X25593189Y-48005489D01*
X25680794Y-47874379D01*
X25741137Y-47728697D01*
X25771900Y-47574042D01*
X25771900Y-47416358D01*
X25771900Y-47416355D01*
X25771899Y-47416353D01*
X25765766Y-47385519D01*
X25741137Y-47261703D01*
X25689591Y-47137259D01*
X25680797Y-47116027D01*
X25680790Y-47116014D01*
X25593189Y-46984911D01*
X25593186Y-46984907D01*
X25481692Y-46873413D01*
X25481688Y-46873410D01*
X25350585Y-46785809D01*
X25350572Y-46785802D01*
X25206214Y-46726008D01*
X25165985Y-46699128D01*
X23982746Y-45515888D01*
X23982745Y-45515887D01*
X23868007Y-45439222D01*
X23740532Y-45386421D01*
X23740522Y-45386418D01*
X23605196Y-45359500D01*
X23605194Y-45359500D01*
X23605193Y-45359500D01*
X17718138Y-45359500D01*
X17651099Y-45339815D01*
X17617821Y-45308387D01*
X17595690Y-45277927D01*
X17462075Y-45144312D01*
X17462073Y-45144310D01*
X17309199Y-45033240D01*
X17243960Y-44999999D01*
X17140836Y-44947454D01*
X16961118Y-44889059D01*
X16774486Y-44859500D01*
X16774481Y-44859500D01*
X16585519Y-44859500D01*
X16585514Y-44859500D01*
X16398881Y-44889059D01*
X16219163Y-44947454D01*
X16050800Y-45033240D01*
X15996968Y-45072352D01*
X15897927Y-45144310D01*
X15897925Y-45144312D01*
X15897924Y-45144312D01*
X15764311Y-45277925D01*
X15655318Y-45427940D01*
X15599987Y-45470605D01*
X15530374Y-45476584D01*
X15468579Y-45443978D01*
X15454682Y-45427940D01*
X15374750Y-45317925D01*
X15345690Y-45277927D01*
X15212073Y-45144310D01*
X15059199Y-45033240D01*
X14993960Y-44999999D01*
X14890836Y-44947454D01*
X14711118Y-44889059D01*
X14524486Y-44859500D01*
X14524481Y-44859500D01*
X14335519Y-44859500D01*
X14335514Y-44859500D01*
X14148881Y-44889059D01*
X13969163Y-44947454D01*
X13800800Y-45033240D01*
X13746968Y-45072352D01*
X13647927Y-45144310D01*
X13647925Y-45144312D01*
X13647924Y-45144312D01*
X13514312Y-45277924D01*
X13514312Y-45277925D01*
X13514310Y-45277927D01*
X13489287Y-45312368D01*
X13403239Y-45430801D01*
X13402130Y-45432979D01*
X13401488Y-45433658D01*
X13400695Y-45434953D01*
X13400422Y-45434786D01*
X13354152Y-45483772D01*
X13286331Y-45500564D01*
X13220197Y-45478023D01*
X13191330Y-45449564D01*
X13095690Y-45317927D01*
X12962073Y-45184310D01*
X12809199Y-45073240D01*
X12794648Y-45065826D01*
X12640836Y-44987454D01*
X12461118Y-44929059D01*
X12274486Y-44899500D01*
X12274481Y-44899500D01*
X12085519Y-44899500D01*
X12085514Y-44899500D01*
X11898881Y-44929059D01*
X11719163Y-44987454D01*
X11550800Y-45073240D01*
X11491940Y-45116005D01*
X11397927Y-45184310D01*
X11397925Y-45184312D01*
X11397924Y-45184312D01*
X11264312Y-45317924D01*
X11264312Y-45317925D01*
X11264310Y-45317927D01*
X11216610Y-45383579D01*
X11153240Y-45470800D01*
X11067454Y-45639163D01*
X11009059Y-45818881D01*
X10979500Y-46005513D01*
X10979500Y-46194486D01*
X11009059Y-46381118D01*
X11067454Y-46560836D01*
X11128000Y-46679663D01*
X11153240Y-46729199D01*
X11264310Y-46882073D01*
X11397927Y-47015690D01*
X11550801Y-47126760D01*
X11571407Y-47137259D01*
X11719163Y-47212545D01*
X11719165Y-47212545D01*
X11719168Y-47212547D01*
X11898882Y-47270940D01*
X11942982Y-47277924D01*
X12006114Y-47307852D01*
X12043046Y-47367163D01*
X12042050Y-47437025D01*
X12011264Y-47488078D01*
X10511488Y-48987853D01*
X10511487Y-48987854D01*
X10434822Y-49102592D01*
X10382021Y-49230067D01*
X10382018Y-49230079D01*
X10355248Y-49364661D01*
X10355238Y-49364714D01*
X10355237Y-49364720D01*
X10355100Y-49365407D01*
X10355100Y-51587906D01*
X10355100Y-51725894D01*
X10355100Y-51725896D01*
X10355099Y-51725896D01*
X10382018Y-51861222D01*
X10382021Y-51861232D01*
X10434822Y-51988707D01*
X10511487Y-52103445D01*
X10511488Y-52103446D01*
X12998892Y-54590849D01*
X13032377Y-54652172D01*
X13027393Y-54721864D01*
X12998893Y-54766211D01*
X12869889Y-54895215D01*
X12750008Y-55060218D01*
X12694678Y-55102884D01*
X12625065Y-55108863D01*
X12563270Y-55076257D01*
X12549372Y-55060218D01*
X12429727Y-54895540D01*
X12429723Y-54895535D01*
X12279464Y-54745276D01*
X12279459Y-54745272D01*
X12107557Y-54620379D01*
X11918215Y-54523903D01*
X11716124Y-54458241D01*
X11650000Y-54447768D01*
X11650000Y-55495854D01*
X11583343Y-55457370D01*
X11462535Y-55425000D01*
X11337465Y-55425000D01*
X11216657Y-55457370D01*
X11150000Y-55495854D01*
X11150000Y-54447768D01*
X11149999Y-54447768D01*
X11083875Y-54458241D01*
X10881784Y-54523903D01*
X10692442Y-54620379D01*
X10520540Y-54745272D01*
X10520535Y-54745276D01*
X10370276Y-54895535D01*
X10370272Y-54895540D01*
X10245379Y-55067442D01*
X10148904Y-55256782D01*
X10123467Y-55335072D01*
X10084030Y-55392747D01*
X10019671Y-55419946D01*
X9950825Y-55408032D01*
X9917857Y-55384436D01*
X4794957Y-50261537D01*
X4761473Y-50200215D01*
X4760244Y-50157214D01*
X4760118Y-50157205D01*
X4760210Y-50156025D01*
X4760166Y-50154459D01*
X4760500Y-50152352D01*
X4760500Y-49947648D01*
X4728477Y-49745466D01*
X4721683Y-49724557D01*
X4665218Y-49550776D01*
X4631503Y-49484607D01*
X4572287Y-49368390D01*
X4552023Y-49340499D01*
X4451971Y-49202786D01*
X4307213Y-49058028D01*
X4141611Y-48937713D01*
X4048369Y-48890203D01*
X3997574Y-48842229D01*
X3980779Y-48774407D01*
X4003317Y-48708273D01*
X4048371Y-48669234D01*
X4141346Y-48621861D01*
X4141347Y-48621861D01*
X4185921Y-48589474D01*
X3506447Y-47910000D01*
X3512661Y-47910000D01*
X3614394Y-47882741D01*
X3705606Y-47830080D01*
X3780080Y-47755606D01*
X3832741Y-47664394D01*
X3860000Y-47562661D01*
X3860000Y-47556447D01*
X4539474Y-48235921D01*
X4571859Y-48191349D01*
X4664755Y-48009031D01*
X4727990Y-47814417D01*
X4760000Y-47612317D01*
X4760000Y-47407682D01*
X4727990Y-47205582D01*
X4664755Y-47010968D01*
X4571859Y-46828650D01*
X4539474Y-46784077D01*
X4539474Y-46784076D01*
X3860000Y-47463551D01*
X3860000Y-47457339D01*
X3832741Y-47355606D01*
X3780080Y-47264394D01*
X3705606Y-47189920D01*
X3614394Y-47137259D01*
X3512661Y-47110000D01*
X3506446Y-47110000D01*
X4185922Y-46430524D01*
X4185921Y-46430523D01*
X4141359Y-46398147D01*
X4141350Y-46398141D01*
X4048369Y-46350765D01*
X3997573Y-46302790D01*
X3980778Y-46234969D01*
X4003315Y-46168835D01*
X4048370Y-46129795D01*
X4141610Y-46082287D01*
X4247273Y-46005519D01*
X4307213Y-45961971D01*
X4307215Y-45961968D01*
X4307219Y-45961966D01*
X4451966Y-45817219D01*
X4451968Y-45817215D01*
X4451971Y-45817213D01*
X4513547Y-45732459D01*
X4572287Y-45651610D01*
X4665220Y-45469219D01*
X4728477Y-45274534D01*
X4760500Y-45072352D01*
X4760500Y-44867648D01*
X4728477Y-44665466D01*
X4665220Y-44470781D01*
X4665218Y-44470778D01*
X4665218Y-44470776D01*
X4625225Y-44392286D01*
X4572287Y-44288390D01*
X4519314Y-44215478D01*
X4451971Y-44122786D01*
X4307213Y-43978028D01*
X4141614Y-43857715D01*
X4135006Y-43854348D01*
X4048917Y-43810483D01*
X3998123Y-43762511D01*
X3981328Y-43694690D01*
X4003865Y-43628555D01*
X4048917Y-43589516D01*
X4141610Y-43542287D01*
X4165219Y-43525134D01*
X4307213Y-43421971D01*
X4307215Y-43421968D01*
X4307219Y-43421966D01*
X4451966Y-43277219D01*
X4451968Y-43277215D01*
X4451971Y-43277213D01*
X4524308Y-43177648D01*
X4572287Y-43111610D01*
X4665220Y-42929219D01*
X4728477Y-42734534D01*
X4760500Y-42532352D01*
X4760500Y-42327648D01*
X4735169Y-42167715D01*
X4728477Y-42125465D01*
X4670649Y-41947490D01*
X4665220Y-41930781D01*
X4665218Y-41930778D01*
X4665218Y-41930776D01*
X4625224Y-41852284D01*
X4572287Y-41748390D01*
X4560354Y-41731966D01*
X4451971Y-41582786D01*
X4307213Y-41438028D01*
X4141614Y-41317715D01*
X4135006Y-41314348D01*
X4048917Y-41270483D01*
X3998123Y-41222511D01*
X3981328Y-41154690D01*
X4003865Y-41088555D01*
X4048917Y-41049516D01*
X4141610Y-41002287D01*
X4182431Y-40972629D01*
X4307213Y-40881971D01*
X4307215Y-40881968D01*
X4307219Y-40881966D01*
X4451966Y-40737219D01*
X4451968Y-40737215D01*
X4451971Y-40737213D01*
X4522236Y-40640500D01*
X4572287Y-40571610D01*
X4665220Y-40389219D01*
X4728477Y-40194534D01*
X4760500Y-39992352D01*
X4760500Y-39787648D01*
X4735169Y-39627715D01*
X4728477Y-39585465D01*
X4670649Y-39407490D01*
X4665220Y-39390781D01*
X4665218Y-39390778D01*
X4665218Y-39390776D01*
X4625224Y-39312284D01*
X4572287Y-39208390D01*
X4560354Y-39191966D01*
X4451971Y-39042786D01*
X4307213Y-38898028D01*
X4141614Y-38777715D01*
X4107539Y-38760353D01*
X4048917Y-38730483D01*
X3998123Y-38682511D01*
X3981328Y-38614690D01*
X4003865Y-38548555D01*
X4048917Y-38509516D01*
X4141610Y-38462287D01*
X4263724Y-38373567D01*
X4307213Y-38341971D01*
X4307215Y-38341968D01*
X4307219Y-38341966D01*
X4451966Y-38197219D01*
X4451968Y-38197215D01*
X4451971Y-38197213D01*
X4524308Y-38097648D01*
X4572287Y-38031610D01*
X4665220Y-37849219D01*
X4728477Y-37654534D01*
X4760500Y-37452352D01*
X4760500Y-37247648D01*
X4758107Y-37232539D01*
X4728477Y-37045465D01*
X4670649Y-36867490D01*
X4665220Y-36850781D01*
X4665218Y-36850778D01*
X4665218Y-36850776D01*
X4625224Y-36772284D01*
X4572287Y-36668390D01*
X4560354Y-36651966D01*
X4451971Y-36502786D01*
X4307213Y-36358028D01*
X4141614Y-36237715D01*
X4135006Y-36234348D01*
X4048917Y-36190483D01*
X3998123Y-36142511D01*
X3981328Y-36074690D01*
X4003865Y-36008555D01*
X4048917Y-35969516D01*
X4141610Y-35922287D01*
X4162770Y-35906913D01*
X4307213Y-35801971D01*
X4307215Y-35801968D01*
X4307219Y-35801966D01*
X4451966Y-35657219D01*
X4451968Y-35657215D01*
X4451971Y-35657213D01*
X4516524Y-35568362D01*
X4572287Y-35491610D01*
X4665220Y-35309219D01*
X4728477Y-35114534D01*
X4760500Y-34912352D01*
X4760500Y-34707648D01*
X4735169Y-34547715D01*
X4728477Y-34505465D01*
X4670649Y-34327490D01*
X4665220Y-34310781D01*
X4665218Y-34310778D01*
X4665218Y-34310776D01*
X4625224Y-34232284D01*
X4572287Y-34128390D01*
X4519433Y-34055642D01*
X4451971Y-33962786D01*
X4307213Y-33818028D01*
X4141614Y-33697715D01*
X4099337Y-33676174D01*
X4048917Y-33650483D01*
X3998123Y-33602511D01*
X3981328Y-33534690D01*
X4003865Y-33468555D01*
X4048917Y-33429516D01*
X4141610Y-33382287D01*
X4162770Y-33366913D01*
X4307213Y-33261971D01*
X4307215Y-33261968D01*
X4307219Y-33261966D01*
X4451966Y-33117219D01*
X4451968Y-33117215D01*
X4451971Y-33117213D01*
X4524308Y-33017648D01*
X4572287Y-32951610D01*
X4665220Y-32769219D01*
X4728477Y-32574534D01*
X4760500Y-32372352D01*
X4760500Y-32167648D01*
X4735169Y-32007715D01*
X4728477Y-31965465D01*
X4673020Y-31794787D01*
X4665220Y-31770781D01*
X4665218Y-31770778D01*
X4665218Y-31770776D01*
X4612513Y-31667338D01*
X4572287Y-31588390D01*
X4564556Y-31577749D01*
X4451971Y-31422786D01*
X4307213Y-31278028D01*
X4141613Y-31157715D01*
X4141612Y-31157714D01*
X4141610Y-31157713D01*
X4084653Y-31128691D01*
X3959223Y-31064781D01*
X3764534Y-31001522D01*
X3589995Y-30973878D01*
X3562352Y-30969500D01*
X3357648Y-30969500D01*
X3333329Y-30973351D01*
X3155465Y-31001522D01*
X2960776Y-31064781D01*
X2778386Y-31157715D01*
X2612786Y-31278028D01*
X2612782Y-31278032D01*
X2468035Y-31422780D01*
X2468028Y-31422786D01*
X2347715Y-31588386D01*
X2254781Y-31770776D01*
X2191522Y-31965465D01*
X2159500Y-32167648D01*
X2159500Y-32372351D01*
X2191522Y-32574534D01*
X2254781Y-32769223D01*
X2298482Y-32854989D01*
X2339496Y-32935484D01*
X2347715Y-32951613D01*
X2468028Y-33117213D01*
X2612786Y-33261971D01*
X2767749Y-33374556D01*
X2778390Y-33382287D01*
X2861304Y-33424534D01*
X2871080Y-33429515D01*
X2921876Y-33477490D01*
X2938671Y-33545311D01*
X2916134Y-33611446D01*
X2871080Y-33650485D01*
X2778386Y-33697715D01*
X2612786Y-33818028D01*
X2468028Y-33962786D01*
X2347715Y-34128386D01*
X2254781Y-34310778D01*
X2191522Y-34505468D01*
X2168073Y-34653515D01*
X2138143Y-34716649D01*
X2133281Y-34721797D01*
X1694303Y-35160776D01*
X1286721Y-35568358D01*
X1286718Y-35568361D01*
X1237299Y-35617780D01*
X1147359Y-35707719D01*
X1037871Y-35871580D01*
X1037866Y-35871589D01*
X1012430Y-35932997D01*
X1012423Y-35933015D01*
X1011282Y-35935771D01*
X962449Y-36053664D01*
X955908Y-36086547D01*
X954114Y-36095562D01*
X954112Y-36095570D01*
X924000Y-36246956D01*
X500500Y-36246956D01*
X500500Y-6002561D01*
X500606Y-5997437D01*
X500925Y-5989713D01*
X518294Y-5569778D01*
X1929500Y-5569778D01*
X1929500Y-5790222D01*
X1930331Y-5795466D01*
X1963985Y-6007952D01*
X2032103Y-6217603D01*
X2032104Y-6217606D01*
X2132187Y-6414025D01*
X2261752Y-6592358D01*
X2261756Y-6592363D01*
X2417636Y-6748243D01*
X2417641Y-6748247D01*
X2557254Y-6849682D01*
X2599920Y-6905012D01*
X2605899Y-6974625D01*
X2573293Y-7036420D01*
X2557254Y-7050318D01*
X2417641Y-7151752D01*
X2417636Y-7151756D01*
X2261756Y-7307636D01*
X2261752Y-7307641D01*
X2132187Y-7485974D01*
X2032104Y-7682393D01*
X2032103Y-7682396D01*
X1963985Y-7892047D01*
X1946536Y-8002218D01*
X1929500Y-8109778D01*
X1929500Y-8330222D01*
X1930331Y-8335466D01*
X1963985Y-8547952D01*
X2032103Y-8757603D01*
X2032104Y-8757606D01*
X2132187Y-8954025D01*
X2261752Y-9132358D01*
X2261756Y-9132363D01*
X2417636Y-9288243D01*
X2417641Y-9288247D01*
X2557254Y-9389682D01*
X2599920Y-9445012D01*
X2605899Y-9514625D01*
X2573293Y-9576420D01*
X2557254Y-9590318D01*
X2417641Y-9691752D01*
X2417636Y-9691756D01*
X2261756Y-9847636D01*
X2261752Y-9847641D01*
X2132187Y-10025974D01*
X2032104Y-10222393D01*
X2032103Y-10222396D01*
X1963985Y-10432047D01*
X1943095Y-10563940D01*
X1929500Y-10649778D01*
X1929500Y-10870222D01*
X1939335Y-10932317D01*
X1963985Y-11087952D01*
X2032103Y-11297603D01*
X2032104Y-11297606D01*
X2132187Y-11494025D01*
X2261752Y-11672358D01*
X2261756Y-11672363D01*
X2417636Y-11828243D01*
X2417641Y-11828247D01*
X2557254Y-11929682D01*
X2599920Y-11985012D01*
X2605899Y-12054625D01*
X2573293Y-12116420D01*
X2557254Y-12130318D01*
X2417641Y-12231752D01*
X2417636Y-12231756D01*
X2261756Y-12387636D01*
X2261752Y-12387641D01*
X2132187Y-12565974D01*
X2032104Y-12762393D01*
X2032103Y-12762396D01*
X1963985Y-12972047D01*
X1943489Y-13101453D01*
X1929500Y-13189778D01*
X1929500Y-13410222D01*
X1943291Y-13497297D01*
X1963985Y-13627952D01*
X2032103Y-13837603D01*
X2032104Y-13837606D01*
X2084817Y-13941058D01*
X2124871Y-14019668D01*
X2132187Y-14034025D01*
X2261752Y-14212358D01*
X2261756Y-14212363D01*
X2417636Y-14368243D01*
X2417641Y-14368247D01*
X2557254Y-14469682D01*
X2599920Y-14525012D01*
X2605899Y-14594625D01*
X2573293Y-14656420D01*
X2557254Y-14670318D01*
X2417641Y-14771752D01*
X2417636Y-14771756D01*
X2261756Y-14927636D01*
X2261752Y-14927641D01*
X2132187Y-15105974D01*
X2032104Y-15302393D01*
X2032103Y-15302396D01*
X1963985Y-15512047D01*
X1930415Y-15724003D01*
X1929500Y-15729778D01*
X1929500Y-15950222D01*
X1930331Y-15955466D01*
X1963985Y-16167952D01*
X2032103Y-16377603D01*
X2032104Y-16377606D01*
X2132187Y-16574025D01*
X2261752Y-16752358D01*
X2261756Y-16752363D01*
X2417636Y-16908243D01*
X2417641Y-16908247D01*
X2557254Y-17009682D01*
X2599920Y-17065012D01*
X2605899Y-17134625D01*
X2573293Y-17196420D01*
X2557254Y-17210318D01*
X2417641Y-17311752D01*
X2417636Y-17311756D01*
X2261756Y-17467636D01*
X2261752Y-17467641D01*
X2132187Y-17645974D01*
X2032104Y-17842393D01*
X2032103Y-17842396D01*
X1963985Y-18052047D01*
X1932234Y-18252514D01*
X1929500Y-18269778D01*
X1929500Y-18490222D01*
X1930331Y-18495466D01*
X1963985Y-18707952D01*
X2032103Y-18917603D01*
X2032104Y-18917606D01*
X2132187Y-19114025D01*
X2261752Y-19292358D01*
X2261756Y-19292363D01*
X2417636Y-19448243D01*
X2417641Y-19448247D01*
X2557254Y-19549682D01*
X2599920Y-19605012D01*
X2605899Y-19674625D01*
X2573293Y-19736420D01*
X2557254Y-19750318D01*
X2417641Y-19851752D01*
X2417636Y-19851756D01*
X2261756Y-20007636D01*
X2261752Y-20007641D01*
X2132187Y-20185974D01*
X2032104Y-20382393D01*
X2032103Y-20382396D01*
X1963985Y-20592047D01*
X1953477Y-20658391D01*
X1929500Y-20809778D01*
X1929500Y-21030222D01*
X1931723Y-21044256D01*
X1963985Y-21247952D01*
X2032103Y-21457603D01*
X2032104Y-21457606D01*
X2132187Y-21654025D01*
X2261752Y-21832358D01*
X2261756Y-21832363D01*
X2417636Y-21988243D01*
X2417641Y-21988247D01*
X2557254Y-22089682D01*
X2599920Y-22145012D01*
X2605899Y-22214625D01*
X2573293Y-22276420D01*
X2557254Y-22290318D01*
X2417641Y-22391752D01*
X2417636Y-22391756D01*
X2261756Y-22547636D01*
X2261752Y-22547641D01*
X2132187Y-22725974D01*
X2032104Y-22922393D01*
X2032103Y-22922396D01*
X1963985Y-23132047D01*
X1934911Y-23315614D01*
X1929500Y-23349778D01*
X1929500Y-23570222D01*
X1943331Y-23657546D01*
X1963985Y-23787952D01*
X2032103Y-23997603D01*
X2032104Y-23997606D01*
X2090646Y-24112498D01*
X2128398Y-24186590D01*
X2132187Y-24194025D01*
X2261752Y-24372358D01*
X2261756Y-24372363D01*
X2417640Y-24528247D01*
X2557679Y-24629990D01*
X2600345Y-24685319D01*
X2606324Y-24754933D01*
X2573719Y-24816728D01*
X2557679Y-24830626D01*
X2532485Y-24848930D01*
X2532485Y-24848932D01*
X3283553Y-25600000D01*
X3277339Y-25600000D01*
X3175606Y-25627259D01*
X3084394Y-25679920D01*
X3009920Y-25754394D01*
X2957259Y-25845606D01*
X2930000Y-25947339D01*
X2930000Y-25953553D01*
X2178932Y-25202485D01*
X2178931Y-25202485D01*
X2132616Y-25266233D01*
X2032567Y-25462589D01*
X1964473Y-25672164D01*
X1930000Y-25889818D01*
X1930000Y-26110181D01*
X1964473Y-26327835D01*
X2032567Y-26537410D01*
X2132611Y-26733756D01*
X2178932Y-26797513D01*
X2930000Y-26046445D01*
X2930000Y-26052661D01*
X2957259Y-26154394D01*
X3009920Y-26245606D01*
X3084394Y-26320080D01*
X3175606Y-26372741D01*
X3277339Y-26400000D01*
X3283553Y-26400000D01*
X2532485Y-27151065D01*
X2532485Y-27151066D01*
X2557680Y-27169371D01*
X2600346Y-27224701D01*
X2606325Y-27294314D01*
X2573720Y-27356110D01*
X2557681Y-27370008D01*
X2417636Y-27471756D01*
X2261756Y-27627636D01*
X2261752Y-27627641D01*
X2132187Y-27805974D01*
X2032104Y-28002393D01*
X2032103Y-28002396D01*
X1963985Y-28212047D01*
X1929500Y-28429778D01*
X1929500Y-28650221D01*
X1963985Y-28867952D01*
X2032103Y-29077603D01*
X2032104Y-29077606D01*
X2070157Y-29152287D01*
X2131562Y-29272800D01*
X2132187Y-29274025D01*
X2261752Y-29452358D01*
X2261756Y-29452363D01*
X2417636Y-29608243D01*
X2417641Y-29608247D01*
X2565075Y-29715363D01*
X2595978Y-29737815D01*
X2724375Y-29803237D01*
X2792393Y-29837895D01*
X2792396Y-29837896D01*
X2857463Y-29859037D01*
X3002049Y-29906015D01*
X3219778Y-29940500D01*
X3219779Y-29940500D01*
X3440221Y-29940500D01*
X3440222Y-29940500D01*
X3657951Y-29906015D01*
X3867606Y-29837895D01*
X4064022Y-29737815D01*
X4242365Y-29608242D01*
X4398242Y-29452365D01*
X4527815Y-29274022D01*
X4627895Y-29077606D01*
X4696015Y-28867951D01*
X4730500Y-28650222D01*
X4730500Y-28429778D01*
X4696015Y-28212049D01*
X4640020Y-28039712D01*
X4627896Y-28002396D01*
X4627895Y-28002393D01*
X4553040Y-27855485D01*
X4527815Y-27805978D01*
X4478485Y-27738081D01*
X4398247Y-27627641D01*
X4398243Y-27627636D01*
X4242363Y-27471756D01*
X4242358Y-27471752D01*
X4102319Y-27370008D01*
X4059653Y-27314678D01*
X4053674Y-27245065D01*
X4086279Y-27183270D01*
X4102319Y-27169372D01*
X4127513Y-27151066D01*
X4127514Y-27151066D01*
X3376447Y-26400000D01*
X3382661Y-26400000D01*
X3484394Y-26372741D01*
X3575606Y-26320080D01*
X3650080Y-26245606D01*
X3702741Y-26154394D01*
X3730000Y-26052661D01*
X3730000Y-26046447D01*
X4481066Y-26797514D01*
X4481066Y-26797513D01*
X4527386Y-26733760D01*
X4627432Y-26537410D01*
X4695526Y-26327835D01*
X4730000Y-26110181D01*
X4730000Y-25889818D01*
X4695526Y-25672164D01*
X4627432Y-25462589D01*
X4527388Y-25266243D01*
X4481066Y-25202485D01*
X4481065Y-25202485D01*
X3730000Y-25953551D01*
X3730000Y-25947339D01*
X3702741Y-25845606D01*
X3650080Y-25754394D01*
X3575606Y-25679920D01*
X3484394Y-25627259D01*
X3382661Y-25600000D01*
X3376445Y-25600000D01*
X4127513Y-24848932D01*
X4102319Y-24830628D01*
X4059653Y-24775298D01*
X4053674Y-24705685D01*
X4086279Y-24643889D01*
X4102313Y-24629994D01*
X4242365Y-24528242D01*
X4398242Y-24372365D01*
X4527815Y-24194022D01*
X4627895Y-23997606D01*
X4696015Y-23787951D01*
X4730500Y-23570222D01*
X4730500Y-23349778D01*
X4696015Y-23132049D01*
X4658226Y-23015745D01*
X4627896Y-22922396D01*
X4627895Y-22922393D01*
X4573048Y-22814752D01*
X4527815Y-22725978D01*
X4465712Y-22640500D01*
X4398247Y-22547641D01*
X4398243Y-22547636D01*
X4242363Y-22391756D01*
X4242358Y-22391752D01*
X4102745Y-22290318D01*
X4060079Y-22234989D01*
X4054100Y-22165375D01*
X4086705Y-22103580D01*
X4102745Y-22089682D01*
X4242358Y-21988247D01*
X4242356Y-21988247D01*
X4242365Y-21988242D01*
X4398242Y-21832365D01*
X4527815Y-21654022D01*
X4627895Y-21457606D01*
X4696015Y-21247951D01*
X4730500Y-21030222D01*
X4730500Y-20809778D01*
X4696015Y-20592049D01*
X4644181Y-20432517D01*
X4627896Y-20382396D01*
X4627895Y-20382393D01*
X4574869Y-20278326D01*
X4527815Y-20185978D01*
X4462591Y-20096204D01*
X4398247Y-20007641D01*
X4398243Y-20007636D01*
X4242363Y-19851756D01*
X4242358Y-19851752D01*
X4102745Y-19750318D01*
X4060079Y-19694989D01*
X4054100Y-19625375D01*
X4086705Y-19563580D01*
X4102745Y-19549682D01*
X4242358Y-19448247D01*
X4242356Y-19448247D01*
X4242365Y-19448242D01*
X4398242Y-19292365D01*
X4527815Y-19114022D01*
X4627895Y-18917606D01*
X4696015Y-18707951D01*
X4730500Y-18490222D01*
X4730500Y-18269778D01*
X4696015Y-18052049D01*
X4655790Y-17928247D01*
X4627896Y-17842396D01*
X4627895Y-17842393D01*
X4574869Y-17738326D01*
X4527815Y-17645978D01*
X4454723Y-17545375D01*
X4398247Y-17467641D01*
X4398243Y-17467636D01*
X4242363Y-17311756D01*
X4242358Y-17311752D01*
X4102745Y-17210318D01*
X4060079Y-17154989D01*
X4054100Y-17085375D01*
X4086705Y-17023580D01*
X4102745Y-17009682D01*
X4242358Y-16908247D01*
X4242356Y-16908247D01*
X4242365Y-16908242D01*
X4398242Y-16752365D01*
X4527815Y-16574022D01*
X4627895Y-16377606D01*
X4696015Y-16167951D01*
X4730500Y-15950222D01*
X4730500Y-15729778D01*
X4696015Y-15512049D01*
X4654113Y-15383086D01*
X4627896Y-15302396D01*
X4627895Y-15302393D01*
X4553040Y-15155485D01*
X4527815Y-15105978D01*
X4454723Y-15005375D01*
X4398247Y-14927641D01*
X4398243Y-14927636D01*
X4242363Y-14771756D01*
X4242358Y-14771752D01*
X4102745Y-14670318D01*
X4060079Y-14614989D01*
X4054100Y-14545375D01*
X4086705Y-14483580D01*
X4102745Y-14469682D01*
X4242358Y-14368247D01*
X4242356Y-14368247D01*
X4242365Y-14368242D01*
X4398242Y-14212365D01*
X4527815Y-14034022D01*
X4627895Y-13837606D01*
X4696015Y-13627951D01*
X4730500Y-13410222D01*
X4730500Y-13189778D01*
X4696015Y-12972049D01*
X4656105Y-12849217D01*
X4627896Y-12762396D01*
X4627895Y-12762393D01*
X4586908Y-12681953D01*
X4527815Y-12565978D01*
X4472614Y-12490000D01*
X4398247Y-12387641D01*
X4398243Y-12387636D01*
X4242363Y-12231756D01*
X4242358Y-12231752D01*
X4102745Y-12130318D01*
X4060079Y-12074989D01*
X4054100Y-12005375D01*
X4086705Y-11943580D01*
X4102745Y-11929682D01*
X4242358Y-11828247D01*
X4242356Y-11828247D01*
X4242365Y-11828242D01*
X4398242Y-11672365D01*
X4527815Y-11494022D01*
X4627895Y-11297606D01*
X4696015Y-11087951D01*
X4730500Y-10870222D01*
X4730500Y-10649778D01*
X4696015Y-10432049D01*
X4661955Y-10327221D01*
X4627896Y-10222396D01*
X4627895Y-10222393D01*
X4593237Y-10154375D01*
X4527815Y-10025978D01*
X4454723Y-9925375D01*
X4398247Y-9847641D01*
X4398243Y-9847636D01*
X4242363Y-9691756D01*
X4242358Y-9691752D01*
X4102745Y-9590318D01*
X4060079Y-9534989D01*
X4054100Y-9465375D01*
X4086705Y-9403580D01*
X4102745Y-9389682D01*
X4242358Y-9288247D01*
X4242356Y-9288247D01*
X4242365Y-9288242D01*
X4398242Y-9132365D01*
X4527815Y-8954022D01*
X4627895Y-8757606D01*
X4634090Y-8738541D01*
X4696014Y-8547954D01*
X4696013Y-8547954D01*
X4696015Y-8547951D01*
X4730500Y-8330222D01*
X4730500Y-8109778D01*
X4696015Y-7892049D01*
X4661955Y-7787221D01*
X4627896Y-7682396D01*
X4627895Y-7682393D01*
X4553039Y-7535483D01*
X4527815Y-7485978D01*
X4511260Y-7463192D01*
X4398247Y-7307641D01*
X4398243Y-7307636D01*
X4242363Y-7151756D01*
X4242358Y-7151752D01*
X4102745Y-7050318D01*
X4060079Y-6994989D01*
X4054100Y-6925375D01*
X4086705Y-6863580D01*
X4102745Y-6849682D01*
X4242358Y-6748247D01*
X4242356Y-6748247D01*
X4242365Y-6748242D01*
X4398242Y-6592365D01*
X4527815Y-6414022D01*
X4627895Y-6217606D01*
X4696015Y-6007951D01*
X4730500Y-5790222D01*
X4730500Y-5569778D01*
X4696015Y-5352049D01*
X4651961Y-5216462D01*
X4627896Y-5142396D01*
X4627895Y-5142393D01*
X4579822Y-5048047D01*
X4527815Y-4945978D01*
X4492662Y-4897594D01*
X4398247Y-4767641D01*
X4398243Y-4767636D01*
X4242363Y-4611756D01*
X4242358Y-4611752D01*
X4064025Y-4482187D01*
X4064024Y-4482186D01*
X4064022Y-4482185D01*
X3987104Y-4442993D01*
X3867606Y-4382104D01*
X3867603Y-4382103D01*
X3657952Y-4313985D01*
X3549086Y-4296742D01*
X3440222Y-4279500D01*
X3219778Y-4279500D01*
X3147201Y-4290995D01*
X3002047Y-4313985D01*
X2792396Y-4382103D01*
X2792393Y-4382104D01*
X2595974Y-4482187D01*
X2417641Y-4611752D01*
X2417636Y-4611756D01*
X2261756Y-4767636D01*
X2261752Y-4767641D01*
X2132187Y-4945974D01*
X2032104Y-5142393D01*
X2032103Y-5142396D01*
X1963985Y-5352047D01*
X1934095Y-5540769D01*
X1929500Y-5569778D01*
X518294Y-5569778D01*
X519072Y-5550959D01*
X519915Y-5540792D01*
X574874Y-5099881D01*
X576554Y-5089809D01*
X667734Y-4654950D01*
X670241Y-4645054D01*
X797021Y-4219205D01*
X800336Y-4209553D01*
X961842Y-3795646D01*
X965958Y-3786265D01*
X983687Y-3750000D01*
X1161080Y-3387137D01*
X1165953Y-3378131D01*
X1233643Y-3264533D01*
X1393389Y-2996444D01*
X1398982Y-2987884D01*
X1657152Y-2626294D01*
X1663420Y-2618240D01*
X1719408Y-2552135D01*
X5429500Y-2552135D01*
X5429500Y-4647870D01*
X5429501Y-4647876D01*
X5435908Y-4707483D01*
X5486202Y-4842328D01*
X5486206Y-4842335D01*
X5572452Y-4957544D01*
X5572455Y-4957547D01*
X5687664Y-5043793D01*
X5695454Y-5048047D01*
X5693725Y-5051211D01*
X5735915Y-5082734D01*
X5760393Y-5148175D01*
X5745604Y-5216462D01*
X5737036Y-5230021D01*
X5647084Y-5353829D01*
X5539897Y-5564197D01*
X5466934Y-5788752D01*
X5430000Y-6021947D01*
X5430000Y-6258052D01*
X5466934Y-6491247D01*
X5539897Y-6715802D01*
X5647087Y-6926174D01*
X5707338Y-7009104D01*
X5707340Y-7009105D01*
X6438871Y-6277574D01*
X6454755Y-6336853D01*
X6521898Y-6453147D01*
X6616853Y-6548102D01*
X6733147Y-6615245D01*
X6792425Y-6631128D01*
X6060893Y-7362658D01*
X6062448Y-7382405D01*
X6048084Y-7450783D01*
X6011717Y-7492451D01*
X5952490Y-7535482D01*
X5785485Y-7702487D01*
X5785485Y-7702488D01*
X5785483Y-7702490D01*
X5748521Y-7753364D01*
X5646657Y-7893566D01*
X5539433Y-8104003D01*
X5466446Y-8328631D01*
X5429500Y-8561902D01*
X5429500Y-8798097D01*
X5466446Y-9031368D01*
X5539433Y-9255996D01*
X5607550Y-9389682D01*
X5646657Y-9466433D01*
X5785483Y-9657510D01*
X5952490Y-9824517D01*
X5987127Y-9849683D01*
X6029792Y-9905013D01*
X6035771Y-9974626D01*
X6003165Y-10036421D01*
X5987130Y-10050315D01*
X5969365Y-10063222D01*
X5952488Y-10075484D01*
X5785485Y-10242487D01*
X5785485Y-10242488D01*
X5785483Y-10242490D01*
X5725862Y-10324550D01*
X5646657Y-10433566D01*
X5539433Y-10644003D01*
X5466446Y-10868631D01*
X5429500Y-11101902D01*
X5429500Y-11338097D01*
X5466446Y-11571368D01*
X5539433Y-11795996D01*
X5602193Y-11919168D01*
X5646657Y-12006433D01*
X5785483Y-12197510D01*
X5952490Y-12364517D01*
X5987127Y-12389683D01*
X6029792Y-12445013D01*
X6035771Y-12514626D01*
X6003165Y-12576421D01*
X5987130Y-12590315D01*
X5969365Y-12603222D01*
X5952488Y-12615484D01*
X5785485Y-12782487D01*
X5785485Y-12782488D01*
X5785483Y-12782490D01*
X5725862Y-12864550D01*
X5646657Y-12973566D01*
X5539433Y-13184003D01*
X5466446Y-13408631D01*
X5429500Y-13641902D01*
X5429500Y-13878097D01*
X5466446Y-14111368D01*
X5539433Y-14335996D01*
X5614632Y-14483580D01*
X5646657Y-14546433D01*
X5785483Y-14737510D01*
X5952490Y-14904517D01*
X5987127Y-14929683D01*
X6029792Y-14985013D01*
X6035771Y-15054626D01*
X6003165Y-15116421D01*
X5987130Y-15130315D01*
X5969365Y-15143222D01*
X5952488Y-15155484D01*
X5785485Y-15322487D01*
X5785485Y-15322488D01*
X5785483Y-15322490D01*
X5741457Y-15383086D01*
X5646657Y-15513566D01*
X5539433Y-15724003D01*
X5466446Y-15948631D01*
X5429500Y-16181902D01*
X5429500Y-16418097D01*
X5466446Y-16651368D01*
X5539433Y-16875996D01*
X5607550Y-17009682D01*
X5646657Y-17086433D01*
X5785483Y-17277510D01*
X5952490Y-17444517D01*
X5987127Y-17469683D01*
X6029792Y-17525013D01*
X6035771Y-17594626D01*
X6003165Y-17656421D01*
X5987130Y-17670315D01*
X5972785Y-17680738D01*
X5952488Y-17695484D01*
X5785485Y-17862487D01*
X5785485Y-17862488D01*
X5785483Y-17862490D01*
X5725862Y-17944550D01*
X5646657Y-18053566D01*
X5539433Y-18264003D01*
X5466446Y-18488631D01*
X5429500Y-18721902D01*
X5429500Y-18958097D01*
X5466446Y-19191368D01*
X5539433Y-19415996D01*
X5596546Y-19528085D01*
X5646657Y-19626433D01*
X5785483Y-19817510D01*
X5952490Y-19984517D01*
X5987127Y-20009683D01*
X6029792Y-20065013D01*
X6035771Y-20134626D01*
X6003165Y-20196421D01*
X5987130Y-20210315D01*
X5972785Y-20220738D01*
X5952488Y-20235484D01*
X5785485Y-20402487D01*
X5785485Y-20402488D01*
X5785483Y-20402490D01*
X5759186Y-20438685D01*
X5646657Y-20593566D01*
X5539433Y-20804003D01*
X5466446Y-21028631D01*
X5429500Y-21261902D01*
X5429500Y-21498097D01*
X5466446Y-21731368D01*
X5539433Y-21955996D01*
X5607550Y-22089682D01*
X5646657Y-22166433D01*
X5785483Y-22357510D01*
X5952490Y-22524517D01*
X5987127Y-22549683D01*
X6029792Y-22605013D01*
X6035771Y-22674626D01*
X6003165Y-22736421D01*
X5987130Y-22750315D01*
X5969365Y-22763222D01*
X5952488Y-22775484D01*
X5785485Y-22942487D01*
X5785485Y-22942488D01*
X5785483Y-22942490D01*
X5732261Y-23015743D01*
X5646657Y-23133566D01*
X5539433Y-23344003D01*
X5466446Y-23568631D01*
X5429500Y-23801902D01*
X5429500Y-24038097D01*
X5466446Y-24271368D01*
X5539433Y-24495996D01*
X5607707Y-24629990D01*
X5646657Y-24706433D01*
X5785483Y-24897510D01*
X5952490Y-25064517D01*
X5987127Y-25089683D01*
X6029792Y-25145013D01*
X6035771Y-25214626D01*
X6003165Y-25276421D01*
X5987130Y-25290315D01*
X5984820Y-25291994D01*
X5952488Y-25315484D01*
X5785485Y-25482487D01*
X5785485Y-25482488D01*
X5785483Y-25482490D01*
X5732044Y-25556042D01*
X5646657Y-25673566D01*
X5539433Y-25884003D01*
X5466446Y-26108631D01*
X5429500Y-26341902D01*
X5429500Y-26578097D01*
X5466446Y-26811368D01*
X5539433Y-27035996D01*
X5598065Y-27151066D01*
X5646657Y-27246433D01*
X5785483Y-27437510D01*
X5952490Y-27604517D01*
X5987127Y-27629683D01*
X6029792Y-27685013D01*
X6035771Y-27754626D01*
X6003165Y-27816421D01*
X5987130Y-27830315D01*
X5969365Y-27843222D01*
X5952488Y-27855484D01*
X5785485Y-28022487D01*
X5785485Y-28022488D01*
X5785483Y-28022490D01*
X5765746Y-28049656D01*
X5646657Y-28213566D01*
X5539433Y-28424003D01*
X5466446Y-28648631D01*
X5429500Y-28881902D01*
X5429500Y-29118097D01*
X5466446Y-29351368D01*
X5539433Y-29575996D01*
X5610444Y-29715361D01*
X5646657Y-29786433D01*
X5785483Y-29977510D01*
X5952490Y-30144517D01*
X5987127Y-30169683D01*
X6029792Y-30225013D01*
X6035771Y-30294626D01*
X6003165Y-30356421D01*
X5987130Y-30370315D01*
X5969365Y-30383222D01*
X5952488Y-30395484D01*
X5785485Y-30562487D01*
X5785485Y-30562488D01*
X5785483Y-30562490D01*
X5725862Y-30644550D01*
X5646657Y-30753566D01*
X5539433Y-30964003D01*
X5466446Y-31188631D01*
X5429500Y-31421902D01*
X5429500Y-31658097D01*
X5466446Y-31891368D01*
X5539433Y-32115996D01*
X5619320Y-32272781D01*
X5646657Y-32326433D01*
X5785483Y-32517510D01*
X5952490Y-32684517D01*
X5987127Y-32709683D01*
X6029792Y-32765013D01*
X6035771Y-32834626D01*
X6003165Y-32896421D01*
X5987130Y-32910315D01*
X5969365Y-32923222D01*
X5952488Y-32935484D01*
X5785485Y-33102487D01*
X5785485Y-33102488D01*
X5785483Y-33102490D01*
X5725862Y-33184550D01*
X5646657Y-33293566D01*
X5539433Y-33504003D01*
X5466446Y-33728631D01*
X5429500Y-33961902D01*
X5429500Y-34198097D01*
X5466446Y-34431368D01*
X5539433Y-34655996D01*
X5570338Y-34716649D01*
X5646657Y-34866433D01*
X5785483Y-35057510D01*
X5952490Y-35224517D01*
X5987127Y-35249683D01*
X6029792Y-35305013D01*
X6035771Y-35374626D01*
X6003165Y-35436421D01*
X5987130Y-35450315D01*
X5982177Y-35453914D01*
X5952488Y-35475484D01*
X5785485Y-35642487D01*
X5785485Y-35642488D01*
X5785483Y-35642490D01*
X5774782Y-35657219D01*
X5646657Y-35833566D01*
X5539433Y-36044003D01*
X5466446Y-36268631D01*
X5429500Y-36501902D01*
X5429500Y-36738097D01*
X5466446Y-36971368D01*
X5539433Y-37195996D01*
X5605390Y-37325442D01*
X5646657Y-37406433D01*
X5785483Y-37597510D01*
X5952490Y-37764517D01*
X5987127Y-37789683D01*
X6029792Y-37845013D01*
X6035771Y-37914626D01*
X6003165Y-37976421D01*
X5987130Y-37990315D01*
X5970947Y-38002073D01*
X5952488Y-38015484D01*
X5785485Y-38182487D01*
X5785485Y-38182488D01*
X5785483Y-38182490D01*
X5757852Y-38220521D01*
X5646657Y-38373566D01*
X5539433Y-38584003D01*
X5466446Y-38808631D01*
X5429500Y-39041902D01*
X5429500Y-39278097D01*
X5466446Y-39511368D01*
X5539433Y-39735996D01*
X5635043Y-39923640D01*
X5646657Y-39946433D01*
X5785483Y-40137510D01*
X5952490Y-40304517D01*
X6143567Y-40443343D01*
X6220829Y-40482710D01*
X6354003Y-40550566D01*
X6354005Y-40550566D01*
X6354008Y-40550568D01*
X6474412Y-40589689D01*
X6578631Y-40623553D01*
X6811903Y-40660500D01*
X6811908Y-40660500D01*
X7048097Y-40660500D01*
X7281368Y-40623553D01*
X7505992Y-40550568D01*
X7716433Y-40443343D01*
X7907510Y-40304517D01*
X8074517Y-40137510D01*
X8213343Y-39946433D01*
X8320568Y-39735992D01*
X8393553Y-39511368D01*
X8420120Y-39343632D01*
X8430500Y-39278097D01*
X8430500Y-39041902D01*
X8393553Y-38808631D01*
X8332757Y-38621523D01*
X8320568Y-38584008D01*
X8320566Y-38584005D01*
X8320566Y-38584003D01*
X8258548Y-38462287D01*
X8213343Y-38373567D01*
X8074517Y-38182490D01*
X7907510Y-38015483D01*
X7872872Y-37990317D01*
X7830207Y-37934989D01*
X7824228Y-37865375D01*
X7856833Y-37803580D01*
X7872873Y-37789682D01*
X7907510Y-37764517D01*
X8074517Y-37597510D01*
X8213343Y-37406433D01*
X8320568Y-37195992D01*
X8393553Y-36971368D01*
X8417839Y-36818034D01*
X8430500Y-36738097D01*
X8430500Y-36501902D01*
X8393553Y-36268631D01*
X8351245Y-36138422D01*
X8320568Y-36044008D01*
X8320566Y-36044005D01*
X8320566Y-36044003D01*
X8258548Y-35922287D01*
X8213343Y-35833567D01*
X8074517Y-35642490D01*
X7907510Y-35475483D01*
X7872872Y-35450317D01*
X7830207Y-35394989D01*
X7824228Y-35325375D01*
X7856833Y-35263580D01*
X7872873Y-35249682D01*
X7907510Y-35224517D01*
X8074517Y-35057510D01*
X8213343Y-34866433D01*
X8320568Y-34655992D01*
X8393553Y-34431368D01*
X8412652Y-34310781D01*
X8430500Y-34198097D01*
X8430500Y-33961902D01*
X8393553Y-33728631D01*
X8332757Y-33541523D01*
X8320568Y-33504008D01*
X8320566Y-33504005D01*
X8320566Y-33504003D01*
X8258548Y-33382287D01*
X8213343Y-33293567D01*
X8074517Y-33102490D01*
X7907510Y-32935483D01*
X7872872Y-32910317D01*
X7830207Y-32854989D01*
X7824228Y-32785375D01*
X7856833Y-32723580D01*
X7872873Y-32709682D01*
X7907510Y-32684517D01*
X8074517Y-32517510D01*
X8213343Y-32326433D01*
X8320568Y-32115992D01*
X8393553Y-31891368D01*
X8400946Y-31844690D01*
X8430500Y-31658097D01*
X8430500Y-31421902D01*
X8393553Y-31188631D01*
X8320566Y-30964003D01*
X8213342Y-30753566D01*
X8074517Y-30562490D01*
X7907510Y-30395483D01*
X7872872Y-30370317D01*
X7830207Y-30314989D01*
X7824228Y-30245375D01*
X7856833Y-30183580D01*
X7872873Y-30169682D01*
X7907510Y-30144517D01*
X8074517Y-29977510D01*
X8213343Y-29786433D01*
X8320568Y-29575992D01*
X8393553Y-29351368D01*
X8405803Y-29274025D01*
X8430500Y-29118097D01*
X8430500Y-28881902D01*
X8393553Y-28648631D01*
X8358002Y-28539219D01*
X8320568Y-28424008D01*
X8320566Y-28424005D01*
X8320566Y-28424003D01*
X8264002Y-28312991D01*
X8213343Y-28213567D01*
X8074517Y-28022490D01*
X7907510Y-27855483D01*
X7872872Y-27830317D01*
X7830207Y-27774989D01*
X7824228Y-27705375D01*
X7856833Y-27643580D01*
X7872873Y-27629682D01*
X7907510Y-27604517D01*
X8074517Y-27437510D01*
X8213343Y-27246433D01*
X8320568Y-27035992D01*
X8393553Y-26811368D01*
X8405845Y-26733760D01*
X8430500Y-26578097D01*
X8430500Y-26341902D01*
X8393553Y-26108631D01*
X8342086Y-25950233D01*
X8320568Y-25884008D01*
X8320566Y-25884005D01*
X8320566Y-25884003D01*
X8254751Y-25754835D01*
X8213343Y-25673567D01*
X8074517Y-25482490D01*
X7907510Y-25315483D01*
X7905873Y-25314294D01*
X7872873Y-25290318D01*
X7830207Y-25234989D01*
X7824228Y-25165375D01*
X7856833Y-25103580D01*
X7872873Y-25089682D01*
X7907510Y-25064517D01*
X8074517Y-24897510D01*
X8213343Y-24706433D01*
X8320568Y-24495992D01*
X8393553Y-24271368D01*
X8399864Y-24231522D01*
X8430500Y-24038097D01*
X8430500Y-23801902D01*
X8393553Y-23568631D01*
X8341192Y-23407482D01*
X8320568Y-23344008D01*
X8320566Y-23344005D01*
X8320566Y-23344003D01*
X8247132Y-23199882D01*
X8213343Y-23133567D01*
X8074517Y-22942490D01*
X7907510Y-22775483D01*
X7872872Y-22750317D01*
X7830207Y-22694989D01*
X7824228Y-22625375D01*
X7856833Y-22563580D01*
X7872873Y-22549682D01*
X7907510Y-22524517D01*
X8074517Y-22357510D01*
X8213343Y-22166433D01*
X8320568Y-21955992D01*
X8393553Y-21731368D01*
X8405803Y-21654025D01*
X8430500Y-21498097D01*
X8430500Y-21261902D01*
X8393553Y-21028631D01*
X8332516Y-20840781D01*
X8320568Y-20804008D01*
X8320566Y-20804005D01*
X8320566Y-20804003D01*
X8246370Y-20658386D01*
X8213343Y-20593567D01*
X8074517Y-20402490D01*
X7907510Y-20235483D01*
X7872872Y-20210317D01*
X7830207Y-20154989D01*
X7824228Y-20085375D01*
X7856833Y-20023580D01*
X7872873Y-20009682D01*
X7907510Y-19984517D01*
X8074517Y-19817510D01*
X8213343Y-19626433D01*
X8320568Y-19415992D01*
X8393553Y-19191368D01*
X8405803Y-19114025D01*
X8430500Y-18958097D01*
X8430500Y-18721902D01*
X8393553Y-18488631D01*
X8359689Y-18384412D01*
X8320568Y-18264008D01*
X8320566Y-18264005D01*
X8320566Y-18264003D01*
X8246370Y-18118386D01*
X8213343Y-18053567D01*
X8074517Y-17862490D01*
X7907510Y-17695483D01*
X7872872Y-17670317D01*
X7830207Y-17614989D01*
X7824228Y-17545375D01*
X7856833Y-17483580D01*
X7872873Y-17469682D01*
X7907510Y-17444517D01*
X8074517Y-17277510D01*
X8213343Y-17086433D01*
X8320568Y-16875992D01*
X8393553Y-16651368D01*
X8405803Y-16574025D01*
X8430500Y-16418097D01*
X8430500Y-16181902D01*
X8393553Y-15948631D01*
X8332516Y-15760781D01*
X8320568Y-15724008D01*
X8320566Y-15724005D01*
X8320566Y-15724003D01*
X8213342Y-15513566D01*
X8212240Y-15512049D01*
X8074517Y-15322490D01*
X7907510Y-15155483D01*
X7872872Y-15130317D01*
X7830207Y-15074989D01*
X7824228Y-15005375D01*
X7856833Y-14943580D01*
X7872873Y-14929682D01*
X7907510Y-14904517D01*
X8074517Y-14737510D01*
X8213343Y-14546433D01*
X8320568Y-14335992D01*
X8393553Y-14111368D01*
X8405803Y-14034025D01*
X8415255Y-13974349D01*
X8445184Y-13911214D01*
X8504496Y-13874283D01*
X8574358Y-13875281D01*
X8625409Y-13906066D01*
X19868253Y-25148911D01*
X19868254Y-25148912D01*
X19982992Y-25225577D01*
X20007060Y-25235546D01*
X20061464Y-25279387D01*
X20083529Y-25345681D01*
X20066250Y-25413380D01*
X20047291Y-25437787D01*
X20022860Y-25462218D01*
X19913371Y-25626079D01*
X19913366Y-25626089D01*
X19893701Y-25673566D01*
X19860221Y-25754394D01*
X19860038Y-25754835D01*
X19837950Y-25808159D01*
X19837948Y-25808166D01*
X19832425Y-25835933D01*
X19799500Y-26001454D01*
X19799500Y-26001459D01*
X19799500Y-32898541D01*
X19799500Y-32898543D01*
X19799499Y-32898543D01*
X19837947Y-33091829D01*
X19837950Y-33091839D01*
X19913364Y-33273907D01*
X19913371Y-33273920D01*
X20022860Y-33437781D01*
X20022863Y-33437785D01*
X20162214Y-33577136D01*
X20162218Y-33577139D01*
X20326079Y-33686628D01*
X20326092Y-33686635D01*
X20508160Y-33762049D01*
X20508165Y-33762051D01*
X20508169Y-33762051D01*
X20508170Y-33762052D01*
X20701456Y-33800500D01*
X20701459Y-33800500D01*
X20898543Y-33800500D01*
X21028582Y-33774632D01*
X21091835Y-33762051D01*
X21273914Y-33686632D01*
X21437782Y-33577139D01*
X21577139Y-33437782D01*
X21686632Y-33273914D01*
X21762051Y-33091835D01*
X21789944Y-32951610D01*
X21800500Y-32898543D01*
X21800500Y-26540433D01*
X21820185Y-26473394D01*
X21821398Y-26471542D01*
X21832328Y-26455185D01*
X21886631Y-26373914D01*
X21962052Y-26191835D01*
X22000500Y-25998540D01*
X22000500Y-25801460D01*
X21962052Y-25608164D01*
X21909995Y-25482490D01*
X21907619Y-25476753D01*
X21900150Y-25407284D01*
X21931425Y-25344805D01*
X21991514Y-25309152D01*
X22022180Y-25305300D01*
X29532742Y-25305300D01*
X29580194Y-25314739D01*
X29654896Y-25345681D01*
X29724803Y-25374637D01*
X29879453Y-25405399D01*
X29879456Y-25405400D01*
X29879458Y-25405400D01*
X30037144Y-25405400D01*
X30037145Y-25405399D01*
X30191797Y-25374637D01*
X30334606Y-25315484D01*
X30337472Y-25314297D01*
X30337472Y-25314296D01*
X30337479Y-25314294D01*
X30468589Y-25226689D01*
X30580089Y-25115189D01*
X30667694Y-24984079D01*
X30728037Y-24838397D01*
X30758800Y-24683742D01*
X30758800Y-24657979D01*
X30778485Y-24590940D01*
X30831289Y-24545185D01*
X30900447Y-24535241D01*
X30964003Y-24564266D01*
X30993284Y-24601683D01*
X31046657Y-24706433D01*
X31185483Y-24897510D01*
X31352490Y-25064517D01*
X31387127Y-25089683D01*
X31429792Y-25145013D01*
X31435771Y-25214626D01*
X31403165Y-25276421D01*
X31387130Y-25290315D01*
X31384820Y-25291994D01*
X31352488Y-25315484D01*
X31185485Y-25482487D01*
X31185485Y-25482488D01*
X31185483Y-25482490D01*
X31132044Y-25556042D01*
X31046657Y-25673566D01*
X30939433Y-25884003D01*
X30866446Y-26108631D01*
X30829500Y-26341902D01*
X30829500Y-26578097D01*
X30866446Y-26811368D01*
X30939433Y-27035996D01*
X30998065Y-27151066D01*
X31046657Y-27246433D01*
X31185483Y-27437510D01*
X31352490Y-27604517D01*
X31387127Y-27629683D01*
X31429792Y-27685013D01*
X31435771Y-27754626D01*
X31403165Y-27816421D01*
X31387130Y-27830315D01*
X31369365Y-27843222D01*
X31352488Y-27855484D01*
X31185485Y-28022487D01*
X31185485Y-28022488D01*
X31185483Y-28022490D01*
X31165746Y-28049656D01*
X31046657Y-28213566D01*
X30939433Y-28424003D01*
X30866446Y-28648631D01*
X30829500Y-28881902D01*
X30829500Y-29118097D01*
X30866446Y-29351368D01*
X30939433Y-29575996D01*
X31010444Y-29715361D01*
X31046657Y-29786433D01*
X31185483Y-29977510D01*
X31352490Y-30144517D01*
X31387127Y-30169683D01*
X31429792Y-30225013D01*
X31435771Y-30294626D01*
X31403165Y-30356421D01*
X31387130Y-30370315D01*
X31369365Y-30383222D01*
X31352488Y-30395484D01*
X31185485Y-30562487D01*
X31185485Y-30562488D01*
X31185483Y-30562490D01*
X31125862Y-30644550D01*
X31046657Y-30753566D01*
X30939433Y-30964003D01*
X30866446Y-31188631D01*
X30829500Y-31421902D01*
X30829500Y-31658097D01*
X30866446Y-31891368D01*
X30939433Y-32115996D01*
X31019320Y-32272781D01*
X31046657Y-32326433D01*
X31185483Y-32517510D01*
X31352490Y-32684517D01*
X31387127Y-32709683D01*
X31429792Y-32765013D01*
X31435771Y-32834626D01*
X31403165Y-32896421D01*
X31387130Y-32910315D01*
X31369365Y-32923222D01*
X31352488Y-32935484D01*
X31185485Y-33102487D01*
X31185485Y-33102488D01*
X31185483Y-33102490D01*
X31125862Y-33184550D01*
X31046657Y-33293566D01*
X30939433Y-33504003D01*
X30866446Y-33728631D01*
X30829500Y-33961902D01*
X30829500Y-34198097D01*
X30866446Y-34431368D01*
X30939433Y-34655996D01*
X30970338Y-34716649D01*
X31046657Y-34866433D01*
X31185483Y-35057510D01*
X31352490Y-35224517D01*
X31387127Y-35249683D01*
X31429792Y-35305013D01*
X31435771Y-35374626D01*
X31403165Y-35436421D01*
X31387130Y-35450315D01*
X31382177Y-35453914D01*
X31352488Y-35475484D01*
X31185485Y-35642487D01*
X31185485Y-35642488D01*
X31185483Y-35642490D01*
X31174782Y-35657219D01*
X31046657Y-35833566D01*
X30939433Y-36044003D01*
X30866446Y-36268631D01*
X30829500Y-36501902D01*
X30829500Y-36738097D01*
X30866446Y-36971368D01*
X30939433Y-37195996D01*
X31005390Y-37325442D01*
X31046657Y-37406433D01*
X31185483Y-37597510D01*
X31352490Y-37764517D01*
X31387127Y-37789683D01*
X31429792Y-37845013D01*
X31435771Y-37914626D01*
X31403165Y-37976421D01*
X31387130Y-37990315D01*
X31370947Y-38002073D01*
X31352488Y-38015484D01*
X31185485Y-38182487D01*
X31185485Y-38182488D01*
X31185483Y-38182490D01*
X31157852Y-38220521D01*
X31046657Y-38373566D01*
X30939433Y-38584003D01*
X30866446Y-38808631D01*
X30829500Y-39041902D01*
X30829500Y-39278097D01*
X30866446Y-39511368D01*
X30939433Y-39735996D01*
X31035043Y-39923640D01*
X31046657Y-39946433D01*
X31185483Y-40137510D01*
X31352490Y-40304517D01*
X31543567Y-40443343D01*
X31620829Y-40482710D01*
X31754003Y-40550566D01*
X31754005Y-40550566D01*
X31754008Y-40550568D01*
X31874412Y-40589689D01*
X31978631Y-40623553D01*
X32211903Y-40660500D01*
X32211908Y-40660500D01*
X32448097Y-40660500D01*
X32681368Y-40623553D01*
X32905992Y-40550568D01*
X33116433Y-40443343D01*
X33307510Y-40304517D01*
X33474517Y-40137510D01*
X33613343Y-39946433D01*
X33720568Y-39735992D01*
X33793553Y-39511368D01*
X33820120Y-39343632D01*
X33830500Y-39278097D01*
X33830500Y-39041902D01*
X33793553Y-38808631D01*
X33732757Y-38621523D01*
X33720568Y-38584008D01*
X33720566Y-38584005D01*
X33720566Y-38584003D01*
X33658548Y-38462287D01*
X33613343Y-38373567D01*
X33474517Y-38182490D01*
X33307510Y-38015483D01*
X33272872Y-37990317D01*
X33230207Y-37934989D01*
X33224228Y-37865375D01*
X33256833Y-37803580D01*
X33272873Y-37789682D01*
X33307510Y-37764517D01*
X33474517Y-37597510D01*
X33613343Y-37406433D01*
X33720568Y-37195992D01*
X33793553Y-36971368D01*
X33817839Y-36818034D01*
X33830500Y-36738097D01*
X33830500Y-36501902D01*
X33793553Y-36268631D01*
X33751245Y-36138422D01*
X33720568Y-36044008D01*
X33720566Y-36044005D01*
X33720566Y-36044003D01*
X33658548Y-35922287D01*
X33613343Y-35833567D01*
X33474517Y-35642490D01*
X33307510Y-35475483D01*
X33272872Y-35450317D01*
X33230207Y-35394989D01*
X33224228Y-35325375D01*
X33256833Y-35263580D01*
X33272873Y-35249682D01*
X33307510Y-35224517D01*
X33474517Y-35057510D01*
X33613343Y-34866433D01*
X33720568Y-34655992D01*
X33793553Y-34431368D01*
X33812652Y-34310781D01*
X33830500Y-34198097D01*
X33830500Y-33961902D01*
X33793553Y-33728631D01*
X33732757Y-33541523D01*
X33720568Y-33504008D01*
X33720566Y-33504005D01*
X33720566Y-33504003D01*
X33658548Y-33382287D01*
X33613343Y-33293567D01*
X33474517Y-33102490D01*
X33307510Y-32935483D01*
X33272872Y-32910317D01*
X33230207Y-32854989D01*
X33224228Y-32785375D01*
X33256833Y-32723580D01*
X33272873Y-32709682D01*
X33307510Y-32684517D01*
X33474517Y-32517510D01*
X33613343Y-32326433D01*
X33720568Y-32115992D01*
X33793553Y-31891368D01*
X33800946Y-31844690D01*
X33830500Y-31658097D01*
X33830500Y-31421902D01*
X33793553Y-31188631D01*
X33720566Y-30964003D01*
X33613342Y-30753566D01*
X33474517Y-30562490D01*
X33307510Y-30395483D01*
X33272872Y-30370317D01*
X33230207Y-30314989D01*
X33224228Y-30245375D01*
X33256833Y-30183580D01*
X33272873Y-30169682D01*
X33307510Y-30144517D01*
X33474517Y-29977510D01*
X33613343Y-29786433D01*
X33720568Y-29575992D01*
X33793553Y-29351368D01*
X33805803Y-29274025D01*
X33830500Y-29118097D01*
X33830500Y-28881902D01*
X33793553Y-28648631D01*
X33758002Y-28539219D01*
X33720568Y-28424008D01*
X33720566Y-28424005D01*
X33720566Y-28424003D01*
X33664002Y-28312991D01*
X33613343Y-28213567D01*
X33474517Y-28022490D01*
X33307510Y-27855483D01*
X33272872Y-27830317D01*
X33230207Y-27774989D01*
X33224228Y-27705375D01*
X33256833Y-27643580D01*
X33272873Y-27629682D01*
X33307510Y-27604517D01*
X33474517Y-27437510D01*
X33613343Y-27246433D01*
X33720568Y-27035992D01*
X33793553Y-26811368D01*
X33805845Y-26733760D01*
X33830500Y-26578097D01*
X33830500Y-26341902D01*
X33793553Y-26108631D01*
X33742086Y-25950233D01*
X33720568Y-25884008D01*
X33720566Y-25884005D01*
X33720566Y-25884003D01*
X33654751Y-25754835D01*
X33613343Y-25673567D01*
X33474517Y-25482490D01*
X33307510Y-25315483D01*
X33305873Y-25314294D01*
X33272873Y-25290318D01*
X33230207Y-25234989D01*
X33224228Y-25165375D01*
X33256833Y-25103580D01*
X33272873Y-25089682D01*
X33307510Y-25064517D01*
X33474517Y-24897510D01*
X33613343Y-24706433D01*
X33720568Y-24495992D01*
X33793553Y-24271368D01*
X33799864Y-24231522D01*
X33830500Y-24038097D01*
X33830500Y-23801902D01*
X33793553Y-23568631D01*
X33741192Y-23407482D01*
X33720568Y-23344008D01*
X33720566Y-23344005D01*
X33720566Y-23344003D01*
X33647132Y-23199882D01*
X33613343Y-23133567D01*
X33474517Y-22942490D01*
X33307510Y-22775483D01*
X33272872Y-22750317D01*
X33230207Y-22694989D01*
X33224228Y-22625375D01*
X33256833Y-22563580D01*
X33272873Y-22549682D01*
X33307510Y-22524517D01*
X33474517Y-22357510D01*
X33613343Y-22166433D01*
X33720568Y-21955992D01*
X33793553Y-21731368D01*
X33805803Y-21654025D01*
X33830500Y-21498097D01*
X33830500Y-21261902D01*
X33793553Y-21028631D01*
X33732516Y-20840781D01*
X33720568Y-20804008D01*
X33720566Y-20804005D01*
X33720566Y-20804003D01*
X33646370Y-20658386D01*
X33613343Y-20593567D01*
X33474517Y-20402490D01*
X33307510Y-20235483D01*
X33272872Y-20210317D01*
X33230207Y-20154989D01*
X33224228Y-20085375D01*
X33256833Y-20023580D01*
X33272873Y-20009682D01*
X33307510Y-19984517D01*
X33474517Y-19817510D01*
X33613343Y-19626433D01*
X33720568Y-19415992D01*
X33749504Y-19326935D01*
X33788942Y-19269260D01*
X33853300Y-19242062D01*
X33922147Y-19253977D01*
X33955116Y-19277573D01*
X35105694Y-20428151D01*
X35139179Y-20489474D01*
X35134195Y-20559166D01*
X35118333Y-20588715D01*
X35067712Y-20658391D01*
X34974781Y-20840776D01*
X34911522Y-21035465D01*
X34879500Y-21237648D01*
X34879500Y-21442351D01*
X34911522Y-21644534D01*
X34974781Y-21839223D01*
X35067715Y-22021613D01*
X35188028Y-22187213D01*
X35332786Y-22331971D01*
X35487749Y-22444556D01*
X35498390Y-22452287D01*
X35587210Y-22497543D01*
X35680776Y-22545218D01*
X35680778Y-22545218D01*
X35680781Y-22545220D01*
X35781400Y-22577913D01*
X35875465Y-22608477D01*
X35968112Y-22623151D01*
X36077648Y-22640500D01*
X36077649Y-22640500D01*
X36282351Y-22640500D01*
X36282352Y-22640500D01*
X36484534Y-22608477D01*
X36679219Y-22545220D01*
X36861610Y-22452287D01*
X36992059Y-22357511D01*
X37027213Y-22331971D01*
X37027215Y-22331968D01*
X37027219Y-22331966D01*
X37171966Y-22187219D01*
X37171968Y-22187215D01*
X37171971Y-22187213D01*
X37242830Y-22089682D01*
X37292287Y-22021610D01*
X37385220Y-21839219D01*
X37448477Y-21644534D01*
X37480500Y-21442352D01*
X37480500Y-21237648D01*
X37453622Y-21067948D01*
X37448477Y-21035465D01*
X37391505Y-20860124D01*
X37385220Y-20840781D01*
X37385218Y-20840778D01*
X37385218Y-20840776D01*
X37319668Y-20712129D01*
X37292287Y-20658390D01*
X37244088Y-20592049D01*
X37171971Y-20492786D01*
X37027217Y-20348032D01*
X37027212Y-20348028D01*
X36931615Y-20278573D01*
X36931425Y-20278326D01*
X36931133Y-20278221D01*
X36910092Y-20250661D01*
X36888949Y-20223243D01*
X36888858Y-20222850D01*
X36888734Y-20222687D01*
X36888372Y-20220738D01*
X36880905Y-20188272D01*
X36880500Y-20183274D01*
X36880500Y-20069307D01*
X36864911Y-19990939D01*
X36864333Y-19983800D01*
X36870037Y-19956326D01*
X36872538Y-19928384D01*
X36877050Y-19922553D01*
X36878538Y-19915390D01*
X36897743Y-19895817D01*
X36915041Y-19873466D01*
X37027219Y-19791966D01*
X37171966Y-19647219D01*
X37171968Y-19647215D01*
X37171971Y-19647213D01*
X37258524Y-19528081D01*
X37292287Y-19481610D01*
X37385220Y-19299219D01*
X37448477Y-19104534D01*
X37480500Y-18902352D01*
X37480500Y-18697648D01*
X37448477Y-18495465D01*
X37385218Y-18300776D01*
X37351503Y-18234607D01*
X37292287Y-18118390D01*
X37244088Y-18052049D01*
X37171971Y-17952786D01*
X37027217Y-17808032D01*
X37027212Y-17808028D01*
X36931615Y-17738573D01*
X36931425Y-17738326D01*
X36931133Y-17738221D01*
X36910092Y-17710661D01*
X36888949Y-17683243D01*
X36888858Y-17682850D01*
X36888734Y-17682687D01*
X36888372Y-17680738D01*
X36880905Y-17648272D01*
X36880500Y-17643274D01*
X36880500Y-17529307D01*
X36864911Y-17450939D01*
X36864333Y-17443800D01*
X36870037Y-17416326D01*
X36872538Y-17388384D01*
X36877050Y-17382553D01*
X36878538Y-17375390D01*
X36897743Y-17355817D01*
X36915041Y-17333466D01*
X37027219Y-17251966D01*
X37171966Y-17107219D01*
X37171968Y-17107215D01*
X37171971Y-17107213D01*
X37242830Y-17009682D01*
X37292287Y-16941610D01*
X37385220Y-16759219D01*
X37448477Y-16564534D01*
X37480500Y-16362352D01*
X37480500Y-16157648D01*
X37448477Y-15955466D01*
X37446256Y-15948632D01*
X37385218Y-15760776D01*
X37351503Y-15694607D01*
X37292287Y-15578390D01*
X37244088Y-15512049D01*
X37171971Y-15412786D01*
X37027213Y-15268028D01*
X36861614Y-15147715D01*
X36801136Y-15116900D01*
X36768917Y-15100483D01*
X36718123Y-15052511D01*
X36701328Y-14984690D01*
X36723865Y-14918555D01*
X36768917Y-14879516D01*
X36861610Y-14832287D01*
X36944922Y-14771758D01*
X37027213Y-14711971D01*
X37027215Y-14711968D01*
X37027219Y-14711966D01*
X37171966Y-14567219D01*
X37171968Y-14567215D01*
X37171971Y-14567213D01*
X37242830Y-14469682D01*
X37292287Y-14401610D01*
X37385220Y-14219219D01*
X37448477Y-14024534D01*
X37480500Y-13822352D01*
X37480500Y-13617648D01*
X37448477Y-13415466D01*
X37446256Y-13408632D01*
X37385218Y-13220776D01*
X37349551Y-13150776D01*
X37292287Y-13038390D01*
X37284556Y-13027749D01*
X37171971Y-12872786D01*
X37027213Y-12728028D01*
X36861614Y-12607715D01*
X36827470Y-12590318D01*
X36768917Y-12560483D01*
X36718123Y-12512511D01*
X36701328Y-12444690D01*
X36723865Y-12378555D01*
X36768917Y-12339516D01*
X36861610Y-12292287D01*
X36944922Y-12231758D01*
X37027213Y-12171971D01*
X37027215Y-12171968D01*
X37027219Y-12171966D01*
X37171966Y-12027219D01*
X37171968Y-12027215D01*
X37171971Y-12027213D01*
X37261121Y-11904506D01*
X37292287Y-11861610D01*
X37385220Y-11679219D01*
X37448477Y-11484534D01*
X37480500Y-11282352D01*
X37480500Y-11077648D01*
X37457482Y-10932318D01*
X37448477Y-10875465D01*
X37410059Y-10757228D01*
X37385220Y-10680781D01*
X37385218Y-10680778D01*
X37385218Y-10680776D01*
X37325686Y-10563940D01*
X37292287Y-10498390D01*
X37244088Y-10432049D01*
X37171971Y-10332786D01*
X37027213Y-10188028D01*
X36861614Y-10067715D01*
X36827470Y-10050318D01*
X36768917Y-10020483D01*
X36718123Y-9972511D01*
X36701328Y-9904690D01*
X36723865Y-9838555D01*
X36768917Y-9799516D01*
X36861610Y-9752287D01*
X36944922Y-9691758D01*
X37027213Y-9631971D01*
X37027215Y-9631968D01*
X37027219Y-9631966D01*
X37171966Y-9487219D01*
X37171968Y-9487215D01*
X37171971Y-9487213D01*
X37242830Y-9389682D01*
X37292287Y-9321610D01*
X37385220Y-9139219D01*
X37448477Y-8944534D01*
X37480500Y-8742352D01*
X37480500Y-8537648D01*
X37450489Y-8348170D01*
X37448477Y-8335465D01*
X37385218Y-8140776D01*
X37351503Y-8074607D01*
X37292287Y-7958390D01*
X37244088Y-7892049D01*
X37171971Y-7792786D01*
X37027213Y-7648028D01*
X36861614Y-7527715D01*
X36792406Y-7492452D01*
X36768917Y-7480483D01*
X36718123Y-7432511D01*
X36701328Y-7364690D01*
X36723865Y-7298555D01*
X36768917Y-7259516D01*
X36861610Y-7212287D01*
X36944922Y-7151758D01*
X37027213Y-7091971D01*
X37027215Y-7091968D01*
X37027219Y-7091966D01*
X37171966Y-6947219D01*
X37171968Y-6947215D01*
X37171971Y-6947213D01*
X37242830Y-6849682D01*
X37292287Y-6781610D01*
X37385220Y-6599219D01*
X37448477Y-6404534D01*
X37480500Y-6202352D01*
X37480500Y-5997648D01*
X37448477Y-5795466D01*
X37446295Y-5788752D01*
X37385218Y-5600776D01*
X37351503Y-5534607D01*
X37292287Y-5418390D01*
X37245382Y-5353830D01*
X37171971Y-5252786D01*
X37027213Y-5108028D01*
X36861614Y-4987715D01*
X36855006Y-4984348D01*
X36768917Y-4940483D01*
X36718123Y-4892511D01*
X36701328Y-4824690D01*
X36723865Y-4758555D01*
X36768917Y-4719516D01*
X36861610Y-4672287D01*
X36892352Y-4649952D01*
X37027213Y-4551971D01*
X37027215Y-4551968D01*
X37027219Y-4551966D01*
X37171966Y-4407219D01*
X37171968Y-4407215D01*
X37171971Y-4407213D01*
X37239704Y-4313985D01*
X37292287Y-4241610D01*
X37385220Y-4059219D01*
X37448477Y-3864534D01*
X37480500Y-3662352D01*
X37480500Y-3457648D01*
X37467906Y-3378131D01*
X37448477Y-3255465D01*
X37385218Y-3060776D01*
X37334070Y-2960394D01*
X37292287Y-2878390D01*
X37260121Y-2834117D01*
X37171971Y-2712786D01*
X37027213Y-2568028D01*
X36861613Y-2447715D01*
X36861612Y-2447714D01*
X36861610Y-2447713D01*
X36804653Y-2418691D01*
X36679223Y-2354781D01*
X36484534Y-2291522D01*
X36309995Y-2263878D01*
X36282352Y-2259500D01*
X36077648Y-2259500D01*
X36053329Y-2263351D01*
X35875465Y-2291522D01*
X35680776Y-2354781D01*
X35498386Y-2447715D01*
X35332786Y-2568028D01*
X35188028Y-2712786D01*
X35067715Y-2878386D01*
X34974781Y-3060776D01*
X34911522Y-3255465D01*
X34879500Y-3457648D01*
X34879500Y-3662351D01*
X34911522Y-3864534D01*
X34974781Y-4059223D01*
X35034279Y-4175992D01*
X35053805Y-4214315D01*
X35067715Y-4241613D01*
X35188028Y-4407213D01*
X35332786Y-4551971D01*
X35474555Y-4654970D01*
X35498390Y-4672287D01*
X35567464Y-4707482D01*
X35591080Y-4719515D01*
X35641876Y-4767490D01*
X35658671Y-4835311D01*
X35636134Y-4901446D01*
X35591080Y-4940485D01*
X35498386Y-4987715D01*
X35332786Y-5108028D01*
X35188028Y-5252786D01*
X35067715Y-5418386D01*
X34974781Y-5600776D01*
X34911522Y-5795465D01*
X34879500Y-5997648D01*
X34879500Y-6202351D01*
X34911522Y-6404534D01*
X34974781Y-6599223D01*
X35067715Y-6781613D01*
X35188028Y-6947213D01*
X35332786Y-7091971D01*
X35453262Y-7179500D01*
X35498390Y-7212287D01*
X35589840Y-7258883D01*
X35591080Y-7259515D01*
X35641876Y-7307490D01*
X35658671Y-7375311D01*
X35636134Y-7441446D01*
X35591080Y-7480485D01*
X35498386Y-7527715D01*
X35332786Y-7648028D01*
X35188028Y-7792786D01*
X35067715Y-7958386D01*
X34974781Y-8140776D01*
X34911522Y-8335465D01*
X34879500Y-8537648D01*
X34879500Y-8742351D01*
X34911522Y-8944534D01*
X34974781Y-9139223D01*
X35034279Y-9255992D01*
X35045381Y-9277782D01*
X35067715Y-9321613D01*
X35188028Y-9487213D01*
X35332786Y-9631971D01*
X35487749Y-9744556D01*
X35498390Y-9752287D01*
X35589840Y-9798883D01*
X35591080Y-9799515D01*
X35641876Y-9847490D01*
X35658671Y-9915311D01*
X35636134Y-9981446D01*
X35591080Y-10020485D01*
X35498386Y-10067715D01*
X35332786Y-10188028D01*
X35188028Y-10332786D01*
X35067715Y-10498386D01*
X34974781Y-10680776D01*
X34911522Y-10875465D01*
X34879500Y-11077648D01*
X34879500Y-11282352D01*
X34881916Y-11297603D01*
X34911522Y-11484534D01*
X34974781Y-11679223D01*
X35034279Y-11795992D01*
X35045381Y-11817782D01*
X35067715Y-11861613D01*
X35188028Y-12027213D01*
X35332786Y-12171971D01*
X35452490Y-12258939D01*
X35498390Y-12292287D01*
X35589840Y-12338883D01*
X35591080Y-12339515D01*
X35641876Y-12387490D01*
X35658671Y-12455311D01*
X35636134Y-12521446D01*
X35591080Y-12560485D01*
X35498386Y-12607715D01*
X35332786Y-12728028D01*
X35188032Y-12872782D01*
X35128868Y-12954215D01*
X35073538Y-12996880D01*
X35003924Y-13002859D01*
X34942129Y-12970253D01*
X34913989Y-12928781D01*
X34890795Y-12872786D01*
X34859275Y-12796689D01*
X34782614Y-12681957D01*
X34782612Y-12681954D01*
X34782611Y-12681953D01*
X33817480Y-11716823D01*
X33783995Y-11655500D01*
X33787230Y-11590825D01*
X33793553Y-11571368D01*
X33810134Y-11466679D01*
X33830500Y-11338097D01*
X33830500Y-11101902D01*
X33793553Y-10868631D01*
X33738599Y-10699501D01*
X33720568Y-10644008D01*
X33720566Y-10644005D01*
X33720566Y-10644003D01*
X33613342Y-10433566D01*
X33612240Y-10432049D01*
X33474517Y-10242490D01*
X33307510Y-10075483D01*
X33272872Y-10050317D01*
X33230207Y-9994989D01*
X33224228Y-9925375D01*
X33256833Y-9863580D01*
X33272873Y-9849682D01*
X33307510Y-9824517D01*
X33474517Y-9657510D01*
X33613343Y-9466433D01*
X33720568Y-9255992D01*
X33793553Y-9031368D01*
X33805803Y-8954025D01*
X33830500Y-8798097D01*
X33830500Y-8561902D01*
X33793553Y-8328631D01*
X33732516Y-8140781D01*
X33720568Y-8104008D01*
X33720566Y-8104005D01*
X33720566Y-8104003D01*
X33613342Y-7893566D01*
X33612240Y-7892049D01*
X33474517Y-7702490D01*
X33307510Y-7535483D01*
X33248282Y-7492451D01*
X33205617Y-7437122D01*
X33197550Y-7382404D01*
X33199104Y-7362657D01*
X32467574Y-6631128D01*
X32526853Y-6615245D01*
X32643147Y-6548102D01*
X32738102Y-6453147D01*
X32805245Y-6336853D01*
X32821128Y-6277575D01*
X33552658Y-7009105D01*
X33552658Y-7009104D01*
X33612914Y-6926169D01*
X33612918Y-6926163D01*
X33720102Y-6715802D01*
X33793065Y-6491247D01*
X33830000Y-6258052D01*
X33830000Y-6021947D01*
X33793065Y-5788752D01*
X33720102Y-5564197D01*
X33612914Y-5353828D01*
X33552658Y-5270894D01*
X33552658Y-5270893D01*
X32821128Y-6002424D01*
X32805245Y-5943147D01*
X32738102Y-5826853D01*
X32643147Y-5731898D01*
X32526853Y-5664755D01*
X32467574Y-5648871D01*
X33199105Y-4917340D01*
X33197551Y-4897594D01*
X33211915Y-4829216D01*
X33248284Y-4787547D01*
X33307510Y-4744517D01*
X33474517Y-4577510D01*
X33613343Y-4386433D01*
X33720568Y-4175992D01*
X33793553Y-3951368D01*
X33809624Y-3849901D01*
X33830500Y-3718097D01*
X33830500Y-3481902D01*
X33793553Y-3248631D01*
X33732516Y-3060781D01*
X33720568Y-3024008D01*
X33720566Y-3024005D01*
X33720566Y-3024003D01*
X33646370Y-2878386D01*
X33613343Y-2813567D01*
X33474517Y-2622490D01*
X33307510Y-2455483D01*
X33116433Y-2316657D01*
X33067103Y-2291522D01*
X32905996Y-2209433D01*
X32681368Y-2136446D01*
X32448097Y-2099500D01*
X32448092Y-2099500D01*
X32211908Y-2099500D01*
X32211903Y-2099500D01*
X31978631Y-2136446D01*
X31754003Y-2209433D01*
X31543566Y-2316657D01*
X31487119Y-2357669D01*
X31352490Y-2455483D01*
X31352488Y-2455485D01*
X31352487Y-2455485D01*
X31185485Y-2622487D01*
X31185485Y-2622488D01*
X31185483Y-2622490D01*
X31158867Y-2659124D01*
X31046657Y-2813566D01*
X30939433Y-3024003D01*
X30866446Y-3248631D01*
X30829500Y-3481902D01*
X30829500Y-3718097D01*
X30866446Y-3951368D01*
X30939433Y-4175996D01*
X31036248Y-4366005D01*
X31046657Y-4386433D01*
X31185483Y-4577510D01*
X31352490Y-4744517D01*
X31411716Y-4787547D01*
X31454381Y-4842875D01*
X31462448Y-4897593D01*
X31460893Y-4917340D01*
X32192425Y-5648871D01*
X32133147Y-5664755D01*
X32016853Y-5731898D01*
X31921898Y-5826853D01*
X31854755Y-5943147D01*
X31838871Y-6002425D01*
X31107340Y-5270894D01*
X31047084Y-5353830D01*
X30939897Y-5564197D01*
X30866934Y-5788752D01*
X30830000Y-6021947D01*
X30830000Y-6258052D01*
X30866934Y-6491247D01*
X30939897Y-6715802D01*
X31047087Y-6926174D01*
X31107338Y-7009104D01*
X31107340Y-7009105D01*
X31838871Y-6277574D01*
X31854755Y-6336853D01*
X31921898Y-6453147D01*
X32016853Y-6548102D01*
X32133147Y-6615245D01*
X32192425Y-6631128D01*
X31460893Y-7362658D01*
X31462448Y-7382405D01*
X31448084Y-7450783D01*
X31411717Y-7492451D01*
X31352490Y-7535482D01*
X31185485Y-7702487D01*
X31185485Y-7702488D01*
X31185483Y-7702490D01*
X31148521Y-7753364D01*
X31046657Y-7893566D01*
X30939433Y-8104003D01*
X30866446Y-8328631D01*
X30829500Y-8561902D01*
X30829500Y-8798097D01*
X30866446Y-9031368D01*
X30939433Y-9255996D01*
X31007550Y-9389682D01*
X31046657Y-9466433D01*
X31185483Y-9657510D01*
X31352490Y-9824517D01*
X31387127Y-9849683D01*
X31429792Y-9905013D01*
X31435771Y-9974626D01*
X31403165Y-10036421D01*
X31387130Y-10050315D01*
X31369365Y-10063222D01*
X31352488Y-10075484D01*
X31185485Y-10242487D01*
X31185485Y-10242488D01*
X31185483Y-10242490D01*
X31125862Y-10324550D01*
X31046657Y-10433566D01*
X30939433Y-10644003D01*
X30866446Y-10868631D01*
X30829500Y-11101902D01*
X30829500Y-11338097D01*
X30866446Y-11571368D01*
X30939433Y-11795996D01*
X31002193Y-11919168D01*
X31046657Y-12006433D01*
X31185483Y-12197510D01*
X31352490Y-12364517D01*
X31387127Y-12389683D01*
X31429792Y-12445013D01*
X31435771Y-12514626D01*
X31403165Y-12576421D01*
X31387130Y-12590315D01*
X31369365Y-12603222D01*
X31352488Y-12615484D01*
X31185485Y-12782487D01*
X31185485Y-12782488D01*
X31185483Y-12782490D01*
X31125862Y-12864550D01*
X31046657Y-12973566D01*
X30939433Y-13184003D01*
X30866446Y-13408631D01*
X30829500Y-13641902D01*
X30829500Y-13878097D01*
X30866446Y-14111368D01*
X30939433Y-14335996D01*
X31014632Y-14483580D01*
X31046657Y-14546433D01*
X31185483Y-14737510D01*
X31352490Y-14904517D01*
X31387127Y-14929683D01*
X31429792Y-14985013D01*
X31435771Y-15054626D01*
X31403165Y-15116421D01*
X31387130Y-15130315D01*
X31369365Y-15143222D01*
X31352488Y-15155484D01*
X31185485Y-15322487D01*
X31185485Y-15322488D01*
X31185483Y-15322490D01*
X31141457Y-15383086D01*
X31046657Y-15513566D01*
X30939433Y-15724003D01*
X30866446Y-15948631D01*
X30829500Y-16181902D01*
X30829500Y-16418097D01*
X30866446Y-16651368D01*
X30939433Y-16875996D01*
X31007550Y-17009682D01*
X31046657Y-17086433D01*
X31185483Y-17277510D01*
X31352490Y-17444517D01*
X31387127Y-17469683D01*
X31429792Y-17525013D01*
X31435771Y-17594626D01*
X31403165Y-17656421D01*
X31387130Y-17670315D01*
X31372785Y-17680738D01*
X31352488Y-17695484D01*
X31185485Y-17862487D01*
X31185485Y-17862488D01*
X31185483Y-17862490D01*
X31125862Y-17944550D01*
X31046657Y-18053566D01*
X30939433Y-18264003D01*
X30866446Y-18488631D01*
X30829500Y-18721902D01*
X30829500Y-18958097D01*
X30866446Y-19191368D01*
X30939433Y-19415996D01*
X30996546Y-19528085D01*
X31046657Y-19626433D01*
X31185483Y-19817510D01*
X31352490Y-19984517D01*
X31387127Y-20009683D01*
X31429792Y-20065013D01*
X31435771Y-20134626D01*
X31403165Y-20196421D01*
X31387130Y-20210315D01*
X31372785Y-20220738D01*
X31352488Y-20235484D01*
X31185485Y-20402487D01*
X31185485Y-20402488D01*
X31185483Y-20402490D01*
X31159186Y-20438685D01*
X31046657Y-20593566D01*
X30939433Y-20804003D01*
X30866446Y-21028631D01*
X30829500Y-21261902D01*
X30829500Y-21498097D01*
X30866446Y-21731368D01*
X30939433Y-21955996D01*
X31007550Y-22089682D01*
X31046657Y-22166433D01*
X31185483Y-22357510D01*
X31352490Y-22524517D01*
X31387127Y-22549683D01*
X31429792Y-22605013D01*
X31435771Y-22674626D01*
X31403165Y-22736421D01*
X31387130Y-22750315D01*
X31369365Y-22763222D01*
X31352488Y-22775484D01*
X31185485Y-22942487D01*
X31185485Y-22942488D01*
X31185483Y-22942490D01*
X31132261Y-23015743D01*
X31046657Y-23133566D01*
X30939433Y-23344003D01*
X30866446Y-23568631D01*
X30829500Y-23801902D01*
X30829500Y-24038097D01*
X30830309Y-24043205D01*
X30821355Y-24112498D01*
X30776359Y-24165950D01*
X30709607Y-24186590D01*
X30642293Y-24167865D01*
X30604734Y-24131494D01*
X30580089Y-24094611D01*
X30580086Y-24094607D01*
X30468592Y-23983113D01*
X30468588Y-23983110D01*
X30337485Y-23895509D01*
X30337472Y-23895502D01*
X30191801Y-23835164D01*
X30191789Y-23835161D01*
X30037145Y-23804400D01*
X30037142Y-23804400D01*
X29879458Y-23804400D01*
X29879455Y-23804400D01*
X29724810Y-23835161D01*
X29724798Y-23835164D01*
X29580677Y-23894861D01*
X29533225Y-23904300D01*
X20656319Y-23904300D01*
X20589280Y-23884615D01*
X20568638Y-23867981D01*
X9549880Y-12849223D01*
X14799500Y-12849223D01*
X14799500Y-13150776D01*
X14799501Y-13150793D01*
X14838861Y-13449766D01*
X14916913Y-13741060D01*
X15032314Y-14019661D01*
X15032318Y-14019671D01*
X15183099Y-14280831D01*
X15366679Y-14520078D01*
X15366685Y-14520085D01*
X15579914Y-14733314D01*
X15579921Y-14733320D01*
X15819168Y-14916900D01*
X16080328Y-15067681D01*
X16080329Y-15067681D01*
X16080332Y-15067683D01*
X16266072Y-15144619D01*
X16358939Y-15183086D01*
X16358940Y-15183086D01*
X16358942Y-15183087D01*
X16650232Y-15261138D01*
X16949217Y-15300500D01*
X16949224Y-15300500D01*
X17250776Y-15300500D01*
X17250783Y-15300500D01*
X17549768Y-15261138D01*
X17841058Y-15183087D01*
X18119668Y-15067683D01*
X18380832Y-14916900D01*
X18620080Y-14733319D01*
X18833319Y-14520080D01*
X19016900Y-14280832D01*
X19167683Y-14019668D01*
X19283087Y-13741058D01*
X19361138Y-13449768D01*
X19400500Y-13150783D01*
X19400500Y-12849217D01*
X19361138Y-12550232D01*
X19283087Y-12258942D01*
X19257641Y-12197511D01*
X19206891Y-12074989D01*
X19167683Y-11980332D01*
X19146464Y-11943580D01*
X19016900Y-11719168D01*
X18833320Y-11479921D01*
X18833314Y-11479914D01*
X18620085Y-11266685D01*
X18620078Y-11266679D01*
X18380831Y-11083099D01*
X18119671Y-10932318D01*
X18119661Y-10932314D01*
X17841060Y-10816913D01*
X17549766Y-10738861D01*
X17250793Y-10699501D01*
X17250788Y-10699500D01*
X17250783Y-10699500D01*
X16949217Y-10699500D01*
X16949211Y-10699500D01*
X16949206Y-10699501D01*
X16650233Y-10738861D01*
X16358939Y-10816913D01*
X16080338Y-10932314D01*
X16080328Y-10932318D01*
X15819168Y-11083099D01*
X15579921Y-11266679D01*
X15579914Y-11266685D01*
X15366685Y-11479914D01*
X15366679Y-11479921D01*
X15183099Y-11719168D01*
X15032318Y-11980328D01*
X15032314Y-11980338D01*
X14916913Y-12258939D01*
X14838861Y-12550233D01*
X14799501Y-12849206D01*
X14799500Y-12849223D01*
X9549880Y-12849223D01*
X8417480Y-11716823D01*
X8383995Y-11655500D01*
X8387230Y-11590825D01*
X8393553Y-11571368D01*
X8410134Y-11466679D01*
X8430500Y-11338097D01*
X8430500Y-11101902D01*
X8393553Y-10868631D01*
X8338599Y-10699501D01*
X8320568Y-10644008D01*
X8320566Y-10644005D01*
X8320566Y-10644003D01*
X8213342Y-10433566D01*
X8212240Y-10432049D01*
X8074517Y-10242490D01*
X7907510Y-10075483D01*
X7872872Y-10050317D01*
X7830207Y-9994989D01*
X7824228Y-9925375D01*
X7856833Y-9863580D01*
X7872873Y-9849682D01*
X7907510Y-9824517D01*
X8074517Y-9657510D01*
X8213343Y-9466433D01*
X8320568Y-9255992D01*
X8393553Y-9031368D01*
X8405803Y-8954025D01*
X8430500Y-8798097D01*
X8430500Y-8561902D01*
X8393553Y-8328631D01*
X8332516Y-8140781D01*
X8320568Y-8104008D01*
X8320566Y-8104005D01*
X8320566Y-8104003D01*
X8213342Y-7893566D01*
X8212240Y-7892049D01*
X8074517Y-7702490D01*
X7907510Y-7535483D01*
X7848282Y-7492451D01*
X7805617Y-7437122D01*
X7797550Y-7382404D01*
X7799104Y-7362657D01*
X7067574Y-6631128D01*
X7126853Y-6615245D01*
X7243147Y-6548102D01*
X7338102Y-6453147D01*
X7405245Y-6336853D01*
X7421128Y-6277575D01*
X8152658Y-7009105D01*
X8152658Y-7009104D01*
X8212914Y-6926169D01*
X8212918Y-6926163D01*
X8320102Y-6715802D01*
X8393065Y-6491247D01*
X8430000Y-6258052D01*
X8430000Y-6021947D01*
X8393065Y-5788752D01*
X8320102Y-5564197D01*
X8212914Y-5353828D01*
X8122964Y-5230023D01*
X8099484Y-5164216D01*
X8115309Y-5096162D01*
X8164640Y-5048220D01*
X8164546Y-5048047D01*
X8165169Y-5047706D01*
X8165415Y-5047468D01*
X8166480Y-5046990D01*
X8172326Y-5043797D01*
X8172331Y-5043796D01*
X8287546Y-4957546D01*
X8373796Y-4842331D01*
X8424091Y-4707483D01*
X8430500Y-4647873D01*
X8430499Y-2552128D01*
X8424091Y-2492517D01*
X8419422Y-2480000D01*
X8373797Y-2357671D01*
X8373793Y-2357664D01*
X8287547Y-2242455D01*
X8287544Y-2242452D01*
X8172335Y-2156206D01*
X8172328Y-2156202D01*
X8037482Y-2105908D01*
X8037483Y-2105908D01*
X7977883Y-2099501D01*
X7977881Y-2099500D01*
X7977873Y-2099500D01*
X7977864Y-2099500D01*
X5882129Y-2099500D01*
X5882123Y-2099501D01*
X5822516Y-2105908D01*
X5687671Y-2156202D01*
X5687664Y-2156206D01*
X5572455Y-2242452D01*
X5572452Y-2242455D01*
X5486206Y-2357664D01*
X5486202Y-2357671D01*
X5435908Y-2492517D01*
X5430900Y-2539105D01*
X5429501Y-2552123D01*
X5429500Y-2552135D01*
X1719408Y-2552135D01*
X1950581Y-2279191D01*
X1957500Y-2271675D01*
X2271675Y-1957500D01*
X2279191Y-1950581D01*
X2618240Y-1663420D01*
X2626294Y-1657152D01*
X2987884Y-1398982D01*
X2996444Y-1393389D01*
X3378139Y-1165948D01*
X3387137Y-1161080D01*
X3786268Y-965956D01*
X3795650Y-961841D01*
X4209553Y-800336D01*
X4219205Y-797021D01*
X4645054Y-670241D01*
X4654950Y-667734D01*
X5089809Y-576554D01*
X5099881Y-574874D01*
X5540792Y-519915D01*
X5550961Y-519072D01*
X5997437Y-500605D01*
X6002561Y-500500D01*
X6065892Y-500500D01*
X93434108Y-500500D01*
X93497439Y-500500D01*
X93502562Y-500605D01*
G37*
%TD.AperFunction*%
%TD*%
%TA.AperFunction,NonConductor*%
G36*
X50307696Y-25704596D02*
G01*
X50358767Y-25735387D01*
X55750535Y-31127155D01*
X55750564Y-31127186D01*
X55893014Y-31269636D01*
X55893018Y-31269639D01*
X56056882Y-31379130D01*
X56056884Y-31379130D01*
X56056886Y-31379132D01*
X56162265Y-31422781D01*
X56164251Y-31423603D01*
X56192313Y-31446232D01*
X56218608Y-31467416D01*
X56218616Y-31467441D01*
X56218639Y-31467460D01*
X56229786Y-31500988D01*
X56240681Y-31533707D01*
X56240674Y-31533734D01*
X56240683Y-31533761D01*
X56232097Y-31567357D01*
X56223411Y-31601408D01*
X56223387Y-31601438D01*
X56223383Y-31601455D01*
X56223352Y-31601483D01*
X56204442Y-31625830D01*
X56035486Y-31794786D01*
X56035485Y-31794788D01*
X56035483Y-31794790D01*
X55994264Y-31851523D01*
X55896657Y-31985866D01*
X55789433Y-32196303D01*
X55716446Y-32420931D01*
X55679500Y-32654202D01*
X55679500Y-32890397D01*
X55716446Y-33123668D01*
X55789433Y-33348296D01*
X55884406Y-33534690D01*
X55896657Y-33558733D01*
X56035483Y-33749810D01*
X56035485Y-33749812D01*
X56143181Y-33857508D01*
X56176666Y-33918831D01*
X56179500Y-33945189D01*
X56179500Y-34514217D01*
X56159815Y-34581256D01*
X56143181Y-34601898D01*
X50331076Y-40414002D01*
X50269753Y-40447487D01*
X50200061Y-40442503D01*
X50144128Y-40400631D01*
X50125464Y-40364639D01*
X50111294Y-40321028D01*
X50085220Y-40240781D01*
X49992287Y-40058390D01*
X49948278Y-39997816D01*
X49871971Y-39892786D01*
X49727213Y-39748028D01*
X49561614Y-39627715D01*
X49555006Y-39624348D01*
X49468917Y-39580483D01*
X49418123Y-39532511D01*
X49401328Y-39464690D01*
X49423865Y-39398555D01*
X49468917Y-39359516D01*
X49561610Y-39312287D01*
X49644155Y-39252315D01*
X49727213Y-39191971D01*
X49727215Y-39191968D01*
X49727219Y-39191966D01*
X49871966Y-39047219D01*
X49871968Y-39047215D01*
X49871971Y-39047213D01*
X49980354Y-38898034D01*
X49992287Y-38881610D01*
X50085220Y-38699219D01*
X50148477Y-38504534D01*
X50180500Y-38302352D01*
X50180500Y-38097648D01*
X50170040Y-38031610D01*
X50148477Y-37895465D01*
X50097457Y-37738443D01*
X50085220Y-37700781D01*
X50085218Y-37700778D01*
X50085218Y-37700776D01*
X50051503Y-37634607D01*
X49992287Y-37518390D01*
X49944308Y-37452352D01*
X49871971Y-37352786D01*
X49727213Y-37208028D01*
X49561614Y-37087715D01*
X49555006Y-37084348D01*
X49468917Y-37040483D01*
X49418123Y-36992511D01*
X49401328Y-36924690D01*
X49423865Y-36858555D01*
X49468917Y-36819516D01*
X49561610Y-36772287D01*
X49644374Y-36712156D01*
X49727213Y-36651971D01*
X49727215Y-36651968D01*
X49727219Y-36651966D01*
X49871966Y-36507219D01*
X49871968Y-36507215D01*
X49871971Y-36507213D01*
X49980354Y-36358034D01*
X49992287Y-36341610D01*
X50085220Y-36159219D01*
X50148477Y-35964534D01*
X50180500Y-35762352D01*
X50180500Y-35557648D01*
X50170028Y-35491530D01*
X50148477Y-35355465D01*
X50105928Y-35224514D01*
X50085220Y-35160781D01*
X50085218Y-35160778D01*
X50085218Y-35160776D01*
X50043316Y-35078540D01*
X49992287Y-34978390D01*
X49944308Y-34912352D01*
X49871971Y-34812786D01*
X49727213Y-34668028D01*
X49561614Y-34547715D01*
X49555006Y-34544348D01*
X49468917Y-34500483D01*
X49418123Y-34452511D01*
X49401328Y-34384690D01*
X49423865Y-34318555D01*
X49468917Y-34279516D01*
X49561610Y-34232287D01*
X49657161Y-34162866D01*
X49727213Y-34111971D01*
X49727215Y-34111968D01*
X49727219Y-34111966D01*
X49871966Y-33967219D01*
X49871968Y-33967215D01*
X49871971Y-33967213D01*
X49951675Y-33857508D01*
X49992287Y-33801610D01*
X50085220Y-33619219D01*
X50148477Y-33424534D01*
X50180500Y-33222352D01*
X50180500Y-33017648D01*
X50170040Y-32951610D01*
X50148477Y-32815465D01*
X50085218Y-32620776D01*
X50042249Y-32536446D01*
X49992287Y-32438390D01*
X49944308Y-32372352D01*
X49871971Y-32272786D01*
X49727213Y-32128028D01*
X49561614Y-32007715D01*
X49555006Y-32004348D01*
X49468917Y-31960483D01*
X49418123Y-31912511D01*
X49401328Y-31844690D01*
X49423865Y-31778555D01*
X49468917Y-31739516D01*
X49561610Y-31692287D01*
X49628956Y-31643358D01*
X49727213Y-31571971D01*
X49727215Y-31571968D01*
X49727219Y-31571966D01*
X49871966Y-31427219D01*
X49871968Y-31427215D01*
X49871971Y-31427213D01*
X49980354Y-31278034D01*
X49992287Y-31261610D01*
X50085220Y-31079219D01*
X50148477Y-30884534D01*
X50180500Y-30682352D01*
X50180500Y-30477648D01*
X50171926Y-30423514D01*
X50148477Y-30275465D01*
X50085218Y-30080776D01*
X50051503Y-30014607D01*
X49992287Y-29898390D01*
X49948336Y-29837896D01*
X49871971Y-29732786D01*
X49727213Y-29588028D01*
X49561614Y-29467715D01*
X49531474Y-29452358D01*
X49468917Y-29420483D01*
X49418123Y-29372511D01*
X49401328Y-29304690D01*
X49423865Y-29238555D01*
X49468917Y-29199516D01*
X49561610Y-29152287D01*
X49621662Y-29108657D01*
X49727213Y-29031971D01*
X49727215Y-29031968D01*
X49727219Y-29031966D01*
X49871966Y-28887219D01*
X49871968Y-28887215D01*
X49871971Y-28887213D01*
X49941173Y-28791963D01*
X49992287Y-28721610D01*
X50085220Y-28539219D01*
X50148477Y-28344534D01*
X50180500Y-28142352D01*
X50180500Y-27937648D01*
X50177717Y-27920078D01*
X50148477Y-27735465D01*
X50114106Y-27629682D01*
X50085220Y-27540781D01*
X50085218Y-27540778D01*
X50085218Y-27540776D01*
X50050048Y-27471752D01*
X49992287Y-27358390D01*
X49984556Y-27347749D01*
X49871971Y-27192786D01*
X49727213Y-27048028D01*
X49561614Y-26927715D01*
X49501915Y-26897297D01*
X49468917Y-26880483D01*
X49418123Y-26832511D01*
X49401328Y-26764690D01*
X49423865Y-26698555D01*
X49468917Y-26659516D01*
X49561610Y-26612287D01*
X49646264Y-26550783D01*
X49727213Y-26491971D01*
X49727215Y-26491968D01*
X49727219Y-26491966D01*
X49871966Y-26347219D01*
X49871968Y-26347215D01*
X49871971Y-26347213D01*
X49928820Y-26268966D01*
X49992287Y-26181610D01*
X50085220Y-25999219D01*
X50138275Y-25835933D01*
X50148474Y-25804544D01*
X50148474Y-25804542D01*
X50148477Y-25804534D01*
X50148611Y-25803686D01*
X50148752Y-25803389D01*
X50149612Y-25799806D01*
X50150364Y-25799986D01*
X50178528Y-25740551D01*
X50237833Y-25703610D01*
X50307696Y-25704596D01*
G37*
%TD.AperFunction*%
%TA.AperFunction,NonConductor*%
G36*
X48014138Y-19820185D02*
G01*
X48059893Y-19872989D01*
X48069837Y-19942147D01*
X48040812Y-20005703D01*
X47982034Y-20043477D01*
X47975616Y-20045176D01*
X47972520Y-20045907D01*
X47837671Y-20096202D01*
X47837664Y-20096206D01*
X47722455Y-20182452D01*
X47722452Y-20182455D01*
X47636206Y-20297664D01*
X47636202Y-20297671D01*
X47585908Y-20432517D01*
X47579785Y-20489474D01*
X47579501Y-20492123D01*
X47579500Y-20492135D01*
X47579500Y-22187870D01*
X47579501Y-22187876D01*
X47585908Y-22247483D01*
X47636202Y-22382328D01*
X47636206Y-22382335D01*
X47688571Y-22452284D01*
X47722454Y-22497546D01*
X47829811Y-22577914D01*
X47871682Y-22633847D01*
X47879500Y-22677180D01*
X47879500Y-22940241D01*
X47881110Y-22948333D01*
X47881111Y-22948339D01*
X47917947Y-23133533D01*
X47917949Y-23133537D01*
X47940038Y-23186864D01*
X47993366Y-23315611D01*
X47993371Y-23315620D01*
X48102860Y-23479481D01*
X48102863Y-23479485D01*
X48246537Y-23623159D01*
X48246559Y-23623179D01*
X48644612Y-24021232D01*
X48678097Y-24082555D01*
X48673113Y-24152247D01*
X48631241Y-24208180D01*
X48580055Y-24229812D01*
X48580194Y-24230388D01*
X48576721Y-24231221D01*
X48576332Y-24231385D01*
X48576109Y-24231421D01*
X48575463Y-24231523D01*
X48380776Y-24294781D01*
X48198386Y-24387715D01*
X48032786Y-24508028D01*
X47888028Y-24652786D01*
X47767715Y-24818386D01*
X47674781Y-25000776D01*
X47611522Y-25195465D01*
X47587731Y-25345681D01*
X47579500Y-25397648D01*
X47579500Y-25602352D01*
X47580421Y-25608164D01*
X47611522Y-25804534D01*
X47674781Y-25999223D01*
X47767715Y-26181613D01*
X47888028Y-26347213D01*
X48032786Y-26491971D01*
X48151324Y-26578092D01*
X48198390Y-26612287D01*
X48289840Y-26658883D01*
X48291080Y-26659515D01*
X48341876Y-26707490D01*
X48358671Y-26775311D01*
X48336134Y-26841446D01*
X48291080Y-26880485D01*
X48198386Y-26927715D01*
X48032786Y-27048028D01*
X47888028Y-27192786D01*
X47767715Y-27358386D01*
X47674781Y-27540776D01*
X47611522Y-27735465D01*
X47579500Y-27937648D01*
X47579500Y-28142351D01*
X47611522Y-28344534D01*
X47674781Y-28539223D01*
X47730528Y-28648631D01*
X47751611Y-28690009D01*
X47767715Y-28721613D01*
X47888028Y-28887213D01*
X48032786Y-29031971D01*
X48151324Y-29118092D01*
X48198390Y-29152287D01*
X48289840Y-29198883D01*
X48291080Y-29199515D01*
X48341876Y-29247490D01*
X48358671Y-29315311D01*
X48336134Y-29381446D01*
X48291080Y-29420485D01*
X48198386Y-29467715D01*
X48032786Y-29588028D01*
X47888028Y-29732786D01*
X47767715Y-29898386D01*
X47674781Y-30080778D01*
X47611522Y-30275468D01*
X47588073Y-30423514D01*
X47558143Y-30486649D01*
X47553281Y-30491796D01*
X43391564Y-34653515D01*
X42011520Y-36033559D01*
X42011518Y-36033561D01*
X41970389Y-36074690D01*
X41872159Y-36172919D01*
X41762668Y-36336785D01*
X41762665Y-36336790D01*
X41754342Y-36356886D01*
X41754336Y-36356901D01*
X41753275Y-36359464D01*
X41687249Y-36518864D01*
X41678967Y-36560500D01*
X41677128Y-36569740D01*
X41677128Y-36569743D01*
X41648800Y-36712156D01*
X41648800Y-38497017D01*
X41629115Y-38564056D01*
X41612481Y-38584698D01*
X37516426Y-42680752D01*
X37455103Y-42714237D01*
X37385411Y-42709253D01*
X37329478Y-42667381D01*
X37318260Y-42649365D01*
X37292286Y-42598388D01*
X37171971Y-42432786D01*
X37027213Y-42288028D01*
X36861614Y-42167715D01*
X36855006Y-42164348D01*
X36768917Y-42120483D01*
X36718123Y-42072511D01*
X36701328Y-42004690D01*
X36723865Y-41938555D01*
X36768917Y-41899516D01*
X36861610Y-41852287D01*
X36882770Y-41836913D01*
X37027213Y-41731971D01*
X37027215Y-41731968D01*
X37027219Y-41731966D01*
X37171966Y-41587219D01*
X37171968Y-41587215D01*
X37171971Y-41587213D01*
X37242236Y-41490500D01*
X37292287Y-41421610D01*
X37385220Y-41239219D01*
X37448477Y-41044534D01*
X37480500Y-40842352D01*
X37480500Y-40637648D01*
X37448477Y-40435465D01*
X37411294Y-40321028D01*
X37385220Y-40240781D01*
X37385218Y-40240778D01*
X37385218Y-40240776D01*
X37349046Y-40169786D01*
X37292287Y-40058390D01*
X37248278Y-39997816D01*
X37171971Y-39892786D01*
X37027213Y-39748028D01*
X36861614Y-39627715D01*
X36855006Y-39624348D01*
X36768917Y-39580483D01*
X36718123Y-39532511D01*
X36701328Y-39464690D01*
X36723865Y-39398555D01*
X36768917Y-39359516D01*
X36861610Y-39312287D01*
X36944155Y-39252315D01*
X37027213Y-39191971D01*
X37027215Y-39191968D01*
X37027219Y-39191966D01*
X37171966Y-39047219D01*
X37171968Y-39047215D01*
X37171971Y-39047213D01*
X37280354Y-38898034D01*
X37292287Y-38881610D01*
X37385220Y-38699219D01*
X37448477Y-38504534D01*
X37480500Y-38302352D01*
X37480500Y-38097648D01*
X37470040Y-38031610D01*
X37448477Y-37895465D01*
X37397457Y-37738443D01*
X37385220Y-37700781D01*
X37385218Y-37700778D01*
X37385218Y-37700776D01*
X37351503Y-37634607D01*
X37292287Y-37518390D01*
X37244308Y-37452352D01*
X37171971Y-37352786D01*
X37027213Y-37208028D01*
X36861614Y-37087715D01*
X36855006Y-37084348D01*
X36768917Y-37040483D01*
X36718123Y-36992511D01*
X36701328Y-36924690D01*
X36723865Y-36858555D01*
X36768917Y-36819516D01*
X36861610Y-36772287D01*
X36944374Y-36712156D01*
X37027213Y-36651971D01*
X37027215Y-36651968D01*
X37027219Y-36651966D01*
X37171966Y-36507219D01*
X37171968Y-36507215D01*
X37171971Y-36507213D01*
X37280354Y-36358034D01*
X37292287Y-36341610D01*
X37385220Y-36159219D01*
X37448477Y-35964534D01*
X37480500Y-35762352D01*
X37480500Y-35557648D01*
X37470028Y-35491530D01*
X37448477Y-35355465D01*
X37405928Y-35224514D01*
X37385220Y-35160781D01*
X37385218Y-35160778D01*
X37385218Y-35160776D01*
X37343316Y-35078540D01*
X37292287Y-34978390D01*
X37244308Y-34912352D01*
X37171971Y-34812786D01*
X37027213Y-34668028D01*
X36861614Y-34547715D01*
X36855006Y-34544348D01*
X36768917Y-34500483D01*
X36718123Y-34452511D01*
X36701328Y-34384690D01*
X36723865Y-34318555D01*
X36768917Y-34279516D01*
X36861610Y-34232287D01*
X36957161Y-34162866D01*
X37027213Y-34111971D01*
X37027215Y-34111968D01*
X37027219Y-34111966D01*
X37171966Y-33967219D01*
X37171968Y-33967215D01*
X37171971Y-33967213D01*
X37251675Y-33857508D01*
X37292287Y-33801610D01*
X37385220Y-33619219D01*
X37448477Y-33424534D01*
X37480500Y-33222352D01*
X37480500Y-33017648D01*
X37470040Y-32951610D01*
X37448477Y-32815465D01*
X37385218Y-32620776D01*
X37342249Y-32536446D01*
X37292287Y-32438390D01*
X37244308Y-32372352D01*
X37171971Y-32272786D01*
X37027213Y-32128028D01*
X36861614Y-32007715D01*
X36855006Y-32004348D01*
X36768917Y-31960483D01*
X36718123Y-31912511D01*
X36701328Y-31844690D01*
X36723865Y-31778555D01*
X36768917Y-31739516D01*
X36861610Y-31692287D01*
X36928956Y-31643358D01*
X37027213Y-31571971D01*
X37027215Y-31571968D01*
X37027219Y-31571966D01*
X37171966Y-31427219D01*
X37171968Y-31427215D01*
X37171971Y-31427213D01*
X37280354Y-31278034D01*
X37292287Y-31261610D01*
X37385220Y-31079219D01*
X37448477Y-30884534D01*
X37480500Y-30682352D01*
X37480500Y-30477648D01*
X37471926Y-30423514D01*
X37448477Y-30275465D01*
X37385218Y-30080776D01*
X37351503Y-30014607D01*
X37292287Y-29898390D01*
X37248336Y-29837896D01*
X37171971Y-29732786D01*
X37027213Y-29588028D01*
X36861614Y-29467715D01*
X36831474Y-29452358D01*
X36768917Y-29420483D01*
X36718123Y-29372511D01*
X36701328Y-29304690D01*
X36723865Y-29238555D01*
X36768917Y-29199516D01*
X36861610Y-29152287D01*
X36982877Y-29064181D01*
X37048683Y-29040702D01*
X37055762Y-29040500D01*
X37780242Y-29040500D01*
X37811266Y-29034328D01*
X37876888Y-29021275D01*
X37973536Y-29002051D01*
X38026865Y-28979961D01*
X38155614Y-28926632D01*
X38319482Y-28817139D01*
X38458839Y-28677782D01*
X38458839Y-28677780D01*
X38469047Y-28667573D01*
X38469048Y-28667570D01*
X47299802Y-19836819D01*
X47361125Y-19803334D01*
X47387483Y-19800500D01*
X47947099Y-19800500D01*
X48014138Y-19820185D01*
G37*
%TD.AperFunction*%
%TA.AperFunction,NonConductor*%
G36*
X46297134Y-39760299D02*
G01*
X46353067Y-39802171D01*
X46377484Y-39867635D01*
X46377800Y-39876481D01*
X46377800Y-45049541D01*
X46382514Y-45073240D01*
X46382855Y-45074954D01*
X46416247Y-45242828D01*
X46416249Y-45242836D01*
X46429378Y-45274533D01*
X46429379Y-45274535D01*
X46491664Y-45424907D01*
X46491671Y-45424920D01*
X46601160Y-45588781D01*
X46601163Y-45588785D01*
X46744837Y-45732459D01*
X46744859Y-45732479D01*
X47509181Y-46496801D01*
X47542666Y-46558124D01*
X47545500Y-46584482D01*
X47545500Y-48036000D01*
X47525815Y-48103039D01*
X47473011Y-48148794D01*
X47421500Y-48160000D01*
X46298398Y-48160000D01*
X46298381Y-48160001D01*
X46195603Y-48170500D01*
X46195600Y-48170501D01*
X46029068Y-48225685D01*
X46029063Y-48225687D01*
X45879742Y-48317789D01*
X45755689Y-48441842D01*
X45660221Y-48596621D01*
X45608273Y-48643345D01*
X45539310Y-48654568D01*
X45475228Y-48626724D01*
X45467001Y-48619205D01*
X45328186Y-48480390D01*
X45156220Y-48355451D01*
X44966814Y-48258944D01*
X44966813Y-48258943D01*
X44966812Y-48258943D01*
X44764643Y-48193254D01*
X44764641Y-48193253D01*
X44764640Y-48193253D01*
X44559908Y-48160827D01*
X44554687Y-48160000D01*
X44342113Y-48160000D01*
X44336892Y-48160827D01*
X44132160Y-48193253D01*
X44097256Y-48204594D01*
X43933651Y-48257753D01*
X43929985Y-48258944D01*
X43740579Y-48355451D01*
X43568613Y-48480390D01*
X43418294Y-48630709D01*
X43418290Y-48630714D01*
X43298718Y-48795293D01*
X43243389Y-48837959D01*
X43173775Y-48843938D01*
X43111980Y-48811333D01*
X43098082Y-48795293D01*
X42978509Y-48630714D01*
X42978505Y-48630709D01*
X42828186Y-48480390D01*
X42656220Y-48355451D01*
X42466814Y-48258944D01*
X42466813Y-48258943D01*
X42466812Y-48258943D01*
X42264643Y-48193254D01*
X42264641Y-48193253D01*
X42264640Y-48193253D01*
X42059908Y-48160827D01*
X42054687Y-48160000D01*
X41842113Y-48160000D01*
X41836892Y-48160827D01*
X41632160Y-48193253D01*
X41597256Y-48204594D01*
X41433651Y-48257753D01*
X41429985Y-48258944D01*
X41240579Y-48355451D01*
X41068613Y-48480390D01*
X40918294Y-48630709D01*
X40918290Y-48630714D01*
X40798718Y-48795293D01*
X40743389Y-48837959D01*
X40673775Y-48843938D01*
X40611980Y-48811333D01*
X40598082Y-48795293D01*
X40478509Y-48630714D01*
X40478505Y-48630709D01*
X40328186Y-48480390D01*
X40156220Y-48355451D01*
X39966814Y-48258944D01*
X39966813Y-48258943D01*
X39966812Y-48258943D01*
X39764643Y-48193254D01*
X39764641Y-48193253D01*
X39684064Y-48180491D01*
X39620930Y-48150561D01*
X39583999Y-48091250D01*
X39584997Y-48021387D01*
X39615780Y-47970339D01*
X45829840Y-41756281D01*
X45939332Y-41592414D01*
X46014752Y-41410335D01*
X46033175Y-41317713D01*
X46048789Y-41239218D01*
X46048789Y-41239213D01*
X46053200Y-41217041D01*
X46053200Y-39953081D01*
X46061844Y-39923640D01*
X46068368Y-39893654D01*
X46072122Y-39888638D01*
X46072885Y-39886042D01*
X46089515Y-39865404D01*
X46166120Y-39788799D01*
X46227442Y-39755315D01*
X46297134Y-39760299D01*
G37*
%TD.AperFunction*%
%TA.AperFunction,NonConductor*%
G36*
X34982804Y-47219185D02*
G01*
X35028559Y-47271989D01*
X35038503Y-47341147D01*
X35037382Y-47347692D01*
X35002300Y-47524056D01*
X35002300Y-48856217D01*
X34982615Y-48923256D01*
X34965981Y-48943898D01*
X34462180Y-49447699D01*
X34400857Y-49481184D01*
X34331165Y-49476200D01*
X34275232Y-49434328D01*
X34250815Y-49368864D01*
X34250499Y-49360018D01*
X34250499Y-48924998D01*
X34250498Y-48924981D01*
X34239999Y-48822203D01*
X34239998Y-48822200D01*
X34202246Y-48708273D01*
X34184814Y-48655666D01*
X34092712Y-48506344D01*
X33968656Y-48382288D01*
X33819334Y-48290186D01*
X33652797Y-48235001D01*
X33652795Y-48235000D01*
X33550010Y-48224500D01*
X32249998Y-48224500D01*
X32249981Y-48224501D01*
X32147203Y-48235000D01*
X32147200Y-48235001D01*
X31980668Y-48290185D01*
X31980663Y-48290187D01*
X31831342Y-48382289D01*
X31707289Y-48506342D01*
X31707288Y-48506344D01*
X31630577Y-48630714D01*
X31630039Y-48631586D01*
X31578091Y-48678310D01*
X31509129Y-48689533D01*
X31445046Y-48661689D01*
X31406190Y-48603621D01*
X31400500Y-48566489D01*
X31400500Y-48489082D01*
X31420185Y-48422043D01*
X31436819Y-48401401D01*
X32602401Y-47235819D01*
X32663724Y-47202334D01*
X32690082Y-47199500D01*
X34915765Y-47199500D01*
X34982804Y-47219185D01*
G37*
%TD.AperFunction*%
%TA.AperFunction,NonConductor*%
G36*
X38165530Y-50368092D02*
G01*
X38193637Y-50366888D01*
X38199913Y-50370551D01*
X38207163Y-50371070D01*
X38229684Y-50387929D01*
X38253979Y-50402111D01*
X38259958Y-50410592D01*
X38263096Y-50412942D01*
X38274314Y-50430958D01*
X38293349Y-50468317D01*
X38418290Y-50640286D01*
X38568613Y-50790609D01*
X38740579Y-50915548D01*
X38740581Y-50915549D01*
X38740584Y-50915551D01*
X38929988Y-51012057D01*
X39132157Y-51077746D01*
X39342113Y-51111000D01*
X39342114Y-51111000D01*
X39554686Y-51111000D01*
X39554687Y-51111000D01*
X39764643Y-51077746D01*
X39966812Y-51012057D01*
X40156216Y-50915551D01*
X40239415Y-50855104D01*
X40328186Y-50790609D01*
X40328188Y-50790606D01*
X40328192Y-50790604D01*
X40478504Y-50640292D01*
X40598083Y-50475704D01*
X40653411Y-50433040D01*
X40723024Y-50427061D01*
X40784820Y-50459666D01*
X40798713Y-50475699D01*
X40852131Y-50549223D01*
X40918296Y-50640292D01*
X41068613Y-50790609D01*
X41240579Y-50915548D01*
X41240581Y-50915549D01*
X41240584Y-50915551D01*
X41429988Y-51012057D01*
X41632157Y-51077746D01*
X41842113Y-51111000D01*
X41842114Y-51111000D01*
X42054686Y-51111000D01*
X42054687Y-51111000D01*
X42264643Y-51077746D01*
X42466812Y-51012057D01*
X42656216Y-50915551D01*
X42739415Y-50855104D01*
X42828186Y-50790609D01*
X42828188Y-50790606D01*
X42828192Y-50790604D01*
X42978504Y-50640292D01*
X43098083Y-50475704D01*
X43153411Y-50433040D01*
X43223024Y-50427061D01*
X43284820Y-50459666D01*
X43298713Y-50475699D01*
X43352131Y-50549223D01*
X43418296Y-50640292D01*
X43568613Y-50790609D01*
X43740579Y-50915548D01*
X43740581Y-50915549D01*
X43740584Y-50915551D01*
X43929988Y-51012057D01*
X44132157Y-51077746D01*
X44342113Y-51111000D01*
X44342114Y-51111000D01*
X44554686Y-51111000D01*
X44554687Y-51111000D01*
X44764643Y-51077746D01*
X44966812Y-51012057D01*
X45156216Y-50915551D01*
X45328192Y-50790604D01*
X45467004Y-50651791D01*
X45528323Y-50618309D01*
X45598015Y-50623293D01*
X45653949Y-50665164D01*
X45660221Y-50674378D01*
X45663585Y-50679833D01*
X45663586Y-50679834D01*
X45755688Y-50829156D01*
X45879744Y-50953212D01*
X46029066Y-51045314D01*
X46195603Y-51100499D01*
X46298391Y-51111000D01*
X46441217Y-51110999D01*
X46508255Y-51130683D01*
X46554010Y-51183487D01*
X46563954Y-51252645D01*
X46534930Y-51316201D01*
X46528897Y-51322680D01*
X45895599Y-51955981D01*
X45834276Y-51989466D01*
X45807918Y-51992300D01*
X36782782Y-51992300D01*
X36715743Y-51972615D01*
X36669988Y-51919811D01*
X36660044Y-51850653D01*
X36689069Y-51787097D01*
X36695101Y-51780619D01*
X37375222Y-51100498D01*
X38076150Y-50399569D01*
X38100836Y-50386089D01*
X38123831Y-50369880D01*
X38131092Y-50369568D01*
X38137471Y-50366086D01*
X38165530Y-50368092D01*
G37*
%TD.AperFunction*%
%TA.AperFunction,NonConductor*%
G36*
X15641421Y-46676021D02*
G01*
X15655317Y-46692058D01*
X15764310Y-46842073D01*
X15897927Y-46975690D01*
X16050801Y-47086760D01*
X16108229Y-47116021D01*
X16219163Y-47172545D01*
X16219165Y-47172545D01*
X16219168Y-47172547D01*
X16302120Y-47199500D01*
X16398881Y-47230940D01*
X16585514Y-47260500D01*
X16585519Y-47260500D01*
X16774486Y-47260500D01*
X16961118Y-47230940D01*
X17140832Y-47172547D01*
X17309199Y-47086760D01*
X17462073Y-46975690D01*
X17595690Y-46842073D01*
X17617821Y-46811613D01*
X17673152Y-46768948D01*
X17718138Y-46760500D01*
X23194681Y-46760500D01*
X23261720Y-46780185D01*
X23282362Y-46796819D01*
X24175328Y-47689785D01*
X24202208Y-47730014D01*
X24262002Y-47874372D01*
X24262009Y-47874385D01*
X24349610Y-48005488D01*
X24349613Y-48005492D01*
X24461107Y-48116986D01*
X24461111Y-48116989D01*
X24592214Y-48204590D01*
X24592221Y-48204594D01*
X24640105Y-48224428D01*
X24694508Y-48268268D01*
X24716574Y-48334562D01*
X24699296Y-48402261D01*
X24665538Y-48439307D01*
X24520214Y-48544890D01*
X24520209Y-48544894D01*
X24369890Y-48695213D01*
X24244951Y-48867179D01*
X24148444Y-49056585D01*
X24082753Y-49258760D01*
X24056239Y-49426166D01*
X24049500Y-49468713D01*
X24049500Y-49931287D01*
X24082754Y-50141243D01*
X24128478Y-50281967D01*
X24148444Y-50343414D01*
X24244951Y-50532820D01*
X24369890Y-50704786D01*
X24520213Y-50855109D01*
X24692179Y-50980048D01*
X24692181Y-50980049D01*
X24692184Y-50980051D01*
X24881588Y-51076557D01*
X25083757Y-51142246D01*
X25293713Y-51175500D01*
X25409218Y-51175500D01*
X25476257Y-51195185D01*
X25496899Y-51211819D01*
X27526735Y-53241655D01*
X27526764Y-53241686D01*
X27669214Y-53384136D01*
X27669218Y-53384139D01*
X27833079Y-53493628D01*
X27833092Y-53493635D01*
X27961833Y-53546961D01*
X28002950Y-53563992D01*
X28015164Y-53569051D01*
X28097949Y-53585518D01*
X28124830Y-53590865D01*
X28208456Y-53607500D01*
X28208459Y-53607500D01*
X28208460Y-53607500D01*
X28405540Y-53607500D01*
X29386560Y-53607500D01*
X29453599Y-53627185D01*
X29499354Y-53679989D01*
X29509298Y-53749147D01*
X29501121Y-53778953D01*
X29469824Y-53854511D01*
X29443461Y-53918158D01*
X29437949Y-53931464D01*
X29425649Y-53993300D01*
X29425649Y-53993301D01*
X29399500Y-54124756D01*
X29399500Y-54814800D01*
X29393474Y-54835321D01*
X29392216Y-54856672D01*
X29382069Y-54874162D01*
X29379815Y-54881839D01*
X29375692Y-54887859D01*
X29371510Y-54893593D01*
X29369896Y-54895208D01*
X29250319Y-55059793D01*
X29250192Y-55059967D01*
X29222518Y-55081229D01*
X29194989Y-55102459D01*
X29194876Y-55102468D01*
X29194788Y-55102537D01*
X29160086Y-55105456D01*
X29125375Y-55108438D01*
X29125275Y-55108385D01*
X29125164Y-55108395D01*
X29094611Y-55092206D01*
X29063580Y-55075833D01*
X29063468Y-55075704D01*
X29063426Y-55075682D01*
X29063383Y-55075605D01*
X29049682Y-55059793D01*
X28930109Y-54895214D01*
X28930105Y-54895209D01*
X28779786Y-54744890D01*
X28607820Y-54619951D01*
X28418414Y-54523444D01*
X28418413Y-54523443D01*
X28418412Y-54523443D01*
X28216243Y-54457754D01*
X28216241Y-54457753D01*
X28216240Y-54457753D01*
X28016660Y-54426143D01*
X28006287Y-54424500D01*
X27793713Y-54424500D01*
X27783340Y-54426143D01*
X27583759Y-54457753D01*
X27583754Y-54457754D01*
X27553866Y-54467465D01*
X27484025Y-54469458D01*
X27427871Y-54437214D01*
X22478146Y-49487489D01*
X22444661Y-49426166D01*
X22449645Y-49356474D01*
X22491517Y-49300541D01*
X22556981Y-49276124D01*
X22613277Y-49285246D01*
X22672403Y-49309737D01*
X22827053Y-49340499D01*
X22827056Y-49340500D01*
X22827058Y-49340500D01*
X22984744Y-49340500D01*
X22984745Y-49340499D01*
X23139397Y-49309737D01*
X23285079Y-49249394D01*
X23416189Y-49161789D01*
X23527689Y-49050289D01*
X23615294Y-48919179D01*
X23626467Y-48892206D01*
X23639892Y-48859793D01*
X23675637Y-48773497D01*
X23706400Y-48618842D01*
X23706400Y-48461158D01*
X23706400Y-48461155D01*
X23706399Y-48461153D01*
X23702558Y-48441842D01*
X23675637Y-48306503D01*
X23642162Y-48225686D01*
X23615297Y-48160827D01*
X23615290Y-48160814D01*
X23527689Y-48029711D01*
X23527686Y-48029707D01*
X23416192Y-47918213D01*
X23416188Y-47918210D01*
X23285085Y-47830609D01*
X23285072Y-47830602D01*
X23139401Y-47770264D01*
X23139389Y-47770261D01*
X22984745Y-47739500D01*
X22984742Y-47739500D01*
X22827058Y-47739500D01*
X22827055Y-47739500D01*
X22672410Y-47770261D01*
X22672398Y-47770264D01*
X22528036Y-47830061D01*
X22480584Y-47839500D01*
X14653103Y-47839500D01*
X14550120Y-47859984D01*
X14550108Y-47859987D01*
X14544691Y-47861065D01*
X14517771Y-47866420D01*
X14498557Y-47874379D01*
X14492417Y-47876922D01*
X14492411Y-47876924D01*
X14390291Y-47919223D01*
X14356587Y-47941744D01*
X14275554Y-47995887D01*
X14275551Y-47995890D01*
X12328261Y-49943181D01*
X12266938Y-49976666D01*
X12240580Y-49979500D01*
X12085514Y-49979500D01*
X11899498Y-50008962D01*
X11880958Y-50006566D01*
X11862453Y-50009227D01*
X11847023Y-50002180D01*
X11830204Y-50000007D01*
X11815902Y-49987968D01*
X11798897Y-49980202D01*
X11789727Y-49965933D01*
X11776752Y-49955011D01*
X11771229Y-49937150D01*
X11761123Y-49921424D01*
X11756564Y-49889720D01*
X11756113Y-49888260D01*
X11756100Y-49886489D01*
X11756100Y-49775918D01*
X11775785Y-49708879D01*
X11792414Y-49688242D01*
X14191255Y-47289400D01*
X14252576Y-47255917D01*
X14298332Y-47254610D01*
X14306584Y-47255917D01*
X14335519Y-47260500D01*
X14335520Y-47260500D01*
X14524486Y-47260500D01*
X14711118Y-47230940D01*
X14890832Y-47172547D01*
X15059199Y-47086760D01*
X15212073Y-46975690D01*
X15345690Y-46842073D01*
X15454682Y-46692058D01*
X15510012Y-46649394D01*
X15579626Y-46643415D01*
X15641421Y-46676021D01*
G37*
%TD.AperFunction*%
%TA.AperFunction,NonConductor*%
G36*
X35058777Y-53437960D02*
G01*
X35067714Y-53436512D01*
X35091943Y-53447058D01*
X35117427Y-53454049D01*
X35125170Y-53461521D01*
X35131778Y-53464397D01*
X35155363Y-53490654D01*
X35248860Y-53630581D01*
X35248863Y-53630585D01*
X35388214Y-53769936D01*
X35388218Y-53769939D01*
X35552079Y-53879428D01*
X35552092Y-53879435D01*
X35677703Y-53931464D01*
X35734165Y-53954851D01*
X35734169Y-53954851D01*
X35734170Y-53954852D01*
X35927456Y-53993300D01*
X35927459Y-53993300D01*
X37222849Y-53993300D01*
X37289888Y-54012985D01*
X37335643Y-54065789D01*
X37345587Y-54134947D01*
X37337409Y-54164754D01*
X37329064Y-54184897D01*
X37329061Y-54184910D01*
X37298300Y-54339553D01*
X37298300Y-54497246D01*
X37329061Y-54651889D01*
X37329064Y-54651901D01*
X37389402Y-54797572D01*
X37389409Y-54797585D01*
X37477010Y-54928688D01*
X37477013Y-54928692D01*
X37588507Y-55040186D01*
X37588511Y-55040189D01*
X37719614Y-55127790D01*
X37719627Y-55127797D01*
X37865298Y-55188135D01*
X37865303Y-55188137D01*
X38019958Y-55218900D01*
X38019963Y-55218900D01*
X38026018Y-55219497D01*
X38025834Y-55221359D01*
X38084498Y-55238585D01*
X38130253Y-55291389D01*
X38140197Y-55360547D01*
X38135391Y-55381216D01*
X38131153Y-55394257D01*
X38097900Y-55604213D01*
X38097900Y-56066786D01*
X38131153Y-56276740D01*
X38131154Y-56276743D01*
X38152111Y-56341243D01*
X38157388Y-56357482D01*
X38159383Y-56427323D01*
X38123303Y-56487156D01*
X38060602Y-56517984D01*
X38039457Y-56519800D01*
X37673982Y-56519800D01*
X37606943Y-56500115D01*
X37586301Y-56483481D01*
X34824700Y-53721880D01*
X34791215Y-53660557D01*
X34796199Y-53590865D01*
X34838071Y-53534932D01*
X34864929Y-53519638D01*
X34927714Y-53493632D01*
X34983373Y-53456441D01*
X34992009Y-53453737D01*
X34998744Y-53447688D01*
X35024829Y-53443461D01*
X35050047Y-53435565D01*
X35058777Y-53437960D01*
G37*
%TD.AperFunction*%
%TA.AperFunction,NonConductor*%
G36*
X38680825Y-60789985D02*
G01*
X38726580Y-60842789D01*
X38736524Y-60911947D01*
X38707499Y-60975503D01*
X38686671Y-60994618D01*
X38568613Y-61080390D01*
X38418295Y-61230708D01*
X38404435Y-61249786D01*
X38349105Y-61292451D01*
X38279491Y-61298429D01*
X38217697Y-61265822D01*
X38216437Y-61264580D01*
X37933838Y-60981981D01*
X37900353Y-60920658D01*
X37905337Y-60850966D01*
X37947209Y-60795033D01*
X38012673Y-60770616D01*
X38021519Y-60770300D01*
X38613786Y-60770300D01*
X38680825Y-60789985D01*
G37*
%TD.AperFunction*%
%TA.AperFunction,NonConductor*%
G36*
X43644041Y-60779183D02*
G01*
X43674761Y-60786328D01*
X43677312Y-60788953D01*
X43680825Y-60789985D01*
X43701472Y-60813813D01*
X43723456Y-60836434D01*
X43724183Y-60840022D01*
X43726580Y-60842789D01*
X43731067Y-60874001D01*
X43737331Y-60904912D01*
X43736002Y-60908323D01*
X43736524Y-60911947D01*
X43723424Y-60940631D01*
X43711982Y-60970021D01*
X43708423Y-60973479D01*
X43707499Y-60975503D01*
X43686671Y-60994618D01*
X43568613Y-61080390D01*
X43418294Y-61230709D01*
X43418290Y-61230714D01*
X43298408Y-61395718D01*
X43243078Y-61438384D01*
X43173465Y-61444363D01*
X43111670Y-61411757D01*
X43097772Y-61395718D01*
X42978127Y-61231040D01*
X42978123Y-61231035D01*
X42827864Y-61080776D01*
X42827859Y-61080772D01*
X42709278Y-60994618D01*
X42666612Y-60939288D01*
X42660633Y-60869675D01*
X42693239Y-60807880D01*
X42754077Y-60773523D01*
X42782163Y-60770300D01*
X43613786Y-60770300D01*
X43644041Y-60779183D01*
G37*
%TD.AperFunction*%
%TA.AperFunction,NonConductor*%
G36*
X41181676Y-60789985D02*
G01*
X41227431Y-60842789D01*
X41237375Y-60911947D01*
X41208350Y-60975503D01*
X41187522Y-60994618D01*
X41068940Y-61080772D01*
X41068935Y-61080776D01*
X40918676Y-61231035D01*
X40918672Y-61231040D01*
X40799027Y-61395718D01*
X40743697Y-61438384D01*
X40674084Y-61444363D01*
X40612289Y-61411757D01*
X40598391Y-61395718D01*
X40478509Y-61230714D01*
X40478505Y-61230709D01*
X40328186Y-61080390D01*
X40210129Y-60994618D01*
X40167463Y-60939289D01*
X40161484Y-60869675D01*
X40194089Y-60807880D01*
X40254928Y-60773523D01*
X40283014Y-60770300D01*
X41114637Y-60770300D01*
X41181676Y-60789985D01*
G37*
%TD.AperFunction*%
M02*
