M48
; DRILL file KiCad 10.0.2 date 2026-06-24T22:45:07
; FORMAT={-:-/ absolute / metric / decimal}
; #@! TF.CreationDate,2026-06-24T22:45:07+05:45
; #@! TF.GenerationSoftware,Kicad,Pcbnew,10.0.2
; #@! TF.FileFunction,Plated,1,2,PTH
FMAT,2
METRIC
; #@! TA.AperFunction,Plated,PTH,ViaDrill
T1C0.300
; #@! TA.AperFunction,Plated,PTH,ComponentDrill
T2C0.700
; #@! TA.AperFunction,Plated,PTH,ComponentDrill
T3C0.800
; #@! TA.AperFunction,Plated,PTH,ComponentDrill
T4C0.950
; #@! TA.AperFunction,Plated,PTH,ComponentDrill
T5C1.000
; #@! TA.AperFunction,Plated,PTH,ComponentDrill
T6C1.020
; #@! TA.AperFunction,Plated,PTH,ComponentDrill
T7C1.600
; #@! TA.AperFunction,Plated,PTH,ComponentDrill
T8C4.500
%
G90
G05
T1
X15.01Y-49.244
X15.529Y-54.365
X15.829Y-50.038
X18.9Y-52.6
X20.8Y-32.8
X21.0Y-25.9
X22.906Y-48.54
X24.971Y-47.495
X29.958Y-24.605
X34.203Y-60.07
X34.977Y-15.323
X36.026Y-52.993
X38.099Y-54.418
X39.686Y-18.89
X45.553Y-10.465
X47.378Y-8.64
X49.805Y-57.52
T2
X12.18Y-46.1
X12.18Y-51.18
X14.43Y-46.06
X14.43Y-51.14
X16.68Y-46.06
X16.68Y-51.14
T3
X3.33Y-5.68
X3.33Y-8.22
X3.33Y-10.76
X3.33Y-13.3
X3.33Y-15.84
X3.33Y-18.38
X3.33Y-20.92
X3.33Y-23.46
X3.33Y-26.0
X3.33Y-28.54
X3.46Y-32.27
X3.46Y-34.81
X3.46Y-37.35
X3.46Y-39.89
X3.46Y-42.43
X3.46Y-44.97
X3.46Y-47.51
X3.46Y-50.05
X36.18Y-3.56
X36.18Y-6.1
X36.18Y-8.64
X36.18Y-11.18
X36.18Y-13.72
X36.18Y-16.26
X36.18Y-18.8
X36.18Y-21.34
X36.18Y-25.5
X36.18Y-28.04
X36.18Y-30.58
X36.18Y-33.12
X36.18Y-35.66
X36.18Y-38.2
X36.18Y-40.74
X36.18Y-43.28
X48.88Y-3.56
X48.88Y-6.1
X48.88Y-8.64
X48.88Y-11.18
X48.88Y-13.72
X48.88Y-16.26
X48.88Y-18.8
X48.88Y-21.34
X48.88Y-25.5
X48.88Y-28.04
X48.88Y-30.58
X48.88Y-33.12
X48.88Y-35.66
X48.88Y-38.2
X48.88Y-40.74
X48.88Y-43.28
T4
X11.4Y-55.9
X13.9Y-55.9
X16.4Y-55.9
X18.9Y-55.9
X25.4Y-49.7
X25.4Y-55.9
X25.4Y-62.2
X27.9Y-49.7
X27.9Y-55.9
X27.9Y-62.2
X30.4Y-49.7
X30.4Y-55.9
X30.4Y-62.2
X32.9Y-49.7
X32.9Y-55.9
X32.9Y-62.2
X39.448Y-49.636
X39.448Y-55.835
X39.448Y-62.235
X41.948Y-49.636
X41.948Y-55.835
X41.948Y-62.235
X44.448Y-49.636
X44.448Y-55.835
X44.448Y-62.235
X46.948Y-49.636
X46.948Y-55.835
X46.948Y-62.235
T5
X53.61Y-4.25
X53.61Y-22.03
X54.36Y-45.0
X54.36Y-62.78
X57.18Y-27.772
X57.18Y-32.772
X68.43Y-27.772
X68.43Y-32.772
X78.68Y-39.14
X79.68Y-27.89
X79.68Y-32.89
X81.18Y-39.14
X94.25Y-4.25
X94.25Y-22.03
X95.0Y-45.0
X95.0Y-62.78
T6
X6.93Y-3.6
X6.93Y-6.14
X6.93Y-8.68
X6.93Y-11.22
X6.93Y-13.76
X6.93Y-16.3
X6.93Y-18.84
X6.93Y-21.38
X6.93Y-23.92
X6.93Y-26.46
X6.93Y-29.0
X6.93Y-31.54
X6.93Y-34.08
X6.93Y-36.62
X6.93Y-39.16
X32.33Y-3.6
X32.33Y-6.14
X32.33Y-8.68
X32.33Y-11.22
X32.33Y-13.76
X32.33Y-16.3
X32.33Y-18.84
X32.33Y-21.38
X32.33Y-23.92
X32.33Y-26.46
X32.33Y-29.0
X32.33Y-31.54
X32.33Y-34.08
X32.33Y-36.62
X32.33Y-39.16
T7
X57.06Y-39.39
X72.3Y-39.39
T8
X92.43Y-29.79
X92.43Y-36.99
M30
