%TF.GenerationSoftware,KiCad,Pcbnew,10.0.2*%
%TF.CreationDate,2026-06-24T22:45:05+05:45*%
%TF.ProjectId,Controller_Board,436f6e74-726f-46c6-9c65-725f426f6172,rev?*%
%TF.SameCoordinates,Original*%
%TF.FileFunction,Legend,Top*%
%TF.FilePolarity,Positive*%
%FSLAX46Y46*%
G04 Gerber Fmt 4.6, Leading zero omitted, Abs format (unit mm)*
G04 Created by KiCad (PCBNEW 10.0.2) date 2026-06-24 22:45:05*
%MOMM*%
%LPD*%
G01*
G04 APERTURE LIST*
%ADD10C,0.100000*%
%ADD11C,0.200000*%
%ADD12C,0.150000*%
%ADD13C,0.120000*%
%ADD14C,3.000000*%
G04 APERTURE END LIST*
D10*
X50100000Y-45900000D02*
G75*
G02*
X48500000Y-45900000I-800000J0D01*
G01*
X48500000Y-45900000D02*
G75*
G02*
X50100000Y-45900000I800000J0D01*
G01*
X11475312Y-52734990D02*
X11399122Y-52696895D01*
X11399122Y-52696895D02*
X11284836Y-52696895D01*
X11284836Y-52696895D02*
X11170550Y-52734990D01*
X11170550Y-52734990D02*
X11094360Y-52811180D01*
X11094360Y-52811180D02*
X11056265Y-52887371D01*
X11056265Y-52887371D02*
X11018169Y-53039752D01*
X11018169Y-53039752D02*
X11018169Y-53154038D01*
X11018169Y-53154038D02*
X11056265Y-53306419D01*
X11056265Y-53306419D02*
X11094360Y-53382609D01*
X11094360Y-53382609D02*
X11170550Y-53458800D01*
X11170550Y-53458800D02*
X11284836Y-53496895D01*
X11284836Y-53496895D02*
X11361027Y-53496895D01*
X11361027Y-53496895D02*
X11475312Y-53458800D01*
X11475312Y-53458800D02*
X11513408Y-53420704D01*
X11513408Y-53420704D02*
X11513408Y-53154038D01*
X11513408Y-53154038D02*
X11361027Y-53154038D01*
X13684837Y-53077847D02*
X13951503Y-53077847D01*
X14065789Y-53496895D02*
X13684837Y-53496895D01*
X13684837Y-53496895D02*
X13684837Y-52696895D01*
X13684837Y-52696895D02*
X14065789Y-52696895D01*
X16122933Y-52696895D02*
X16580076Y-52696895D01*
X16351504Y-53496895D02*
X16351504Y-52696895D01*
X18561029Y-52696895D02*
X18827696Y-53496895D01*
X18827696Y-53496895D02*
X19094362Y-52696895D01*
X13818169Y-63673085D02*
X13856265Y-63634990D01*
X13856265Y-63634990D02*
X13932455Y-63596895D01*
X13932455Y-63596895D02*
X14122931Y-63596895D01*
X14122931Y-63596895D02*
X14199122Y-63634990D01*
X14199122Y-63634990D02*
X14237217Y-63673085D01*
X14237217Y-63673085D02*
X14275312Y-63749276D01*
X14275312Y-63749276D02*
X14275312Y-63825466D01*
X14275312Y-63825466D02*
X14237217Y-63939752D01*
X14237217Y-63939752D02*
X13780074Y-64396895D01*
X13780074Y-64396895D02*
X14275312Y-64396895D01*
X14961027Y-63596895D02*
X14808646Y-63596895D01*
X14808646Y-63596895D02*
X14732455Y-63634990D01*
X14732455Y-63634990D02*
X14694360Y-63673085D01*
X14694360Y-63673085D02*
X14618170Y-63787371D01*
X14618170Y-63787371D02*
X14580074Y-63939752D01*
X14580074Y-63939752D02*
X14580074Y-64244514D01*
X14580074Y-64244514D02*
X14618170Y-64320704D01*
X14618170Y-64320704D02*
X14656265Y-64358800D01*
X14656265Y-64358800D02*
X14732455Y-64396895D01*
X14732455Y-64396895D02*
X14884836Y-64396895D01*
X14884836Y-64396895D02*
X14961027Y-64358800D01*
X14961027Y-64358800D02*
X14999122Y-64320704D01*
X14999122Y-64320704D02*
X15037217Y-64244514D01*
X15037217Y-64244514D02*
X15037217Y-64054038D01*
X15037217Y-64054038D02*
X14999122Y-63977847D01*
X14999122Y-63977847D02*
X14961027Y-63939752D01*
X14961027Y-63939752D02*
X14884836Y-63901657D01*
X14884836Y-63901657D02*
X14732455Y-63901657D01*
X14732455Y-63901657D02*
X14656265Y-63939752D01*
X14656265Y-63939752D02*
X14618170Y-63977847D01*
X14618170Y-63977847D02*
X14580074Y-64054038D01*
X15532456Y-63596895D02*
X15608646Y-63596895D01*
X15608646Y-63596895D02*
X15684837Y-63634990D01*
X15684837Y-63634990D02*
X15722932Y-63673085D01*
X15722932Y-63673085D02*
X15761027Y-63749276D01*
X15761027Y-63749276D02*
X15799122Y-63901657D01*
X15799122Y-63901657D02*
X15799122Y-64092133D01*
X15799122Y-64092133D02*
X15761027Y-64244514D01*
X15761027Y-64244514D02*
X15722932Y-64320704D01*
X15722932Y-64320704D02*
X15684837Y-64358800D01*
X15684837Y-64358800D02*
X15608646Y-64396895D01*
X15608646Y-64396895D02*
X15532456Y-64396895D01*
X15532456Y-64396895D02*
X15456265Y-64358800D01*
X15456265Y-64358800D02*
X15418170Y-64320704D01*
X15418170Y-64320704D02*
X15380075Y-64244514D01*
X15380075Y-64244514D02*
X15341979Y-64092133D01*
X15341979Y-64092133D02*
X15341979Y-63901657D01*
X15341979Y-63901657D02*
X15380075Y-63749276D01*
X15380075Y-63749276D02*
X15418170Y-63673085D01*
X15418170Y-63673085D02*
X15456265Y-63634990D01*
X15456265Y-63634990D02*
X15532456Y-63596895D01*
X16484837Y-63596895D02*
X16332456Y-63596895D01*
X16332456Y-63596895D02*
X16256265Y-63634990D01*
X16256265Y-63634990D02*
X16218170Y-63673085D01*
X16218170Y-63673085D02*
X16141980Y-63787371D01*
X16141980Y-63787371D02*
X16103884Y-63939752D01*
X16103884Y-63939752D02*
X16103884Y-64244514D01*
X16103884Y-64244514D02*
X16141980Y-64320704D01*
X16141980Y-64320704D02*
X16180075Y-64358800D01*
X16180075Y-64358800D02*
X16256265Y-64396895D01*
X16256265Y-64396895D02*
X16408646Y-64396895D01*
X16408646Y-64396895D02*
X16484837Y-64358800D01*
X16484837Y-64358800D02*
X16522932Y-64320704D01*
X16522932Y-64320704D02*
X16561027Y-64244514D01*
X16561027Y-64244514D02*
X16561027Y-64054038D01*
X16561027Y-64054038D02*
X16522932Y-63977847D01*
X16522932Y-63977847D02*
X16484837Y-63939752D01*
X16484837Y-63939752D02*
X16408646Y-63901657D01*
X16408646Y-63901657D02*
X16256265Y-63901657D01*
X16256265Y-63901657D02*
X16180075Y-63939752D01*
X16180075Y-63939752D02*
X16141980Y-63977847D01*
X16141980Y-63977847D02*
X16103884Y-64054038D01*
X16789599Y-63596895D02*
X17056266Y-64396895D01*
X17056266Y-64396895D02*
X17322932Y-63596895D01*
X18008646Y-64396895D02*
X17551503Y-64396895D01*
X17780075Y-64396895D02*
X17780075Y-63596895D01*
X17780075Y-63596895D02*
X17703884Y-63711180D01*
X17703884Y-63711180D02*
X17627694Y-63787371D01*
X17627694Y-63787371D02*
X17551503Y-63825466D01*
X24956265Y-47296895D02*
X24956265Y-46496895D01*
X24956265Y-46496895D02*
X25261027Y-46496895D01*
X25261027Y-46496895D02*
X25337217Y-46534990D01*
X25337217Y-46534990D02*
X25375312Y-46573085D01*
X25375312Y-46573085D02*
X25413408Y-46649276D01*
X25413408Y-46649276D02*
X25413408Y-46763561D01*
X25413408Y-46763561D02*
X25375312Y-46839752D01*
X25375312Y-46839752D02*
X25337217Y-46877847D01*
X25337217Y-46877847D02*
X25261027Y-46915942D01*
X25261027Y-46915942D02*
X24956265Y-46915942D01*
X28003884Y-46534990D02*
X27927694Y-46496895D01*
X27927694Y-46496895D02*
X27813408Y-46496895D01*
X27813408Y-46496895D02*
X27699122Y-46534990D01*
X27699122Y-46534990D02*
X27622932Y-46611180D01*
X27622932Y-46611180D02*
X27584837Y-46687371D01*
X27584837Y-46687371D02*
X27546741Y-46839752D01*
X27546741Y-46839752D02*
X27546741Y-46954038D01*
X27546741Y-46954038D02*
X27584837Y-47106419D01*
X27584837Y-47106419D02*
X27622932Y-47182609D01*
X27622932Y-47182609D02*
X27699122Y-47258800D01*
X27699122Y-47258800D02*
X27813408Y-47296895D01*
X27813408Y-47296895D02*
X27889599Y-47296895D01*
X27889599Y-47296895D02*
X28003884Y-47258800D01*
X28003884Y-47258800D02*
X28041980Y-47220704D01*
X28041980Y-47220704D02*
X28041980Y-46954038D01*
X28041980Y-46954038D02*
X27889599Y-46954038D01*
X30480075Y-46877847D02*
X30594361Y-46915942D01*
X30594361Y-46915942D02*
X30632456Y-46954038D01*
X30632456Y-46954038D02*
X30670552Y-47030228D01*
X30670552Y-47030228D02*
X30670552Y-47144514D01*
X30670552Y-47144514D02*
X30632456Y-47220704D01*
X30632456Y-47220704D02*
X30594361Y-47258800D01*
X30594361Y-47258800D02*
X30518171Y-47296895D01*
X30518171Y-47296895D02*
X30213409Y-47296895D01*
X30213409Y-47296895D02*
X30213409Y-46496895D01*
X30213409Y-46496895D02*
X30480075Y-46496895D01*
X30480075Y-46496895D02*
X30556266Y-46534990D01*
X30556266Y-46534990D02*
X30594361Y-46573085D01*
X30594361Y-46573085D02*
X30632456Y-46649276D01*
X30632456Y-46649276D02*
X30632456Y-46725466D01*
X30632456Y-46725466D02*
X30594361Y-46801657D01*
X30594361Y-46801657D02*
X30556266Y-46839752D01*
X30556266Y-46839752D02*
X30480075Y-46877847D01*
X30480075Y-46877847D02*
X30213409Y-46877847D01*
X33299124Y-47296895D02*
X33032457Y-46915942D01*
X32841981Y-47296895D02*
X32841981Y-46496895D01*
X32841981Y-46496895D02*
X33146743Y-46496895D01*
X33146743Y-46496895D02*
X33222933Y-46534990D01*
X33222933Y-46534990D02*
X33261028Y-46573085D01*
X33261028Y-46573085D02*
X33299124Y-46649276D01*
X33299124Y-46649276D02*
X33299124Y-46763561D01*
X33299124Y-46763561D02*
X33261028Y-46839752D01*
X33261028Y-46839752D02*
X33222933Y-46877847D01*
X33222933Y-46877847D02*
X33146743Y-46915942D01*
X33146743Y-46915942D02*
X32841981Y-46915942D01*
X25056265Y-53496895D02*
X25056265Y-52696895D01*
X25056265Y-52696895D02*
X25361027Y-52696895D01*
X25361027Y-52696895D02*
X25437217Y-52734990D01*
X25437217Y-52734990D02*
X25475312Y-52773085D01*
X25475312Y-52773085D02*
X25513408Y-52849276D01*
X25513408Y-52849276D02*
X25513408Y-52963561D01*
X25513408Y-52963561D02*
X25475312Y-53039752D01*
X25475312Y-53039752D02*
X25437217Y-53077847D01*
X25437217Y-53077847D02*
X25361027Y-53115942D01*
X25361027Y-53115942D02*
X25056265Y-53115942D01*
X27646741Y-53458800D02*
X27761027Y-53496895D01*
X27761027Y-53496895D02*
X27951503Y-53496895D01*
X27951503Y-53496895D02*
X28027694Y-53458800D01*
X28027694Y-53458800D02*
X28065789Y-53420704D01*
X28065789Y-53420704D02*
X28103884Y-53344514D01*
X28103884Y-53344514D02*
X28103884Y-53268323D01*
X28103884Y-53268323D02*
X28065789Y-53192133D01*
X28065789Y-53192133D02*
X28027694Y-53154038D01*
X28027694Y-53154038D02*
X27951503Y-53115942D01*
X27951503Y-53115942D02*
X27799122Y-53077847D01*
X27799122Y-53077847D02*
X27722932Y-53039752D01*
X27722932Y-53039752D02*
X27684837Y-53001657D01*
X27684837Y-53001657D02*
X27646741Y-52925466D01*
X27646741Y-52925466D02*
X27646741Y-52849276D01*
X27646741Y-52849276D02*
X27684837Y-52773085D01*
X27684837Y-52773085D02*
X27722932Y-52734990D01*
X27722932Y-52734990D02*
X27799122Y-52696895D01*
X27799122Y-52696895D02*
X27989599Y-52696895D01*
X27989599Y-52696895D02*
X28103884Y-52734990D01*
X30161028Y-52696895D02*
X30427695Y-53496895D01*
X30427695Y-53496895D02*
X30694361Y-52696895D01*
X33208647Y-52734990D02*
X33132457Y-52696895D01*
X33132457Y-52696895D02*
X33018171Y-52696895D01*
X33018171Y-52696895D02*
X32903885Y-52734990D01*
X32903885Y-52734990D02*
X32827695Y-52811180D01*
X32827695Y-52811180D02*
X32789600Y-52887371D01*
X32789600Y-52887371D02*
X32751504Y-53039752D01*
X32751504Y-53039752D02*
X32751504Y-53154038D01*
X32751504Y-53154038D02*
X32789600Y-53306419D01*
X32789600Y-53306419D02*
X32827695Y-53382609D01*
X32827695Y-53382609D02*
X32903885Y-53458800D01*
X32903885Y-53458800D02*
X33018171Y-53496895D01*
X33018171Y-53496895D02*
X33094362Y-53496895D01*
X33094362Y-53496895D02*
X33208647Y-53458800D01*
X33208647Y-53458800D02*
X33246743Y-53420704D01*
X33246743Y-53420704D02*
X33246743Y-53154038D01*
X33246743Y-53154038D02*
X33094362Y-53154038D01*
X25613408Y-59796895D02*
X25346741Y-59415942D01*
X25156265Y-59796895D02*
X25156265Y-58996895D01*
X25156265Y-58996895D02*
X25461027Y-58996895D01*
X25461027Y-58996895D02*
X25537217Y-59034990D01*
X25537217Y-59034990D02*
X25575312Y-59073085D01*
X25575312Y-59073085D02*
X25613408Y-59149276D01*
X25613408Y-59149276D02*
X25613408Y-59263561D01*
X25613408Y-59263561D02*
X25575312Y-59339752D01*
X25575312Y-59339752D02*
X25537217Y-59377847D01*
X25537217Y-59377847D02*
X25461027Y-59415942D01*
X25461027Y-59415942D02*
X25156265Y-59415942D01*
X28203884Y-59034990D02*
X28127694Y-58996895D01*
X28127694Y-58996895D02*
X28013408Y-58996895D01*
X28013408Y-58996895D02*
X27899122Y-59034990D01*
X27899122Y-59034990D02*
X27822932Y-59111180D01*
X27822932Y-59111180D02*
X27784837Y-59187371D01*
X27784837Y-59187371D02*
X27746741Y-59339752D01*
X27746741Y-59339752D02*
X27746741Y-59454038D01*
X27746741Y-59454038D02*
X27784837Y-59606419D01*
X27784837Y-59606419D02*
X27822932Y-59682609D01*
X27822932Y-59682609D02*
X27899122Y-59758800D01*
X27899122Y-59758800D02*
X28013408Y-59796895D01*
X28013408Y-59796895D02*
X28089599Y-59796895D01*
X28089599Y-59796895D02*
X28203884Y-59758800D01*
X28203884Y-59758800D02*
X28241980Y-59720704D01*
X28241980Y-59720704D02*
X28241980Y-59454038D01*
X28241980Y-59454038D02*
X28089599Y-59454038D01*
X30832456Y-59034990D02*
X30756266Y-58996895D01*
X30756266Y-58996895D02*
X30641980Y-58996895D01*
X30641980Y-58996895D02*
X30527694Y-59034990D01*
X30527694Y-59034990D02*
X30451504Y-59111180D01*
X30451504Y-59111180D02*
X30413409Y-59187371D01*
X30413409Y-59187371D02*
X30375313Y-59339752D01*
X30375313Y-59339752D02*
X30375313Y-59454038D01*
X30375313Y-59454038D02*
X30413409Y-59606419D01*
X30413409Y-59606419D02*
X30451504Y-59682609D01*
X30451504Y-59682609D02*
X30527694Y-59758800D01*
X30527694Y-59758800D02*
X30641980Y-59796895D01*
X30641980Y-59796895D02*
X30718171Y-59796895D01*
X30718171Y-59796895D02*
X30832456Y-59758800D01*
X30832456Y-59758800D02*
X30870552Y-59720704D01*
X30870552Y-59720704D02*
X30870552Y-59454038D01*
X30870552Y-59454038D02*
X30718171Y-59454038D01*
X31213409Y-59796895D02*
X31213409Y-59263561D01*
X31213409Y-59415942D02*
X31251504Y-59339752D01*
X31251504Y-59339752D02*
X31289599Y-59301657D01*
X31289599Y-59301657D02*
X31365790Y-59263561D01*
X31365790Y-59263561D02*
X31441980Y-59263561D01*
X33194361Y-59377847D02*
X33308647Y-59415942D01*
X33308647Y-59415942D02*
X33346742Y-59454038D01*
X33346742Y-59454038D02*
X33384838Y-59530228D01*
X33384838Y-59530228D02*
X33384838Y-59644514D01*
X33384838Y-59644514D02*
X33346742Y-59720704D01*
X33346742Y-59720704D02*
X33308647Y-59758800D01*
X33308647Y-59758800D02*
X33232457Y-59796895D01*
X33232457Y-59796895D02*
X32927695Y-59796895D01*
X32927695Y-59796895D02*
X32927695Y-58996895D01*
X32927695Y-58996895D02*
X33194361Y-58996895D01*
X33194361Y-58996895D02*
X33270552Y-59034990D01*
X33270552Y-59034990D02*
X33308647Y-59073085D01*
X33308647Y-59073085D02*
X33346742Y-59149276D01*
X33346742Y-59149276D02*
X33346742Y-59225466D01*
X33346742Y-59225466D02*
X33308647Y-59301657D01*
X33308647Y-59301657D02*
X33270552Y-59339752D01*
X33270552Y-59339752D02*
X33194361Y-59377847D01*
X33194361Y-59377847D02*
X32927695Y-59377847D01*
X39005293Y-47269706D02*
X39005293Y-46469706D01*
X39005293Y-46469706D02*
X39310055Y-46469706D01*
X39310055Y-46469706D02*
X39386245Y-46507801D01*
X39386245Y-46507801D02*
X39424340Y-46545896D01*
X39424340Y-46545896D02*
X39462436Y-46622087D01*
X39462436Y-46622087D02*
X39462436Y-46736372D01*
X39462436Y-46736372D02*
X39424340Y-46812563D01*
X39424340Y-46812563D02*
X39386245Y-46850658D01*
X39386245Y-46850658D02*
X39310055Y-46888753D01*
X39310055Y-46888753D02*
X39005293Y-46888753D01*
X42052912Y-46507801D02*
X41976722Y-46469706D01*
X41976722Y-46469706D02*
X41862436Y-46469706D01*
X41862436Y-46469706D02*
X41748150Y-46507801D01*
X41748150Y-46507801D02*
X41671960Y-46583991D01*
X41671960Y-46583991D02*
X41633865Y-46660182D01*
X41633865Y-46660182D02*
X41595769Y-46812563D01*
X41595769Y-46812563D02*
X41595769Y-46926849D01*
X41595769Y-46926849D02*
X41633865Y-47079230D01*
X41633865Y-47079230D02*
X41671960Y-47155420D01*
X41671960Y-47155420D02*
X41748150Y-47231611D01*
X41748150Y-47231611D02*
X41862436Y-47269706D01*
X41862436Y-47269706D02*
X41938627Y-47269706D01*
X41938627Y-47269706D02*
X42052912Y-47231611D01*
X42052912Y-47231611D02*
X42091008Y-47193515D01*
X42091008Y-47193515D02*
X42091008Y-46926849D01*
X42091008Y-46926849D02*
X41938627Y-46926849D01*
X44529103Y-46850658D02*
X44643389Y-46888753D01*
X44643389Y-46888753D02*
X44681484Y-46926849D01*
X44681484Y-46926849D02*
X44719580Y-47003039D01*
X44719580Y-47003039D02*
X44719580Y-47117325D01*
X44719580Y-47117325D02*
X44681484Y-47193515D01*
X44681484Y-47193515D02*
X44643389Y-47231611D01*
X44643389Y-47231611D02*
X44567199Y-47269706D01*
X44567199Y-47269706D02*
X44262437Y-47269706D01*
X44262437Y-47269706D02*
X44262437Y-46469706D01*
X44262437Y-46469706D02*
X44529103Y-46469706D01*
X44529103Y-46469706D02*
X44605294Y-46507801D01*
X44605294Y-46507801D02*
X44643389Y-46545896D01*
X44643389Y-46545896D02*
X44681484Y-46622087D01*
X44681484Y-46622087D02*
X44681484Y-46698277D01*
X44681484Y-46698277D02*
X44643389Y-46774468D01*
X44643389Y-46774468D02*
X44605294Y-46812563D01*
X44605294Y-46812563D02*
X44529103Y-46850658D01*
X44529103Y-46850658D02*
X44262437Y-46850658D01*
X47348152Y-47269706D02*
X47081485Y-46888753D01*
X46891009Y-47269706D02*
X46891009Y-46469706D01*
X46891009Y-46469706D02*
X47195771Y-46469706D01*
X47195771Y-46469706D02*
X47271961Y-46507801D01*
X47271961Y-46507801D02*
X47310056Y-46545896D01*
X47310056Y-46545896D02*
X47348152Y-46622087D01*
X47348152Y-46622087D02*
X47348152Y-46736372D01*
X47348152Y-46736372D02*
X47310056Y-46812563D01*
X47310056Y-46812563D02*
X47271961Y-46850658D01*
X47271961Y-46850658D02*
X47195771Y-46888753D01*
X47195771Y-46888753D02*
X46891009Y-46888753D01*
X39104682Y-53432356D02*
X39104682Y-52632356D01*
X39104682Y-52632356D02*
X39409444Y-52632356D01*
X39409444Y-52632356D02*
X39485634Y-52670451D01*
X39485634Y-52670451D02*
X39523729Y-52708546D01*
X39523729Y-52708546D02*
X39561825Y-52784737D01*
X39561825Y-52784737D02*
X39561825Y-52899022D01*
X39561825Y-52899022D02*
X39523729Y-52975213D01*
X39523729Y-52975213D02*
X39485634Y-53013308D01*
X39485634Y-53013308D02*
X39409444Y-53051403D01*
X39409444Y-53051403D02*
X39104682Y-53051403D01*
X41695158Y-53394261D02*
X41809444Y-53432356D01*
X41809444Y-53432356D02*
X41999920Y-53432356D01*
X41999920Y-53432356D02*
X42076111Y-53394261D01*
X42076111Y-53394261D02*
X42114206Y-53356165D01*
X42114206Y-53356165D02*
X42152301Y-53279975D01*
X42152301Y-53279975D02*
X42152301Y-53203784D01*
X42152301Y-53203784D02*
X42114206Y-53127594D01*
X42114206Y-53127594D02*
X42076111Y-53089499D01*
X42076111Y-53089499D02*
X41999920Y-53051403D01*
X41999920Y-53051403D02*
X41847539Y-53013308D01*
X41847539Y-53013308D02*
X41771349Y-52975213D01*
X41771349Y-52975213D02*
X41733254Y-52937118D01*
X41733254Y-52937118D02*
X41695158Y-52860927D01*
X41695158Y-52860927D02*
X41695158Y-52784737D01*
X41695158Y-52784737D02*
X41733254Y-52708546D01*
X41733254Y-52708546D02*
X41771349Y-52670451D01*
X41771349Y-52670451D02*
X41847539Y-52632356D01*
X41847539Y-52632356D02*
X42038016Y-52632356D01*
X42038016Y-52632356D02*
X42152301Y-52670451D01*
X44209445Y-52632356D02*
X44476112Y-53432356D01*
X44476112Y-53432356D02*
X44742778Y-52632356D01*
X47257064Y-52670451D02*
X47180874Y-52632356D01*
X47180874Y-52632356D02*
X47066588Y-52632356D01*
X47066588Y-52632356D02*
X46952302Y-52670451D01*
X46952302Y-52670451D02*
X46876112Y-52746641D01*
X46876112Y-52746641D02*
X46838017Y-52822832D01*
X46838017Y-52822832D02*
X46799921Y-52975213D01*
X46799921Y-52975213D02*
X46799921Y-53089499D01*
X46799921Y-53089499D02*
X46838017Y-53241880D01*
X46838017Y-53241880D02*
X46876112Y-53318070D01*
X46876112Y-53318070D02*
X46952302Y-53394261D01*
X46952302Y-53394261D02*
X47066588Y-53432356D01*
X47066588Y-53432356D02*
X47142779Y-53432356D01*
X47142779Y-53432356D02*
X47257064Y-53394261D01*
X47257064Y-53394261D02*
X47295160Y-53356165D01*
X47295160Y-53356165D02*
X47295160Y-53089499D01*
X47295160Y-53089499D02*
X47142779Y-53089499D01*
X39561825Y-59832356D02*
X39295158Y-59451403D01*
X39104682Y-59832356D02*
X39104682Y-59032356D01*
X39104682Y-59032356D02*
X39409444Y-59032356D01*
X39409444Y-59032356D02*
X39485634Y-59070451D01*
X39485634Y-59070451D02*
X39523729Y-59108546D01*
X39523729Y-59108546D02*
X39561825Y-59184737D01*
X39561825Y-59184737D02*
X39561825Y-59299022D01*
X39561825Y-59299022D02*
X39523729Y-59375213D01*
X39523729Y-59375213D02*
X39485634Y-59413308D01*
X39485634Y-59413308D02*
X39409444Y-59451403D01*
X39409444Y-59451403D02*
X39104682Y-59451403D01*
X42152301Y-59070451D02*
X42076111Y-59032356D01*
X42076111Y-59032356D02*
X41961825Y-59032356D01*
X41961825Y-59032356D02*
X41847539Y-59070451D01*
X41847539Y-59070451D02*
X41771349Y-59146641D01*
X41771349Y-59146641D02*
X41733254Y-59222832D01*
X41733254Y-59222832D02*
X41695158Y-59375213D01*
X41695158Y-59375213D02*
X41695158Y-59489499D01*
X41695158Y-59489499D02*
X41733254Y-59641880D01*
X41733254Y-59641880D02*
X41771349Y-59718070D01*
X41771349Y-59718070D02*
X41847539Y-59794261D01*
X41847539Y-59794261D02*
X41961825Y-59832356D01*
X41961825Y-59832356D02*
X42038016Y-59832356D01*
X42038016Y-59832356D02*
X42152301Y-59794261D01*
X42152301Y-59794261D02*
X42190397Y-59756165D01*
X42190397Y-59756165D02*
X42190397Y-59489499D01*
X42190397Y-59489499D02*
X42038016Y-59489499D01*
X44780873Y-59070451D02*
X44704683Y-59032356D01*
X44704683Y-59032356D02*
X44590397Y-59032356D01*
X44590397Y-59032356D02*
X44476111Y-59070451D01*
X44476111Y-59070451D02*
X44399921Y-59146641D01*
X44399921Y-59146641D02*
X44361826Y-59222832D01*
X44361826Y-59222832D02*
X44323730Y-59375213D01*
X44323730Y-59375213D02*
X44323730Y-59489499D01*
X44323730Y-59489499D02*
X44361826Y-59641880D01*
X44361826Y-59641880D02*
X44399921Y-59718070D01*
X44399921Y-59718070D02*
X44476111Y-59794261D01*
X44476111Y-59794261D02*
X44590397Y-59832356D01*
X44590397Y-59832356D02*
X44666588Y-59832356D01*
X44666588Y-59832356D02*
X44780873Y-59794261D01*
X44780873Y-59794261D02*
X44818969Y-59756165D01*
X44818969Y-59756165D02*
X44818969Y-59489499D01*
X44818969Y-59489499D02*
X44666588Y-59489499D01*
X45161826Y-59832356D02*
X45161826Y-59299022D01*
X45161826Y-59451403D02*
X45199921Y-59375213D01*
X45199921Y-59375213D02*
X45238016Y-59337118D01*
X45238016Y-59337118D02*
X45314207Y-59299022D01*
X45314207Y-59299022D02*
X45390397Y-59299022D01*
X47142778Y-59413308D02*
X47257064Y-59451403D01*
X47257064Y-59451403D02*
X47295159Y-59489499D01*
X47295159Y-59489499D02*
X47333255Y-59565689D01*
X47333255Y-59565689D02*
X47333255Y-59679975D01*
X47333255Y-59679975D02*
X47295159Y-59756165D01*
X47295159Y-59756165D02*
X47257064Y-59794261D01*
X47257064Y-59794261D02*
X47180874Y-59832356D01*
X47180874Y-59832356D02*
X46876112Y-59832356D01*
X46876112Y-59832356D02*
X46876112Y-59032356D01*
X46876112Y-59032356D02*
X47142778Y-59032356D01*
X47142778Y-59032356D02*
X47218969Y-59070451D01*
X47218969Y-59070451D02*
X47257064Y-59108546D01*
X47257064Y-59108546D02*
X47295159Y-59184737D01*
X47295159Y-59184737D02*
X47295159Y-59260927D01*
X47295159Y-59260927D02*
X47257064Y-59337118D01*
X47257064Y-59337118D02*
X47218969Y-59375213D01*
X47218969Y-59375213D02*
X47142778Y-59413308D01*
X47142778Y-59413308D02*
X46876112Y-59413308D01*
X49575312Y-46296895D02*
X49118169Y-46296895D01*
X49346741Y-46296895D02*
X49346741Y-45496895D01*
X49346741Y-45496895D02*
X49270550Y-45611180D01*
X49270550Y-45611180D02*
X49194360Y-45687371D01*
X49194360Y-45687371D02*
X49118169Y-45725466D01*
X52518328Y-24096895D02*
X52137376Y-24096895D01*
X52137376Y-24096895D02*
X52099280Y-24477847D01*
X52099280Y-24477847D02*
X52137376Y-24439752D01*
X52137376Y-24439752D02*
X52213566Y-24401657D01*
X52213566Y-24401657D02*
X52404042Y-24401657D01*
X52404042Y-24401657D02*
X52480233Y-24439752D01*
X52480233Y-24439752D02*
X52518328Y-24477847D01*
X52518328Y-24477847D02*
X52556423Y-24554038D01*
X52556423Y-24554038D02*
X52556423Y-24744514D01*
X52556423Y-24744514D02*
X52518328Y-24820704D01*
X52518328Y-24820704D02*
X52480233Y-24858800D01*
X52480233Y-24858800D02*
X52404042Y-24896895D01*
X52404042Y-24896895D02*
X52213566Y-24896895D01*
X52213566Y-24896895D02*
X52137376Y-24858800D01*
X52137376Y-24858800D02*
X52099280Y-24820704D01*
X52784995Y-24096895D02*
X53051662Y-24896895D01*
X53051662Y-24896895D02*
X53318328Y-24096895D01*
X54156423Y-24858800D02*
X54270709Y-24896895D01*
X54270709Y-24896895D02*
X54461185Y-24896895D01*
X54461185Y-24896895D02*
X54537376Y-24858800D01*
X54537376Y-24858800D02*
X54575471Y-24820704D01*
X54575471Y-24820704D02*
X54613566Y-24744514D01*
X54613566Y-24744514D02*
X54613566Y-24668323D01*
X54613566Y-24668323D02*
X54575471Y-24592133D01*
X54575471Y-24592133D02*
X54537376Y-24554038D01*
X54537376Y-24554038D02*
X54461185Y-24515942D01*
X54461185Y-24515942D02*
X54308804Y-24477847D01*
X54308804Y-24477847D02*
X54232614Y-24439752D01*
X54232614Y-24439752D02*
X54194519Y-24401657D01*
X54194519Y-24401657D02*
X54156423Y-24325466D01*
X54156423Y-24325466D02*
X54156423Y-24249276D01*
X54156423Y-24249276D02*
X54194519Y-24173085D01*
X54194519Y-24173085D02*
X54232614Y-24134990D01*
X54232614Y-24134990D02*
X54308804Y-24096895D01*
X54308804Y-24096895D02*
X54499281Y-24096895D01*
X54499281Y-24096895D02*
X54613566Y-24134990D01*
X55261186Y-24858800D02*
X55184995Y-24896895D01*
X55184995Y-24896895D02*
X55032614Y-24896895D01*
X55032614Y-24896895D02*
X54956424Y-24858800D01*
X54956424Y-24858800D02*
X54918328Y-24782609D01*
X54918328Y-24782609D02*
X54918328Y-24477847D01*
X54918328Y-24477847D02*
X54956424Y-24401657D01*
X54956424Y-24401657D02*
X55032614Y-24363561D01*
X55032614Y-24363561D02*
X55184995Y-24363561D01*
X55184995Y-24363561D02*
X55261186Y-24401657D01*
X55261186Y-24401657D02*
X55299281Y-24477847D01*
X55299281Y-24477847D02*
X55299281Y-24554038D01*
X55299281Y-24554038D02*
X54918328Y-24630228D01*
X55642138Y-24896895D02*
X55642138Y-24363561D01*
X55642138Y-24515942D02*
X55680233Y-24439752D01*
X55680233Y-24439752D02*
X55718328Y-24401657D01*
X55718328Y-24401657D02*
X55794519Y-24363561D01*
X55794519Y-24363561D02*
X55870709Y-24363561D01*
X56061185Y-24363561D02*
X56251661Y-24896895D01*
X56251661Y-24896895D02*
X56442138Y-24363561D01*
X56861185Y-24896895D02*
X56784995Y-24858800D01*
X56784995Y-24858800D02*
X56746900Y-24820704D01*
X56746900Y-24820704D02*
X56708804Y-24744514D01*
X56708804Y-24744514D02*
X56708804Y-24515942D01*
X56708804Y-24515942D02*
X56746900Y-24439752D01*
X56746900Y-24439752D02*
X56784995Y-24401657D01*
X56784995Y-24401657D02*
X56861185Y-24363561D01*
X56861185Y-24363561D02*
X56975471Y-24363561D01*
X56975471Y-24363561D02*
X57051662Y-24401657D01*
X57051662Y-24401657D02*
X57089757Y-24439752D01*
X57089757Y-24439752D02*
X57127852Y-24515942D01*
X57127852Y-24515942D02*
X57127852Y-24744514D01*
X57127852Y-24744514D02*
X57089757Y-24820704D01*
X57089757Y-24820704D02*
X57051662Y-24858800D01*
X57051662Y-24858800D02*
X56975471Y-24896895D01*
X56975471Y-24896895D02*
X56861185Y-24896895D01*
X53337217Y-42196895D02*
X52956265Y-42196895D01*
X52956265Y-42196895D02*
X52918169Y-42577847D01*
X52918169Y-42577847D02*
X52956265Y-42539752D01*
X52956265Y-42539752D02*
X53032455Y-42501657D01*
X53032455Y-42501657D02*
X53222931Y-42501657D01*
X53222931Y-42501657D02*
X53299122Y-42539752D01*
X53299122Y-42539752D02*
X53337217Y-42577847D01*
X53337217Y-42577847D02*
X53375312Y-42654038D01*
X53375312Y-42654038D02*
X53375312Y-42844514D01*
X53375312Y-42844514D02*
X53337217Y-42920704D01*
X53337217Y-42920704D02*
X53299122Y-42958800D01*
X53299122Y-42958800D02*
X53222931Y-42996895D01*
X53222931Y-42996895D02*
X53032455Y-42996895D01*
X53032455Y-42996895D02*
X52956265Y-42958800D01*
X52956265Y-42958800D02*
X52918169Y-42920704D01*
X53603884Y-42196895D02*
X53870551Y-42996895D01*
X53870551Y-42996895D02*
X54137217Y-42196895D01*
X54975312Y-42958800D02*
X55089598Y-42996895D01*
X55089598Y-42996895D02*
X55280074Y-42996895D01*
X55280074Y-42996895D02*
X55356265Y-42958800D01*
X55356265Y-42958800D02*
X55394360Y-42920704D01*
X55394360Y-42920704D02*
X55432455Y-42844514D01*
X55432455Y-42844514D02*
X55432455Y-42768323D01*
X55432455Y-42768323D02*
X55394360Y-42692133D01*
X55394360Y-42692133D02*
X55356265Y-42654038D01*
X55356265Y-42654038D02*
X55280074Y-42615942D01*
X55280074Y-42615942D02*
X55127693Y-42577847D01*
X55127693Y-42577847D02*
X55051503Y-42539752D01*
X55051503Y-42539752D02*
X55013408Y-42501657D01*
X55013408Y-42501657D02*
X54975312Y-42425466D01*
X54975312Y-42425466D02*
X54975312Y-42349276D01*
X54975312Y-42349276D02*
X55013408Y-42273085D01*
X55013408Y-42273085D02*
X55051503Y-42234990D01*
X55051503Y-42234990D02*
X55127693Y-42196895D01*
X55127693Y-42196895D02*
X55318170Y-42196895D01*
X55318170Y-42196895D02*
X55432455Y-42234990D01*
X56080075Y-42958800D02*
X56003884Y-42996895D01*
X56003884Y-42996895D02*
X55851503Y-42996895D01*
X55851503Y-42996895D02*
X55775313Y-42958800D01*
X55775313Y-42958800D02*
X55737217Y-42882609D01*
X55737217Y-42882609D02*
X55737217Y-42577847D01*
X55737217Y-42577847D02*
X55775313Y-42501657D01*
X55775313Y-42501657D02*
X55851503Y-42463561D01*
X55851503Y-42463561D02*
X56003884Y-42463561D01*
X56003884Y-42463561D02*
X56080075Y-42501657D01*
X56080075Y-42501657D02*
X56118170Y-42577847D01*
X56118170Y-42577847D02*
X56118170Y-42654038D01*
X56118170Y-42654038D02*
X55737217Y-42730228D01*
X56461027Y-42463561D02*
X56461027Y-42996895D01*
X56461027Y-42539752D02*
X56499122Y-42501657D01*
X56499122Y-42501657D02*
X56575312Y-42463561D01*
X56575312Y-42463561D02*
X56689598Y-42463561D01*
X56689598Y-42463561D02*
X56765789Y-42501657D01*
X56765789Y-42501657D02*
X56803884Y-42577847D01*
X56803884Y-42577847D02*
X56803884Y-42996895D01*
X57146741Y-42958800D02*
X57222932Y-42996895D01*
X57222932Y-42996895D02*
X57375313Y-42996895D01*
X57375313Y-42996895D02*
X57451503Y-42958800D01*
X57451503Y-42958800D02*
X57489599Y-42882609D01*
X57489599Y-42882609D02*
X57489599Y-42844514D01*
X57489599Y-42844514D02*
X57451503Y-42768323D01*
X57451503Y-42768323D02*
X57375313Y-42730228D01*
X57375313Y-42730228D02*
X57261027Y-42730228D01*
X57261027Y-42730228D02*
X57184837Y-42692133D01*
X57184837Y-42692133D02*
X57146741Y-42615942D01*
X57146741Y-42615942D02*
X57146741Y-42577847D01*
X57146741Y-42577847D02*
X57184837Y-42501657D01*
X57184837Y-42501657D02*
X57261027Y-42463561D01*
X57261027Y-42463561D02*
X57375313Y-42463561D01*
X57375313Y-42463561D02*
X57451503Y-42501657D01*
X57946741Y-42996895D02*
X57870551Y-42958800D01*
X57870551Y-42958800D02*
X57832456Y-42920704D01*
X57832456Y-42920704D02*
X57794360Y-42844514D01*
X57794360Y-42844514D02*
X57794360Y-42615942D01*
X57794360Y-42615942D02*
X57832456Y-42539752D01*
X57832456Y-42539752D02*
X57870551Y-42501657D01*
X57870551Y-42501657D02*
X57946741Y-42463561D01*
X57946741Y-42463561D02*
X58061027Y-42463561D01*
X58061027Y-42463561D02*
X58137218Y-42501657D01*
X58137218Y-42501657D02*
X58175313Y-42539752D01*
X58175313Y-42539752D02*
X58213408Y-42615942D01*
X58213408Y-42615942D02*
X58213408Y-42844514D01*
X58213408Y-42844514D02*
X58175313Y-42920704D01*
X58175313Y-42920704D02*
X58137218Y-42958800D01*
X58137218Y-42958800D02*
X58061027Y-42996895D01*
X58061027Y-42996895D02*
X57946741Y-42996895D01*
X58556266Y-42996895D02*
X58556266Y-42463561D01*
X58556266Y-42615942D02*
X58594361Y-42539752D01*
X58594361Y-42539752D02*
X58632456Y-42501657D01*
X58632456Y-42501657D02*
X58708647Y-42463561D01*
X58708647Y-42463561D02*
X58784837Y-42463561D01*
X50996895Y-63886591D02*
X50615942Y-64153258D01*
X50996895Y-64343734D02*
X50196895Y-64343734D01*
X50196895Y-64343734D02*
X50196895Y-64038972D01*
X50196895Y-64038972D02*
X50234990Y-63962782D01*
X50234990Y-63962782D02*
X50273085Y-63924687D01*
X50273085Y-63924687D02*
X50349276Y-63886591D01*
X50349276Y-63886591D02*
X50463561Y-63886591D01*
X50463561Y-63886591D02*
X50539752Y-63924687D01*
X50539752Y-63924687D02*
X50577847Y-63962782D01*
X50577847Y-63962782D02*
X50615942Y-64038972D01*
X50615942Y-64038972D02*
X50615942Y-64343734D01*
X50577847Y-63277068D02*
X50615942Y-63162782D01*
X50615942Y-63162782D02*
X50654038Y-63124687D01*
X50654038Y-63124687D02*
X50730228Y-63086591D01*
X50730228Y-63086591D02*
X50844514Y-63086591D01*
X50844514Y-63086591D02*
X50920704Y-63124687D01*
X50920704Y-63124687D02*
X50958800Y-63162782D01*
X50958800Y-63162782D02*
X50996895Y-63238972D01*
X50996895Y-63238972D02*
X50996895Y-63543734D01*
X50996895Y-63543734D02*
X50196895Y-63543734D01*
X50196895Y-63543734D02*
X50196895Y-63277068D01*
X50196895Y-63277068D02*
X50234990Y-63200877D01*
X50234990Y-63200877D02*
X50273085Y-63162782D01*
X50273085Y-63162782D02*
X50349276Y-63124687D01*
X50349276Y-63124687D02*
X50425466Y-63124687D01*
X50425466Y-63124687D02*
X50501657Y-63162782D01*
X50501657Y-63162782D02*
X50539752Y-63200877D01*
X50539752Y-63200877D02*
X50577847Y-63277068D01*
X50577847Y-63277068D02*
X50577847Y-63543734D01*
X50234990Y-62324687D02*
X50196895Y-62400877D01*
X50196895Y-62400877D02*
X50196895Y-62515163D01*
X50196895Y-62515163D02*
X50234990Y-62629449D01*
X50234990Y-62629449D02*
X50311180Y-62705639D01*
X50311180Y-62705639D02*
X50387371Y-62743734D01*
X50387371Y-62743734D02*
X50539752Y-62781830D01*
X50539752Y-62781830D02*
X50654038Y-62781830D01*
X50654038Y-62781830D02*
X50806419Y-62743734D01*
X50806419Y-62743734D02*
X50882609Y-62705639D01*
X50882609Y-62705639D02*
X50958800Y-62629449D01*
X50958800Y-62629449D02*
X50996895Y-62515163D01*
X50996895Y-62515163D02*
X50996895Y-62438972D01*
X50996895Y-62438972D02*
X50958800Y-62324687D01*
X50958800Y-62324687D02*
X50920704Y-62286591D01*
X50920704Y-62286591D02*
X50654038Y-62286591D01*
X50654038Y-62286591D02*
X50654038Y-62438972D01*
X50958800Y-57715162D02*
X50996895Y-57600876D01*
X50996895Y-57600876D02*
X50996895Y-57410400D01*
X50996895Y-57410400D02*
X50958800Y-57334209D01*
X50958800Y-57334209D02*
X50920704Y-57296114D01*
X50920704Y-57296114D02*
X50844514Y-57258019D01*
X50844514Y-57258019D02*
X50768323Y-57258019D01*
X50768323Y-57258019D02*
X50692133Y-57296114D01*
X50692133Y-57296114D02*
X50654038Y-57334209D01*
X50654038Y-57334209D02*
X50615942Y-57410400D01*
X50615942Y-57410400D02*
X50577847Y-57562781D01*
X50577847Y-57562781D02*
X50539752Y-57638971D01*
X50539752Y-57638971D02*
X50501657Y-57677066D01*
X50501657Y-57677066D02*
X50425466Y-57715162D01*
X50425466Y-57715162D02*
X50349276Y-57715162D01*
X50349276Y-57715162D02*
X50273085Y-57677066D01*
X50273085Y-57677066D02*
X50234990Y-57638971D01*
X50234990Y-57638971D02*
X50196895Y-57562781D01*
X50196895Y-57562781D02*
X50196895Y-57372304D01*
X50196895Y-57372304D02*
X50234990Y-57258019D01*
X50577847Y-56915161D02*
X50577847Y-56648495D01*
X50996895Y-56534209D02*
X50996895Y-56915161D01*
X50996895Y-56915161D02*
X50196895Y-56915161D01*
X50196895Y-56915161D02*
X50196895Y-56534209D01*
X50996895Y-55734208D02*
X50615942Y-56000875D01*
X50996895Y-56191351D02*
X50196895Y-56191351D01*
X50196895Y-56191351D02*
X50196895Y-55886589D01*
X50196895Y-55886589D02*
X50234990Y-55810399D01*
X50234990Y-55810399D02*
X50273085Y-55772304D01*
X50273085Y-55772304D02*
X50349276Y-55734208D01*
X50349276Y-55734208D02*
X50463561Y-55734208D01*
X50463561Y-55734208D02*
X50539752Y-55772304D01*
X50539752Y-55772304D02*
X50577847Y-55810399D01*
X50577847Y-55810399D02*
X50615942Y-55886589D01*
X50615942Y-55886589D02*
X50615942Y-56191351D01*
X50196895Y-55505637D02*
X50996895Y-55238970D01*
X50996895Y-55238970D02*
X50196895Y-54972304D01*
X50196895Y-54553256D02*
X50196895Y-54400875D01*
X50196895Y-54400875D02*
X50234990Y-54324685D01*
X50234990Y-54324685D02*
X50311180Y-54248494D01*
X50311180Y-54248494D02*
X50463561Y-54210399D01*
X50463561Y-54210399D02*
X50730228Y-54210399D01*
X50730228Y-54210399D02*
X50882609Y-54248494D01*
X50882609Y-54248494D02*
X50958800Y-54324685D01*
X50958800Y-54324685D02*
X50996895Y-54400875D01*
X50996895Y-54400875D02*
X50996895Y-54553256D01*
X50996895Y-54553256D02*
X50958800Y-54629447D01*
X50958800Y-54629447D02*
X50882609Y-54705637D01*
X50882609Y-54705637D02*
X50730228Y-54743733D01*
X50730228Y-54743733D02*
X50463561Y-54743733D01*
X50463561Y-54743733D02*
X50311180Y-54705637D01*
X50311180Y-54705637D02*
X50234990Y-54629447D01*
X50234990Y-54629447D02*
X50196895Y-54553256D01*
X50958800Y-51467542D02*
X50996895Y-51353256D01*
X50996895Y-51353256D02*
X50996895Y-51162780D01*
X50996895Y-51162780D02*
X50958800Y-51086589D01*
X50958800Y-51086589D02*
X50920704Y-51048494D01*
X50920704Y-51048494D02*
X50844514Y-51010399D01*
X50844514Y-51010399D02*
X50768323Y-51010399D01*
X50768323Y-51010399D02*
X50692133Y-51048494D01*
X50692133Y-51048494D02*
X50654038Y-51086589D01*
X50654038Y-51086589D02*
X50615942Y-51162780D01*
X50615942Y-51162780D02*
X50577847Y-51315161D01*
X50577847Y-51315161D02*
X50539752Y-51391351D01*
X50539752Y-51391351D02*
X50501657Y-51429446D01*
X50501657Y-51429446D02*
X50425466Y-51467542D01*
X50425466Y-51467542D02*
X50349276Y-51467542D01*
X50349276Y-51467542D02*
X50273085Y-51429446D01*
X50273085Y-51429446D02*
X50234990Y-51391351D01*
X50234990Y-51391351D02*
X50196895Y-51315161D01*
X50196895Y-51315161D02*
X50196895Y-51124684D01*
X50196895Y-51124684D02*
X50234990Y-51010399D01*
X50196895Y-50781827D02*
X50196895Y-50324684D01*
X50996895Y-50553256D02*
X50196895Y-50553256D01*
X50577847Y-50058017D02*
X50577847Y-49791351D01*
X50996895Y-49677065D02*
X50996895Y-50058017D01*
X50996895Y-50058017D02*
X50196895Y-50058017D01*
X50196895Y-50058017D02*
X50196895Y-49677065D01*
X50996895Y-49334207D02*
X50196895Y-49334207D01*
X50196895Y-49334207D02*
X50196895Y-49029445D01*
X50196895Y-49029445D02*
X50234990Y-48953255D01*
X50234990Y-48953255D02*
X50273085Y-48915160D01*
X50273085Y-48915160D02*
X50349276Y-48877064D01*
X50349276Y-48877064D02*
X50463561Y-48877064D01*
X50463561Y-48877064D02*
X50539752Y-48915160D01*
X50539752Y-48915160D02*
X50577847Y-48953255D01*
X50577847Y-48953255D02*
X50615942Y-49029445D01*
X50615942Y-49029445D02*
X50615942Y-49334207D01*
X50996895Y-48534207D02*
X50196895Y-48534207D01*
X50196895Y-48534207D02*
X50196895Y-48229445D01*
X50196895Y-48229445D02*
X50234990Y-48153255D01*
X50234990Y-48153255D02*
X50273085Y-48115160D01*
X50273085Y-48115160D02*
X50349276Y-48077064D01*
X50349276Y-48077064D02*
X50463561Y-48077064D01*
X50463561Y-48077064D02*
X50539752Y-48115160D01*
X50539752Y-48115160D02*
X50577847Y-48153255D01*
X50577847Y-48153255D02*
X50615942Y-48229445D01*
X50615942Y-48229445D02*
X50615942Y-48534207D01*
X50577847Y-47734207D02*
X50577847Y-47467541D01*
X50996895Y-47353255D02*
X50996895Y-47734207D01*
X50996895Y-47734207D02*
X50196895Y-47734207D01*
X50196895Y-47734207D02*
X50196895Y-47353255D01*
X50996895Y-46553254D02*
X50615942Y-46819921D01*
X50996895Y-47010397D02*
X50196895Y-47010397D01*
X50196895Y-47010397D02*
X50196895Y-46705635D01*
X50196895Y-46705635D02*
X50234990Y-46629445D01*
X50234990Y-46629445D02*
X50273085Y-46591350D01*
X50273085Y-46591350D02*
X50349276Y-46553254D01*
X50349276Y-46553254D02*
X50463561Y-46553254D01*
X50463561Y-46553254D02*
X50539752Y-46591350D01*
X50539752Y-46591350D02*
X50577847Y-46629445D01*
X50577847Y-46629445D02*
X50615942Y-46705635D01*
X50615942Y-46705635D02*
X50615942Y-47010397D01*
X13742294Y-20104198D02*
X14075627Y-20104198D01*
X14218484Y-20628008D02*
X13742294Y-20628008D01*
X13742294Y-20628008D02*
X13742294Y-19628008D01*
X13742294Y-19628008D02*
X14218484Y-19628008D01*
X14599437Y-20580389D02*
X14742294Y-20628008D01*
X14742294Y-20628008D02*
X14980389Y-20628008D01*
X14980389Y-20628008D02*
X15075627Y-20580389D01*
X15075627Y-20580389D02*
X15123246Y-20532769D01*
X15123246Y-20532769D02*
X15170865Y-20437531D01*
X15170865Y-20437531D02*
X15170865Y-20342293D01*
X15170865Y-20342293D02*
X15123246Y-20247055D01*
X15123246Y-20247055D02*
X15075627Y-20199436D01*
X15075627Y-20199436D02*
X14980389Y-20151817D01*
X14980389Y-20151817D02*
X14789913Y-20104198D01*
X14789913Y-20104198D02*
X14694675Y-20056579D01*
X14694675Y-20056579D02*
X14647056Y-20008960D01*
X14647056Y-20008960D02*
X14599437Y-19913722D01*
X14599437Y-19913722D02*
X14599437Y-19818484D01*
X14599437Y-19818484D02*
X14647056Y-19723246D01*
X14647056Y-19723246D02*
X14694675Y-19675627D01*
X14694675Y-19675627D02*
X14789913Y-19628008D01*
X14789913Y-19628008D02*
X15028008Y-19628008D01*
X15028008Y-19628008D02*
X15170865Y-19675627D01*
X15599437Y-20628008D02*
X15599437Y-19628008D01*
X15599437Y-19628008D02*
X15980389Y-19628008D01*
X15980389Y-19628008D02*
X16075627Y-19675627D01*
X16075627Y-19675627D02*
X16123246Y-19723246D01*
X16123246Y-19723246D02*
X16170865Y-19818484D01*
X16170865Y-19818484D02*
X16170865Y-19961341D01*
X16170865Y-19961341D02*
X16123246Y-20056579D01*
X16123246Y-20056579D02*
X16075627Y-20104198D01*
X16075627Y-20104198D02*
X15980389Y-20151817D01*
X15980389Y-20151817D02*
X15599437Y-20151817D01*
X16504199Y-19628008D02*
X17123246Y-19628008D01*
X17123246Y-19628008D02*
X16789913Y-20008960D01*
X16789913Y-20008960D02*
X16932770Y-20008960D01*
X16932770Y-20008960D02*
X17028008Y-20056579D01*
X17028008Y-20056579D02*
X17075627Y-20104198D01*
X17075627Y-20104198D02*
X17123246Y-20199436D01*
X17123246Y-20199436D02*
X17123246Y-20437531D01*
X17123246Y-20437531D02*
X17075627Y-20532769D01*
X17075627Y-20532769D02*
X17028008Y-20580389D01*
X17028008Y-20580389D02*
X16932770Y-20628008D01*
X16932770Y-20628008D02*
X16647056Y-20628008D01*
X16647056Y-20628008D02*
X16551818Y-20580389D01*
X16551818Y-20580389D02*
X16504199Y-20532769D01*
X17504199Y-19723246D02*
X17551818Y-19675627D01*
X17551818Y-19675627D02*
X17647056Y-19628008D01*
X17647056Y-19628008D02*
X17885151Y-19628008D01*
X17885151Y-19628008D02*
X17980389Y-19675627D01*
X17980389Y-19675627D02*
X18028008Y-19723246D01*
X18028008Y-19723246D02*
X18075627Y-19818484D01*
X18075627Y-19818484D02*
X18075627Y-19913722D01*
X18075627Y-19913722D02*
X18028008Y-20056579D01*
X18028008Y-20056579D02*
X17456580Y-20628008D01*
X17456580Y-20628008D02*
X18075627Y-20628008D01*
X19266104Y-20628008D02*
X19266104Y-19628008D01*
X19266104Y-19628008D02*
X19504199Y-19628008D01*
X19504199Y-19628008D02*
X19647056Y-19675627D01*
X19647056Y-19675627D02*
X19742294Y-19770865D01*
X19742294Y-19770865D02*
X19789913Y-19866103D01*
X19789913Y-19866103D02*
X19837532Y-20056579D01*
X19837532Y-20056579D02*
X19837532Y-20199436D01*
X19837532Y-20199436D02*
X19789913Y-20389912D01*
X19789913Y-20389912D02*
X19742294Y-20485150D01*
X19742294Y-20485150D02*
X19647056Y-20580389D01*
X19647056Y-20580389D02*
X19504199Y-20628008D01*
X19504199Y-20628008D02*
X19266104Y-20628008D01*
X20647056Y-20580389D02*
X20551818Y-20628008D01*
X20551818Y-20628008D02*
X20361342Y-20628008D01*
X20361342Y-20628008D02*
X20266104Y-20580389D01*
X20266104Y-20580389D02*
X20218485Y-20485150D01*
X20218485Y-20485150D02*
X20218485Y-20104198D01*
X20218485Y-20104198D02*
X20266104Y-20008960D01*
X20266104Y-20008960D02*
X20361342Y-19961341D01*
X20361342Y-19961341D02*
X20551818Y-19961341D01*
X20551818Y-19961341D02*
X20647056Y-20008960D01*
X20647056Y-20008960D02*
X20694675Y-20104198D01*
X20694675Y-20104198D02*
X20694675Y-20199436D01*
X20694675Y-20199436D02*
X20218485Y-20294674D01*
X21028009Y-19961341D02*
X21266104Y-20628008D01*
X21266104Y-20628008D02*
X21504199Y-19961341D01*
X21885152Y-20628008D02*
X21885152Y-19628008D01*
X21980390Y-20247055D02*
X22266104Y-20628008D01*
X22266104Y-19961341D02*
X21885152Y-20342293D01*
X22694676Y-20628008D02*
X22694676Y-19961341D01*
X22694676Y-19628008D02*
X22647057Y-19675627D01*
X22647057Y-19675627D02*
X22694676Y-19723246D01*
X22694676Y-19723246D02*
X22742295Y-19675627D01*
X22742295Y-19675627D02*
X22694676Y-19628008D01*
X22694676Y-19628008D02*
X22694676Y-19723246D01*
X23028009Y-19961341D02*
X23408961Y-19961341D01*
X23170866Y-19628008D02*
X23170866Y-20485150D01*
X23170866Y-20485150D02*
X23218485Y-20580389D01*
X23218485Y-20580389D02*
X23313723Y-20628008D01*
X23313723Y-20628008D02*
X23408961Y-20628008D01*
X24361343Y-19628008D02*
X24694676Y-20628008D01*
X24694676Y-20628008D02*
X25028009Y-19628008D01*
X25885152Y-20628008D02*
X25313724Y-20628008D01*
X25599438Y-20628008D02*
X25599438Y-19628008D01*
X25599438Y-19628008D02*
X25504200Y-19770865D01*
X25504200Y-19770865D02*
X25408962Y-19866103D01*
X25408962Y-19866103D02*
X25313724Y-19913722D01*
X41303884Y-44272419D02*
X41303884Y-43272419D01*
X41303884Y-43272419D02*
X41684836Y-43272419D01*
X41684836Y-43272419D02*
X41780074Y-43320038D01*
X41780074Y-43320038D02*
X41827693Y-43367657D01*
X41827693Y-43367657D02*
X41875312Y-43462895D01*
X41875312Y-43462895D02*
X41875312Y-43605752D01*
X41875312Y-43605752D02*
X41827693Y-43700990D01*
X41827693Y-43700990D02*
X41780074Y-43748609D01*
X41780074Y-43748609D02*
X41684836Y-43796228D01*
X41684836Y-43796228D02*
X41303884Y-43796228D01*
X42494360Y-43272419D02*
X42684836Y-43272419D01*
X42684836Y-43272419D02*
X42780074Y-43320038D01*
X42780074Y-43320038D02*
X42875312Y-43415276D01*
X42875312Y-43415276D02*
X42922931Y-43605752D01*
X42922931Y-43605752D02*
X42922931Y-43939085D01*
X42922931Y-43939085D02*
X42875312Y-44129561D01*
X42875312Y-44129561D02*
X42780074Y-44224800D01*
X42780074Y-44224800D02*
X42684836Y-44272419D01*
X42684836Y-44272419D02*
X42494360Y-44272419D01*
X42494360Y-44272419D02*
X42399122Y-44224800D01*
X42399122Y-44224800D02*
X42303884Y-44129561D01*
X42303884Y-44129561D02*
X42256265Y-43939085D01*
X42256265Y-43939085D02*
X42256265Y-43605752D01*
X42256265Y-43605752D02*
X42303884Y-43415276D01*
X42303884Y-43415276D02*
X42399122Y-43320038D01*
X42399122Y-43320038D02*
X42494360Y-43272419D01*
X43208646Y-43272419D02*
X43780074Y-43272419D01*
X43494360Y-44272419D02*
X43494360Y-43272419D01*
X41393427Y-22239957D02*
X41393427Y-21239957D01*
X41393427Y-21239957D02*
X41774379Y-21239957D01*
X41774379Y-21239957D02*
X41869617Y-21287576D01*
X41869617Y-21287576D02*
X41917236Y-21335195D01*
X41917236Y-21335195D02*
X41964855Y-21430433D01*
X41964855Y-21430433D02*
X41964855Y-21573290D01*
X41964855Y-21573290D02*
X41917236Y-21668528D01*
X41917236Y-21668528D02*
X41869617Y-21716147D01*
X41869617Y-21716147D02*
X41774379Y-21763766D01*
X41774379Y-21763766D02*
X41393427Y-21763766D01*
X42583903Y-21239957D02*
X42774379Y-21239957D01*
X42774379Y-21239957D02*
X42869617Y-21287576D01*
X42869617Y-21287576D02*
X42964855Y-21382814D01*
X42964855Y-21382814D02*
X43012474Y-21573290D01*
X43012474Y-21573290D02*
X43012474Y-21906623D01*
X43012474Y-21906623D02*
X42964855Y-22097099D01*
X42964855Y-22097099D02*
X42869617Y-22192338D01*
X42869617Y-22192338D02*
X42774379Y-22239957D01*
X42774379Y-22239957D02*
X42583903Y-22239957D01*
X42583903Y-22239957D02*
X42488665Y-22192338D01*
X42488665Y-22192338D02*
X42393427Y-22097099D01*
X42393427Y-22097099D02*
X42345808Y-21906623D01*
X42345808Y-21906623D02*
X42345808Y-21573290D01*
X42345808Y-21573290D02*
X42393427Y-21382814D01*
X42393427Y-21382814D02*
X42488665Y-21287576D01*
X42488665Y-21287576D02*
X42583903Y-21239957D01*
X43298189Y-21239957D02*
X43869617Y-21239957D01*
X43583903Y-22239957D02*
X43583903Y-21239957D01*
X77823287Y-36741833D02*
X77918525Y-36789452D01*
X77918525Y-36789452D02*
X78109001Y-36789452D01*
X78109001Y-36789452D02*
X78204239Y-36741833D01*
X78204239Y-36741833D02*
X78251858Y-36646594D01*
X78251858Y-36646594D02*
X78251858Y-36598975D01*
X78251858Y-36598975D02*
X78204239Y-36503737D01*
X78204239Y-36503737D02*
X78109001Y-36456118D01*
X78109001Y-36456118D02*
X77966144Y-36456118D01*
X77966144Y-36456118D02*
X77870906Y-36408499D01*
X77870906Y-36408499D02*
X77823287Y-36313261D01*
X77823287Y-36313261D02*
X77823287Y-36265642D01*
X77823287Y-36265642D02*
X77870906Y-36170404D01*
X77870906Y-36170404D02*
X77966144Y-36122785D01*
X77966144Y-36122785D02*
X78109001Y-36122785D01*
X78109001Y-36122785D02*
X78204239Y-36170404D01*
X78585192Y-36122785D02*
X78775668Y-36789452D01*
X78775668Y-36789452D02*
X78966144Y-36313261D01*
X78966144Y-36313261D02*
X79156620Y-36789452D01*
X79156620Y-36789452D02*
X79347096Y-36122785D01*
X79728049Y-36789452D02*
X79728049Y-36122785D01*
X79728049Y-35789452D02*
X79680430Y-35837071D01*
X79680430Y-35837071D02*
X79728049Y-35884690D01*
X79728049Y-35884690D02*
X79775668Y-35837071D01*
X79775668Y-35837071D02*
X79728049Y-35789452D01*
X79728049Y-35789452D02*
X79728049Y-35884690D01*
X80061382Y-36122785D02*
X80442334Y-36122785D01*
X80204239Y-35789452D02*
X80204239Y-36646594D01*
X80204239Y-36646594D02*
X80251858Y-36741833D01*
X80251858Y-36741833D02*
X80347096Y-36789452D01*
X80347096Y-36789452D02*
X80442334Y-36789452D01*
X81204239Y-36741833D02*
X81109001Y-36789452D01*
X81109001Y-36789452D02*
X80918525Y-36789452D01*
X80918525Y-36789452D02*
X80823287Y-36741833D01*
X80823287Y-36741833D02*
X80775668Y-36694213D01*
X80775668Y-36694213D02*
X80728049Y-36598975D01*
X80728049Y-36598975D02*
X80728049Y-36313261D01*
X80728049Y-36313261D02*
X80775668Y-36218023D01*
X80775668Y-36218023D02*
X80823287Y-36170404D01*
X80823287Y-36170404D02*
X80918525Y-36122785D01*
X80918525Y-36122785D02*
X81109001Y-36122785D01*
X81109001Y-36122785D02*
X81204239Y-36170404D01*
X81632811Y-36789452D02*
X81632811Y-35789452D01*
X82061382Y-36789452D02*
X82061382Y-36265642D01*
X82061382Y-36265642D02*
X82013763Y-36170404D01*
X82013763Y-36170404D02*
X81918525Y-36122785D01*
X81918525Y-36122785D02*
X81775668Y-36122785D01*
X81775668Y-36122785D02*
X81680430Y-36170404D01*
X81680430Y-36170404D02*
X81632811Y-36218023D01*
X727580Y-37503884D02*
X1727580Y-37503884D01*
X1727580Y-37503884D02*
X1013295Y-37837217D01*
X1013295Y-37837217D02*
X1727580Y-38170550D01*
X1727580Y-38170550D02*
X727580Y-38170550D01*
X727580Y-38646741D02*
X1727580Y-38646741D01*
X1727580Y-38646741D02*
X1727580Y-39027693D01*
X1727580Y-39027693D02*
X1679961Y-39122931D01*
X1679961Y-39122931D02*
X1632342Y-39170550D01*
X1632342Y-39170550D02*
X1537104Y-39218169D01*
X1537104Y-39218169D02*
X1394247Y-39218169D01*
X1394247Y-39218169D02*
X1299009Y-39170550D01*
X1299009Y-39170550D02*
X1251390Y-39122931D01*
X1251390Y-39122931D02*
X1203771Y-39027693D01*
X1203771Y-39027693D02*
X1203771Y-38646741D01*
X1727580Y-39646741D02*
X918057Y-39646741D01*
X918057Y-39646741D02*
X822819Y-39694360D01*
X822819Y-39694360D02*
X775200Y-39741979D01*
X775200Y-39741979D02*
X727580Y-39837217D01*
X727580Y-39837217D02*
X727580Y-40027693D01*
X727580Y-40027693D02*
X775200Y-40122931D01*
X775200Y-40122931D02*
X822819Y-40170550D01*
X822819Y-40170550D02*
X918057Y-40218169D01*
X918057Y-40218169D02*
X1727580Y-40218169D01*
X1727580Y-41884836D02*
X1727580Y-41694360D01*
X1727580Y-41694360D02*
X1679961Y-41599122D01*
X1679961Y-41599122D02*
X1632342Y-41551503D01*
X1632342Y-41551503D02*
X1489485Y-41456265D01*
X1489485Y-41456265D02*
X1299009Y-41408646D01*
X1299009Y-41408646D02*
X918057Y-41408646D01*
X918057Y-41408646D02*
X822819Y-41456265D01*
X822819Y-41456265D02*
X775200Y-41503884D01*
X775200Y-41503884D02*
X727580Y-41599122D01*
X727580Y-41599122D02*
X727580Y-41789598D01*
X727580Y-41789598D02*
X775200Y-41884836D01*
X775200Y-41884836D02*
X822819Y-41932455D01*
X822819Y-41932455D02*
X918057Y-41980074D01*
X918057Y-41980074D02*
X1156152Y-41980074D01*
X1156152Y-41980074D02*
X1251390Y-41932455D01*
X1251390Y-41932455D02*
X1299009Y-41884836D01*
X1299009Y-41884836D02*
X1346628Y-41789598D01*
X1346628Y-41789598D02*
X1346628Y-41599122D01*
X1346628Y-41599122D02*
X1299009Y-41503884D01*
X1299009Y-41503884D02*
X1251390Y-41456265D01*
X1251390Y-41456265D02*
X1156152Y-41408646D01*
X1727580Y-42599122D02*
X1727580Y-42694360D01*
X1727580Y-42694360D02*
X1679961Y-42789598D01*
X1679961Y-42789598D02*
X1632342Y-42837217D01*
X1632342Y-42837217D02*
X1537104Y-42884836D01*
X1537104Y-42884836D02*
X1346628Y-42932455D01*
X1346628Y-42932455D02*
X1108533Y-42932455D01*
X1108533Y-42932455D02*
X918057Y-42884836D01*
X918057Y-42884836D02*
X822819Y-42837217D01*
X822819Y-42837217D02*
X775200Y-42789598D01*
X775200Y-42789598D02*
X727580Y-42694360D01*
X727580Y-42694360D02*
X727580Y-42599122D01*
X727580Y-42599122D02*
X775200Y-42503884D01*
X775200Y-42503884D02*
X822819Y-42456265D01*
X822819Y-42456265D02*
X918057Y-42408646D01*
X918057Y-42408646D02*
X1108533Y-42361027D01*
X1108533Y-42361027D02*
X1346628Y-42361027D01*
X1346628Y-42361027D02*
X1537104Y-42408646D01*
X1537104Y-42408646D02*
X1632342Y-42456265D01*
X1632342Y-42456265D02*
X1679961Y-42503884D01*
X1679961Y-42503884D02*
X1727580Y-42599122D01*
X1727580Y-43837217D02*
X1727580Y-43361027D01*
X1727580Y-43361027D02*
X1251390Y-43313408D01*
X1251390Y-43313408D02*
X1299009Y-43361027D01*
X1299009Y-43361027D02*
X1346628Y-43456265D01*
X1346628Y-43456265D02*
X1346628Y-43694360D01*
X1346628Y-43694360D02*
X1299009Y-43789598D01*
X1299009Y-43789598D02*
X1251390Y-43837217D01*
X1251390Y-43837217D02*
X1156152Y-43884836D01*
X1156152Y-43884836D02*
X918057Y-43884836D01*
X918057Y-43884836D02*
X822819Y-43837217D01*
X822819Y-43837217D02*
X775200Y-43789598D01*
X775200Y-43789598D02*
X727580Y-43694360D01*
X727580Y-43694360D02*
X727580Y-43456265D01*
X727580Y-43456265D02*
X775200Y-43361027D01*
X775200Y-43361027D02*
X822819Y-43313408D01*
X1727580Y-44503884D02*
X1727580Y-44599122D01*
X1727580Y-44599122D02*
X1679961Y-44694360D01*
X1679961Y-44694360D02*
X1632342Y-44741979D01*
X1632342Y-44741979D02*
X1537104Y-44789598D01*
X1537104Y-44789598D02*
X1346628Y-44837217D01*
X1346628Y-44837217D02*
X1108533Y-44837217D01*
X1108533Y-44837217D02*
X918057Y-44789598D01*
X918057Y-44789598D02*
X822819Y-44741979D01*
X822819Y-44741979D02*
X775200Y-44694360D01*
X775200Y-44694360D02*
X727580Y-44599122D01*
X727580Y-44599122D02*
X727580Y-44503884D01*
X727580Y-44503884D02*
X775200Y-44408646D01*
X775200Y-44408646D02*
X822819Y-44361027D01*
X822819Y-44361027D02*
X918057Y-44313408D01*
X918057Y-44313408D02*
X1108533Y-44265789D01*
X1108533Y-44265789D02*
X1346628Y-44265789D01*
X1346628Y-44265789D02*
X1537104Y-44313408D01*
X1537104Y-44313408D02*
X1632342Y-44361027D01*
X1632342Y-44361027D02*
X1679961Y-44408646D01*
X1679961Y-44408646D02*
X1727580Y-44503884D01*
X527580Y-13803884D02*
X1527580Y-13803884D01*
X1527580Y-13803884D02*
X813295Y-14137217D01*
X813295Y-14137217D02*
X1527580Y-14470550D01*
X1527580Y-14470550D02*
X527580Y-14470550D01*
X527580Y-14946741D02*
X1527580Y-14946741D01*
X1527580Y-14946741D02*
X1527580Y-15327693D01*
X1527580Y-15327693D02*
X1479961Y-15422931D01*
X1479961Y-15422931D02*
X1432342Y-15470550D01*
X1432342Y-15470550D02*
X1337104Y-15518169D01*
X1337104Y-15518169D02*
X1194247Y-15518169D01*
X1194247Y-15518169D02*
X1099009Y-15470550D01*
X1099009Y-15470550D02*
X1051390Y-15422931D01*
X1051390Y-15422931D02*
X1003771Y-15327693D01*
X1003771Y-15327693D02*
X1003771Y-14946741D01*
X1527580Y-15946741D02*
X718057Y-15946741D01*
X718057Y-15946741D02*
X622819Y-15994360D01*
X622819Y-15994360D02*
X575200Y-16041979D01*
X575200Y-16041979D02*
X527580Y-16137217D01*
X527580Y-16137217D02*
X527580Y-16327693D01*
X527580Y-16327693D02*
X575200Y-16422931D01*
X575200Y-16422931D02*
X622819Y-16470550D01*
X622819Y-16470550D02*
X718057Y-16518169D01*
X718057Y-16518169D02*
X1527580Y-16518169D01*
X527580Y-17803884D02*
X527580Y-17994360D01*
X527580Y-17994360D02*
X575200Y-18089598D01*
X575200Y-18089598D02*
X622819Y-18137217D01*
X622819Y-18137217D02*
X765676Y-18232455D01*
X765676Y-18232455D02*
X956152Y-18280074D01*
X956152Y-18280074D02*
X1337104Y-18280074D01*
X1337104Y-18280074D02*
X1432342Y-18232455D01*
X1432342Y-18232455D02*
X1479961Y-18184836D01*
X1479961Y-18184836D02*
X1527580Y-18089598D01*
X1527580Y-18089598D02*
X1527580Y-17899122D01*
X1527580Y-17899122D02*
X1479961Y-17803884D01*
X1479961Y-17803884D02*
X1432342Y-17756265D01*
X1432342Y-17756265D02*
X1337104Y-17708646D01*
X1337104Y-17708646D02*
X1099009Y-17708646D01*
X1099009Y-17708646D02*
X1003771Y-17756265D01*
X1003771Y-17756265D02*
X956152Y-17803884D01*
X956152Y-17803884D02*
X908533Y-17899122D01*
X908533Y-17899122D02*
X908533Y-18089598D01*
X908533Y-18089598D02*
X956152Y-18184836D01*
X956152Y-18184836D02*
X1003771Y-18232455D01*
X1003771Y-18232455D02*
X1099009Y-18280074D01*
X1432342Y-18661027D02*
X1479961Y-18708646D01*
X1479961Y-18708646D02*
X1527580Y-18803884D01*
X1527580Y-18803884D02*
X1527580Y-19041979D01*
X1527580Y-19041979D02*
X1479961Y-19137217D01*
X1479961Y-19137217D02*
X1432342Y-19184836D01*
X1432342Y-19184836D02*
X1337104Y-19232455D01*
X1337104Y-19232455D02*
X1241866Y-19232455D01*
X1241866Y-19232455D02*
X1099009Y-19184836D01*
X1099009Y-19184836D02*
X527580Y-18613408D01*
X527580Y-18613408D02*
X527580Y-19232455D01*
X1527580Y-20089598D02*
X1527580Y-19899122D01*
X1527580Y-19899122D02*
X1479961Y-19803884D01*
X1479961Y-19803884D02*
X1432342Y-19756265D01*
X1432342Y-19756265D02*
X1289485Y-19661027D01*
X1289485Y-19661027D02*
X1099009Y-19613408D01*
X1099009Y-19613408D02*
X718057Y-19613408D01*
X718057Y-19613408D02*
X622819Y-19661027D01*
X622819Y-19661027D02*
X575200Y-19708646D01*
X575200Y-19708646D02*
X527580Y-19803884D01*
X527580Y-19803884D02*
X527580Y-19994360D01*
X527580Y-19994360D02*
X575200Y-20089598D01*
X575200Y-20089598D02*
X622819Y-20137217D01*
X622819Y-20137217D02*
X718057Y-20184836D01*
X718057Y-20184836D02*
X956152Y-20184836D01*
X956152Y-20184836D02*
X1051390Y-20137217D01*
X1051390Y-20137217D02*
X1099009Y-20089598D01*
X1099009Y-20089598D02*
X1146628Y-19994360D01*
X1146628Y-19994360D02*
X1146628Y-19803884D01*
X1146628Y-19803884D02*
X1099009Y-19708646D01*
X1099009Y-19708646D02*
X1051390Y-19661027D01*
X1051390Y-19661027D02*
X956152Y-19613408D01*
X1527580Y-21089598D02*
X1527580Y-20613408D01*
X1527580Y-20613408D02*
X1051390Y-20565789D01*
X1051390Y-20565789D02*
X1099009Y-20613408D01*
X1099009Y-20613408D02*
X1146628Y-20708646D01*
X1146628Y-20708646D02*
X1146628Y-20946741D01*
X1146628Y-20946741D02*
X1099009Y-21041979D01*
X1099009Y-21041979D02*
X1051390Y-21089598D01*
X1051390Y-21089598D02*
X956152Y-21137217D01*
X956152Y-21137217D02*
X718057Y-21137217D01*
X718057Y-21137217D02*
X622819Y-21089598D01*
X622819Y-21089598D02*
X575200Y-21041979D01*
X575200Y-21041979D02*
X527580Y-20946741D01*
X527580Y-20946741D02*
X527580Y-20708646D01*
X527580Y-20708646D02*
X575200Y-20613408D01*
X575200Y-20613408D02*
X622819Y-20565789D01*
D11*
X10587292Y-61931742D02*
X10515863Y-61860314D01*
X10515863Y-61860314D02*
X10373006Y-61788885D01*
X10373006Y-61788885D02*
X10230149Y-61788885D01*
X10230149Y-61788885D02*
X10087292Y-61860314D01*
X10087292Y-61860314D02*
X10015863Y-61931742D01*
X10015863Y-61931742D02*
X9944435Y-62074600D01*
X9944435Y-62074600D02*
X9944435Y-62217457D01*
X9944435Y-62217457D02*
X10015863Y-62360314D01*
X10015863Y-62360314D02*
X10087292Y-62431742D01*
X10087292Y-62431742D02*
X10230149Y-62503171D01*
X10230149Y-62503171D02*
X10373006Y-62503171D01*
X10373006Y-62503171D02*
X10515863Y-62431742D01*
X10515863Y-62431742D02*
X10587292Y-62360314D01*
X10587292Y-61788885D02*
X10587292Y-62360314D01*
X10587292Y-62360314D02*
X10658720Y-62431742D01*
X10658720Y-62431742D02*
X10730149Y-62431742D01*
X10730149Y-62431742D02*
X10873006Y-62360314D01*
X10873006Y-62360314D02*
X10944435Y-62217457D01*
X10944435Y-62217457D02*
X10944435Y-61860314D01*
X10944435Y-61860314D02*
X10801578Y-61646028D01*
X10801578Y-61646028D02*
X10587292Y-61503171D01*
X10587292Y-61503171D02*
X10301578Y-61431742D01*
X10301578Y-61431742D02*
X10015863Y-61503171D01*
X10015863Y-61503171D02*
X9801578Y-61646028D01*
X9801578Y-61646028D02*
X9658720Y-61860314D01*
X9658720Y-61860314D02*
X9587292Y-62146028D01*
X9587292Y-62146028D02*
X9658720Y-62431742D01*
X9658720Y-62431742D02*
X9801578Y-62646028D01*
X9801578Y-62646028D02*
X10015863Y-62788885D01*
X10015863Y-62788885D02*
X10301578Y-62860314D01*
X10301578Y-62860314D02*
X10587292Y-62788885D01*
X10587292Y-62788885D02*
X10801578Y-62646028D01*
X11587291Y-62646028D02*
X11587291Y-61146028D01*
X11730149Y-62074600D02*
X12158720Y-62646028D01*
X12158720Y-61646028D02*
X11587291Y-62217457D01*
X13444435Y-62646028D02*
X13444435Y-61860314D01*
X13444435Y-61860314D02*
X13373006Y-61717457D01*
X13373006Y-61717457D02*
X13230149Y-61646028D01*
X13230149Y-61646028D02*
X12944435Y-61646028D01*
X12944435Y-61646028D02*
X12801577Y-61717457D01*
X13444435Y-62574600D02*
X13301577Y-62646028D01*
X13301577Y-62646028D02*
X12944435Y-62646028D01*
X12944435Y-62646028D02*
X12801577Y-62574600D01*
X12801577Y-62574600D02*
X12730149Y-62431742D01*
X12730149Y-62431742D02*
X12730149Y-62288885D01*
X12730149Y-62288885D02*
X12801577Y-62146028D01*
X12801577Y-62146028D02*
X12944435Y-62074600D01*
X12944435Y-62074600D02*
X13301577Y-62074600D01*
X13301577Y-62074600D02*
X13444435Y-62003171D01*
X14158720Y-62646028D02*
X14158720Y-61646028D01*
X14158720Y-61146028D02*
X14087292Y-61217457D01*
X14087292Y-61217457D02*
X14158720Y-61288885D01*
X14158720Y-61288885D02*
X14230149Y-61217457D01*
X14230149Y-61217457D02*
X14158720Y-61146028D01*
X14158720Y-61146028D02*
X14158720Y-61288885D01*
X14873006Y-62646028D02*
X14873006Y-61646028D01*
X14873006Y-61931742D02*
X14944435Y-61788885D01*
X14944435Y-61788885D02*
X15015864Y-61717457D01*
X15015864Y-61717457D02*
X15158721Y-61646028D01*
X15158721Y-61646028D02*
X15301578Y-61646028D01*
X16015863Y-62646028D02*
X15873006Y-62574600D01*
X15873006Y-62574600D02*
X15801577Y-62503171D01*
X15801577Y-62503171D02*
X15730149Y-62360314D01*
X15730149Y-62360314D02*
X15730149Y-61931742D01*
X15730149Y-61931742D02*
X15801577Y-61788885D01*
X15801577Y-61788885D02*
X15873006Y-61717457D01*
X15873006Y-61717457D02*
X16015863Y-61646028D01*
X16015863Y-61646028D02*
X16230149Y-61646028D01*
X16230149Y-61646028D02*
X16373006Y-61717457D01*
X16373006Y-61717457D02*
X16444435Y-61788885D01*
X16444435Y-61788885D02*
X16515863Y-61931742D01*
X16515863Y-61931742D02*
X16515863Y-62360314D01*
X16515863Y-62360314D02*
X16444435Y-62503171D01*
X16444435Y-62503171D02*
X16373006Y-62574600D01*
X16373006Y-62574600D02*
X16230149Y-62646028D01*
X16230149Y-62646028D02*
X16015863Y-62646028D01*
X17158720Y-62646028D02*
X17158720Y-61146028D01*
X17158720Y-61717457D02*
X17301578Y-61646028D01*
X17301578Y-61646028D02*
X17587292Y-61646028D01*
X17587292Y-61646028D02*
X17730149Y-61717457D01*
X17730149Y-61717457D02*
X17801578Y-61788885D01*
X17801578Y-61788885D02*
X17873006Y-61931742D01*
X17873006Y-61931742D02*
X17873006Y-62360314D01*
X17873006Y-62360314D02*
X17801578Y-62503171D01*
X17801578Y-62503171D02*
X17730149Y-62574600D01*
X17730149Y-62574600D02*
X17587292Y-62646028D01*
X17587292Y-62646028D02*
X17301578Y-62646028D01*
X17301578Y-62646028D02*
X17158720Y-62574600D01*
X18373006Y-61646028D02*
X18730149Y-62646028D01*
X19087292Y-61646028D02*
X18730149Y-62646028D01*
X18730149Y-62646028D02*
X18587292Y-63003171D01*
X18587292Y-63003171D02*
X18515863Y-63074600D01*
X18515863Y-63074600D02*
X18373006Y-63146028D01*
X19444435Y-61646028D02*
X20015863Y-61646028D01*
X19658720Y-61146028D02*
X19658720Y-62431742D01*
X19658720Y-62431742D02*
X19730149Y-62574600D01*
X19730149Y-62574600D02*
X19873006Y-62646028D01*
X19873006Y-62646028D02*
X20015863Y-62646028D01*
X21087292Y-62574600D02*
X20944435Y-62646028D01*
X20944435Y-62646028D02*
X20658721Y-62646028D01*
X20658721Y-62646028D02*
X20515863Y-62574600D01*
X20515863Y-62574600D02*
X20444435Y-62431742D01*
X20444435Y-62431742D02*
X20444435Y-61860314D01*
X20444435Y-61860314D02*
X20515863Y-61717457D01*
X20515863Y-61717457D02*
X20658721Y-61646028D01*
X20658721Y-61646028D02*
X20944435Y-61646028D01*
X20944435Y-61646028D02*
X21087292Y-61717457D01*
X21087292Y-61717457D02*
X21158721Y-61860314D01*
X21158721Y-61860314D02*
X21158721Y-62003171D01*
X21158721Y-62003171D02*
X20444435Y-62146028D01*
D12*
X73618095Y-60454819D02*
X73618095Y-61264342D01*
X73618095Y-61264342D02*
X73665714Y-61359580D01*
X73665714Y-61359580D02*
X73713333Y-61407200D01*
X73713333Y-61407200D02*
X73808571Y-61454819D01*
X73808571Y-61454819D02*
X73999047Y-61454819D01*
X73999047Y-61454819D02*
X74094285Y-61407200D01*
X74094285Y-61407200D02*
X74141904Y-61359580D01*
X74141904Y-61359580D02*
X74189523Y-61264342D01*
X74189523Y-61264342D02*
X74189523Y-60454819D01*
X75094285Y-60788152D02*
X75094285Y-61454819D01*
X74856190Y-60407200D02*
X74618095Y-61121485D01*
X74618095Y-61121485D02*
X75237142Y-61121485D01*
X72868095Y-18204819D02*
X72868095Y-19014342D01*
X72868095Y-19014342D02*
X72915714Y-19109580D01*
X72915714Y-19109580D02*
X72963333Y-19157200D01*
X72963333Y-19157200D02*
X73058571Y-19204819D01*
X73058571Y-19204819D02*
X73249047Y-19204819D01*
X73249047Y-19204819D02*
X73344285Y-19157200D01*
X73344285Y-19157200D02*
X73391904Y-19109580D01*
X73391904Y-19109580D02*
X73439523Y-19014342D01*
X73439523Y-19014342D02*
X73439523Y-18204819D01*
X74391904Y-18204819D02*
X73915714Y-18204819D01*
X73915714Y-18204819D02*
X73868095Y-18681009D01*
X73868095Y-18681009D02*
X73915714Y-18633390D01*
X73915714Y-18633390D02*
X74010952Y-18585771D01*
X74010952Y-18585771D02*
X74249047Y-18585771D01*
X74249047Y-18585771D02*
X74344285Y-18633390D01*
X74344285Y-18633390D02*
X74391904Y-18681009D01*
X74391904Y-18681009D02*
X74439523Y-18776247D01*
X74439523Y-18776247D02*
X74439523Y-19014342D01*
X74439523Y-19014342D02*
X74391904Y-19109580D01*
X74391904Y-19109580D02*
X74344285Y-19157200D01*
X74344285Y-19157200D02*
X74249047Y-19204819D01*
X74249047Y-19204819D02*
X74010952Y-19204819D01*
X74010952Y-19204819D02*
X73915714Y-19157200D01*
X73915714Y-19157200D02*
X73868095Y-19109580D01*
X17144819Y-48816666D02*
X16668628Y-49149999D01*
X17144819Y-49388094D02*
X16144819Y-49388094D01*
X16144819Y-49388094D02*
X16144819Y-49007142D01*
X16144819Y-49007142D02*
X16192438Y-48911904D01*
X16192438Y-48911904D02*
X16240057Y-48864285D01*
X16240057Y-48864285D02*
X16335295Y-48816666D01*
X16335295Y-48816666D02*
X16478152Y-48816666D01*
X16478152Y-48816666D02*
X16573390Y-48864285D01*
X16573390Y-48864285D02*
X16621009Y-48911904D01*
X16621009Y-48911904D02*
X16668628Y-49007142D01*
X16668628Y-49007142D02*
X16668628Y-49388094D01*
X16144819Y-48483332D02*
X16144819Y-47864285D01*
X16144819Y-47864285D02*
X16525771Y-48197618D01*
X16525771Y-48197618D02*
X16525771Y-48054761D01*
X16525771Y-48054761D02*
X16573390Y-47959523D01*
X16573390Y-47959523D02*
X16621009Y-47911904D01*
X16621009Y-47911904D02*
X16716247Y-47864285D01*
X16716247Y-47864285D02*
X16954342Y-47864285D01*
X16954342Y-47864285D02*
X17049580Y-47911904D01*
X17049580Y-47911904D02*
X17097200Y-47959523D01*
X17097200Y-47959523D02*
X17144819Y-48054761D01*
X17144819Y-48054761D02*
X17144819Y-48340475D01*
X17144819Y-48340475D02*
X17097200Y-48435713D01*
X17097200Y-48435713D02*
X17049580Y-48483332D01*
X62089580Y-35188966D02*
X62137200Y-35236585D01*
X62137200Y-35236585D02*
X62184819Y-35379442D01*
X62184819Y-35379442D02*
X62184819Y-35474680D01*
X62184819Y-35474680D02*
X62137200Y-35617537D01*
X62137200Y-35617537D02*
X62041961Y-35712775D01*
X62041961Y-35712775D02*
X61946723Y-35760394D01*
X61946723Y-35760394D02*
X61756247Y-35808013D01*
X61756247Y-35808013D02*
X61613390Y-35808013D01*
X61613390Y-35808013D02*
X61422914Y-35760394D01*
X61422914Y-35760394D02*
X61327676Y-35712775D01*
X61327676Y-35712775D02*
X61232438Y-35617537D01*
X61232438Y-35617537D02*
X61184819Y-35474680D01*
X61184819Y-35474680D02*
X61184819Y-35379442D01*
X61184819Y-35379442D02*
X61232438Y-35236585D01*
X61232438Y-35236585D02*
X61280057Y-35188966D01*
X61280057Y-34808013D02*
X61232438Y-34760394D01*
X61232438Y-34760394D02*
X61184819Y-34665156D01*
X61184819Y-34665156D02*
X61184819Y-34427061D01*
X61184819Y-34427061D02*
X61232438Y-34331823D01*
X61232438Y-34331823D02*
X61280057Y-34284204D01*
X61280057Y-34284204D02*
X61375295Y-34236585D01*
X61375295Y-34236585D02*
X61470533Y-34236585D01*
X61470533Y-34236585D02*
X61613390Y-34284204D01*
X61613390Y-34284204D02*
X62184819Y-34855632D01*
X62184819Y-34855632D02*
X62184819Y-34236585D01*
X63141905Y-41704819D02*
X63141905Y-40704819D01*
X63141905Y-40704819D02*
X63380000Y-40704819D01*
X63380000Y-40704819D02*
X63522857Y-40752438D01*
X63522857Y-40752438D02*
X63618095Y-40847676D01*
X63618095Y-40847676D02*
X63665714Y-40942914D01*
X63665714Y-40942914D02*
X63713333Y-41133390D01*
X63713333Y-41133390D02*
X63713333Y-41276247D01*
X63713333Y-41276247D02*
X63665714Y-41466723D01*
X63665714Y-41466723D02*
X63618095Y-41561961D01*
X63618095Y-41561961D02*
X63522857Y-41657200D01*
X63522857Y-41657200D02*
X63380000Y-41704819D01*
X63380000Y-41704819D02*
X63141905Y-41704819D01*
X64665714Y-41704819D02*
X64094286Y-41704819D01*
X64380000Y-41704819D02*
X64380000Y-40704819D01*
X64380000Y-40704819D02*
X64284762Y-40847676D01*
X64284762Y-40847676D02*
X64189524Y-40942914D01*
X64189524Y-40942914D02*
X64094286Y-40990533D01*
X72038095Y-44444819D02*
X72038095Y-43444819D01*
X72609523Y-44444819D02*
X72180952Y-43873390D01*
X72609523Y-43444819D02*
X72038095Y-44016247D01*
X14744819Y-48766666D02*
X14268628Y-49099999D01*
X14744819Y-49338094D02*
X13744819Y-49338094D01*
X13744819Y-49338094D02*
X13744819Y-48957142D01*
X13744819Y-48957142D02*
X13792438Y-48861904D01*
X13792438Y-48861904D02*
X13840057Y-48814285D01*
X13840057Y-48814285D02*
X13935295Y-48766666D01*
X13935295Y-48766666D02*
X14078152Y-48766666D01*
X14078152Y-48766666D02*
X14173390Y-48814285D01*
X14173390Y-48814285D02*
X14221009Y-48861904D01*
X14221009Y-48861904D02*
X14268628Y-48957142D01*
X14268628Y-48957142D02*
X14268628Y-49338094D01*
X13840057Y-48385713D02*
X13792438Y-48338094D01*
X13792438Y-48338094D02*
X13744819Y-48242856D01*
X13744819Y-48242856D02*
X13744819Y-48004761D01*
X13744819Y-48004761D02*
X13792438Y-47909523D01*
X13792438Y-47909523D02*
X13840057Y-47861904D01*
X13840057Y-47861904D02*
X13935295Y-47814285D01*
X13935295Y-47814285D02*
X14030533Y-47814285D01*
X14030533Y-47814285D02*
X14173390Y-47861904D01*
X14173390Y-47861904D02*
X14744819Y-48433332D01*
X14744819Y-48433332D02*
X14744819Y-47814285D01*
X79596666Y-40094819D02*
X79596666Y-40809104D01*
X79596666Y-40809104D02*
X79549047Y-40951961D01*
X79549047Y-40951961D02*
X79453809Y-41047200D01*
X79453809Y-41047200D02*
X79310952Y-41094819D01*
X79310952Y-41094819D02*
X79215714Y-41094819D01*
X80025238Y-40190057D02*
X80072857Y-40142438D01*
X80072857Y-40142438D02*
X80168095Y-40094819D01*
X80168095Y-40094819D02*
X80406190Y-40094819D01*
X80406190Y-40094819D02*
X80501428Y-40142438D01*
X80501428Y-40142438D02*
X80549047Y-40190057D01*
X80549047Y-40190057D02*
X80596666Y-40285295D01*
X80596666Y-40285295D02*
X80596666Y-40380533D01*
X80596666Y-40380533D02*
X80549047Y-40523390D01*
X80549047Y-40523390D02*
X79977619Y-41094819D01*
X79977619Y-41094819D02*
X80596666Y-41094819D01*
X12594819Y-48806666D02*
X12118628Y-49139999D01*
X12594819Y-49378094D02*
X11594819Y-49378094D01*
X11594819Y-49378094D02*
X11594819Y-48997142D01*
X11594819Y-48997142D02*
X11642438Y-48901904D01*
X11642438Y-48901904D02*
X11690057Y-48854285D01*
X11690057Y-48854285D02*
X11785295Y-48806666D01*
X11785295Y-48806666D02*
X11928152Y-48806666D01*
X11928152Y-48806666D02*
X12023390Y-48854285D01*
X12023390Y-48854285D02*
X12071009Y-48901904D01*
X12071009Y-48901904D02*
X12118628Y-48997142D01*
X12118628Y-48997142D02*
X12118628Y-49378094D01*
X12594819Y-47854285D02*
X12594819Y-48425713D01*
X12594819Y-48139999D02*
X11594819Y-48139999D01*
X11594819Y-48139999D02*
X11737676Y-48235237D01*
X11737676Y-48235237D02*
X11832914Y-48330475D01*
X11832914Y-48330475D02*
X11880533Y-48425713D01*
X91884819Y-30123333D02*
X92599104Y-30123333D01*
X92599104Y-30123333D02*
X92741961Y-30170952D01*
X92741961Y-30170952D02*
X92837200Y-30266190D01*
X92837200Y-30266190D02*
X92884819Y-30409047D01*
X92884819Y-30409047D02*
X92884819Y-30504285D01*
X92884819Y-29123333D02*
X92884819Y-29694761D01*
X92884819Y-29409047D02*
X91884819Y-29409047D01*
X91884819Y-29409047D02*
X92027676Y-29504285D01*
X92027676Y-29504285D02*
X92122914Y-29599523D01*
X92122914Y-29599523D02*
X92170533Y-29694761D01*
X73539580Y-35188966D02*
X73587200Y-35236585D01*
X73587200Y-35236585D02*
X73634819Y-35379442D01*
X73634819Y-35379442D02*
X73634819Y-35474680D01*
X73634819Y-35474680D02*
X73587200Y-35617537D01*
X73587200Y-35617537D02*
X73491961Y-35712775D01*
X73491961Y-35712775D02*
X73396723Y-35760394D01*
X73396723Y-35760394D02*
X73206247Y-35808013D01*
X73206247Y-35808013D02*
X73063390Y-35808013D01*
X73063390Y-35808013D02*
X72872914Y-35760394D01*
X72872914Y-35760394D02*
X72777676Y-35712775D01*
X72777676Y-35712775D02*
X72682438Y-35617537D01*
X72682438Y-35617537D02*
X72634819Y-35474680D01*
X72634819Y-35474680D02*
X72634819Y-35379442D01*
X72634819Y-35379442D02*
X72682438Y-35236585D01*
X72682438Y-35236585D02*
X72730057Y-35188966D01*
X73634819Y-34236585D02*
X73634819Y-34808013D01*
X73634819Y-34522299D02*
X72634819Y-34522299D01*
X72634819Y-34522299D02*
X72777676Y-34617537D01*
X72777676Y-34617537D02*
X72872914Y-34712775D01*
X72872914Y-34712775D02*
X72920533Y-34808013D01*
X41815714Y-34559104D02*
X42291904Y-34559104D01*
X41720476Y-34844819D02*
X42053809Y-33844819D01*
X42053809Y-33844819D02*
X42387142Y-34844819D01*
X42672857Y-33940057D02*
X42720476Y-33892438D01*
X42720476Y-33892438D02*
X42815714Y-33844819D01*
X42815714Y-33844819D02*
X43053809Y-33844819D01*
X43053809Y-33844819D02*
X43149047Y-33892438D01*
X43149047Y-33892438D02*
X43196666Y-33940057D01*
X43196666Y-33940057D02*
X43244285Y-34035295D01*
X43244285Y-34035295D02*
X43244285Y-34130533D01*
X43244285Y-34130533D02*
X43196666Y-34273390D01*
X43196666Y-34273390D02*
X42625238Y-34844819D01*
X42625238Y-34844819D02*
X43244285Y-34844819D01*
X41815714Y-13869104D02*
X42291904Y-13869104D01*
X41720476Y-14154819D02*
X42053809Y-13154819D01*
X42053809Y-13154819D02*
X42387142Y-14154819D01*
X43244285Y-14154819D02*
X42672857Y-14154819D01*
X42958571Y-14154819D02*
X42958571Y-13154819D01*
X42958571Y-13154819D02*
X42863333Y-13297676D01*
X42863333Y-13297676D02*
X42768095Y-13392914D01*
X42768095Y-13392914D02*
X42672857Y-13440533D01*
X84294580Y-35259366D02*
X84342200Y-35306985D01*
X84342200Y-35306985D02*
X84389819Y-35449842D01*
X84389819Y-35449842D02*
X84389819Y-35545080D01*
X84389819Y-35545080D02*
X84342200Y-35687937D01*
X84342200Y-35687937D02*
X84246961Y-35783175D01*
X84246961Y-35783175D02*
X84151723Y-35830794D01*
X84151723Y-35830794D02*
X83961247Y-35878413D01*
X83961247Y-35878413D02*
X83818390Y-35878413D01*
X83818390Y-35878413D02*
X83627914Y-35830794D01*
X83627914Y-35830794D02*
X83532676Y-35783175D01*
X83532676Y-35783175D02*
X83437438Y-35687937D01*
X83437438Y-35687937D02*
X83389819Y-35545080D01*
X83389819Y-35545080D02*
X83389819Y-35449842D01*
X83389819Y-35449842D02*
X83437438Y-35306985D01*
X83437438Y-35306985D02*
X83485057Y-35259366D01*
X83389819Y-34926032D02*
X83389819Y-34306985D01*
X83389819Y-34306985D02*
X83770771Y-34640318D01*
X83770771Y-34640318D02*
X83770771Y-34497461D01*
X83770771Y-34497461D02*
X83818390Y-34402223D01*
X83818390Y-34402223D02*
X83866009Y-34354604D01*
X83866009Y-34354604D02*
X83961247Y-34306985D01*
X83961247Y-34306985D02*
X84199342Y-34306985D01*
X84199342Y-34306985D02*
X84294580Y-34354604D01*
X84294580Y-34354604D02*
X84342200Y-34402223D01*
X84342200Y-34402223D02*
X84389819Y-34497461D01*
X84389819Y-34497461D02*
X84389819Y-34783175D01*
X84389819Y-34783175D02*
X84342200Y-34878413D01*
X84342200Y-34878413D02*
X84294580Y-34926032D01*
X11030952Y-58154819D02*
X11030952Y-58964342D01*
X11030952Y-58964342D02*
X11078571Y-59059580D01*
X11078571Y-59059580D02*
X11126190Y-59107200D01*
X11126190Y-59107200D02*
X11221428Y-59154819D01*
X11221428Y-59154819D02*
X11411904Y-59154819D01*
X11411904Y-59154819D02*
X11507142Y-59107200D01*
X11507142Y-59107200D02*
X11554761Y-59059580D01*
X11554761Y-59059580D02*
X11602380Y-58964342D01*
X11602380Y-58964342D02*
X11602380Y-58154819D01*
X12221428Y-59154819D02*
X12126190Y-59107200D01*
X12126190Y-59107200D02*
X12078571Y-59011961D01*
X12078571Y-59011961D02*
X12078571Y-58154819D01*
X12459524Y-58488152D02*
X12840476Y-58488152D01*
X12602381Y-58154819D02*
X12602381Y-59011961D01*
X12602381Y-59011961D02*
X12650000Y-59107200D01*
X12650000Y-59107200D02*
X12745238Y-59154819D01*
X12745238Y-59154819D02*
X12840476Y-59154819D01*
X13173810Y-59154819D02*
X13173810Y-58488152D01*
X13173810Y-58678628D02*
X13221429Y-58583390D01*
X13221429Y-58583390D02*
X13269048Y-58535771D01*
X13269048Y-58535771D02*
X13364286Y-58488152D01*
X13364286Y-58488152D02*
X13459524Y-58488152D01*
X14221429Y-59154819D02*
X14221429Y-58631009D01*
X14221429Y-58631009D02*
X14173810Y-58535771D01*
X14173810Y-58535771D02*
X14078572Y-58488152D01*
X14078572Y-58488152D02*
X13888096Y-58488152D01*
X13888096Y-58488152D02*
X13792858Y-58535771D01*
X14221429Y-59107200D02*
X14126191Y-59154819D01*
X14126191Y-59154819D02*
X13888096Y-59154819D01*
X13888096Y-59154819D02*
X13792858Y-59107200D01*
X13792858Y-59107200D02*
X13745239Y-59011961D01*
X13745239Y-59011961D02*
X13745239Y-58916723D01*
X13745239Y-58916723D02*
X13792858Y-58821485D01*
X13792858Y-58821485D02*
X13888096Y-58773866D01*
X13888096Y-58773866D02*
X14126191Y-58773866D01*
X14126191Y-58773866D02*
X14221429Y-58726247D01*
X14650001Y-59107200D02*
X14792858Y-59154819D01*
X14792858Y-59154819D02*
X15030953Y-59154819D01*
X15030953Y-59154819D02*
X15126191Y-59107200D01*
X15126191Y-59107200D02*
X15173810Y-59059580D01*
X15173810Y-59059580D02*
X15221429Y-58964342D01*
X15221429Y-58964342D02*
X15221429Y-58869104D01*
X15221429Y-58869104D02*
X15173810Y-58773866D01*
X15173810Y-58773866D02*
X15126191Y-58726247D01*
X15126191Y-58726247D02*
X15030953Y-58678628D01*
X15030953Y-58678628D02*
X14840477Y-58631009D01*
X14840477Y-58631009D02*
X14745239Y-58583390D01*
X14745239Y-58583390D02*
X14697620Y-58535771D01*
X14697620Y-58535771D02*
X14650001Y-58440533D01*
X14650001Y-58440533D02*
X14650001Y-58345295D01*
X14650001Y-58345295D02*
X14697620Y-58250057D01*
X14697620Y-58250057D02*
X14745239Y-58202438D01*
X14745239Y-58202438D02*
X14840477Y-58154819D01*
X14840477Y-58154819D02*
X15078572Y-58154819D01*
X15078572Y-58154819D02*
X15221429Y-58202438D01*
X15792858Y-59154819D02*
X15697620Y-59107200D01*
X15697620Y-59107200D02*
X15650001Y-59059580D01*
X15650001Y-59059580D02*
X15602382Y-58964342D01*
X15602382Y-58964342D02*
X15602382Y-58678628D01*
X15602382Y-58678628D02*
X15650001Y-58583390D01*
X15650001Y-58583390D02*
X15697620Y-58535771D01*
X15697620Y-58535771D02*
X15792858Y-58488152D01*
X15792858Y-58488152D02*
X15935715Y-58488152D01*
X15935715Y-58488152D02*
X16030953Y-58535771D01*
X16030953Y-58535771D02*
X16078572Y-58583390D01*
X16078572Y-58583390D02*
X16126191Y-58678628D01*
X16126191Y-58678628D02*
X16126191Y-58964342D01*
X16126191Y-58964342D02*
X16078572Y-59059580D01*
X16078572Y-59059580D02*
X16030953Y-59107200D01*
X16030953Y-59107200D02*
X15935715Y-59154819D01*
X15935715Y-59154819D02*
X15792858Y-59154819D01*
X16554763Y-58488152D02*
X16554763Y-59154819D01*
X16554763Y-58583390D02*
X16602382Y-58535771D01*
X16602382Y-58535771D02*
X16697620Y-58488152D01*
X16697620Y-58488152D02*
X16840477Y-58488152D01*
X16840477Y-58488152D02*
X16935715Y-58535771D01*
X16935715Y-58535771D02*
X16983334Y-58631009D01*
X16983334Y-58631009D02*
X16983334Y-59154819D01*
X17459525Y-59154819D02*
X17459525Y-58488152D01*
X17459525Y-58154819D02*
X17411906Y-58202438D01*
X17411906Y-58202438D02*
X17459525Y-58250057D01*
X17459525Y-58250057D02*
X17507144Y-58202438D01*
X17507144Y-58202438D02*
X17459525Y-58154819D01*
X17459525Y-58154819D02*
X17459525Y-58250057D01*
X18364286Y-59107200D02*
X18269048Y-59154819D01*
X18269048Y-59154819D02*
X18078572Y-59154819D01*
X18078572Y-59154819D02*
X17983334Y-59107200D01*
X17983334Y-59107200D02*
X17935715Y-59059580D01*
X17935715Y-59059580D02*
X17888096Y-58964342D01*
X17888096Y-58964342D02*
X17888096Y-58678628D01*
X17888096Y-58678628D02*
X17935715Y-58583390D01*
X17935715Y-58583390D02*
X17983334Y-58535771D01*
X17983334Y-58535771D02*
X18078572Y-58488152D01*
X18078572Y-58488152D02*
X18269048Y-58488152D01*
X18269048Y-58488152D02*
X18364286Y-58535771D01*
X19316667Y-59154819D02*
X18745239Y-59154819D01*
X19030953Y-59154819D02*
X19030953Y-58154819D01*
X19030953Y-58154819D02*
X18935715Y-58297676D01*
X18935715Y-58297676D02*
X18840477Y-58392914D01*
X18840477Y-58392914D02*
X18745239Y-58440533D01*
%TO.C,U1*%
D11*
X4880000Y-3600000D02*
G75*
G02*
X4680000Y-3600000I-100000J0D01*
G01*
X4680000Y-3600000D02*
G75*
G02*
X4880000Y-3600000I100000J0D01*
G01*
%TO.C,U2*%
D10*
X2064000Y-51150000D02*
X2196000Y-31150000D01*
%TO.C,U3*%
X2030000Y-30040000D02*
X2030000Y-4040000D01*
%TO.C,U4*%
D13*
X52805000Y-43165000D02*
X52805000Y-64615000D01*
X52805000Y-64615000D02*
X96555000Y-64615000D01*
X55940000Y-43420000D02*
X52825000Y-43420000D01*
X55940000Y-43420000D02*
X55940000Y-46580000D01*
X55940000Y-46580000D02*
X52825000Y-46580000D01*
X55940000Y-61200000D02*
X52780000Y-61200000D01*
X55940000Y-61200000D02*
X55940000Y-64360000D01*
X55940000Y-64360000D02*
X52825000Y-64360000D01*
X57551319Y-61799705D02*
X58351319Y-61799705D01*
X57551319Y-62119705D02*
X58351319Y-62119705D01*
X57551319Y-63399704D02*
X57551319Y-61799705D01*
X57551319Y-63399704D02*
X58351319Y-63399704D01*
X58351319Y-61799705D02*
X58351319Y-63399704D01*
X58351319Y-63079704D02*
X57551319Y-63079704D01*
X61700217Y-64097705D02*
X61700217Y-59197706D01*
X61750217Y-59147706D02*
X71650217Y-59147706D01*
X61832603Y-45494204D02*
X61832603Y-55194204D01*
X63057688Y-64148705D02*
X63091643Y-64148705D01*
X63141022Y-64148705D02*
X63185894Y-64148705D01*
X63332603Y-56694204D02*
X73032603Y-56694204D01*
X68560986Y-62797705D02*
X70639447Y-62797705D01*
X70639447Y-62297706D02*
X68560986Y-62297706D01*
X70651406Y-62772706D02*
X70639447Y-62797705D01*
X70651406Y-62772706D02*
X70644236Y-62803925D01*
X70651406Y-62772706D02*
X70675853Y-62777938D01*
X70663615Y-62829100D02*
X70639447Y-62797705D01*
X71650217Y-64147705D02*
X61750217Y-64147705D01*
X71700217Y-59197706D02*
X71700217Y-64097705D01*
X73032603Y-43994204D02*
X63332603Y-43994204D01*
X74532603Y-55194204D02*
X74532603Y-45494204D01*
X76089767Y-53790894D02*
X76089767Y-63142390D01*
X76089767Y-62353330D02*
X86249767Y-62353330D01*
X76167330Y-53713330D02*
X76089767Y-53790894D01*
X77349767Y-49083330D02*
X77349767Y-53713330D01*
X77739767Y-63433329D02*
X76089767Y-63142390D01*
X78189767Y-49083330D02*
X77349767Y-49083330D01*
X78189767Y-49083330D02*
X78189767Y-53713330D01*
X79049767Y-49083330D02*
X79049767Y-53713330D01*
X79889767Y-49083330D02*
X79049767Y-49083330D01*
X79889767Y-49083330D02*
X79889767Y-53713330D01*
X80749767Y-49083330D02*
X80749767Y-53713330D01*
X81268364Y-44471783D02*
X81718364Y-44471783D01*
X81268364Y-46221783D02*
X81268364Y-44471783D01*
X81589767Y-49083330D02*
X80749767Y-49083330D01*
X81589767Y-49083330D02*
X81589767Y-53713330D01*
X81717364Y-45985304D02*
X81717364Y-46079856D01*
X81718364Y-46221783D02*
X81268364Y-46221783D01*
X81718364Y-46496783D02*
X81718364Y-44196783D01*
X81818364Y-44096783D02*
X85418364Y-44096783D01*
X82449767Y-49083330D02*
X82449767Y-53713330D01*
X82588642Y-46496783D02*
X82588642Y-44196783D01*
X83289767Y-49083330D02*
X82449767Y-49083330D01*
X83289767Y-49083330D02*
X83289767Y-53713330D01*
X84149767Y-49083330D02*
X84149767Y-53713330D01*
X84599767Y-63433329D02*
X77739767Y-63433329D01*
X84989767Y-49083330D02*
X84149767Y-49083330D01*
X84989767Y-49083330D02*
X84989767Y-53713330D01*
X85418364Y-46596783D02*
X81818364Y-46596783D01*
X85518364Y-44196783D02*
X85518364Y-46496783D01*
X85518364Y-44471783D02*
X85968364Y-44471783D01*
X85968364Y-44471783D02*
X85968364Y-46221783D01*
X85968364Y-46221783D02*
X85518364Y-46221783D01*
X86172203Y-53713330D02*
X76167330Y-53713330D01*
X86249767Y-53790894D02*
X86172203Y-53713330D01*
X86249767Y-53790894D02*
X86249767Y-63142390D01*
X86249767Y-63142390D02*
X84599767Y-63433329D01*
X86250767Y-61775851D02*
X86250767Y-61614313D01*
X93420000Y-46580000D02*
X93420000Y-43420000D01*
X93420000Y-61510000D02*
X93420000Y-61200000D01*
X96550000Y-43420000D02*
X93420000Y-43420000D01*
X96550000Y-46580000D02*
X93420000Y-46580000D01*
X96550000Y-61205000D02*
X93420000Y-61200000D01*
X96550000Y-64360000D02*
X95250000Y-64360000D01*
X96555000Y-43165000D02*
X52805000Y-43165000D01*
X96555000Y-64615000D02*
X96555000Y-43165000D01*
X61700217Y-59197706D02*
G75*
G02*
X61750217Y-59147717I49983J6D01*
G01*
X61750217Y-64147705D02*
G75*
G02*
X61700195Y-64097705I-17J50005D01*
G01*
X61832603Y-45494204D02*
G75*
G02*
X63332603Y-43994203I1499997J4D01*
G01*
X63146337Y-47374417D02*
G75*
G02*
X63180445Y-47508602I-52937J-84883D01*
G01*
X63146338Y-47374418D02*
G75*
G02*
X65212818Y-45307938I793622J1272858D01*
G01*
X63180423Y-53179816D02*
G75*
G02*
X63146320Y-53313961I-87023J-49284D01*
G01*
X63180424Y-53179817D02*
G75*
G02*
X63180421Y-47508588I5002176J2835617D01*
G01*
X63332603Y-56694204D02*
G75*
G02*
X61832596Y-55194204I-3J1500004D01*
G01*
X65212817Y-55380469D02*
G75*
G02*
X63146333Y-53313982I-1272817J793669D01*
G01*
X65212817Y-55380469D02*
G75*
G02*
X65347002Y-55346359I84883J-52931D01*
G01*
X65346989Y-45342024D02*
G75*
G02*
X65212838Y-45307925I-49289J87024D01*
G01*
X65346989Y-45342024D02*
G75*
G02*
X71018217Y-45342024I2835614J-5002180D01*
G01*
X70675852Y-62317473D02*
G75*
G02*
X70663615Y-62266310I-1075652J-230227D01*
G01*
X71018216Y-55346383D02*
G75*
G02*
X65346989Y-55346383I-2835614J5002178D01*
G01*
X71018217Y-55346383D02*
G75*
G02*
X71152359Y-55380488I49283J-87017D01*
G01*
X71152389Y-45307938D02*
G75*
G02*
X71018201Y-45342053I-84889J52938D01*
G01*
X71152389Y-45307938D02*
G75*
G02*
X73218863Y-47374410I1272811J-793662D01*
G01*
X71650217Y-59147706D02*
G75*
G02*
X71700194Y-59197706I-17J-49994D01*
G01*
X71700217Y-64097705D02*
G75*
G02*
X71650217Y-64147717I-50017J5D01*
G01*
X73032603Y-43994204D02*
G75*
G02*
X74532596Y-45494204I-3J-1499996D01*
G01*
X73184782Y-47508590D02*
G75*
G02*
X73184779Y-53179815I-5002182J-2835610D01*
G01*
X73184783Y-47508591D02*
G75*
G02*
X73218882Y-47374440I87017J49291D01*
G01*
X73218868Y-53313989D02*
G75*
G02*
X71152389Y-55380469I-793628J-1272851D01*
G01*
X73218869Y-53313990D02*
G75*
G02*
X73184751Y-53179800I52931J84890D01*
G01*
X74532603Y-55194204D02*
G75*
G02*
X73032603Y-56694203I-1500003J4D01*
G01*
X81718364Y-44196783D02*
G75*
G02*
X81818364Y-44096764I100036J-17D01*
G01*
X81818364Y-46596783D02*
G75*
G02*
X81718417Y-46496783I36J99983D01*
G01*
X85418364Y-44096783D02*
G75*
G02*
X85518417Y-44196783I36J-100017D01*
G01*
X85518364Y-46496783D02*
G75*
G02*
X85418364Y-46596764I-99964J-17D01*
G01*
X60970693Y-53324794D02*
G75*
G02*
X52970693Y-53324794I-4000000J0D01*
G01*
X52970693Y-53324794D02*
G75*
G02*
X60970693Y-53324794I4000000J0D01*
G01*
X61039000Y-45635000D02*
G75*
G02*
X57841000Y-45635000I-1599000J0D01*
G01*
X57841000Y-45635000D02*
G75*
G02*
X61039000Y-45635000I1599000J0D01*
G01*
X73432603Y-50344204D02*
G75*
G02*
X62932603Y-50344204I-5250000J0D01*
G01*
X62932603Y-50344204D02*
G75*
G02*
X73432603Y-50344204I5250000J0D01*
G01*
X85701821Y-54625406D02*
G75*
G02*
X84951821Y-54625406I-375000J0D01*
G01*
X84951821Y-54625406D02*
G75*
G02*
X85701821Y-54625406I375000J0D01*
G01*
X91518999Y-62145000D02*
G75*
G02*
X88321001Y-62145000I-1598999J0D01*
G01*
X88321001Y-62145000D02*
G75*
G02*
X91518999Y-62145000I1598999J0D01*
G01*
X96353334Y-53822582D02*
G75*
G02*
X88353334Y-53822582I-4000000J0D01*
G01*
X88353334Y-53822582D02*
G75*
G02*
X96353334Y-53822582I4000000J0D01*
G01*
%TO.C,STEP_1*%
X36838400Y-48825500D02*
X37838400Y-48825500D01*
X37338400Y-49635500D02*
X36838400Y-49635500D01*
X37338400Y-50845500D02*
X37338400Y-49635500D01*
X37838400Y-48825500D02*
X37838400Y-47325500D01*
X48558400Y-48825500D02*
X48558400Y-47325500D01*
X49058400Y-49635500D02*
X49058400Y-50845500D01*
X49058400Y-50845500D02*
X37338400Y-50845500D01*
X49558400Y-48825500D02*
X48558400Y-48825500D01*
X49558400Y-49635500D02*
X49058400Y-49635500D01*
X49858400Y-47025500D02*
X47358400Y-47025500D01*
X49858400Y-49525500D02*
X49858400Y-47025500D01*
X36838400Y-47325500D02*
X49558400Y-47325500D01*
X49558400Y-51345500D01*
X36838400Y-51345500D01*
X36838400Y-47325500D01*
%TO.C,U5*%
X52055000Y-2415000D02*
X52055000Y-23865000D01*
X52055000Y-23865000D02*
X95805000Y-23865000D01*
X55190000Y-2670000D02*
X52075000Y-2670000D01*
X55190000Y-2670000D02*
X55190000Y-5830000D01*
X55190000Y-5830000D02*
X52075000Y-5830000D01*
X55190000Y-20450000D02*
X52030000Y-20450000D01*
X55190000Y-20450000D02*
X55190000Y-23610000D01*
X55190000Y-23610000D02*
X52075000Y-23610000D01*
X56801319Y-21049705D02*
X57601319Y-21049705D01*
X56801319Y-21369705D02*
X57601319Y-21369705D01*
X56801319Y-22649704D02*
X56801319Y-21049705D01*
X56801319Y-22649704D02*
X57601319Y-22649704D01*
X57601319Y-21049705D02*
X57601319Y-22649704D01*
X57601319Y-22329704D02*
X56801319Y-22329704D01*
X60950217Y-23347705D02*
X60950217Y-18447706D01*
X61000217Y-18397706D02*
X70900217Y-18397706D01*
X61082603Y-4744204D02*
X61082603Y-14444204D01*
X62307688Y-23398705D02*
X62341643Y-23398705D01*
X62391022Y-23398705D02*
X62435894Y-23398705D01*
X62582603Y-15944204D02*
X72282603Y-15944204D01*
X67810986Y-22047705D02*
X69889447Y-22047705D01*
X69889447Y-21547706D02*
X67810986Y-21547706D01*
X69901406Y-22022706D02*
X69889447Y-22047705D01*
X69901406Y-22022706D02*
X69894236Y-22053925D01*
X69901406Y-22022706D02*
X69925853Y-22027938D01*
X69913615Y-22079100D02*
X69889447Y-22047705D01*
X70900217Y-23397705D02*
X61000217Y-23397705D01*
X70950217Y-18447706D02*
X70950217Y-23347705D01*
X72282603Y-3244204D02*
X62582603Y-3244204D01*
X73782603Y-14444204D02*
X73782603Y-4744204D01*
X75339767Y-13040894D02*
X75339767Y-22392390D01*
X75339767Y-21603330D02*
X85499767Y-21603330D01*
X75417330Y-12963330D02*
X75339767Y-13040894D01*
X76599767Y-8333330D02*
X76599767Y-12963330D01*
X76989767Y-22683329D02*
X75339767Y-22392390D01*
X77439767Y-8333330D02*
X76599767Y-8333330D01*
X77439767Y-8333330D02*
X77439767Y-12963330D01*
X78299767Y-8333330D02*
X78299767Y-12963330D01*
X79139767Y-8333330D02*
X78299767Y-8333330D01*
X79139767Y-8333330D02*
X79139767Y-12963330D01*
X79999767Y-8333330D02*
X79999767Y-12963330D01*
X80518364Y-3721783D02*
X80968364Y-3721783D01*
X80518364Y-5471783D02*
X80518364Y-3721783D01*
X80839767Y-8333330D02*
X79999767Y-8333330D01*
X80839767Y-8333330D02*
X80839767Y-12963330D01*
X80967364Y-5235304D02*
X80967364Y-5329856D01*
X80968364Y-5471783D02*
X80518364Y-5471783D01*
X80968364Y-5746783D02*
X80968364Y-3446783D01*
X81068364Y-3346783D02*
X84668364Y-3346783D01*
X81699767Y-8333330D02*
X81699767Y-12963330D01*
X81838642Y-5746783D02*
X81838642Y-3446783D01*
X82539767Y-8333330D02*
X81699767Y-8333330D01*
X82539767Y-8333330D02*
X82539767Y-12963330D01*
X83399767Y-8333330D02*
X83399767Y-12963330D01*
X83849767Y-22683329D02*
X76989767Y-22683329D01*
X84239767Y-8333330D02*
X83399767Y-8333330D01*
X84239767Y-8333330D02*
X84239767Y-12963330D01*
X84668364Y-5846783D02*
X81068364Y-5846783D01*
X84768364Y-3446783D02*
X84768364Y-5746783D01*
X84768364Y-3721783D02*
X85218364Y-3721783D01*
X85218364Y-3721783D02*
X85218364Y-5471783D01*
X85218364Y-5471783D02*
X84768364Y-5471783D01*
X85422203Y-12963330D02*
X75417330Y-12963330D01*
X85499767Y-13040894D02*
X85422203Y-12963330D01*
X85499767Y-13040894D02*
X85499767Y-22392390D01*
X85499767Y-22392390D02*
X83849767Y-22683329D01*
X85500767Y-21025851D02*
X85500767Y-20864313D01*
X92670000Y-5830000D02*
X92670000Y-2670000D01*
X92670000Y-20760000D02*
X92670000Y-20450000D01*
X95800000Y-2670000D02*
X92670000Y-2670000D01*
X95800000Y-5830000D02*
X92670000Y-5830000D01*
X95800000Y-20455000D02*
X92670000Y-20450000D01*
X95800000Y-23610000D02*
X94500000Y-23610000D01*
X95805000Y-2415000D02*
X52055000Y-2415000D01*
X95805000Y-23865000D02*
X95805000Y-2415000D01*
X60950217Y-18447706D02*
G75*
G02*
X61000217Y-18397717I49983J6D01*
G01*
X61000217Y-23397705D02*
G75*
G02*
X60950195Y-23347705I-17J50005D01*
G01*
X61082603Y-4744204D02*
G75*
G02*
X62582603Y-3244203I1499997J4D01*
G01*
X62396337Y-6624417D02*
G75*
G02*
X62430445Y-6758602I-52937J-84883D01*
G01*
X62396338Y-6624418D02*
G75*
G02*
X64462818Y-4557938I793622J1272858D01*
G01*
X62430423Y-12429816D02*
G75*
G02*
X62396320Y-12563961I-87023J-49284D01*
G01*
X62430424Y-12429817D02*
G75*
G02*
X62430421Y-6758588I5002176J2835617D01*
G01*
X62582603Y-15944204D02*
G75*
G02*
X61082596Y-14444204I-3J1500004D01*
G01*
X64462817Y-14630469D02*
G75*
G02*
X62396333Y-12563982I-1272817J793669D01*
G01*
X64462817Y-14630469D02*
G75*
G02*
X64597002Y-14596359I84883J-52931D01*
G01*
X64596989Y-4592024D02*
G75*
G02*
X64462838Y-4557925I-49289J87024D01*
G01*
X64596989Y-4592024D02*
G75*
G02*
X70268217Y-4592024I2835614J-5002180D01*
G01*
X69925852Y-21567473D02*
G75*
G02*
X69913615Y-21516310I-1075652J-230227D01*
G01*
X70268216Y-14596383D02*
G75*
G02*
X64596989Y-14596383I-2835614J5002178D01*
G01*
X70268217Y-14596383D02*
G75*
G02*
X70402359Y-14630488I49283J-87017D01*
G01*
X70402389Y-4557938D02*
G75*
G02*
X70268201Y-4592053I-84889J52938D01*
G01*
X70402389Y-4557938D02*
G75*
G02*
X72468863Y-6624410I1272811J-793662D01*
G01*
X70900217Y-18397706D02*
G75*
G02*
X70950194Y-18447706I-17J-49994D01*
G01*
X70950217Y-23347705D02*
G75*
G02*
X70900217Y-23397717I-50017J5D01*
G01*
X72282603Y-3244204D02*
G75*
G02*
X73782596Y-4744204I-3J-1499996D01*
G01*
X72434782Y-6758590D02*
G75*
G02*
X72434779Y-12429815I-5002182J-2835610D01*
G01*
X72434783Y-6758591D02*
G75*
G02*
X72468882Y-6624440I87017J49291D01*
G01*
X72468868Y-12563989D02*
G75*
G02*
X70402389Y-14630469I-793628J-1272851D01*
G01*
X72468869Y-12563990D02*
G75*
G02*
X72434751Y-12429800I52931J84890D01*
G01*
X73782603Y-14444204D02*
G75*
G02*
X72282603Y-15944203I-1500003J4D01*
G01*
X80968364Y-3446783D02*
G75*
G02*
X81068364Y-3346764I100036J-17D01*
G01*
X81068364Y-5846783D02*
G75*
G02*
X80968417Y-5746783I36J99983D01*
G01*
X84668364Y-3346783D02*
G75*
G02*
X84768417Y-3446783I36J-100017D01*
G01*
X84768364Y-5746783D02*
G75*
G02*
X84668364Y-5846764I-99964J-17D01*
G01*
X60220693Y-12574794D02*
G75*
G02*
X52220693Y-12574794I-4000000J0D01*
G01*
X52220693Y-12574794D02*
G75*
G02*
X60220693Y-12574794I4000000J0D01*
G01*
X60289000Y-4885000D02*
G75*
G02*
X57091000Y-4885000I-1599000J0D01*
G01*
X57091000Y-4885000D02*
G75*
G02*
X60289000Y-4885000I1599000J0D01*
G01*
X72682603Y-9594204D02*
G75*
G02*
X62182603Y-9594204I-5250000J0D01*
G01*
X62182603Y-9594204D02*
G75*
G02*
X72682603Y-9594204I5250000J0D01*
G01*
X84951821Y-13875406D02*
G75*
G02*
X84201821Y-13875406I-375000J0D01*
G01*
X84201821Y-13875406D02*
G75*
G02*
X84951821Y-13875406I375000J0D01*
G01*
X90768999Y-21395000D02*
G75*
G02*
X87571001Y-21395000I-1598999J0D01*
G01*
X87571001Y-21395000D02*
G75*
G02*
X90768999Y-21395000I1598999J0D01*
G01*
X95603334Y-13072582D02*
G75*
G02*
X87603334Y-13072582I-4000000J0D01*
G01*
X87603334Y-13072582D02*
G75*
G02*
X95603334Y-13072582I4000000J0D01*
G01*
%TO.C,R3*%
X15760000Y-46680000D02*
X15760000Y-50520000D01*
X17600000Y-46680000D02*
X17600000Y-50520000D01*
%TO.C,C2*%
X55940000Y-31552300D02*
X52263000Y-31552300D01*
X55940000Y-31592300D02*
X52273000Y-31592300D01*
X55940000Y-31632300D02*
X52284000Y-31632300D01*
X55940000Y-31672300D02*
X52295000Y-31672300D01*
X55940000Y-31712300D02*
X52307000Y-31712300D01*
X55940000Y-31752300D02*
X52319000Y-31752300D01*
X55940000Y-31792300D02*
X52331000Y-31792300D01*
X55940000Y-31832300D02*
X52343000Y-31832300D01*
X55940000Y-31872300D02*
X52356000Y-31872300D01*
X55940000Y-31912300D02*
X52370000Y-31912300D01*
X55940000Y-31952300D02*
X52383000Y-31952300D01*
X55940000Y-31992300D02*
X52398000Y-31992300D01*
X55940000Y-32032300D02*
X52412000Y-32032300D01*
X55940000Y-32072300D02*
X52427000Y-32072300D01*
X55940000Y-32112300D02*
X52442000Y-32112300D01*
X55940000Y-32152300D02*
X52458000Y-32152300D01*
X55940000Y-32192300D02*
X52474000Y-32192300D01*
X55940000Y-32232300D02*
X52490000Y-32232300D01*
X55940000Y-32272300D02*
X52507000Y-32272300D01*
X55940000Y-32312300D02*
X52524000Y-32312300D01*
X55940000Y-32352300D02*
X52542000Y-32352300D01*
X55940000Y-32392300D02*
X52560000Y-32392300D01*
X55940000Y-32432300D02*
X52578000Y-32432300D01*
X55940000Y-32472300D02*
X52597000Y-32472300D01*
X55940000Y-32512300D02*
X52616000Y-32512300D01*
X55940000Y-32552300D02*
X52636000Y-32552300D01*
X55940000Y-32592300D02*
X52656000Y-32592300D01*
X55940000Y-32632300D02*
X52676000Y-32632300D01*
X55940000Y-32672300D02*
X52697000Y-32672300D01*
X55940000Y-32712300D02*
X52719000Y-32712300D01*
X55940000Y-32752300D02*
X52741000Y-32752300D01*
X55940000Y-32792300D02*
X52763000Y-32792300D01*
X55940000Y-32832300D02*
X52786000Y-32832300D01*
X55940000Y-32872300D02*
X52809000Y-32872300D01*
X55940000Y-32912300D02*
X52833000Y-32912300D01*
X55940000Y-32952300D02*
X52857000Y-32952300D01*
X55940000Y-32992300D02*
X52882000Y-32992300D01*
X55940000Y-33032300D02*
X52908000Y-33032300D01*
X55940000Y-33072300D02*
X52933000Y-33072300D01*
X55940000Y-33112300D02*
X52960000Y-33112300D01*
X55940000Y-33152300D02*
X52987000Y-33152300D01*
X55940000Y-33192300D02*
X53014000Y-33192300D01*
X55940000Y-33232300D02*
X53042000Y-33232300D01*
X55940000Y-33272300D02*
X53071000Y-33272300D01*
X55940000Y-33312300D02*
X53100000Y-33312300D01*
X55940000Y-33352300D02*
X53130000Y-33352300D01*
X55940000Y-33392300D02*
X53160000Y-33392300D01*
X55940000Y-33432300D02*
X53192000Y-33432300D01*
X55940000Y-33472300D02*
X53223000Y-33472300D01*
X55940000Y-33512300D02*
X53256000Y-33512300D01*
X55940000Y-33552300D02*
X53289000Y-33552300D01*
X55940000Y-33592300D02*
X53322000Y-33592300D01*
X55940000Y-33632300D02*
X53357000Y-33632300D01*
X55940000Y-33672300D02*
X53392000Y-33672300D01*
X55940000Y-33712300D02*
X53428000Y-33712300D01*
X55940000Y-33752300D02*
X53464000Y-33752300D01*
X55940000Y-33792300D02*
X53502000Y-33792300D01*
X55940000Y-33832300D02*
X53540000Y-33832300D01*
X55940000Y-33872300D02*
X53579000Y-33872300D01*
X55940000Y-33912300D02*
X53619000Y-33912300D01*
X55940000Y-33952300D02*
X53660000Y-33952300D01*
X55940000Y-33992300D02*
X53702000Y-33992300D01*
X57779000Y-35352300D02*
X56581000Y-35352300D01*
X58042000Y-35312300D02*
X56318000Y-35312300D01*
X58242000Y-35272300D02*
X56118000Y-35272300D01*
X58410000Y-35232300D02*
X55950000Y-35232300D01*
X58557000Y-35192300D02*
X55803000Y-35192300D01*
X58689000Y-35152300D02*
X55671000Y-35152300D01*
X58810000Y-35112300D02*
X55550000Y-35112300D01*
X58922000Y-35072300D02*
X55438000Y-35072300D01*
X59026000Y-35032300D02*
X55334000Y-35032300D01*
X59124000Y-34992300D02*
X55236000Y-34992300D01*
X59217000Y-34952300D02*
X55143000Y-34952300D01*
X59304000Y-34912300D02*
X55056000Y-34912300D01*
X59388000Y-34872300D02*
X54972000Y-34872300D01*
X59468000Y-34832300D02*
X54892000Y-34832300D01*
X59545000Y-34792300D02*
X54815000Y-34792300D01*
X59619000Y-34752300D02*
X54741000Y-34752300D01*
X59690000Y-34712300D02*
X54670000Y-34712300D01*
X59758000Y-34672300D02*
X54602000Y-34672300D01*
X59824000Y-34632300D02*
X54536000Y-34632300D01*
X59888000Y-34592300D02*
X54472000Y-34592300D01*
X59950000Y-34552300D02*
X54410000Y-34552300D01*
X60010000Y-34512300D02*
X54350000Y-34512300D01*
X60055000Y-24792654D02*
X60055000Y-25792654D01*
X60068000Y-34472300D02*
X54292000Y-34472300D01*
X60125000Y-34432300D02*
X54235000Y-34432300D01*
X60180000Y-34392300D02*
X54180000Y-34392300D01*
X60233000Y-34352300D02*
X54127000Y-34352300D01*
X60285000Y-34312300D02*
X54075000Y-34312300D01*
X60336000Y-34272300D02*
X54024000Y-34272300D01*
X60385000Y-34232300D02*
X53975000Y-34232300D01*
X60434000Y-34192300D02*
X53926000Y-34192300D01*
X60481000Y-34152300D02*
X53879000Y-34152300D01*
X60527000Y-34112300D02*
X53833000Y-34112300D01*
X60555000Y-25292654D02*
X59555000Y-25292654D01*
X60571000Y-34072300D02*
X53789000Y-34072300D01*
X60615000Y-34032300D02*
X53745000Y-34032300D01*
X60658000Y-33992300D02*
X58420000Y-33992300D01*
X60700000Y-33952300D02*
X58420000Y-33952300D01*
X60741000Y-33912300D02*
X58420000Y-33912300D01*
X60781000Y-33872300D02*
X58420000Y-33872300D01*
X60820000Y-33832300D02*
X58420000Y-33832300D01*
X60858000Y-33792300D02*
X58420000Y-33792300D01*
X60896000Y-33752300D02*
X58420000Y-33752300D01*
X60932000Y-33712300D02*
X58420000Y-33712300D01*
X60968000Y-33672300D02*
X58420000Y-33672300D01*
X61003000Y-33632300D02*
X58420000Y-33632300D01*
X61038000Y-33592300D02*
X58420000Y-33592300D01*
X61071000Y-33552300D02*
X58420000Y-33552300D01*
X61104000Y-33512300D02*
X58420000Y-33512300D01*
X61137000Y-33472300D02*
X58420000Y-33472300D01*
X61168000Y-33432300D02*
X58420000Y-33432300D01*
X61200000Y-33392300D02*
X58420000Y-33392300D01*
X61230000Y-33352300D02*
X58420000Y-33352300D01*
X61260000Y-33312300D02*
X58420000Y-33312300D01*
X61289000Y-33272300D02*
X58420000Y-33272300D01*
X61318000Y-33232300D02*
X58420000Y-33232300D01*
X61346000Y-33192300D02*
X58420000Y-33192300D01*
X61373000Y-33152300D02*
X58420000Y-33152300D01*
X61400000Y-33112300D02*
X58420000Y-33112300D01*
X61427000Y-33072300D02*
X58420000Y-33072300D01*
X61452000Y-33032300D02*
X58420000Y-33032300D01*
X61478000Y-32992300D02*
X58420000Y-32992300D01*
X61503000Y-32952300D02*
X58420000Y-32952300D01*
X61527000Y-32912300D02*
X58420000Y-32912300D01*
X61551000Y-32872300D02*
X58420000Y-32872300D01*
X61574000Y-32832300D02*
X58420000Y-32832300D01*
X61597000Y-32792300D02*
X58420000Y-32792300D01*
X61619000Y-32752300D02*
X58420000Y-32752300D01*
X61641000Y-32712300D02*
X58420000Y-32712300D01*
X61663000Y-32672300D02*
X58420000Y-32672300D01*
X61684000Y-32632300D02*
X58420000Y-32632300D01*
X61704000Y-32592300D02*
X58420000Y-32592300D01*
X61724000Y-32552300D02*
X58420000Y-32552300D01*
X61744000Y-32512300D02*
X58420000Y-32512300D01*
X61763000Y-32472300D02*
X58420000Y-32472300D01*
X61782000Y-32432300D02*
X58420000Y-32432300D01*
X61800000Y-32392300D02*
X58420000Y-32392300D01*
X61818000Y-32352300D02*
X58420000Y-32352300D01*
X61836000Y-32312300D02*
X58420000Y-32312300D01*
X61853000Y-32272300D02*
X58420000Y-32272300D01*
X61870000Y-32232300D02*
X58420000Y-32232300D01*
X61886000Y-32192300D02*
X58420000Y-32192300D01*
X61902000Y-32152300D02*
X58420000Y-32152300D01*
X61918000Y-32112300D02*
X58420000Y-32112300D01*
X61933000Y-32072300D02*
X58420000Y-32072300D01*
X61948000Y-32032300D02*
X58420000Y-32032300D01*
X61962000Y-31992300D02*
X58420000Y-31992300D01*
X61977000Y-31952300D02*
X58420000Y-31952300D01*
X61990000Y-31912300D02*
X58420000Y-31912300D01*
X62004000Y-31872300D02*
X58420000Y-31872300D01*
X62017000Y-31832300D02*
X58420000Y-31832300D01*
X62029000Y-31792300D02*
X58420000Y-31792300D01*
X62041000Y-31752300D02*
X58420000Y-31752300D01*
X62053000Y-31712300D02*
X58420000Y-31712300D01*
X62065000Y-31672300D02*
X58420000Y-31672300D01*
X62076000Y-31632300D02*
X58420000Y-31632300D01*
X62087000Y-31592300D02*
X58420000Y-31592300D01*
X62097000Y-31552300D02*
X58420000Y-31552300D01*
X62108000Y-31512300D02*
X52252000Y-31512300D01*
X62117000Y-31472300D02*
X52243000Y-31472300D01*
X62127000Y-31432300D02*
X52233000Y-31432300D01*
X62136000Y-31392300D02*
X52224000Y-31392300D01*
X62145000Y-31352300D02*
X52215000Y-31352300D01*
X62153000Y-31312300D02*
X52207000Y-31312300D01*
X62161000Y-31272300D02*
X52199000Y-31272300D01*
X62169000Y-31232300D02*
X52191000Y-31232300D01*
X62177000Y-31192300D02*
X52183000Y-31192300D01*
X62184000Y-31152300D02*
X52176000Y-31152300D01*
X62191000Y-31112300D02*
X52169000Y-31112300D01*
X62197000Y-31072300D02*
X52163000Y-31072300D01*
X62203000Y-31032300D02*
X52157000Y-31032300D01*
X62209000Y-30992300D02*
X52151000Y-30992300D01*
X62215000Y-30952300D02*
X52145000Y-30952300D01*
X62220000Y-30912300D02*
X52140000Y-30912300D01*
X62225000Y-30872300D02*
X52135000Y-30872300D01*
X62229000Y-30832300D02*
X52131000Y-30832300D01*
X62234000Y-30792300D02*
X52126000Y-30792300D01*
X62237000Y-30752300D02*
X52123000Y-30752300D01*
X62241000Y-30712300D02*
X52119000Y-30712300D01*
X62244000Y-30672300D02*
X52116000Y-30672300D01*
X62247000Y-30632300D02*
X52113000Y-30632300D01*
X62250000Y-30592300D02*
X52110000Y-30592300D01*
X62252000Y-30552300D02*
X52108000Y-30552300D01*
X62254000Y-30512300D02*
X52106000Y-30512300D01*
X62256000Y-30472300D02*
X52104000Y-30472300D01*
X62257000Y-30432300D02*
X52103000Y-30432300D01*
X62259000Y-30352300D02*
X52101000Y-30352300D01*
X62259000Y-30392300D02*
X52101000Y-30392300D01*
X62260000Y-30272300D02*
X52100000Y-30272300D01*
X62260000Y-30312300D02*
X52100000Y-30312300D01*
X62300000Y-30272300D02*
G75*
G02*
X52060000Y-30272300I-5120000J0D01*
G01*
X52060000Y-30272300D02*
G75*
G02*
X62300000Y-30272300I5120000J0D01*
G01*
%TO.C,RGB1*%
X36838400Y-61425500D02*
X37838400Y-61425500D01*
X37338400Y-62235500D02*
X36838400Y-62235500D01*
X37338400Y-63445500D02*
X37338400Y-62235500D01*
X37838400Y-61425500D02*
X37838400Y-59925500D01*
X48558400Y-61425500D02*
X48558400Y-59925500D01*
X49058400Y-62235500D02*
X49058400Y-63445500D01*
X49058400Y-63445500D02*
X37338400Y-63445500D01*
X49558400Y-61425500D02*
X48558400Y-61425500D01*
X49558400Y-62235500D02*
X49058400Y-62235500D01*
X49858400Y-59625500D02*
X47358400Y-59625500D01*
X49858400Y-62125500D02*
X49858400Y-59625500D01*
X36838400Y-59925500D02*
X49558400Y-59925500D01*
X49558400Y-63945500D01*
X36838400Y-63945500D01*
X36838400Y-59925500D01*
%TO.C,D1*%
X58900000Y-39390000D02*
X59810000Y-39390000D01*
X67885000Y-42110000D02*
X67885000Y-36670000D01*
X68005000Y-42110000D02*
X68005000Y-36670000D01*
X68125000Y-42110000D02*
X68125000Y-36670000D01*
X70460000Y-39390000D02*
X69550000Y-39390000D01*
X59810000Y-36670000D02*
X69550000Y-36670000D01*
X69550000Y-42110000D01*
X59810000Y-42110000D01*
X59810000Y-36670000D01*
%TO.C,SER_1*%
X36838400Y-55025500D02*
X37838400Y-55025500D01*
X37338400Y-55835500D02*
X36838400Y-55835500D01*
X37338400Y-57045500D02*
X37338400Y-55835500D01*
X37838400Y-55025500D02*
X37838400Y-53525500D01*
X48558400Y-55025500D02*
X48558400Y-53525500D01*
X49058400Y-55835500D02*
X49058400Y-57045500D01*
X49058400Y-57045500D02*
X37338400Y-57045500D01*
X49558400Y-55025500D02*
X48558400Y-55025500D01*
X49558400Y-55835500D02*
X49058400Y-55835500D01*
X49858400Y-53225500D02*
X47358400Y-53225500D01*
X49858400Y-55725500D02*
X49858400Y-53225500D01*
X36838400Y-53525500D02*
X49558400Y-53525500D01*
X49558400Y-57545500D01*
X36838400Y-57545500D01*
X36838400Y-53525500D01*
%TO.C,R2*%
X13510000Y-46680000D02*
X13510000Y-50520000D01*
X15350000Y-46680000D02*
X15350000Y-50520000D01*
%TO.C,J2*%
X75770000Y-39250000D02*
X75770000Y-41750000D01*
X75770000Y-41750000D02*
X78270000Y-41750000D01*
X76070000Y-39140000D02*
X76570000Y-39140000D01*
X76070000Y-39950000D02*
X77070000Y-39950000D01*
X76570000Y-37930000D02*
X83290000Y-37930000D01*
X76570000Y-39140000D02*
X76570000Y-37930000D01*
X77070000Y-39950000D02*
X77070000Y-41450000D01*
X82790000Y-39950000D02*
X82790000Y-41450000D01*
X83290000Y-37930000D02*
X83290000Y-39140000D01*
X83290000Y-39140000D02*
X83790000Y-39140000D01*
X83790000Y-39950000D02*
X82790000Y-39950000D01*
X76070000Y-37430000D02*
X83790000Y-37430000D01*
X83790000Y-41450000D01*
X76070000Y-41450000D01*
X76070000Y-37430000D01*
%TO.C,STEP_2*%
X22790000Y-48890000D02*
X23790000Y-48890000D01*
X23290000Y-49700000D02*
X22790000Y-49700000D01*
X23290000Y-50910000D02*
X23290000Y-49700000D01*
X23790000Y-48890000D02*
X23790000Y-47390000D01*
X34510000Y-48890000D02*
X34510000Y-47390000D01*
X35010000Y-49700000D02*
X35010000Y-50910000D01*
X35010000Y-50910000D02*
X23290000Y-50910000D01*
X35510000Y-48890000D02*
X34510000Y-48890000D01*
X35510000Y-49700000D02*
X35010000Y-49700000D01*
X35810000Y-47090000D02*
X33310000Y-47090000D01*
X35810000Y-49590000D02*
X35810000Y-47090000D01*
X22790000Y-47390000D02*
X35510000Y-47390000D01*
X35510000Y-51410000D01*
X22790000Y-51410000D01*
X22790000Y-47390000D01*
%TO.C,R1*%
X11260000Y-46720000D02*
X11260000Y-50560000D01*
X13100000Y-46720000D02*
X13100000Y-50560000D01*
%TO.C,J1*%
X88280000Y-28390000D02*
X88280000Y-41240000D01*
X88280000Y-41240000D02*
X96580000Y-41240000D01*
X90880000Y-25540000D02*
X88280000Y-28390000D01*
X94030000Y-25540000D02*
X90880000Y-25540000D01*
X96580000Y-28390000D02*
X94030000Y-25540000D01*
X96580000Y-41240000D02*
X96580000Y-28390000D01*
%TO.C,C1*%
X67190000Y-31552300D02*
X63513000Y-31552300D01*
X67190000Y-31592300D02*
X63523000Y-31592300D01*
X67190000Y-31632300D02*
X63534000Y-31632300D01*
X67190000Y-31672300D02*
X63545000Y-31672300D01*
X67190000Y-31712300D02*
X63557000Y-31712300D01*
X67190000Y-31752300D02*
X63569000Y-31752300D01*
X67190000Y-31792300D02*
X63581000Y-31792300D01*
X67190000Y-31832300D02*
X63593000Y-31832300D01*
X67190000Y-31872300D02*
X63606000Y-31872300D01*
X67190000Y-31912300D02*
X63620000Y-31912300D01*
X67190000Y-31952300D02*
X63633000Y-31952300D01*
X67190000Y-31992300D02*
X63648000Y-31992300D01*
X67190000Y-32032300D02*
X63662000Y-32032300D01*
X67190000Y-32072300D02*
X63677000Y-32072300D01*
X67190000Y-32112300D02*
X63692000Y-32112300D01*
X67190000Y-32152300D02*
X63708000Y-32152300D01*
X67190000Y-32192300D02*
X63724000Y-32192300D01*
X67190000Y-32232300D02*
X63740000Y-32232300D01*
X67190000Y-32272300D02*
X63757000Y-32272300D01*
X67190000Y-32312300D02*
X63774000Y-32312300D01*
X67190000Y-32352300D02*
X63792000Y-32352300D01*
X67190000Y-32392300D02*
X63810000Y-32392300D01*
X67190000Y-32432300D02*
X63828000Y-32432300D01*
X67190000Y-32472300D02*
X63847000Y-32472300D01*
X67190000Y-32512300D02*
X63866000Y-32512300D01*
X67190000Y-32552300D02*
X63886000Y-32552300D01*
X67190000Y-32592300D02*
X63906000Y-32592300D01*
X67190000Y-32632300D02*
X63926000Y-32632300D01*
X67190000Y-32672300D02*
X63947000Y-32672300D01*
X67190000Y-32712300D02*
X63969000Y-32712300D01*
X67190000Y-32752300D02*
X63991000Y-32752300D01*
X67190000Y-32792300D02*
X64013000Y-32792300D01*
X67190000Y-32832300D02*
X64036000Y-32832300D01*
X67190000Y-32872300D02*
X64059000Y-32872300D01*
X67190000Y-32912300D02*
X64083000Y-32912300D01*
X67190000Y-32952300D02*
X64107000Y-32952300D01*
X67190000Y-32992300D02*
X64132000Y-32992300D01*
X67190000Y-33032300D02*
X64158000Y-33032300D01*
X67190000Y-33072300D02*
X64183000Y-33072300D01*
X67190000Y-33112300D02*
X64210000Y-33112300D01*
X67190000Y-33152300D02*
X64237000Y-33152300D01*
X67190000Y-33192300D02*
X64264000Y-33192300D01*
X67190000Y-33232300D02*
X64292000Y-33232300D01*
X67190000Y-33272300D02*
X64321000Y-33272300D01*
X67190000Y-33312300D02*
X64350000Y-33312300D01*
X67190000Y-33352300D02*
X64380000Y-33352300D01*
X67190000Y-33392300D02*
X64410000Y-33392300D01*
X67190000Y-33432300D02*
X64442000Y-33432300D01*
X67190000Y-33472300D02*
X64473000Y-33472300D01*
X67190000Y-33512300D02*
X64506000Y-33512300D01*
X67190000Y-33552300D02*
X64539000Y-33552300D01*
X67190000Y-33592300D02*
X64572000Y-33592300D01*
X67190000Y-33632300D02*
X64607000Y-33632300D01*
X67190000Y-33672300D02*
X64642000Y-33672300D01*
X67190000Y-33712300D02*
X64678000Y-33712300D01*
X67190000Y-33752300D02*
X64714000Y-33752300D01*
X67190000Y-33792300D02*
X64752000Y-33792300D01*
X67190000Y-33832300D02*
X64790000Y-33832300D01*
X67190000Y-33872300D02*
X64829000Y-33872300D01*
X67190000Y-33912300D02*
X64869000Y-33912300D01*
X67190000Y-33952300D02*
X64910000Y-33952300D01*
X67190000Y-33992300D02*
X64952000Y-33992300D01*
X69029000Y-35352300D02*
X67831000Y-35352300D01*
X69292000Y-35312300D02*
X67568000Y-35312300D01*
X69492000Y-35272300D02*
X67368000Y-35272300D01*
X69660000Y-35232300D02*
X67200000Y-35232300D01*
X69807000Y-35192300D02*
X67053000Y-35192300D01*
X69939000Y-35152300D02*
X66921000Y-35152300D01*
X70060000Y-35112300D02*
X66800000Y-35112300D01*
X70172000Y-35072300D02*
X66688000Y-35072300D01*
X70276000Y-35032300D02*
X66584000Y-35032300D01*
X70374000Y-34992300D02*
X66486000Y-34992300D01*
X70467000Y-34952300D02*
X66393000Y-34952300D01*
X70554000Y-34912300D02*
X66306000Y-34912300D01*
X70638000Y-34872300D02*
X66222000Y-34872300D01*
X70718000Y-34832300D02*
X66142000Y-34832300D01*
X70795000Y-34792300D02*
X66065000Y-34792300D01*
X70869000Y-34752300D02*
X65991000Y-34752300D01*
X70940000Y-34712300D02*
X65920000Y-34712300D01*
X71008000Y-34672300D02*
X65852000Y-34672300D01*
X71074000Y-34632300D02*
X65786000Y-34632300D01*
X71138000Y-34592300D02*
X65722000Y-34592300D01*
X71200000Y-34552300D02*
X65660000Y-34552300D01*
X71260000Y-34512300D02*
X65600000Y-34512300D01*
X71305000Y-24792654D02*
X71305000Y-25792654D01*
X71318000Y-34472300D02*
X65542000Y-34472300D01*
X71375000Y-34432300D02*
X65485000Y-34432300D01*
X71430000Y-34392300D02*
X65430000Y-34392300D01*
X71483000Y-34352300D02*
X65377000Y-34352300D01*
X71535000Y-34312300D02*
X65325000Y-34312300D01*
X71586000Y-34272300D02*
X65274000Y-34272300D01*
X71635000Y-34232300D02*
X65225000Y-34232300D01*
X71684000Y-34192300D02*
X65176000Y-34192300D01*
X71731000Y-34152300D02*
X65129000Y-34152300D01*
X71777000Y-34112300D02*
X65083000Y-34112300D01*
X71805000Y-25292654D02*
X70805000Y-25292654D01*
X71821000Y-34072300D02*
X65039000Y-34072300D01*
X71865000Y-34032300D02*
X64995000Y-34032300D01*
X71908000Y-33992300D02*
X69670000Y-33992300D01*
X71950000Y-33952300D02*
X69670000Y-33952300D01*
X71991000Y-33912300D02*
X69670000Y-33912300D01*
X72031000Y-33872300D02*
X69670000Y-33872300D01*
X72070000Y-33832300D02*
X69670000Y-33832300D01*
X72108000Y-33792300D02*
X69670000Y-33792300D01*
X72146000Y-33752300D02*
X69670000Y-33752300D01*
X72182000Y-33712300D02*
X69670000Y-33712300D01*
X72218000Y-33672300D02*
X69670000Y-33672300D01*
X72253000Y-33632300D02*
X69670000Y-33632300D01*
X72288000Y-33592300D02*
X69670000Y-33592300D01*
X72321000Y-33552300D02*
X69670000Y-33552300D01*
X72354000Y-33512300D02*
X69670000Y-33512300D01*
X72387000Y-33472300D02*
X69670000Y-33472300D01*
X72418000Y-33432300D02*
X69670000Y-33432300D01*
X72450000Y-33392300D02*
X69670000Y-33392300D01*
X72480000Y-33352300D02*
X69670000Y-33352300D01*
X72510000Y-33312300D02*
X69670000Y-33312300D01*
X72539000Y-33272300D02*
X69670000Y-33272300D01*
X72568000Y-33232300D02*
X69670000Y-33232300D01*
X72596000Y-33192300D02*
X69670000Y-33192300D01*
X72623000Y-33152300D02*
X69670000Y-33152300D01*
X72650000Y-33112300D02*
X69670000Y-33112300D01*
X72677000Y-33072300D02*
X69670000Y-33072300D01*
X72702000Y-33032300D02*
X69670000Y-33032300D01*
X72728000Y-32992300D02*
X69670000Y-32992300D01*
X72753000Y-32952300D02*
X69670000Y-32952300D01*
X72777000Y-32912300D02*
X69670000Y-32912300D01*
X72801000Y-32872300D02*
X69670000Y-32872300D01*
X72824000Y-32832300D02*
X69670000Y-32832300D01*
X72847000Y-32792300D02*
X69670000Y-32792300D01*
X72869000Y-32752300D02*
X69670000Y-32752300D01*
X72891000Y-32712300D02*
X69670000Y-32712300D01*
X72913000Y-32672300D02*
X69670000Y-32672300D01*
X72934000Y-32632300D02*
X69670000Y-32632300D01*
X72954000Y-32592300D02*
X69670000Y-32592300D01*
X72974000Y-32552300D02*
X69670000Y-32552300D01*
X72994000Y-32512300D02*
X69670000Y-32512300D01*
X73013000Y-32472300D02*
X69670000Y-32472300D01*
X73032000Y-32432300D02*
X69670000Y-32432300D01*
X73050000Y-32392300D02*
X69670000Y-32392300D01*
X73068000Y-32352300D02*
X69670000Y-32352300D01*
X73086000Y-32312300D02*
X69670000Y-32312300D01*
X73103000Y-32272300D02*
X69670000Y-32272300D01*
X73120000Y-32232300D02*
X69670000Y-32232300D01*
X73136000Y-32192300D02*
X69670000Y-32192300D01*
X73152000Y-32152300D02*
X69670000Y-32152300D01*
X73168000Y-32112300D02*
X69670000Y-32112300D01*
X73183000Y-32072300D02*
X69670000Y-32072300D01*
X73198000Y-32032300D02*
X69670000Y-32032300D01*
X73212000Y-31992300D02*
X69670000Y-31992300D01*
X73227000Y-31952300D02*
X69670000Y-31952300D01*
X73240000Y-31912300D02*
X69670000Y-31912300D01*
X73254000Y-31872300D02*
X69670000Y-31872300D01*
X73267000Y-31832300D02*
X69670000Y-31832300D01*
X73279000Y-31792300D02*
X69670000Y-31792300D01*
X73291000Y-31752300D02*
X69670000Y-31752300D01*
X73303000Y-31712300D02*
X69670000Y-31712300D01*
X73315000Y-31672300D02*
X69670000Y-31672300D01*
X73326000Y-31632300D02*
X69670000Y-31632300D01*
X73337000Y-31592300D02*
X69670000Y-31592300D01*
X73347000Y-31552300D02*
X69670000Y-31552300D01*
X73358000Y-31512300D02*
X63502000Y-31512300D01*
X73367000Y-31472300D02*
X63493000Y-31472300D01*
X73377000Y-31432300D02*
X63483000Y-31432300D01*
X73386000Y-31392300D02*
X63474000Y-31392300D01*
X73395000Y-31352300D02*
X63465000Y-31352300D01*
X73403000Y-31312300D02*
X63457000Y-31312300D01*
X73411000Y-31272300D02*
X63449000Y-31272300D01*
X73419000Y-31232300D02*
X63441000Y-31232300D01*
X73427000Y-31192300D02*
X63433000Y-31192300D01*
X73434000Y-31152300D02*
X63426000Y-31152300D01*
X73441000Y-31112300D02*
X63419000Y-31112300D01*
X73447000Y-31072300D02*
X63413000Y-31072300D01*
X73453000Y-31032300D02*
X63407000Y-31032300D01*
X73459000Y-30992300D02*
X63401000Y-30992300D01*
X73465000Y-30952300D02*
X63395000Y-30952300D01*
X73470000Y-30912300D02*
X63390000Y-30912300D01*
X73475000Y-30872300D02*
X63385000Y-30872300D01*
X73479000Y-30832300D02*
X63381000Y-30832300D01*
X73484000Y-30792300D02*
X63376000Y-30792300D01*
X73487000Y-30752300D02*
X63373000Y-30752300D01*
X73491000Y-30712300D02*
X63369000Y-30712300D01*
X73494000Y-30672300D02*
X63366000Y-30672300D01*
X73497000Y-30632300D02*
X63363000Y-30632300D01*
X73500000Y-30592300D02*
X63360000Y-30592300D01*
X73502000Y-30552300D02*
X63358000Y-30552300D01*
X73504000Y-30512300D02*
X63356000Y-30512300D01*
X73506000Y-30472300D02*
X63354000Y-30472300D01*
X73507000Y-30432300D02*
X63353000Y-30432300D01*
X73509000Y-30352300D02*
X63351000Y-30352300D01*
X73509000Y-30392300D02*
X63351000Y-30392300D01*
X73510000Y-30272300D02*
X63350000Y-30272300D01*
X73510000Y-30312300D02*
X63350000Y-30312300D01*
X73550000Y-30272300D02*
G75*
G02*
X63310000Y-30272300I-5120000J0D01*
G01*
X63310000Y-30272300D02*
G75*
G02*
X73550000Y-30272300I5120000J0D01*
G01*
%TO.C,A2*%
X34780000Y-24100000D02*
X34780000Y-44680000D01*
X34780000Y-44680000D02*
X47610000Y-44680000D01*
X37450000Y-44680000D02*
X37450000Y-24100000D01*
X47610000Y-42010000D02*
X47610000Y-24100000D01*
X47610000Y-42010000D02*
X50280000Y-42010000D01*
X47610000Y-44680000D02*
X47610000Y-42010000D01*
X48880000Y-44680000D02*
X50280000Y-44680000D01*
X50280000Y-24100000D02*
X34780000Y-24100000D01*
X50280000Y-42010000D02*
X50280000Y-24100000D01*
X50280000Y-44680000D02*
X50280000Y-43280000D01*
%TO.C,SER_2*%
X22790000Y-55090000D02*
X23790000Y-55090000D01*
X23290000Y-55900000D02*
X22790000Y-55900000D01*
X23290000Y-57110000D02*
X23290000Y-55900000D01*
X23790000Y-55090000D02*
X23790000Y-53590000D01*
X34510000Y-55090000D02*
X34510000Y-53590000D01*
X35010000Y-55900000D02*
X35010000Y-57110000D01*
X35010000Y-57110000D02*
X23290000Y-57110000D01*
X35510000Y-55090000D02*
X34510000Y-55090000D01*
X35510000Y-55900000D02*
X35010000Y-55900000D01*
X35810000Y-53290000D02*
X33310000Y-53290000D01*
X35810000Y-55790000D02*
X35810000Y-53290000D01*
X22790000Y-53590000D02*
X35510000Y-53590000D01*
X35510000Y-57610000D01*
X22790000Y-57610000D01*
X22790000Y-53590000D01*
%TO.C,A1*%
X34780000Y-2160000D02*
X34780000Y-22740000D01*
X34780000Y-22740000D02*
X47610000Y-22740000D01*
X37450000Y-22740000D02*
X37450000Y-2160000D01*
X47610000Y-20070000D02*
X47610000Y-2160000D01*
X47610000Y-20070000D02*
X50280000Y-20070000D01*
X47610000Y-22740000D02*
X47610000Y-20070000D01*
X48880000Y-22740000D02*
X50280000Y-22740000D01*
X50280000Y-2160000D02*
X34780000Y-2160000D01*
X50280000Y-20070000D02*
X50280000Y-2160000D01*
X50280000Y-22740000D02*
X50280000Y-21340000D01*
%TO.C,C3*%
X78440000Y-31670000D02*
X74763000Y-31670000D01*
X78440000Y-31710000D02*
X74773000Y-31710000D01*
X78440000Y-31750000D02*
X74784000Y-31750000D01*
X78440000Y-31790000D02*
X74795000Y-31790000D01*
X78440000Y-31830000D02*
X74807000Y-31830000D01*
X78440000Y-31870000D02*
X74819000Y-31870000D01*
X78440000Y-31910000D02*
X74831000Y-31910000D01*
X78440000Y-31950000D02*
X74843000Y-31950000D01*
X78440000Y-31990000D02*
X74856000Y-31990000D01*
X78440000Y-32030000D02*
X74870000Y-32030000D01*
X78440000Y-32070000D02*
X74883000Y-32070000D01*
X78440000Y-32110000D02*
X74898000Y-32110000D01*
X78440000Y-32150000D02*
X74912000Y-32150000D01*
X78440000Y-32190000D02*
X74927000Y-32190000D01*
X78440000Y-32230000D02*
X74942000Y-32230000D01*
X78440000Y-32270000D02*
X74958000Y-32270000D01*
X78440000Y-32310000D02*
X74974000Y-32310000D01*
X78440000Y-32350000D02*
X74990000Y-32350000D01*
X78440000Y-32390000D02*
X75007000Y-32390000D01*
X78440000Y-32430000D02*
X75024000Y-32430000D01*
X78440000Y-32470000D02*
X75042000Y-32470000D01*
X78440000Y-32510000D02*
X75060000Y-32510000D01*
X78440000Y-32550000D02*
X75078000Y-32550000D01*
X78440000Y-32590000D02*
X75097000Y-32590000D01*
X78440000Y-32630000D02*
X75116000Y-32630000D01*
X78440000Y-32670000D02*
X75136000Y-32670000D01*
X78440000Y-32710000D02*
X75156000Y-32710000D01*
X78440000Y-32750000D02*
X75176000Y-32750000D01*
X78440000Y-32790000D02*
X75197000Y-32790000D01*
X78440000Y-32830000D02*
X75219000Y-32830000D01*
X78440000Y-32870000D02*
X75241000Y-32870000D01*
X78440000Y-32910000D02*
X75263000Y-32910000D01*
X78440000Y-32950000D02*
X75286000Y-32950000D01*
X78440000Y-32990000D02*
X75309000Y-32990000D01*
X78440000Y-33030000D02*
X75333000Y-33030000D01*
X78440000Y-33070000D02*
X75357000Y-33070000D01*
X78440000Y-33110000D02*
X75382000Y-33110000D01*
X78440000Y-33150000D02*
X75408000Y-33150000D01*
X78440000Y-33190000D02*
X75433000Y-33190000D01*
X78440000Y-33230000D02*
X75460000Y-33230000D01*
X78440000Y-33270000D02*
X75487000Y-33270000D01*
X78440000Y-33310000D02*
X75514000Y-33310000D01*
X78440000Y-33350000D02*
X75542000Y-33350000D01*
X78440000Y-33390000D02*
X75571000Y-33390000D01*
X78440000Y-33430000D02*
X75600000Y-33430000D01*
X78440000Y-33470000D02*
X75630000Y-33470000D01*
X78440000Y-33510000D02*
X75660000Y-33510000D01*
X78440000Y-33550000D02*
X75692000Y-33550000D01*
X78440000Y-33590000D02*
X75723000Y-33590000D01*
X78440000Y-33630000D02*
X75756000Y-33630000D01*
X78440000Y-33670000D02*
X75789000Y-33670000D01*
X78440000Y-33710000D02*
X75822000Y-33710000D01*
X78440000Y-33750000D02*
X75857000Y-33750000D01*
X78440000Y-33790000D02*
X75892000Y-33790000D01*
X78440000Y-33830000D02*
X75928000Y-33830000D01*
X78440000Y-33870000D02*
X75964000Y-33870000D01*
X78440000Y-33910000D02*
X76002000Y-33910000D01*
X78440000Y-33950000D02*
X76040000Y-33950000D01*
X78440000Y-33990000D02*
X76079000Y-33990000D01*
X78440000Y-34030000D02*
X76119000Y-34030000D01*
X78440000Y-34070000D02*
X76160000Y-34070000D01*
X78440000Y-34110000D02*
X76202000Y-34110000D01*
X80279000Y-35470000D02*
X79081000Y-35470000D01*
X80542000Y-35430000D02*
X78818000Y-35430000D01*
X80742000Y-35390000D02*
X78618000Y-35390000D01*
X80910000Y-35350000D02*
X78450000Y-35350000D01*
X81057000Y-35310000D02*
X78303000Y-35310000D01*
X81189000Y-35270000D02*
X78171000Y-35270000D01*
X81310000Y-35230000D02*
X78050000Y-35230000D01*
X81422000Y-35190000D02*
X77938000Y-35190000D01*
X81526000Y-35150000D02*
X77834000Y-35150000D01*
X81624000Y-35110000D02*
X77736000Y-35110000D01*
X81717000Y-35070000D02*
X77643000Y-35070000D01*
X81804000Y-35030000D02*
X77556000Y-35030000D01*
X81888000Y-34990000D02*
X77472000Y-34990000D01*
X81968000Y-34950000D02*
X77392000Y-34950000D01*
X82045000Y-34910000D02*
X77315000Y-34910000D01*
X82119000Y-34870000D02*
X77241000Y-34870000D01*
X82190000Y-34830000D02*
X77170000Y-34830000D01*
X82258000Y-34790000D02*
X77102000Y-34790000D01*
X82324000Y-34750000D02*
X77036000Y-34750000D01*
X82388000Y-34710000D02*
X76972000Y-34710000D01*
X82450000Y-34670000D02*
X76910000Y-34670000D01*
X82510000Y-34630000D02*
X76850000Y-34630000D01*
X82555000Y-24910354D02*
X82555000Y-25910354D01*
X82568000Y-34590000D02*
X76792000Y-34590000D01*
X82625000Y-34550000D02*
X76735000Y-34550000D01*
X82680000Y-34510000D02*
X76680000Y-34510000D01*
X82733000Y-34470000D02*
X76627000Y-34470000D01*
X82785000Y-34430000D02*
X76575000Y-34430000D01*
X82836000Y-34390000D02*
X76524000Y-34390000D01*
X82885000Y-34350000D02*
X76475000Y-34350000D01*
X82934000Y-34310000D02*
X76426000Y-34310000D01*
X82981000Y-34270000D02*
X76379000Y-34270000D01*
X83027000Y-34230000D02*
X76333000Y-34230000D01*
X83055000Y-25410354D02*
X82055000Y-25410354D01*
X83071000Y-34190000D02*
X76289000Y-34190000D01*
X83115000Y-34150000D02*
X76245000Y-34150000D01*
X83158000Y-34110000D02*
X80920000Y-34110000D01*
X83200000Y-34070000D02*
X80920000Y-34070000D01*
X83241000Y-34030000D02*
X80920000Y-34030000D01*
X83281000Y-33990000D02*
X80920000Y-33990000D01*
X83320000Y-33950000D02*
X80920000Y-33950000D01*
X83358000Y-33910000D02*
X80920000Y-33910000D01*
X83396000Y-33870000D02*
X80920000Y-33870000D01*
X83432000Y-33830000D02*
X80920000Y-33830000D01*
X83468000Y-33790000D02*
X80920000Y-33790000D01*
X83503000Y-33750000D02*
X80920000Y-33750000D01*
X83538000Y-33710000D02*
X80920000Y-33710000D01*
X83571000Y-33670000D02*
X80920000Y-33670000D01*
X83604000Y-33630000D02*
X80920000Y-33630000D01*
X83637000Y-33590000D02*
X80920000Y-33590000D01*
X83668000Y-33550000D02*
X80920000Y-33550000D01*
X83700000Y-33510000D02*
X80920000Y-33510000D01*
X83730000Y-33470000D02*
X80920000Y-33470000D01*
X83760000Y-33430000D02*
X80920000Y-33430000D01*
X83789000Y-33390000D02*
X80920000Y-33390000D01*
X83818000Y-33350000D02*
X80920000Y-33350000D01*
X83846000Y-33310000D02*
X80920000Y-33310000D01*
X83873000Y-33270000D02*
X80920000Y-33270000D01*
X83900000Y-33230000D02*
X80920000Y-33230000D01*
X83927000Y-33190000D02*
X80920000Y-33190000D01*
X83952000Y-33150000D02*
X80920000Y-33150000D01*
X83978000Y-33110000D02*
X80920000Y-33110000D01*
X84003000Y-33070000D02*
X80920000Y-33070000D01*
X84027000Y-33030000D02*
X80920000Y-33030000D01*
X84051000Y-32990000D02*
X80920000Y-32990000D01*
X84074000Y-32950000D02*
X80920000Y-32950000D01*
X84097000Y-32910000D02*
X80920000Y-32910000D01*
X84119000Y-32870000D02*
X80920000Y-32870000D01*
X84141000Y-32830000D02*
X80920000Y-32830000D01*
X84163000Y-32790000D02*
X80920000Y-32790000D01*
X84184000Y-32750000D02*
X80920000Y-32750000D01*
X84204000Y-32710000D02*
X80920000Y-32710000D01*
X84224000Y-32670000D02*
X80920000Y-32670000D01*
X84244000Y-32630000D02*
X80920000Y-32630000D01*
X84263000Y-32590000D02*
X80920000Y-32590000D01*
X84282000Y-32550000D02*
X80920000Y-32550000D01*
X84300000Y-32510000D02*
X80920000Y-32510000D01*
X84318000Y-32470000D02*
X80920000Y-32470000D01*
X84336000Y-32430000D02*
X80920000Y-32430000D01*
X84353000Y-32390000D02*
X80920000Y-32390000D01*
X84370000Y-32350000D02*
X80920000Y-32350000D01*
X84386000Y-32310000D02*
X80920000Y-32310000D01*
X84402000Y-32270000D02*
X80920000Y-32270000D01*
X84418000Y-32230000D02*
X80920000Y-32230000D01*
X84433000Y-32190000D02*
X80920000Y-32190000D01*
X84448000Y-32150000D02*
X80920000Y-32150000D01*
X84462000Y-32110000D02*
X80920000Y-32110000D01*
X84477000Y-32070000D02*
X80920000Y-32070000D01*
X84490000Y-32030000D02*
X80920000Y-32030000D01*
X84504000Y-31990000D02*
X80920000Y-31990000D01*
X84517000Y-31950000D02*
X80920000Y-31950000D01*
X84529000Y-31910000D02*
X80920000Y-31910000D01*
X84541000Y-31870000D02*
X80920000Y-31870000D01*
X84553000Y-31830000D02*
X80920000Y-31830000D01*
X84565000Y-31790000D02*
X80920000Y-31790000D01*
X84576000Y-31750000D02*
X80920000Y-31750000D01*
X84587000Y-31710000D02*
X80920000Y-31710000D01*
X84597000Y-31670000D02*
X80920000Y-31670000D01*
X84608000Y-31630000D02*
X74752000Y-31630000D01*
X84617000Y-31590000D02*
X74743000Y-31590000D01*
X84627000Y-31550000D02*
X74733000Y-31550000D01*
X84636000Y-31510000D02*
X74724000Y-31510000D01*
X84645000Y-31470000D02*
X74715000Y-31470000D01*
X84653000Y-31430000D02*
X74707000Y-31430000D01*
X84661000Y-31390000D02*
X74699000Y-31390000D01*
X84669000Y-31350000D02*
X74691000Y-31350000D01*
X84677000Y-31310000D02*
X74683000Y-31310000D01*
X84684000Y-31270000D02*
X74676000Y-31270000D01*
X84691000Y-31230000D02*
X74669000Y-31230000D01*
X84697000Y-31190000D02*
X74663000Y-31190000D01*
X84703000Y-31150000D02*
X74657000Y-31150000D01*
X84709000Y-31110000D02*
X74651000Y-31110000D01*
X84715000Y-31070000D02*
X74645000Y-31070000D01*
X84720000Y-31030000D02*
X74640000Y-31030000D01*
X84725000Y-30990000D02*
X74635000Y-30990000D01*
X84729000Y-30950000D02*
X74631000Y-30950000D01*
X84734000Y-30910000D02*
X74626000Y-30910000D01*
X84737000Y-30870000D02*
X74623000Y-30870000D01*
X84741000Y-30830000D02*
X74619000Y-30830000D01*
X84744000Y-30790000D02*
X74616000Y-30790000D01*
X84747000Y-30750000D02*
X74613000Y-30750000D01*
X84750000Y-30710000D02*
X74610000Y-30710000D01*
X84752000Y-30670000D02*
X74608000Y-30670000D01*
X84754000Y-30630000D02*
X74606000Y-30630000D01*
X84756000Y-30590000D02*
X74604000Y-30590000D01*
X84757000Y-30550000D02*
X74603000Y-30550000D01*
X84759000Y-30470000D02*
X74601000Y-30470000D01*
X84759000Y-30510000D02*
X74601000Y-30510000D01*
X84760000Y-30390000D02*
X74600000Y-30390000D01*
X84760000Y-30430000D02*
X74600000Y-30430000D01*
X84800000Y-30390000D02*
G75*
G02*
X74560000Y-30390000I-5120000J0D01*
G01*
X74560000Y-30390000D02*
G75*
G02*
X84800000Y-30390000I5120000J0D01*
G01*
%TO.C,RGB2*%
X22790000Y-61390000D02*
X23790000Y-61390000D01*
X23290000Y-62200000D02*
X22790000Y-62200000D01*
X23290000Y-63410000D02*
X23290000Y-62200000D01*
X23790000Y-61390000D02*
X23790000Y-59890000D01*
X34510000Y-61390000D02*
X34510000Y-59890000D01*
X35010000Y-62200000D02*
X35010000Y-63410000D01*
X35010000Y-63410000D02*
X23290000Y-63410000D01*
X35510000Y-61390000D02*
X34510000Y-61390000D01*
X35510000Y-62200000D02*
X35010000Y-62200000D01*
X35810000Y-59590000D02*
X33310000Y-59590000D01*
X35810000Y-62090000D02*
X35810000Y-59590000D01*
X22790000Y-59890000D02*
X35510000Y-59890000D01*
X35510000Y-63910000D01*
X22790000Y-63910000D01*
X22790000Y-59890000D01*
%TO.C,UltraSonic1*%
X8790000Y-55090000D02*
X9790000Y-55090000D01*
X9290000Y-55900000D02*
X8790000Y-55900000D01*
X9290000Y-57110000D02*
X9290000Y-55900000D01*
X9790000Y-55090000D02*
X9790000Y-53590000D01*
X20510000Y-55090000D02*
X20510000Y-53590000D01*
X21010000Y-55900000D02*
X21010000Y-57110000D01*
X21010000Y-57110000D02*
X9290000Y-57110000D01*
X21510000Y-55090000D02*
X20510000Y-55090000D01*
X21510000Y-55900000D02*
X21010000Y-55900000D01*
X21810000Y-53290000D02*
X19310000Y-53290000D01*
X21810000Y-55790000D02*
X21810000Y-53290000D01*
X8790000Y-53590000D02*
X21510000Y-53590000D01*
X21510000Y-57610000D01*
X8790000Y-57610000D01*
X8790000Y-53590000D01*
%TD*%
D14*
%TO.C,U1*%
X7350000Y-42590000D03*
X31860000Y-42590000D03*
%TD*%
M02*
